<svg width="1440" height="100" viewBox="0 0 1440 100" fill="none" xmlns="http://www.w3.org/2000/svg">
<path d="M-301.889 11.4277C-289.174 11.4277 -279.33 14.665 -272.357 21.1396C-265.385 27.6143 -261.898 36.7402 -261.898 48.5176V62.1846C-261.898 74.0791 -265.37 83.3076 -272.313 89.8701C-279.228 96.4326 -289.115 99.7139 -301.977 99.7139C-314.75 99.7139 -324.55 96.4326 -331.376 89.8701C-338.173 83.2783 -341.571 74.0498 -341.571 62.1846V48.5176C-341.571 36.7695 -338.158 27.6582 -331.332 21.1836C-324.477 14.6797 -314.662 11.4277 -301.889 11.4277ZM-295.648 68.3809V42.9365C-295.648 40.5928 -296.176 38.7764 -297.23 37.4873C-298.285 36.1982 -299.779 35.5537 -301.713 35.5537C-303.617 35.5537 -305.126 36.2129 -306.239 37.5312C-307.353 38.8496 -307.909 40.6514 -307.909 42.9365V68.3809C-307.909 70.6074 -307.367 72.3945 -306.283 73.7422C-305.199 75.0898 -303.734 75.7637 -301.889 75.7637C-299.896 75.7637 -298.358 75.1045 -297.274 73.7861C-296.19 72.4678 -295.648 70.666 -295.648 68.3809ZM-206.308 46.7158L-207.582 32.0381V12.9658H-176.073V98H-206.615L-221.073 60.3828H-222.26L-221.073 72.9951V98H-252.582V12.9658H-220.897L-207.582 46.7158H-206.308ZM-123.471 0.529297H-109.979L-125.272 8.79102H-132.831L-123.471 0.529297ZM-127.074 11.4277C-114.359 11.4277 -104.516 14.665 -97.543 21.1396C-90.5703 27.6143 -87.084 36.7402 -87.084 48.5176V62.1846C-87.084 74.0791 -90.5557 83.3076 -97.499 89.8701C-104.413 96.4326 -114.301 99.7139 -127.162 99.7139C-139.936 99.7139 -149.735 96.4326 -156.562 89.8701C-163.358 83.2783 -166.757 74.0498 -166.757 62.1846V48.5176C-166.757 36.7695 -163.344 27.6582 -156.518 21.1836C-149.662 14.6797 -139.848 11.4277 -127.074 11.4277ZM-120.834 68.3809V42.9365C-120.834 40.5928 -121.361 38.7764 -122.416 37.4873C-123.471 36.1982 -124.965 35.5537 -126.898 35.5537C-128.803 35.5537 -130.312 36.2129 -131.425 37.5312C-132.538 38.8496 -133.095 40.6514 -133.095 42.9365V68.3809C-133.095 70.6074 -132.553 72.3945 -131.469 73.7422C-130.385 75.0898 -128.92 75.7637 -127.074 75.7637C-125.082 75.7637 -123.544 75.1045 -122.46 73.7861C-121.376 72.4678 -120.834 70.666 -120.834 68.3809ZM-0.819336 60.2949V67.4141C-0.819336 77.6094 -4.29102 85.5488 -11.2344 91.2324C-18.1484 96.8867 -27.5234 99.7139 -39.3594 99.7139C-52.3086 99.7139 -62.167 96.4473 -68.9346 89.9141C-75.6729 83.3516 -79.042 74.1084 -79.042 62.1846V48.5176C-79.042 36.7109 -75.6582 27.585 -68.8906 21.1396C-62.0938 14.665 -52.25 11.4277 -39.3594 11.4277C-27.5527 11.4277 -18.1777 14.2842 -11.2344 19.9971C-4.29102 25.6807 -0.819336 33.5908 -0.819336 43.7275V50.583H-33.4268V42.9365C-33.4268 40.6514 -33.9541 38.835 -35.0088 37.4873C-36.0342 36.1396 -37.4551 35.4658 -39.2715 35.4658C-41.1172 35.4658 -42.5967 36.1396 -43.71 37.4873C-44.8232 38.835 -45.3799 40.6221 -45.3799 42.8486V68.3809C-45.3799 70.6074 -44.8232 72.3799 -43.71 73.6982C-42.5967 75.0166 -41.1172 75.6758 -39.2715 75.6758C-37.4844 75.6758 -36.0635 75.002 -35.0088 73.6543C-33.9541 72.3066 -33.4268 70.4902 -33.4268 68.2051V60.2949H-0.819336ZM40.5771 74.8848H69.7568V98H8.27734V12.9658H69.5811V36.0811H40.5771V46.6279H67.9551V63.5469H40.5771V74.8848ZM125.128 46.7158L123.854 32.0381V12.9658H155.362V98H124.82L110.362 60.3828H109.176L110.362 72.9951V98H78.8535V12.9658H110.538L123.854 46.7158H125.128ZM204.361 11.4277C217.076 11.4277 226.92 14.665 233.893 21.1396C240.865 27.6143 244.352 36.7402 244.352 48.5176V62.1846C244.352 74.0791 240.88 83.3076 233.937 89.8701C227.022 96.4326 217.135 99.7139 204.273 99.7139C191.5 99.7139 181.7 96.4326 174.874 89.8701C168.077 83.2783 164.679 74.0498 164.679 62.1846V48.5176C164.679 36.7695 168.092 27.6582 174.918 21.1836C181.773 14.6797 191.588 11.4277 204.361 11.4277ZM210.602 68.3809V42.9365C210.602 40.5928 210.074 38.7764 209.02 37.4873C207.965 36.1982 206.471 35.5537 204.537 35.5537C202.633 35.5537 201.124 36.2129 200.011 37.5312C198.897 38.8496 198.341 40.6514 198.341 42.9365V68.3809C198.341 70.6074 198.883 72.3945 199.967 73.7422C201.051 75.0898 202.516 75.7637 204.361 75.7637C206.354 75.7637 207.892 75.1045 208.976 73.7861C210.06 72.4678 210.602 70.666 210.602 68.3809ZM330.177 38.0586H297.745V37.6191C297.745 35.7734 297.203 34.3379 296.119 33.3125C295.064 32.2871 293.541 31.7744 291.549 31.7744C289.703 31.7744 288.238 32.2578 287.154 33.2246C286.07 34.1621 285.528 35.3193 285.528 36.6963V36.7842C285.528 38.2783 285.982 39.3916 286.891 40.124C287.828 40.8564 289.439 41.457 291.725 41.9258L305.392 43.9033C314.327 45.1631 320.992 47.6387 325.387 51.3301C329.781 55.0215 331.979 60.9248 331.979 69.04V69.6553C331.979 78.8838 328.492 86.1934 321.52 91.584C314.547 96.9453 304.732 99.626 292.076 99.626C279.83 99.626 270.206 97.2822 263.204 92.5947C256.231 87.9072 252.745 81.4619 252.745 73.2588V70.8418H285.88V71.6328C285.88 73.4785 286.422 75.0166 287.506 76.2471C288.59 77.4775 290.113 78.0928 292.076 78.0928C293.863 78.0928 295.313 77.5361 296.427 76.4229C297.569 75.2803 298.141 73.8887 298.141 72.248V71.8965C298.141 68.8496 296.119 66.8721 292.076 65.9639L279.771 64.25C269.928 63.166 262.911 60.6758 258.722 56.7793C254.562 52.8828 252.481 47.126 252.481 39.5088V38.9814C252.481 30.3389 255.777 23.5859 262.369 18.7227C268.99 13.8594 278.717 11.4277 291.549 11.4277C303.854 11.4277 313.36 13.6396 320.069 18.0635C326.808 22.458 330.177 28.4639 330.177 36.0811V38.0586ZM1184.12 60.2949V67.4141C1184.12 77.6094 1180.65 85.5488 1173.71 91.2324C1166.79 96.8867 1157.42 99.7139 1145.58 99.7139C1132.63 99.7139 1122.77 96.4473 1116.01 89.9141C1109.27 83.3516 1105.9 74.1084 1105.9 62.1846V48.5176C1105.9 36.7109 1109.28 27.585 1116.05 21.1396C1122.85 14.665 1132.69 11.4277 1145.58 11.4277C1157.39 11.4277 1166.76 14.2842 1173.71 19.9971C1180.65 25.6807 1184.12 33.5908 1184.12 43.7275V50.583H1151.51V42.9365C1151.51 40.6514 1150.99 38.835 1149.93 37.4873C1148.91 36.1396 1147.49 35.4658 1145.67 35.4658C1143.82 35.4658 1142.34 36.1396 1141.23 37.4873C1140.12 38.835 1139.56 40.6221 1139.56 42.8486V68.3809C1139.56 70.6074 1140.12 72.3799 1141.23 73.6982C1142.34 75.0166 1143.82 75.6758 1145.67 75.6758C1147.46 75.6758 1148.88 75.002 1149.93 73.6543C1150.99 72.3066 1151.51 70.4902 1151.51 68.2051V60.2949H1184.12ZM1231.63 11.4277C1244.34 11.4277 1254.19 14.665 1261.16 21.1396C1268.13 27.6143 1271.62 36.7402 1271.62 48.5176V62.1846C1271.62 74.0791 1268.15 83.3076 1261.2 89.8701C1254.29 96.4326 1244.4 99.7139 1231.54 99.7139C1218.77 99.7139 1208.97 96.4326 1202.14 89.8701C1195.34 83.2783 1191.94 74.0498 1191.94 62.1846V48.5176C1191.94 36.7695 1195.36 27.6582 1202.18 21.1836C1209.04 14.6797 1218.85 11.4277 1231.63 11.4277ZM1237.87 68.3809V42.9365C1237.87 40.5928 1237.34 38.7764 1236.29 37.4873C1235.23 36.1982 1233.74 35.5537 1231.8 35.5537C1229.9 35.5537 1228.39 36.2129 1227.28 37.5312C1226.16 38.8496 1225.61 40.6514 1225.61 42.9365V68.3809C1225.61 70.6074 1226.15 72.3945 1227.23 73.7422C1228.32 75.0898 1229.78 75.7637 1231.63 75.7637C1233.62 75.7637 1235.16 75.1045 1236.24 73.7861C1237.33 72.4678 1237.87 70.666 1237.87 68.3809ZM1327.21 46.7158L1325.93 32.0381V12.9658H1357.44V98H1326.9L1312.44 60.3828H1311.26L1312.44 72.9951V98H1280.93V12.9658H1312.62L1325.93 46.7158H1327.21ZM1410.04 0.529297H1423.54L1408.24 8.79102H1400.68L1410.04 0.529297ZM1406.44 11.4277C1419.16 11.4277 1429 14.665 1435.97 21.1396C1442.95 27.6143 1446.43 36.7402 1446.43 48.5176V62.1846C1446.43 74.0791 1442.96 83.3076 1436.02 89.8701C1429.1 96.4326 1419.21 99.7139 1406.35 99.7139C1393.58 99.7139 1383.78 96.4326 1376.95 89.8701C1370.16 83.2783 1366.76 74.0498 1366.76 62.1846V48.5176C1366.76 36.7695 1370.17 27.6582 1377 21.1836C1383.85 14.6797 1393.67 11.4277 1406.44 11.4277ZM1412.68 68.3809V42.9365C1412.68 40.5928 1412.15 38.7764 1411.1 37.4873C1410.04 36.1982 1408.55 35.5537 1406.62 35.5537C1404.71 35.5537 1403.2 36.2129 1402.09 37.5312C1400.98 38.8496 1400.42 40.6514 1400.42 42.9365V68.3809C1400.42 70.6074 1400.96 72.3945 1402.05 73.7422C1403.13 75.0898 1404.6 75.7637 1406.44 75.7637C1408.43 75.7637 1409.97 75.1045 1411.06 73.7861C1412.14 72.4678 1412.68 70.666 1412.68 68.3809ZM1532.7 60.2949V67.4141C1532.7 77.6094 1529.22 85.5488 1522.28 91.2324C1515.37 96.8867 1505.99 99.7139 1494.16 99.7139C1481.21 99.7139 1471.35 96.4473 1464.58 89.9141C1457.84 83.3516 1454.47 74.1084 1454.47 62.1846V48.5176C1454.47 36.7109 1457.86 27.585 1464.62 21.1396C1471.42 14.665 1481.27 11.4277 1494.16 11.4277C1505.96 11.4277 1515.34 14.2842 1522.28 19.9971C1529.22 25.6807 1532.7 33.5908 1532.7 43.7275V50.583H1500.09V42.9365C1500.09 40.6514 1499.56 38.835 1498.51 37.4873C1497.48 36.1396 1496.06 35.4658 1494.24 35.4658C1492.4 35.4658 1490.92 36.1396 1489.81 37.4873C1488.69 38.835 1488.14 40.6221 1488.14 42.8486V68.3809C1488.14 70.6074 1488.69 72.3799 1489.81 73.6982C1490.92 75.0166 1492.4 75.6758 1494.24 75.6758C1496.03 75.6758 1497.45 75.002 1498.51 73.6543C1499.56 72.3066 1500.09 70.4902 1500.09 68.2051V60.2949H1532.7ZM1574.09 74.8848H1603.27V98H1541.79V12.9658H1603.1V36.0811H1574.09V46.6279H1601.47V63.5469H1574.09V74.8848ZM1658.64 46.7158L1657.37 32.0381V12.9658H1688.88V98H1658.34L1643.88 60.3828H1642.69L1643.88 72.9951V98H1612.37V12.9658H1644.05L1657.37 46.7158H1658.64ZM1737.88 11.4277C1750.59 11.4277 1760.44 14.665 1767.41 21.1396C1774.38 27.6143 1777.87 36.7402 1777.87 48.5176V62.1846C1777.87 74.0791 1774.4 83.3076 1767.45 89.8701C1760.54 96.4326 1750.65 99.7139 1737.79 99.7139C1725.02 99.7139 1715.22 96.4326 1708.39 89.8701C1701.59 83.2783 1698.19 74.0498 1698.19 62.1846V48.5176C1698.19 36.7695 1701.61 27.6582 1708.43 21.1836C1715.29 14.6797 1725.1 11.4277 1737.88 11.4277ZM1744.12 68.3809V42.9365C1744.12 40.5928 1743.59 38.7764 1742.54 37.4873C1741.48 36.1982 1739.99 35.5537 1738.05 35.5537C1736.15 35.5537 1734.64 36.2129 1733.53 37.5312C1732.41 38.8496 1731.86 40.6514 1731.86 42.9365V68.3809C1731.86 70.6074 1732.4 72.3945 1733.48 73.7422C1734.57 75.0898 1736.03 75.7637 1737.88 75.7637C1739.87 75.7637 1741.41 75.1045 1742.49 73.7861C1743.58 72.4678 1744.12 70.666 1744.12 68.3809ZM1863.69 38.0586H1831.26V37.6191C1831.26 35.7734 1830.72 34.3379 1829.63 33.3125C1828.58 32.2871 1827.06 31.7744 1825.06 31.7744C1823.22 31.7744 1821.75 32.2578 1820.67 33.2246C1819.59 34.1621 1819.04 35.3193 1819.04 36.6963V36.7842C1819.04 38.2783 1819.5 39.3916 1820.41 40.124C1821.34 40.8564 1822.96 41.457 1825.24 41.9258L1838.91 43.9033C1847.84 45.1631 1854.51 47.6387 1858.9 51.3301C1863.3 55.0215 1865.49 60.9248 1865.49 69.04V69.6553C1865.49 78.8838 1862.01 86.1934 1855.04 91.584C1848.06 96.9453 1838.25 99.626 1825.59 99.626C1813.35 99.626 1803.72 97.2822 1796.72 92.5947C1789.75 87.9072 1786.26 81.4619 1786.26 73.2588V70.8418H1819.4V71.6328C1819.4 73.4785 1819.94 75.0166 1821.02 76.2471C1822.11 77.4775 1823.63 78.0928 1825.59 78.0928C1827.38 78.0928 1828.83 77.5361 1829.94 76.4229C1831.08 75.2803 1831.66 73.8887 1831.66 72.248V71.8965C1831.66 68.8496 1829.63 66.8721 1825.59 65.9639L1813.29 64.25C1803.44 63.166 1796.43 60.6758 1792.24 56.7793C1788.08 52.8828 1786 47.126 1786 39.5088V38.9814C1786 30.3389 1789.29 23.5859 1795.88 18.7227C1802.51 13.8594 1812.23 11.4277 1825.06 11.4277C1837.37 11.4277 1846.88 13.6396 1853.58 18.0635C1860.32 22.458 1863.69 28.4639 1863.69 36.0811V38.0586Z" fill="#191816"/>
<path d="M417.364 60.2949V67.4141C417.364 77.6094 413.893 85.5488 406.949 91.2324C400.035 96.8867 390.66 99.7139 378.824 99.7139C365.875 99.7139 356.017 96.4473 349.249 89.9141C342.511 83.3516 339.142 74.1084 339.142 62.1846V48.5176C339.142 36.7109 342.525 27.585 349.293 21.1396C356.09 14.665 365.934 11.4277 378.824 11.4277C390.631 11.4277 400.006 14.2842 406.949 19.9971C413.893 25.6807 417.364 33.5908 417.364 43.7275V50.583H384.757V42.9365C384.757 40.6514 384.229 38.835 383.175 37.4873C382.149 36.1396 380.729 35.4658 378.912 35.4658C377.066 35.4658 375.587 36.1396 374.474 37.4873C373.36 38.835 372.804 40.6221 372.804 42.8486V68.3809C372.804 70.6074 373.36 72.3799 374.474 73.6982C375.587 75.0166 377.066 75.6758 378.912 75.6758C380.699 75.6758 382.12 75.002 383.175 73.6543C384.229 72.3066 384.757 70.4902 384.757 68.2051V60.2949H417.364ZM468.473 0.529297H481.964L466.671 8.79102H459.112L468.473 0.529297ZM464.869 11.4277C477.584 11.4277 487.428 14.665 494.4 21.1396C501.373 27.6143 504.859 36.7402 504.859 48.5176V62.1846C504.859 74.0791 501.388 83.3076 494.444 89.8701C487.53 96.4326 477.643 99.7139 464.781 99.7139C452.008 99.7139 442.208 96.4326 435.382 89.8701C428.585 83.2783 425.187 74.0498 425.187 62.1846V48.5176C425.187 36.7695 428.6 27.6582 435.426 21.1836C442.281 14.6797 452.096 11.4277 464.869 11.4277ZM471.109 68.3809V42.9365C471.109 40.5928 470.582 38.7764 469.527 37.4873C468.473 36.1982 466.979 35.5537 465.045 35.5537C463.141 35.5537 461.632 36.2129 460.519 37.5312C459.405 38.8496 458.849 40.6514 458.849 42.9365V68.3809C458.849 70.6074 459.391 72.3945 460.475 73.7422C461.559 75.0898 463.023 75.7637 464.869 75.7637C466.861 75.7637 468.399 75.1045 469.483 73.7861C470.567 72.4678 471.109 70.666 471.109 68.3809ZM560.45 46.7158L559.176 32.0381V12.9658H590.685V98H560.143L545.685 60.3828H544.498L545.685 72.9951V98H514.176V12.9658H545.86L559.176 46.7158H560.45ZM639.684 11.4277C652.398 11.4277 662.242 14.665 669.215 21.1396C676.188 27.6143 679.674 36.7402 679.674 48.5176V62.1846C679.674 74.0791 676.202 83.3076 669.259 89.8701C662.345 96.4326 652.457 99.7139 639.596 99.7139C626.822 99.7139 617.022 96.4326 610.196 89.8701C603.399 83.2783 600.001 74.0498 600.001 62.1846V48.5176C600.001 36.7695 603.414 27.6582 610.24 21.1836C617.096 14.6797 626.91 11.4277 639.684 11.4277ZM645.924 68.3809V42.9365C645.924 40.5928 645.396 38.7764 644.342 37.4873C643.287 36.1982 641.793 35.5537 639.859 35.5537C637.955 35.5537 636.446 36.2129 635.333 37.5312C634.22 38.8496 633.663 40.6514 633.663 42.9365V68.3809C633.663 70.6074 634.205 72.3945 635.289 73.7422C636.373 75.0898 637.838 75.7637 639.684 75.7637C641.676 75.7637 643.214 75.1045 644.298 73.7861C645.382 72.4678 645.924 70.666 645.924 68.3809ZM765.938 60.2949V67.4141C765.938 77.6094 762.467 85.5488 755.523 91.2324C748.609 96.8867 739.234 99.7139 727.398 99.7139C714.449 99.7139 704.591 96.4473 697.823 89.9141C691.085 83.3516 687.716 74.1084 687.716 62.1846V48.5176C687.716 36.7109 691.1 27.585 697.867 21.1396C704.664 14.665 714.508 11.4277 727.398 11.4277C739.205 11.4277 748.58 14.2842 755.523 19.9971C762.467 25.6807 765.938 33.5908 765.938 43.7275V50.583H733.331V42.9365C733.331 40.6514 732.804 38.835 731.749 37.4873C730.724 36.1396 729.303 35.4658 727.486 35.4658C725.641 35.4658 724.161 36.1396 723.048 37.4873C721.935 38.835 721.378 40.6221 721.378 42.8486V68.3809C721.378 70.6074 721.935 72.3799 723.048 73.6982C724.161 75.0166 725.641 75.6758 727.486 75.6758C729.273 75.6758 730.694 75.002 731.749 73.6543C732.804 72.3066 733.331 70.4902 733.331 68.2051V60.2949H765.938ZM807.335 74.8848H836.515V98H775.035V12.9658H836.339V36.0811H807.335V46.6279H834.713V63.5469H807.335V74.8848ZM891.886 46.7158L890.611 32.0381V12.9658H922.12V98H891.578L877.12 60.3828H875.934L877.12 72.9951V98H845.611V12.9658H877.296L890.611 46.7158H891.886ZM971.119 11.4277C983.834 11.4277 993.678 14.665 1000.65 21.1396C1007.62 27.6143 1011.11 36.7402 1011.11 48.5176V62.1846C1011.11 74.0791 1007.64 83.3076 1000.69 89.8701C993.78 96.4326 983.893 99.7139 971.031 99.7139C958.258 99.7139 948.458 96.4326 941.632 89.8701C934.835 83.2783 931.437 74.0498 931.437 62.1846V48.5176C931.437 36.7695 934.85 27.6582 941.676 21.1836C948.531 14.6797 958.346 11.4277 971.119 11.4277ZM977.359 68.3809V42.9365C977.359 40.5928 976.832 38.7764 975.777 37.4873C974.723 36.1982 973.229 35.5537 971.295 35.5537C969.391 35.5537 967.882 36.2129 966.769 37.5312C965.655 38.8496 965.099 40.6514 965.099 42.9365V68.3809C965.099 70.6074 965.641 72.3945 966.725 73.7422C967.809 75.0898 969.273 75.7637 971.119 75.7637C973.111 75.7637 974.649 75.1045 975.733 73.7861C976.817 72.4678 977.359 70.666 977.359 68.3809ZM1096.93 38.0586H1064.5V37.6191C1064.5 35.7734 1063.96 34.3379 1062.88 33.3125C1061.82 32.2871 1060.3 31.7744 1058.31 31.7744C1056.46 31.7744 1055 32.2578 1053.91 33.2246C1052.83 34.1621 1052.29 35.3193 1052.29 36.6963V36.7842C1052.29 38.2783 1052.74 39.3916 1053.65 40.124C1054.59 40.8564 1056.2 41.457 1058.48 41.9258L1072.15 43.9033C1081.08 45.1631 1087.75 47.6387 1092.14 51.3301C1096.54 55.0215 1098.74 60.9248 1098.74 69.04V69.6553C1098.74 78.8838 1095.25 86.1934 1088.28 91.584C1081.3 96.9453 1071.49 99.626 1058.83 99.626C1046.59 99.626 1036.96 97.2822 1029.96 92.5947C1022.99 87.9072 1019.5 81.4619 1019.5 73.2588V70.8418H1052.64V71.6328C1052.64 73.4785 1053.18 75.0166 1054.26 76.2471C1055.35 77.4775 1056.87 78.0928 1058.83 78.0928C1060.62 78.0928 1062.07 77.5361 1063.18 76.4229C1064.33 75.2803 1064.9 73.8887 1064.9 72.248V71.8965C1064.9 68.8496 1062.88 66.8721 1058.83 65.9639L1046.53 64.25C1036.69 63.166 1029.67 60.6758 1025.48 56.7793C1021.32 52.8828 1019.24 47.126 1019.24 39.5088V38.9814C1019.24 30.3389 1022.54 23.5859 1029.13 18.7227C1035.75 13.8594 1045.47 11.4277 1058.31 11.4277C1070.61 11.4277 1080.12 13.6396 1086.83 18.0635C1093.57 22.458 1096.93 28.4639 1096.93 36.0811V38.0586Z" fill="#F9F2E1"/>
</svg>
