<svg width="6" height="6" viewBox="0 0 6 6" fill="none" xmlns="http://www.w3.org/2000/svg">
<path d="M2.94421 0H3.06735C3.10505 0 3.18296 0.00754942 3.30234 0.0226501H3.43679C4.08645 0.0226501 4.67077 0.325926 5.18974 0.931211C5.70872 1.5365 5.96758 2.23364 5.96758 3.02265C5.96758 3.81166 5.68359 4.50503 5.11686 5.10277C4.54888 5.7005 3.85147 6 3.02337 6C2.19527 6 1.50289 5.71434 0.946217 5.14178C0.389545 4.57047 0.0741392 3.88843 0 3.09564C0.0741392 2.90185 0.168385 2.57089 0.280222 2.10277C0.39206 1.63591 0.593115 1.24077 0.884645 0.919882H0.873336C1.4099 0.307047 2.10103 0 2.94421 0Z" fill="#009167"/>
</svg>
