<svg width="55" height="19" viewBox="0 0 55 19" fill="none" xmlns="http://www.w3.org/2000/svg">
<path d="M9.0575 13.6953C8.6825 15.4349 7.45594 16.3047 5.37781 16.3047C4.03406 16.2943 2.93771 15.7865 2.08875 14.7812C1.23979 13.7708 0.815312 12.3411 0.815312 10.4922V7.58594C0.815312 5.3151 1.41948 3.58594 2.62781 2.39844C3.84135 1.20573 5.59917 0.609375 7.90125 0.609375C10.1825 0.609375 11.9012 1.08594 13.0575 2.03906C14.219 2.99219 14.7997 4.27604 14.7997 5.89062V6.42969H8.90906V6.09375C8.90906 5.28125 8.56271 4.8776 7.87 4.88281C7.55229 4.88281 7.28927 5.0026 7.08094 5.24219C6.8726 5.48177 6.76844 5.79948 6.76844 6.19531V10.5625C6.76844 11.4479 7.13562 11.8906 7.87 11.8906C8.19812 11.8906 8.46896 11.7786 8.6825 11.5547C8.90125 11.3307 9.01062 11.0469 9.01062 10.7031V10.1406H7.95594V7.57031H14.7997V16H9.51844L9.31531 13.6953H9.0575ZM23.0831 0.609375C25.3435 0.609375 27.0935 1.1849 28.3331 2.33594C29.5727 3.48698 30.1925 5.10938 30.1925 7.20312V9.63281C30.1925 11.7474 29.5753 13.388 28.3409 14.5547C27.1118 15.7214 25.354 16.3047 23.0675 16.3047C20.7967 16.3047 19.0545 15.7214 17.8409 14.5547C16.6326 13.3828 16.0284 11.7422 16.0284 9.63281V7.20312C16.0284 5.11458 16.6352 3.49479 17.8488 2.34375C19.0675 1.1875 20.8123 0.609375 23.0831 0.609375ZM24.1925 10.7344V6.21094C24.1925 5.79427 24.0988 5.47135 23.9113 5.24219C23.7238 5.01302 23.4581 4.89844 23.1144 4.89844C22.7758 4.89844 22.5076 5.01562 22.3097 5.25C22.1118 5.48438 22.0128 5.80469 22.0128 6.21094V10.7344C22.0128 11.1302 22.1092 11.4479 22.3019 11.6875C22.4946 11.9271 22.755 12.0469 23.0831 12.0469C23.4373 12.0469 23.7107 11.9297 23.9034 11.6953C24.0961 11.4609 24.1925 11.1406 24.1925 10.7344Z" fill="#FF810C"/>
<g clip-path="url(#clip0_460:6647)">
<path fill-rule="evenodd" clip-rule="evenodd" d="M45.2321 6.60115L43.4643 4.83339L46.9998 1.29785L48.7676 3.06562L53.4343 7.73229C54.4106 8.7086 54.4106 10.2915 53.4343 11.2678L48.7676 15.9345L46.9998 17.7023L43.4643 14.1667L45.2321 12.399L45.631 12.0001H42.3332H39.8332V7.00005H42.3332H45.631L45.2321 6.60115Z" fill="#FF810C"/>
</g>
<defs>
<clipPath id="clip0_460:6647">
<rect width="16" height="16" fill="white" transform="matrix(-1 0 0 1 55 1.5)"/>
</clipPath>
</defs>
</svg>
