<svg width="263" height="171" viewBox="0 0 263 171" fill="none" xmlns="http://www.w3.org/2000/svg">
<path d="M72.3125 96.7344L72.0781 105.922V106.859C72.0781 107.641 71.7344 108.062 71.0469 108.125L51.7344 107.703C38.2969 107.703 24.25 108.016 9.59375 108.641L8.98438 107.844C8.45312 107.469 8.1875 106.078 8.1875 103.672C8.1875 101.234 8.21875 98.6094 8.28125 95.7969V95.4688C8.34375 92.9062 8.375 90.9531 8.375 89.6094C8.375 89.1094 10.8594 87.2188 15.8281 83.9375L23.9375 78.5469C29.5625 74.6719 33.8438 71.4062 36.7812 68.75C41.9062 64.0938 44.4688 59.9062 44.4688 56.1875C44.4688 54.5625 43.9688 53.2812 42.9688 52.3438C42 51.375 40.75 50.8906 39.2188 50.8906C37.6875 50.8906 36.5 51.2656 35.6562 52.0156C34.8438 52.7344 34.3438 53.5469 34.1562 54.4531C33.5625 57.0781 33.0156 58.5312 32.5156 58.8125C31.5469 58.8438 30.0938 58.8594 28.1562 58.8594H13.9531L11.8438 58.8125H10.0156C8.95312 58.8125 8.34375 58.6719 8.1875 58.3906C8.4375 54.6094 8.85938 51.8281 9.45312 50.0469C10.2656 47.0781 11.7031 44.5 13.7656 42.3125C15.8594 40.0938 18.3438 38.375 21.2188 37.1562C26.8125 34.8438 33.0938 33.6875 40.0625 33.6875C51.0312 33.6875 59.375 36.1562 65.0938 41.0938C69.375 44.7188 71.5156 49.5156 71.5156 55.4844C71.5156 63.0469 68.0938 69.9688 61.25 76.25C57.875 79.3438 53.4062 82.7031 47.8438 86.3281L44.5625 89.2812L67.4375 88.8594C69.3438 88.8594 70.625 89.5156 71.2812 90.8281C71.9688 92.1406 72.3125 94.1094 72.3125 96.7344ZM89.7969 87.7344L102.688 87.9688C102.969 88.1875 103.266 88.8594 103.578 89.9844C104.609 91.6719 105.797 92.7188 107.141 93.125C111.016 93.125 112.953 90.0781 112.953 83.9844C112.953 80.3594 112.484 77.8438 111.547 76.4375C110.641 75.0312 109.109 74.3281 106.953 74.3281C104.797 74.3281 103.453 75.4688 102.922 77.75V77.7969C102.859 78.0156 102.812 78.3125 102.781 78.6875C102.75 79.0312 102.703 79.3438 102.641 79.625C102.578 79.9062 102.266 80.0781 101.703 80.1406C99.4844 80.0469 96.25 80 92 80H81.2188C80.0625 80 79.4844 78.4844 79.4844 75.4531V73.4844L79.5312 72.8281L79.3906 62.5156C79.3281 58.3281 79.2969 55.2344 79.2969 53.2344V44.2344C79.2969 42.5469 79.3281 41.25 79.3906 40.3438V38.6562C79.3906 36.9375 79.6719 35.6562 80.2344 34.8125C81.7656 34.875 83.8906 34.9062 86.6094 34.9062L132.734 35.3281L133.438 35.2812C134.594 35.2812 135.297 35.5 135.547 35.9375V48.0312C135.547 49.7812 135.484 50.9688 135.359 51.5938C135.266 52.1875 134.938 52.4844 134.375 52.4844H133.484C121.953 52.4844 111.688 52.5469 102.688 52.6719C102.438 53.6719 102.312 54.75 102.312 55.9062C102.312 57.0625 102.297 57.7812 102.266 58.0625L101.938 62.5625C101.938 62.6875 101.922 63.0156 101.891 63.5469C101.891 64.0469 101.891 64.3438 101.891 64.4375C106.578 61.3438 111.5 59.7969 116.656 59.7969C123.562 59.7969 129.094 61.9062 133.25 66.125C137.438 70.3438 139.531 75.7656 139.531 82.3906C139.531 86.3594 138.906 89.9375 137.656 93.125C135.406 98.8438 131.344 103.156 125.469 106.062C120.375 108.562 114.25 109.812 107.094 109.812C99.9688 109.812 93.7031 108.469 88.2969 105.781C85.1094 104.219 82.5469 102.203 80.6094 99.7344C78.9219 97.1719 77.6875 93.4062 76.9062 88.4375C77.125 87.9375 78.4531 87.6875 80.8906 87.6875L81.9688 87.7344H89.7969ZM102.969 77.7031L103.766 78.125L102.922 77.7969C102.922 77.7656 102.922 77.75 102.922 77.75C102.953 77.75 102.969 77.7344 102.969 77.7031ZM208.812 68C213.438 64.125 218.297 62.1875 223.391 62.1875C228.484 62.1875 232.906 63.3906 236.656 65.7969H236.609C238.016 66.9219 239.312 68.4219 240.5 70.2969C241.688 72.1719 242.562 73.9531 243.125 75.6406H243.078C243.984 78.3594 244.438 81.6875 244.438 85.625C244.438 93.5625 242.375 99.5938 238.25 103.719C234.125 107.844 228.938 109.906 222.688 109.906C212.312 109.906 205.922 105.25 203.516 95.9375C202.797 93.125 202.438 90.1719 202.438 87.0781C202.438 83.9531 202.906 80.4844 203.844 76.6719C204.781 72.8594 206.438 69.9688 208.812 68ZM143.094 59.9844C143.094 58.7031 143.156 57.8125 143.281 57.3125C144 49.25 145.969 43.4688 149.188 39.9688C154.062 36.125 159.203 34.2031 164.609 34.2031C173.266 34.2031 179.156 37.5 182.281 44.0938C183.938 47.625 184.766 51.2656 184.766 55.0156C184.766 58.7344 184.547 61.7812 184.109 64.1562C183.172 69.3125 181.016 73.5156 177.641 76.7656C174.266 80.0156 169.469 81.6406 163.25 81.6406C154.344 81.6406 148.406 78.1875 145.438 71.2812C143.875 67.6562 143.094 63.8906 143.094 59.9844ZM169.109 111.172L168.875 111.125L167.984 108.734C171.359 102.391 176.531 92.9688 183.5 80.4688C190.5 67.9688 195.703 58.5312 199.109 52.1562L209.375 33.6875C214.25 33.6875 217.438 33.5781 218.938 33.3594L218.047 35.1875C215.203 40.5312 212.531 45.7188 210.031 50.75L205.625 59.4219V59.3281L201.5 67.1094C198.344 72.9531 195.922 77.7188 194.234 81.4062L179.703 110.422C179.391 110.984 178.062 111.266 175.719 111.266C173.375 111.266 171.297 111.234 169.484 111.172H169.109ZM218.938 33.3594L219.5 32.4219L220.25 32.9844C220.094 33.1406 219.656 33.2656 218.938 33.3594ZM229.25 83.0938L229.297 82.0156C229.297 75.3906 227.344 72.0781 223.438 72.0781L223.203 72.125C221.328 72.1875 219.969 73.1562 219.125 75.0312C218 77.5938 217.438 81.3125 217.438 86.1875V87.875C217.562 91.9062 217.828 94.4531 218.234 95.5156C218.641 96.5469 219.062 97.4375 219.5 98.1875C220.312 99.6875 221.703 100.438 223.672 100.438C227.422 100.438 229.297 97.1562 229.297 90.5938V89.2344L229.25 87.7812V83.0938ZM169.766 53.9844C169.766 47.2344 168.047 43.8594 164.609 43.8594C160.828 43.8594 158.719 47.0312 158.281 53.375C158.156 54.9062 158.094 57.1094 158.094 59.9844C158.094 68.2031 160.203 72.3125 164.422 72.3125C167.984 72.3125 169.766 68.8594 169.766 61.9531V60.0312L169.719 59.0469V55.0156L169.766 53.9844Z" fill="#533FB8"/>
<path d="M6.71094 138.482L6.68457 136.839C6.68457 133.974 7.15918 131.961 8.1084 130.801C8.29004 130.555 8.59473 130.285 9.02246 129.992C10.2588 129.143 11.624 128.718 13.1182 128.718C15.7842 128.718 17.7559 129.635 19.0332 131.469C19.8008 132.564 20.1904 133.824 20.2021 135.248L20.2373 135.283V135.503L20.2109 137.841C20.2109 138.901 20.2373 140.229 20.29 141.822C20.0791 141.934 19.8301 141.989 19.543 141.989L19.2266 141.98H17.8555L15.9043 141.963H12.6875C11.9492 141.975 11.3984 141.98 11.0352 141.98H9.59375L9.3916 141.972H6.87793C6.83105 141.972 6.79297 141.652 6.76367 141.014C6.72852 140.375 6.71094 139.865 6.71094 139.484V138.482ZM9.75195 134.756C9.51172 135.09 9.37695 135.459 9.34766 135.863C9.3418 136.004 9.33594 136.197 9.33008 136.443C9.32422 136.684 9.31836 136.859 9.3125 136.971C9.4707 137.076 9.58789 137.146 9.66406 137.182L9.98926 137.34H10.4814C11.4951 137.34 12.8691 137.316 14.6035 137.27L17.1436 137.217C17.3252 137.182 17.4336 137.064 17.4688 136.865C17.457 136.262 17.416 135.796 17.3457 135.468C16.9355 134.313 15.5322 133.736 13.1357 133.736C11.3604 133.736 10.2324 134.076 9.75195 134.756ZM9.11914 127.514L6.80762 127.558C6.80762 127.552 6.81641 127.531 6.83398 127.496C6.75781 123.043 6.7168 119.688 6.71094 117.433C6.72266 117.409 6.74023 117.392 6.76367 117.38H9.24219C9.48242 117.38 9.67871 117.386 9.83105 117.397C9.9248 117.427 9.97168 117.6 9.97168 117.916V117.978C9.97168 119.396 9.94824 120.872 9.90137 122.407C9.9541 122.407 10.0479 122.416 10.1826 122.434C10.3174 122.445 10.4141 122.454 10.4727 122.46L10.8066 122.504C11.0293 122.533 11.416 122.554 11.9668 122.565L11.9053 119.841C11.8936 119.372 11.8877 119.032 11.8877 118.821V118.681C11.8877 118.323 11.8994 118.089 11.9229 117.978C11.9404 117.866 11.999 117.811 12.0986 117.811L12.1689 117.819H12.3799L14.6387 117.775L14.6475 117.784H14.6387C14.7266 119.565 14.7705 120.989 14.7705 122.056V122.469H16.8975L16.748 117.696C16.748 117.433 16.7861 117.266 16.8623 117.195C17.0146 117.201 17.2314 117.204 17.5127 117.204L19.9033 117.143C20.0498 117.143 20.1348 117.207 20.1582 117.336L20.1318 120.254C20.1318 120.828 20.1523 121.971 20.1934 123.682L20.2285 125.123C20.2637 126.143 20.2813 126.898 20.2813 127.391L20.2637 127.417V127.408C20.2051 127.467 20.1494 127.522 20.0967 127.575H19.7891L10.3936 127.522L9.11914 127.514Z" fill="#533FB8"/>
<path d="M32.2822 116.637L35.2954 116.588C40.5483 116.588 44.2383 117.458 46.3652 119.199C46.8164 119.532 47.3105 120.09 47.8477 120.875C49.4053 123.141 50.1841 125.644 50.1841 128.383C50.1841 133.271 48.5029 136.886 45.1406 139.228C43.1318 140.635 40.8223 141.349 38.2119 141.371L38.1475 141.435H37.7446L33.4585 141.387C31.5142 141.387 29.0811 141.435 26.1592 141.532C25.9551 141.145 25.853 140.688 25.853 140.162L25.8691 139.582V137.068L25.9014 133.491V127.594C25.8799 126.24 25.8691 125.23 25.8691 124.564V121.922L25.8853 121.551V116.943C25.8853 116.857 26.4707 116.787 27.6416 116.733C28.8125 116.669 29.7471 116.637 30.4453 116.637H32.2822ZM39.1143 122.212C38.502 121.771 37.8252 121.524 37.084 121.471C36.8262 121.46 36.4717 121.449 36.0205 121.438C35.5801 121.428 35.2578 121.417 35.0537 121.406C34.8604 121.696 34.7314 121.911 34.667 122.051L34.377 122.647V123.549C34.377 125.408 34.4199 127.927 34.5059 131.106L34.6025 135.763C34.667 136.096 34.8818 136.295 35.2471 136.359C36.3535 136.338 37.2075 136.263 37.8091 136.134C39.9253 135.382 40.9834 132.809 40.9834 128.416C40.9834 125.161 40.3604 123.093 39.1143 122.212ZM52.3916 121.052L52.311 116.814C52.3218 116.814 52.3594 116.83 52.4238 116.862C60.5879 116.723 66.7378 116.647 70.8735 116.637C70.9165 116.658 70.9487 116.69 70.9702 116.733V121.277C70.9702 121.718 70.9595 122.078 70.938 122.357C70.8843 122.529 70.5674 122.615 69.9873 122.615H69.8745C67.2749 122.615 64.5679 122.572 61.7534 122.486C61.7534 122.583 61.7373 122.754 61.7051 123.001C61.6836 123.249 61.6675 123.426 61.6567 123.533L61.5762 124.146C61.5225 124.554 61.4849 125.263 61.4634 126.272L66.4585 126.16C67.3179 126.138 67.9409 126.127 68.3276 126.127H68.5854C69.2407 126.127 69.6704 126.149 69.8745 126.192C70.0786 126.224 70.1807 126.332 70.1807 126.514L70.1646 126.643V127.03L70.2451 131.171L70.229 131.187V131.171C66.9634 131.332 64.353 131.413 62.3979 131.413H61.6406V135.312L70.3901 135.038C70.8735 135.038 71.1797 135.108 71.3086 135.248C71.2979 135.527 71.2925 135.924 71.2925 136.44L71.4053 140.823C71.4053 141.091 71.2871 141.247 71.0508 141.29L65.7012 141.242C64.6484 141.242 62.5537 141.279 59.417 141.354L56.7744 141.419C54.9053 141.483 53.5195 141.516 52.6172 141.516L52.5688 141.483H52.585C52.4775 141.376 52.3755 141.274 52.2788 141.177V140.613L52.3755 123.388L52.3916 121.052ZM72.5977 134.345L81.1216 134.2C81.3364 134.2 81.5137 134.383 81.6533 134.748C81.8037 135.113 81.9487 135.403 82.0884 135.618C82.4214 136.134 82.9692 136.392 83.7319 136.392C84.5054 136.392 85.1284 136.214 85.6011 135.86C86.0737 135.495 86.3101 135.027 86.3101 134.458C86.3101 133.889 86.165 133.502 85.875 133.298C85.585 133.083 85.2681 132.879 84.9243 132.686C84.5806 132.481 84.0703 132.326 83.3936 132.218C82.7275 132.111 82.3623 132.046 82.2979 132.025H82.3301L81.4116 131.783C80.8208 131.676 80.3267 131.558 79.9292 131.429C77.3618 130.741 75.5034 129.876 74.354 128.834C73.2153 127.792 72.646 126.391 72.646 124.629C72.646 123.351 72.8823 122.201 73.355 121.181C73.8276 120.16 74.4453 119.328 75.208 118.683C77.4102 116.825 80.4502 115.896 84.3281 115.896C87.4111 115.896 89.8335 116.454 91.5952 117.571H91.5791C92.707 118.388 93.4805 119.193 93.8994 119.988C94.3184 120.772 94.5815 121.745 94.689 122.905L94.27 123.324C91.4448 123.431 88.9419 123.485 86.7612 123.485C86.106 123.485 85.7139 123.292 85.585 122.905C85.5312 122.744 85.4722 122.583 85.4077 122.421C85.2573 122.035 84.7739 121.841 83.9575 121.841H83.8931C83.2593 121.841 82.7168 121.992 82.2656 122.292C81.8145 122.583 81.5835 122.867 81.5728 123.146C81.5728 123.426 81.6318 123.657 81.75 123.839C81.8789 124.022 82.0132 124.167 82.1528 124.274C82.2925 124.382 82.5073 124.495 82.7974 124.613C83.0874 124.72 83.3022 124.795 83.4419 124.838C83.5923 124.871 83.8232 124.93 84.1348 125.016L84.6987 125.161C84.9243 125.225 85.5796 125.386 86.6646 125.644C87.7603 125.902 88.6733 126.149 89.4038 126.385V126.369C91.6919 127.143 93.2495 128.109 94.0767 129.27C94.9146 130.419 95.3335 131.762 95.3335 133.298C95.3335 137.391 92.8896 140.044 88.002 141.258C86.584 141.612 85.0693 141.865 83.458 142.015C81.4814 142.015 79.5264 141.725 77.5928 141.145C75.6592 140.565 74.3647 139.62 73.7095 138.309C73.269 137.675 72.9736 137.095 72.8232 136.569C72.6729 136.032 72.5493 135.285 72.4526 134.329C72.4849 134.34 72.5332 134.345 72.5977 134.345ZM96.3003 128.158C96.5581 125.708 96.9878 123.866 97.5894 122.631C98.7388 120.246 100.452 118.554 102.729 117.555C104.76 116.664 106.967 116.218 109.352 116.218C113.348 116.218 116.265 117.313 118.102 119.505C119.208 120.805 119.847 122.421 120.019 124.355L120.164 125.87C119.981 126.042 118.827 126.127 116.7 126.127L114.138 126.095H113.928L112.526 126.063L112.14 126.079H111.817C111.517 126.079 111.286 125.639 111.125 124.758C110.974 123.877 110.738 123.297 110.416 123.018C110.104 122.728 109.739 122.583 109.32 122.583C108.901 122.583 108.53 122.658 108.208 122.808C107.896 122.958 107.639 123.141 107.435 123.356C107.23 123.56 107.059 123.855 106.919 124.242C106.661 124.908 106.505 125.617 106.452 126.369C106.398 127.11 106.371 127.943 106.371 128.867V129.253L106.307 130.881C106.307 133.846 107.145 135.36 108.82 135.425C109.25 135.425 109.551 135.35 109.723 135.199C110.185 134.791 110.587 133.969 110.931 132.734C111.006 132.476 111.098 132.267 111.205 132.105H111.817L112.559 132.122H115.169L115.958 132.105L117.489 132.122H118.424L119.375 132.138H120.019C120.148 132.148 120.239 132.261 120.293 132.476L120.245 133.008C120.148 134.275 119.853 135.425 119.358 136.456C118.445 138.347 117.006 139.754 115.04 140.678C113.085 141.591 110.937 142.047 108.595 142.047C104.502 142.047 101.43 140.839 99.3779 138.422C97.3262 136.005 96.3003 132.583 96.3003 128.158ZM145.494 128.512L145.446 133.04C145.446 134.426 145.22 135.65 144.769 136.714C144.329 137.777 143.743 138.637 143.013 139.292C141.025 141.097 138.087 141.999 134.199 141.999C130.31 141.999 127.286 141.054 125.127 139.163C124.364 138.508 123.72 137.659 123.193 136.617C122.678 135.564 122.366 134.377 122.259 133.056C122.312 128.566 122.339 124.414 122.339 120.601C122.286 120.601 122.259 120.037 122.259 118.909C122.259 117.781 122.307 117.083 122.404 116.814H122.742C124.321 116.728 126.475 116.685 129.204 116.685C129.397 116.728 129.746 116.755 130.251 116.766C130.767 116.776 131.121 116.792 131.314 116.814L131.814 116.878C131.889 119.005 131.938 121.933 131.959 125.66L131.862 132.138C131.862 134.286 132.485 135.36 133.731 135.36C134.258 135.36 134.698 135.129 135.053 134.667C135.418 134.206 135.611 133.685 135.633 133.104L135.697 132.943L135.746 127.513L135.762 127.03C135.762 124.538 135.729 122.131 135.665 119.811L135.633 118.635C135.611 118.162 135.601 117.738 135.601 117.362C135.601 116.986 135.66 116.728 135.778 116.588C139.924 116.588 143.05 116.604 145.156 116.637C145.231 116.712 145.328 116.782 145.446 116.846H145.43L145.607 116.959C145.521 118.989 145.478 121.6 145.478 124.79V127.562L145.494 128.512ZM148.459 121.052L148.378 116.814C148.389 116.814 148.427 116.83 148.491 116.862C156.655 116.723 162.805 116.647 166.941 116.637C166.984 116.658 167.016 116.69 167.038 116.733V121.277C167.038 121.718 167.027 122.078 167.005 122.357C166.952 122.529 166.635 122.615 166.055 122.615H165.942C163.342 122.615 160.635 122.572 157.821 122.486C157.821 122.583 157.805 122.754 157.772 123.001C157.751 123.249 157.735 123.426 157.724 123.533L157.644 124.146C157.59 124.554 157.552 125.263 157.531 126.272L162.526 126.16C163.385 126.138 164.008 126.127 164.395 126.127H164.653C165.308 126.127 165.738 126.149 165.942 126.192C166.146 126.224 166.248 126.332 166.248 126.514L166.232 126.643V127.03L166.312 131.171L166.296 131.187V131.171C163.031 131.332 160.42 131.413 158.465 131.413H157.708V135.312L166.458 135.038C166.941 135.038 167.247 135.108 167.376 135.248C167.365 135.527 167.36 135.924 167.36 136.44L167.473 140.823C167.473 141.091 167.354 141.247 167.118 141.29L161.769 141.242C160.716 141.242 158.621 141.279 155.484 141.354L152.842 141.419C150.973 141.483 149.587 141.516 148.685 141.516L148.636 141.483H148.652C148.545 141.376 148.443 141.274 148.346 141.177V140.613L148.443 123.388L148.459 121.052ZM193.882 129.721L193.866 130.8V136.762L193.898 139.598V140.404L193.915 141.161C193.85 141.247 193.587 141.29 193.125 141.29H192.706L187.646 141.354C185.498 141.354 183.897 141.349 182.845 141.338C182.684 141.167 182.098 139.604 181.088 136.649L178.011 128.48L177.431 128.561L177.415 130.204V134.571L177.479 138.938V140.742C177.479 141.226 177.372 141.478 177.157 141.5C176.093 141.467 175.078 141.451 174.111 141.451H173.612L171.179 141.516H170.856L169.696 141.548L169.648 141.516C169.293 141.183 169.116 140.941 169.116 140.791V140.5L169.132 140.178L169.213 133.894C169.213 126.998 169.277 121.782 169.406 118.248L169.438 116.911C169.438 116.814 173.139 116.728 180.541 116.653C180.605 116.696 180.702 116.932 180.831 117.362V117.313L180.927 117.636C181.722 119.913 182.689 122.529 183.828 125.483C184.966 128.426 185.546 129.93 185.568 129.995L186.116 129.962L186.18 116.83C186.18 116.744 186.964 116.701 188.533 116.701L192.577 116.782H193.77C193.845 120.337 193.882 124.65 193.882 129.721ZM217.053 122.711C217.053 123.066 217.016 123.243 216.94 123.243C216.94 123.243 214.996 123.227 211.107 123.195C211.086 124.237 211.075 125.864 211.075 128.077C211.075 130.29 211.081 131.826 211.091 132.686L211.156 141.226C211.102 141.376 210.995 141.457 210.833 141.467L207.434 141.419L207.417 141.435L206.354 141.419H203.405C202.61 141.419 202.014 141.424 201.617 141.435L201.343 141.193C201.332 141.183 201.262 141.097 201.133 140.936C201.133 139.99 201.171 137.89 201.246 134.635L201.423 126.063L201.391 125.66C201.316 124.597 201.241 123.968 201.166 123.775C201.101 123.571 200.967 123.463 200.763 123.453C200.559 123.431 200.408 123.42 200.312 123.42L199.667 123.453L195.671 123.388C195.531 123.109 195.461 122.48 195.461 121.503L195.494 120.085V119.65C195.483 117.931 195.467 117.013 195.445 116.895C195.467 116.895 195.51 116.905 195.574 116.927L216.086 116.75C216.505 116.75 216.769 116.782 216.876 116.846C216.983 116.9 217.037 117.007 217.037 117.168V121.422L217.053 122.711ZM225.964 128.754C225.964 128.765 225.958 128.792 225.948 128.834V128.883C225.905 129.334 225.883 129.839 225.883 130.397C225.883 130.956 225.926 131.547 226.012 132.17C226.109 132.793 226.259 133.416 226.463 134.039C226.678 134.662 227.006 135.167 227.446 135.554C227.919 135.962 228.445 136.166 229.025 136.166C229.616 136.166 230.11 136.085 230.508 135.924C230.916 135.752 231.254 135.538 231.523 135.28C231.802 135.022 232.044 134.673 232.248 134.232C232.764 133.062 233.021 131.246 233.021 128.786C233.021 126.283 232.731 124.532 232.151 123.533C231.582 122.523 230.717 122.019 229.557 122.019C228.977 122.019 228.467 122.158 228.026 122.438C227.597 122.717 227.269 123.007 227.043 123.308C226.829 123.608 226.603 124.248 226.367 125.225C226.141 126.203 226.028 127.105 226.028 127.932L225.964 128.754ZM216.699 128.883L216.731 128.528C216.86 127.186 217.032 125.999 217.247 124.967C217.461 123.925 217.811 122.953 218.294 122.051C219.443 120.063 221.044 118.56 223.096 117.539C225.158 116.508 227.376 115.992 229.75 115.992C232.135 115.992 234.3 116.47 236.244 117.426C237.404 117.996 238.312 118.715 238.967 119.585C240.224 121.154 241.051 122.599 241.449 123.92C241.846 125.241 242.045 126.767 242.045 128.496C242.045 132.342 241.25 135.274 239.66 137.294L238.919 138.277C237.92 139.437 236.507 140.334 234.681 140.968C232.855 141.591 231.045 141.913 229.251 141.935C226.179 141.935 223.66 141.29 221.694 140.001C218.364 137.842 216.699 134.136 216.699 128.883Z" fill="#533FB8"/>
<path d="M6.05762 150.515L6.01123 148.075C6.01742 148.075 6.03906 148.084 6.07617 148.103C10.7767 148.022 14.3175 147.979 16.6987 147.973C16.7235 147.985 16.742 148.004 16.7544 148.028V150.645C16.7544 150.898 16.7482 151.105 16.7358 151.266C16.7049 151.365 16.5225 151.415 16.1885 151.415H16.1235C14.6268 151.415 13.0682 151.39 11.4478 151.34C11.4478 151.396 11.4385 151.495 11.4199 151.637C11.4076 151.779 11.3983 151.882 11.3921 151.943L11.3457 152.296C11.3148 152.531 11.2931 152.939 11.2808 153.521L14.1567 153.456C14.6515 153.443 15.0103 153.437 15.2329 153.437H15.3813C15.7586 153.437 16.006 153.449 16.1235 153.474C16.241 153.493 16.2998 153.555 16.2998 153.66L16.2905 153.734V153.957L16.3369 156.341L16.3276 156.35V156.341C14.4474 156.434 12.9445 156.48 11.8188 156.48H11.3828V158.725L16.4204 158.567C16.6987 158.567 16.875 158.608 16.9492 158.688C16.943 158.849 16.9399 159.078 16.9399 159.375L17.0049 161.898C17.0049 162.053 16.9368 162.142 16.8008 162.167L13.7207 162.139C13.1146 162.139 11.9085 162.161 10.1025 162.204L8.58105 162.241C7.50488 162.278 6.70703 162.297 6.1875 162.297L6.15967 162.278H6.16895C6.1071 162.216 6.04834 162.158 5.99268 162.102V161.777L6.04834 151.86L6.05762 150.515ZM32.2104 155.506L32.2012 156.127V159.56L32.2197 161.193V161.657L32.229 162.093C32.1919 162.142 32.0404 162.167 31.7744 162.167H31.5332L28.6201 162.204C27.3831 162.204 26.4616 162.201 25.8555 162.195C25.7627 162.096 25.4256 161.196 24.8442 159.495L23.0723 154.792L22.7383 154.838L22.729 155.784V158.298L22.7661 160.812V161.852C22.7661 162.13 22.7043 162.275 22.5806 162.288C21.9683 162.269 21.3838 162.26 20.8271 162.26H20.5396L19.1387 162.297H18.9531L18.2852 162.315L18.2573 162.297C18.0532 162.105 17.9512 161.966 17.9512 161.879V161.712L17.9604 161.527L18.0068 157.909C18.0068 153.938 18.0439 150.935 18.1182 148.9L18.1367 148.13C18.1367 148.075 20.2674 148.025 24.5288 147.982C24.5659 148.007 24.6216 148.143 24.6958 148.39V148.362L24.7515 148.548C25.2091 149.859 25.7658 151.365 26.4214 153.066C27.077 154.761 27.411 155.626 27.4233 155.664L27.7388 155.645L27.7759 148.084C27.7759 148.035 28.2274 148.01 29.1304 148.01L31.459 148.056H32.1455C32.1888 150.103 32.2104 152.587 32.2104 155.506ZM51.4888 151.47C51.4888 151.674 51.4671 151.776 51.4238 151.776C51.4238 151.776 50.3044 151.767 48.0654 151.749C48.0531 152.348 48.0469 153.285 48.0469 154.56C48.0469 155.834 48.05 156.718 48.0562 157.213L48.0933 162.13C48.0623 162.216 48.0005 162.263 47.9077 162.269L45.9502 162.241L45.9409 162.25L45.3286 162.241H43.6309C43.1732 162.241 42.8299 162.244 42.6011 162.25L42.4434 162.111C42.4372 162.105 42.397 162.056 42.3228 161.963C42.3228 161.419 42.3444 160.209 42.3877 158.335L42.4897 153.4L42.4712 153.168C42.4279 152.556 42.3846 152.194 42.3413 152.083C42.3042 151.965 42.2269 151.903 42.1094 151.897C41.9919 151.885 41.9053 151.878 41.8496 151.878L41.4785 151.897L39.1777 151.86C39.0973 151.699 39.0571 151.337 39.0571 150.774L39.0757 149.958V149.708C39.0695 148.718 39.0602 148.189 39.0479 148.121C39.0602 148.121 39.085 148.127 39.1221 148.14L50.9321 148.038C51.1733 148.038 51.3249 148.056 51.3867 148.093C51.4486 148.124 51.4795 148.186 51.4795 148.279V150.728L51.4888 151.47ZM65.6553 154.81L65.6274 157.417C65.6274 158.215 65.4976 158.92 65.2378 159.532C64.9842 160.145 64.6471 160.639 64.2266 161.017C63.0824 162.056 61.3908 162.575 59.1519 162.575C56.9129 162.575 55.1719 162.031 53.9287 160.942C53.4896 160.565 53.1185 160.076 52.8154 159.477C52.5186 158.87 52.3392 158.187 52.2773 157.426C52.3083 154.841 52.3237 152.451 52.3237 150.255C52.2928 150.255 52.2773 149.93 52.2773 149.281C52.2773 148.631 52.3052 148.229 52.3608 148.075H52.5557C53.4648 148.025 54.7049 148 56.2759 148C56.3872 148.025 56.5882 148.041 56.8789 148.047C57.1758 148.053 57.3799 148.062 57.4912 148.075L57.7788 148.112C57.8221 149.336 57.8499 151.022 57.8623 153.168L57.8066 156.897C57.8066 158.134 58.1654 158.753 58.8828 158.753C59.1859 158.753 59.4395 158.62 59.6436 158.354C59.8538 158.088 59.9652 157.788 59.9775 157.454L60.0146 157.361L60.0425 154.235L60.0518 153.957C60.0518 152.522 60.0332 151.136 59.9961 149.8L59.9775 149.123C59.9652 148.851 59.959 148.607 59.959 148.39C59.959 148.174 59.993 148.025 60.061 147.945C62.4484 147.945 64.2482 147.954 65.4604 147.973C65.5037 148.016 65.5594 148.056 65.6274 148.093H65.6182L65.7202 148.158C65.6707 149.327 65.646 150.83 65.646 152.667V154.263L65.6553 154.81ZM74.0327 155.868L74.0513 152.055V148.186C74.0636 148.18 74.1224 148.177 74.2275 148.177H74.5708C74.7007 148.177 74.7996 148.171 74.8677 148.158L76.0181 148.112C76.3149 148.099 76.5438 148.093 76.7046 148.093H78.1797L80.9072 148.028C81.2783 148.028 81.6865 148.044 82.1318 148.075H82.1968C82.4071 148.062 82.54 148.056 82.5957 148.056C83.8327 148.056 84.8903 148.449 85.7686 149.234C86.1953 149.612 86.5324 150.097 86.7798 150.691C87.0272 151.285 87.1509 151.9 87.1509 152.537C87.1509 153.168 87.0859 153.706 86.9561 154.151C86.8262 154.597 86.6592 154.974 86.4551 155.283C85.6387 156.533 84.0584 157.262 81.7144 157.473L79.7104 157.556C79.6486 159.041 79.6177 160.194 79.6177 161.017L79.627 161.304V162.056C79.6022 162.142 79.5558 162.201 79.4878 162.232L74.1904 162.315C74.0853 162.019 74.0327 161.542 74.0327 160.887V155.868ZM82.1504 151.888C81.903 151.238 81.2474 150.892 80.1836 150.849C80.029 150.842 79.8156 150.839 79.5435 150.839C79.4692 150.839 79.4229 151.752 79.4043 153.576L79.3857 154.272L79.4136 154.829C80.1743 154.816 80.8423 154.655 81.4175 154.346C81.9989 154.037 82.2896 153.474 82.2896 152.658C82.2896 152.311 82.2432 152.055 82.1504 151.888ZM98.9053 158.438C98.862 158.611 98.8403 158.796 98.8403 158.994V159.208C98.8403 159.535 98.862 159.77 98.9053 159.913C98.9053 160.847 98.9022 161.567 98.896 162.074C98.8589 162.235 95.8066 162.315 89.7393 162.315C89.4609 162.315 89.0002 162.309 88.3569 162.297C88.258 162.111 88.2085 161.805 88.2085 161.378L88.2271 160.775V158.669L88.2363 156.907V155.163L88.2456 152.352C88.2456 151.832 88.2394 151.343 88.2271 150.886V150.784L88.1992 149.448C88.1992 148.662 88.2642 148.152 88.394 147.917C88.5177 147.923 88.6878 147.926 88.9043 147.926H89.3496L90.9082 147.908C92.6833 147.908 93.6605 148.019 93.8398 148.242L93.7656 151.479L93.7378 154.198L93.7285 154.309L93.6914 158.168L94.0625 158.382C95.182 158.314 96.2643 158.28 97.3096 158.28C98.361 158.28 98.8929 158.332 98.9053 158.438ZM114.612 162.102C114.606 162.182 114.436 162.223 114.102 162.223H113.248L112.673 162.232H112.107L111.207 162.241C110.31 162.241 109.565 162.22 108.971 162.176C108.953 162.17 108.931 162.133 108.906 162.065L108.86 161.87C108.804 161.233 108.659 160.618 108.424 160.024L104.453 160.061C104.428 160.166 104.348 160.479 104.212 160.998C104.076 161.518 103.974 161.91 103.906 162.176C103.844 162.238 103.55 162.269 103.024 162.269L102.792 162.26H102.254L99.8423 162.315H99.564L99.3042 162.325H98.6548C98.6115 162.281 98.5651 162.226 98.5156 162.158C99.1341 160.018 99.9722 157.364 101.03 154.198L101.243 153.539H101.234L101.484 152.769C101.565 152.522 101.794 151.835 102.171 150.709C102.554 149.584 102.792 148.857 102.885 148.529C102.984 148.201 103.043 148.031 103.062 148.019H104.602L107.895 147.973L108.786 148.019L109.519 147.973C109.89 147.973 110.075 148.047 110.075 148.195C110.694 149.921 111.519 152.404 112.552 155.645C113.585 158.886 114.167 160.707 114.296 161.109L114.426 161.573C114.47 161.74 114.531 161.917 114.612 162.102ZM105.427 157.037L105.808 157.046L108.025 157.037C107.932 156.301 107.861 155.759 107.812 155.413L107.459 153.827C107.088 152.188 106.896 151.353 106.884 151.322C106.871 151.291 106.859 151.263 106.847 151.238C106.84 151.207 106.834 151.189 106.828 151.183C106.822 151.17 106.813 151.152 106.8 151.127C106.794 151.102 106.785 151.087 106.772 151.081C106.766 151.068 106.757 151.053 106.745 151.034C106.701 150.96 106.612 150.895 106.476 150.839C106.309 150.876 105.811 152.738 104.982 156.424L104.88 157.037H105.427ZM129.177 155.506L129.168 156.127V159.56L129.187 161.193V161.657L129.196 162.093C129.159 162.142 129.007 162.167 128.741 162.167H128.5L125.587 162.204C124.35 162.204 123.428 162.201 122.822 162.195C122.729 162.096 122.392 161.196 121.811 159.495L120.039 154.792L119.705 154.838L119.696 155.784V158.298L119.733 160.812V161.852C119.733 162.13 119.671 162.275 119.547 162.288C118.935 162.269 118.351 162.26 117.794 162.26H117.506L116.105 162.297H115.92L115.252 162.315L115.224 162.297C115.02 162.105 114.918 161.966 114.918 161.879V161.712L114.927 161.527L114.974 157.909C114.974 153.938 115.011 150.935 115.085 148.9L115.104 148.13C115.104 148.075 117.234 148.025 121.496 147.982C121.533 148.007 121.588 148.143 121.663 148.39V148.362L121.718 148.548C122.176 149.859 122.733 151.365 123.388 153.066C124.044 154.761 124.378 155.626 124.39 155.664L124.706 155.645L124.743 148.084C124.743 148.035 125.194 148.01 126.097 148.01L128.426 148.056H129.112C129.156 150.103 129.177 152.587 129.177 155.506ZM137.332 158.168L142.24 158.085C142.363 158.085 142.465 158.19 142.546 158.4C142.632 158.611 142.716 158.778 142.796 158.901C142.988 159.198 143.304 159.347 143.743 159.347C144.188 159.347 144.547 159.245 144.819 159.041C145.091 158.83 145.227 158.561 145.227 158.233C145.227 157.906 145.144 157.683 144.977 157.565C144.81 157.442 144.627 157.324 144.429 157.213C144.231 157.095 143.938 157.006 143.548 156.944C143.164 156.882 142.954 156.845 142.917 156.833H142.936L142.407 156.693C142.067 156.632 141.782 156.563 141.553 156.489C140.075 156.093 139.005 155.596 138.343 154.996C137.688 154.396 137.36 153.589 137.36 152.574C137.36 151.838 137.496 151.176 137.768 150.589C138.04 150.001 138.396 149.522 138.835 149.151C140.103 148.081 141.853 147.546 144.086 147.546C145.861 147.546 147.256 147.868 148.27 148.511H148.261C148.91 148.981 149.355 149.445 149.597 149.902C149.838 150.354 149.989 150.914 150.051 151.582L149.81 151.823C148.183 151.885 146.742 151.916 145.487 151.916C145.11 151.916 144.884 151.804 144.81 151.582C144.779 151.489 144.745 151.396 144.708 151.303C144.621 151.081 144.343 150.969 143.873 150.969H143.835C143.471 150.969 143.158 151.056 142.898 151.229C142.639 151.396 142.506 151.56 142.5 151.721C142.5 151.882 142.534 152.014 142.602 152.12C142.676 152.225 142.753 152.308 142.833 152.37C142.914 152.432 143.038 152.497 143.205 152.565C143.372 152.627 143.495 152.67 143.576 152.695C143.662 152.713 143.795 152.747 143.975 152.797L144.299 152.88C144.429 152.917 144.806 153.01 145.431 153.159C146.062 153.307 146.588 153.449 147.008 153.585V153.576C148.326 154.021 149.222 154.578 149.699 155.246C150.181 155.908 150.422 156.681 150.422 157.565C150.422 159.922 149.015 161.45 146.201 162.148C145.385 162.353 144.513 162.498 143.585 162.584C142.447 162.584 141.321 162.417 140.208 162.083C139.095 161.75 138.349 161.205 137.972 160.451C137.719 160.086 137.549 159.752 137.462 159.449C137.375 159.139 137.304 158.71 137.249 158.159C137.267 158.165 137.295 158.168 137.332 158.168ZM151.582 150.515L151.536 148.075C151.542 148.075 151.563 148.084 151.601 148.103C156.301 148.022 159.842 147.979 162.223 147.973C162.248 147.985 162.266 148.004 162.279 148.028V150.645C162.279 150.898 162.273 151.105 162.26 151.266C162.229 151.365 162.047 151.415 161.713 151.415H161.648C160.151 151.415 158.593 151.39 156.972 151.34C156.972 151.396 156.963 151.495 156.944 151.637C156.932 151.779 156.923 151.882 156.917 151.943L156.87 152.296C156.839 152.531 156.818 152.939 156.805 153.521L159.681 153.456C160.176 153.443 160.535 153.437 160.757 153.437H160.906C161.283 153.437 161.53 153.449 161.648 153.474C161.765 153.493 161.824 153.555 161.824 153.66L161.815 153.734V153.957L161.861 156.341L161.852 156.35V156.341C159.972 156.434 158.469 156.48 157.343 156.48H156.907V158.725L161.945 158.567C162.223 158.567 162.399 158.608 162.474 158.688C162.467 158.849 162.464 159.078 162.464 159.375L162.529 161.898C162.529 162.053 162.461 162.142 162.325 162.167L159.245 162.139C158.639 162.139 157.433 162.161 155.627 162.204L154.105 162.241C153.029 162.278 152.231 162.297 151.712 162.297L151.684 162.278H151.693C151.632 162.216 151.573 162.158 151.517 162.102V161.777L151.573 151.86L151.582 150.515ZM168.495 154.021C168.42 155.772 168.383 157.572 168.383 159.421V162.186H167.706L167.474 162.176L164.181 162.204C163.97 162.204 163.859 162.207 163.847 162.213C163.847 162.207 163.859 162.155 163.884 162.056V162L163.893 161.963C163.862 161.518 163.847 160.976 163.847 160.339L163.884 149.977L163.875 149.494V149.03L163.856 148.158C163.856 148.096 163.89 148.031 163.958 147.963H165.229L165.971 147.954C167.715 147.954 168.962 147.979 169.71 148.028C170.465 148.078 171.006 148.103 171.333 148.103C171.513 149.166 171.779 150.576 172.131 152.333L172.79 155.654H173.115L174.302 149.587C174.321 149.494 174.364 149.225 174.432 148.78C174.5 148.328 174.553 148.078 174.59 148.028H174.627L180.667 147.973L181.028 147.982H182.067C182.123 148.007 182.154 148.121 182.16 148.325L182.253 151.832C182.327 154.739 182.38 157.003 182.411 158.623C182.411 159.872 182.392 161.044 182.355 162.139C182.336 162.213 182.213 162.257 181.984 162.269L181.566 162.288C181.232 162.3 180.985 162.306 180.824 162.306H180.342C179.742 162.312 178.857 162.315 177.688 162.315C177.472 162.124 177.364 161.295 177.364 159.829L177.382 156.916V156.165C177.382 155.503 177.379 155.014 177.373 154.699L177.021 154.634C176.816 155.382 176.424 157.049 175.842 159.634L175.759 160.005C175.715 160.197 175.641 160.54 175.536 161.035C175.437 161.524 175.357 161.895 175.295 162.148C175.221 162.235 174.893 162.278 174.312 162.278H174.191L173.152 162.25L172.586 162.26H172.15L171.417 162.269H171.157C170.873 162.269 170.715 162.204 170.684 162.074L170.693 162.083L169.849 158.4C169.824 158.308 169.769 158.107 169.682 157.797C169.596 157.482 169.546 157.219 169.534 157.009L168.838 154.003L168.495 154.021ZM198.739 162.102C198.733 162.182 198.562 162.223 198.229 162.223H197.375L196.8 162.232H196.234L195.334 162.241C194.437 162.241 193.692 162.22 193.098 162.176C193.08 162.17 193.058 162.133 193.033 162.065L192.987 161.87C192.931 161.233 192.786 160.618 192.551 160.024L188.58 160.061C188.555 160.166 188.475 160.479 188.339 160.998C188.203 161.518 188.101 161.91 188.033 162.176C187.971 162.238 187.677 162.269 187.151 162.269L186.919 162.26H186.381L183.969 162.315H183.691L183.431 162.325H182.782C182.738 162.281 182.692 162.226 182.643 162.158C183.261 160.018 184.099 157.364 185.157 154.198L185.37 153.539H185.361L185.611 152.769C185.692 152.522 185.921 151.835 186.298 150.709C186.681 149.584 186.919 148.857 187.012 148.529C187.111 148.201 187.17 148.031 187.188 148.019H188.729L192.022 147.973L192.913 148.019L193.646 147.973C194.017 147.973 194.202 148.047 194.202 148.195C194.821 149.921 195.646 152.404 196.679 155.645C197.712 158.886 198.293 160.707 198.423 161.109L198.553 161.573C198.597 161.74 198.658 161.917 198.739 162.102ZM189.554 157.037L189.935 157.046L192.152 157.037C192.059 156.301 191.988 155.759 191.938 155.413L191.586 153.827C191.215 152.188 191.023 151.353 191.011 151.322C190.998 151.291 190.986 151.263 190.974 151.238C190.967 151.207 190.961 151.189 190.955 151.183C190.949 151.17 190.94 151.152 190.927 151.127C190.921 151.102 190.912 151.087 190.899 151.081C190.893 151.068 190.884 151.053 190.872 151.034C190.828 150.96 190.739 150.895 190.603 150.839C190.436 150.876 189.938 152.738 189.109 156.424L189.007 157.037H189.554ZM213.304 155.506L213.295 156.127V159.56L213.313 161.193V161.657L213.323 162.093C213.286 162.142 213.134 162.167 212.868 162.167H212.627L209.714 162.204C208.477 162.204 207.555 162.201 206.949 162.195C206.856 162.096 206.519 161.196 205.938 159.495L204.166 154.792L203.832 154.838L203.823 155.784V158.298L203.86 160.812V161.852C203.86 162.13 203.798 162.275 203.674 162.288C203.062 162.269 202.478 162.26 201.921 162.26H201.633L200.232 162.297H200.047L199.379 162.315L199.351 162.297C199.147 162.105 199.045 161.966 199.045 161.879V161.712L199.054 161.527L199.101 157.909C199.101 153.938 199.138 150.935 199.212 148.9L199.23 148.13C199.23 148.075 201.361 148.025 205.623 147.982C205.66 148.007 205.715 148.143 205.79 148.39V148.362L205.845 148.548C206.303 149.859 206.86 151.365 207.515 153.066C208.171 154.761 208.505 155.626 208.517 155.664L208.833 155.645L208.87 148.084C208.87 148.035 209.321 148.01 210.224 148.01L212.553 148.056H213.239C213.283 150.103 213.304 152.587 213.304 155.506ZM229.985 162.102C229.979 162.182 229.809 162.223 229.475 162.223H228.621L228.046 162.232H227.48L226.58 162.241C225.683 162.241 224.938 162.22 224.344 162.176C224.326 162.17 224.304 162.133 224.279 162.065L224.233 161.87C224.177 161.233 224.032 160.618 223.797 160.024L219.826 160.061C219.801 160.166 219.721 160.479 219.585 160.998C219.449 161.518 219.347 161.91 219.279 162.176C219.217 162.238 218.923 162.269 218.397 162.269L218.166 162.26H217.627L215.215 162.315H214.937L214.677 162.325H214.028C213.985 162.281 213.938 162.226 213.889 162.158C214.507 160.018 215.345 157.364 216.403 154.198L216.616 153.539H216.607L216.857 152.769C216.938 152.522 217.167 151.835 217.544 150.709C217.927 149.584 218.166 148.857 218.258 148.529C218.357 148.201 218.416 148.031 218.435 148.019H219.975L223.268 147.973L224.159 148.019L224.892 147.973C225.263 147.973 225.448 148.047 225.448 148.195C226.067 149.921 226.892 152.404 227.925 155.645C228.958 158.886 229.54 160.707 229.669 161.109L229.799 161.573C229.843 161.74 229.904 161.917 229.985 162.102ZM220.8 157.037L221.181 157.046L223.398 157.037C223.305 156.301 223.234 155.759 223.185 155.413L222.832 153.827C222.461 152.188 222.269 151.353 222.257 151.322C222.244 151.291 222.232 151.263 222.22 151.238C222.214 151.207 222.207 151.189 222.201 151.183C222.195 151.17 222.186 151.152 222.173 151.127C222.167 151.102 222.158 151.087 222.146 151.081C222.139 151.068 222.13 151.053 222.118 151.034C222.074 150.96 221.985 150.895 221.849 150.839C221.682 150.876 221.184 152.738 220.355 156.424L220.253 157.037H220.8ZM241.238 158.438C241.195 158.611 241.173 158.796 241.173 158.994V159.208C241.173 159.535 241.195 159.77 241.238 159.913C241.238 160.847 241.235 161.567 241.229 162.074C241.192 162.235 238.14 162.315 232.072 162.315C231.794 162.315 231.333 162.309 230.69 162.297C230.591 162.111 230.542 161.805 230.542 161.378L230.56 160.775V158.669L230.569 156.907V155.163L230.579 152.352C230.579 151.832 230.572 151.343 230.56 150.886V150.784L230.532 149.448C230.532 148.662 230.597 148.152 230.727 147.917C230.851 147.923 231.021 147.926 231.237 147.926H231.683L233.241 147.908C235.016 147.908 235.993 148.019 236.173 148.242L236.099 151.479L236.071 154.198L236.062 154.309L236.024 158.168L236.396 158.382C237.515 158.314 238.597 158.28 239.643 158.28C240.694 158.28 241.226 158.332 241.238 158.438Z" fill="#F9F2E1"/>
<path d="M107.551 9.375L111.312 9.33984C112.109 9.33984 112.832 9.35547 113.48 9.38672C115.223 9.43359 116.547 9.84375 117.453 10.6172C118.367 11.3906 118.824 12.4805 118.824 13.8867C118.824 14.8633 118.539 15.6992 117.969 16.3945C117.398 17.082 116.566 17.6875 115.473 18.2109C117.207 18.7578 118.258 20.0859 118.625 22.1953C118.711 22.6562 118.777 23.1836 118.824 23.7773C118.879 24.3711 118.922 24.7695 118.953 24.9727L119.07 25.5703C119.195 26.2734 119.305 26.7812 119.398 27.0938L119.352 27.1289C118.023 27.2148 116.809 27.2578 115.707 27.2578C114.613 27.2578 113.645 27.2383 112.801 27.1992H112.73C112.488 27.1992 112.23 26.0469 111.957 23.7422L111.898 23.2383C111.867 22.3789 111.715 21.8008 111.441 21.5039C111.176 21.207 110.711 21.0586 110.047 21.0586L109.895 21.0703H109.273V24.6328L109.285 25.0078V27.1523C109.262 27.2305 109.203 27.2773 109.109 27.293C108.25 27.3242 107.035 27.3398 105.465 27.3398C103.902 27.3398 102.871 27.3438 102.371 27.3516L102.301 27.3281L102.277 27.3398C102.262 27.3398 102.238 27.3281 102.207 27.3047L102.23 26.25L102.219 25.8984L102.266 21.0352V20.1797L102.277 19.3008L102.289 16.2656L102.301 15.8672L102.266 13.207C102.266 13.207 102.281 11.9609 102.312 9.46875C102.312 9.40625 102.535 9.375 102.98 9.375L103.73 9.38672H104.445L105.934 9.39844L107.551 9.375ZM119.469 27.0586L119.41 27.0938V27.0703C119.41 27.0625 119.43 27.0586 119.469 27.0586ZM119.41 27.0938V27.1055C119.402 27.1055 119.398 27.1016 119.398 27.0938H119.41ZM111.887 13.1953C111.418 12.9922 110.793 12.8906 110.012 12.8906H109.332C109.246 13.0156 109.203 13.6758 109.203 14.8711C109.203 16.0586 109.223 16.8555 109.262 17.2617C111.707 17.207 112.93 16.3633 112.93 14.7305C112.93 14.0352 112.582 13.5234 111.887 13.1953ZM120.641 12.4922L120.582 9.41016C120.59 9.41016 120.617 9.42188 120.664 9.44531C126.602 9.34375 131.074 9.28906 134.082 9.28125C134.113 9.29688 134.137 9.32031 134.152 9.35156V12.6562C134.152 12.9766 134.145 13.2383 134.129 13.4414C134.09 13.5664 133.859 13.6289 133.438 13.6289H133.355C131.465 13.6289 129.496 13.5977 127.449 13.5352C127.449 13.6055 127.438 13.7305 127.414 13.9102C127.398 14.0898 127.387 14.2188 127.379 14.2969L127.32 14.7422C127.281 15.0391 127.254 15.5547 127.238 16.2891L130.871 16.207C131.496 16.1914 131.949 16.1836 132.23 16.1836H132.418C132.895 16.1836 133.207 16.1992 133.355 16.2305C133.504 16.2539 133.578 16.332 133.578 16.4648L133.566 16.5586V16.8398L133.625 19.8516L133.613 19.8633V19.8516C131.238 19.9688 129.34 20.0273 127.918 20.0273H127.367V22.8633L133.73 22.6641C134.082 22.6641 134.305 22.7148 134.398 22.8164C134.391 23.0195 134.387 23.3086 134.387 23.6836L134.469 26.8711C134.469 27.0664 134.383 27.1797 134.211 27.2109L130.32 27.1758C129.555 27.1758 128.031 27.2031 125.75 27.2578L123.828 27.3047C122.469 27.3516 121.461 27.375 120.805 27.375L120.77 27.3516H120.781C120.703 27.2734 120.629 27.1992 120.559 27.1289V26.7188L120.629 14.1914L120.641 12.4922ZM135.184 17.6602C135.371 15.8789 135.684 14.5391 136.121 13.6406C136.957 11.9062 138.203 10.6758 139.859 9.94922C141.336 9.30078 142.941 8.97656 144.676 8.97656C147.582 8.97656 149.703 9.77344 151.039 11.3672C151.844 12.3125 152.309 13.4883 152.434 14.8945L152.539 15.9961C152.406 16.1211 151.566 16.1836 150.02 16.1836L148.156 16.1602H148.004L146.984 16.1367L146.703 16.1484H146.469C146.25 16.1484 146.082 15.8281 145.965 15.1875C145.855 14.5469 145.684 14.125 145.449 13.9219C145.223 13.7109 144.957 13.6055 144.652 13.6055C144.348 13.6055 144.078 13.6602 143.844 13.7695C143.617 13.8789 143.43 14.0117 143.281 14.168C143.133 14.3164 143.008 14.5312 142.906 14.8125C142.719 15.2969 142.605 15.8125 142.566 16.3594C142.527 16.8984 142.508 17.5039 142.508 18.1758V18.457L142.461 19.6406C142.461 21.7969 143.07 22.8984 144.289 22.9453C144.602 22.9453 144.82 22.8906 144.945 22.7812C145.281 22.4844 145.574 21.8867 145.824 20.9883C145.879 20.8008 145.945 20.6484 146.023 20.5312H146.469L147.008 20.543H148.906L149.48 20.5312L150.594 20.543H151.273L151.965 20.5547H152.434C152.527 20.5625 152.594 20.6445 152.633 20.8008L152.598 21.1875C152.527 22.1094 152.312 22.9453 151.953 23.6953C151.289 25.0703 150.242 26.0938 148.812 26.7656C147.391 27.4297 145.828 27.7617 144.125 27.7617C141.148 27.7617 138.914 26.8828 137.422 25.125C135.93 23.3672 135.184 20.8789 135.184 17.6602ZM154.051 25.7461C154.051 24.1602 154.094 23.0586 154.18 22.4414C154.18 19.043 154.227 15.6172 154.32 12.1641C154.297 11.6719 154.285 11.1758 154.285 10.6758V10.2891C154.254 10.0469 154.238 9.83203 154.238 9.64453C154.238 9.45703 154.258 9.33594 154.297 9.28125C155.969 9.38281 157.434 9.43359 158.691 9.43359C159.949 9.43359 160.812 9.41016 161.281 9.36328C161.297 9.38672 161.309 9.45312 161.316 9.5625H161.234V13.8047L161.316 23.3438C161.316 23.4141 161.328 23.4727 161.352 23.5195V23.543C161.375 23.5898 161.387 23.6406 161.387 23.6953L161.48 27.1055C161.441 27.1914 161.371 27.2578 161.27 27.3047H160.871L154.309 27.4102C154.23 27.3711 154.129 27.3125 154.004 27.2344L154.016 27.0352L154.051 25.7461ZM163.988 13.9219L163.977 13.6875V12.9609C163.977 11.9531 163.996 10.7969 164.035 9.49219L164.012 9.46875L164.645 9.43359C166.684 9.32422 168.008 9.26953 168.617 9.26953H174.078C175.945 9.26953 177.496 9.65625 178.73 10.4297C179.168 10.8047 179.523 11.3086 179.797 11.9414C180.07 12.5742 180.207 13.2891 180.207 14.0859C180.207 15.625 179.176 16.9336 177.113 18.0117C178.277 18.332 179.168 18.8477 179.785 19.5586C180.41 20.2617 180.723 21.125 180.723 22.1484C180.723 23.9609 179.91 25.3359 178.285 26.2734C177.09 26.9766 175.578 27.3281 173.75 27.3281L170.258 27.2812C168.75 27.2812 166.75 27.3164 164.258 27.3867C164.039 26.9258 163.93 25.1016 163.93 21.9141C163.93 18.7266 163.949 16.0625 163.988 13.9219ZM171.277 23.7305C173.301 23.7305 174.312 23.0234 174.312 21.6094C174.312 20.7109 174.039 20.1094 173.492 19.8047C173 19.5391 172.246 19.3906 171.23 19.3594H170.891L170.68 20.0156C170.625 20.8203 170.598 21.6133 170.598 22.3945C170.598 23.168 170.68 23.6133 170.844 23.7305H171.277ZM173.797 15.8906C173.953 15.5938 174.031 15.2344 174.031 14.8125C174.031 13.9922 173.738 13.4414 173.152 13.1602C172.566 12.8789 171.953 12.7383 171.312 12.7383C170.672 12.7383 170.352 12.9727 170.352 13.4414C170.352 14.2773 170.371 15.1328 170.41 16.0078L170.434 16.6289C170.449 16.9258 170.621 17.1016 170.949 17.1562L171.523 17.0859C172.711 16.9453 173.469 16.5469 173.797 15.8906ZM182.469 12.4922L182.41 9.41016C182.418 9.41016 182.445 9.42188 182.492 9.44531C188.43 9.34375 192.902 9.28906 195.91 9.28125C195.941 9.29688 195.965 9.32031 195.98 9.35156V12.6562C195.98 12.9766 195.973 13.2383 195.957 13.4414C195.918 13.5664 195.688 13.6289 195.266 13.6289H195.184C193.293 13.6289 191.324 13.5977 189.277 13.5352C189.277 13.6055 189.266 13.7305 189.242 13.9102C189.227 14.0898 189.215 14.2188 189.207 14.2969L189.148 14.7422C189.109 15.0391 189.082 15.5547 189.066 16.2891L192.699 16.207C193.324 16.1914 193.777 16.1836 194.059 16.1836H194.246C194.723 16.1836 195.035 16.1992 195.184 16.2305C195.332 16.2539 195.406 16.332 195.406 16.4648L195.395 16.5586V16.8398L195.453 19.8516L195.441 19.8633V19.8516C193.066 19.9688 191.168 20.0273 189.746 20.0273H189.195V22.8633L195.559 22.6641C195.91 22.6641 196.133 22.7148 196.227 22.8164C196.219 23.0195 196.215 23.3086 196.215 23.6836L196.297 26.8711C196.297 27.0664 196.211 27.1797 196.039 27.2109L192.148 27.1758C191.383 27.1758 189.859 27.2031 187.578 27.2578L185.656 27.3047C184.297 27.3516 183.289 27.375 182.633 27.375L182.598 27.3516H182.609C182.531 27.2734 182.457 27.1992 182.387 27.1289V26.7188L182.457 14.1914L182.469 12.4922ZM222.945 17.918L222.91 21.2109C222.91 22.2188 222.746 23.1094 222.418 23.8828C222.098 24.6562 221.672 25.2812 221.141 25.7578C219.695 27.0703 217.559 27.7266 214.73 27.7266C211.902 27.7266 209.703 27.0391 208.133 25.6641C207.578 25.1875 207.109 24.5703 206.727 23.8125C206.352 23.0469 206.125 22.1836 206.047 21.2227C206.086 17.957 206.105 14.9375 206.105 12.1641C206.066 12.1641 206.047 11.7539 206.047 10.9336C206.047 10.1133 206.082 9.60547 206.152 9.41016H206.398C207.547 9.34766 209.113 9.31641 211.098 9.31641C211.238 9.34766 211.492 9.36719 211.859 9.375C212.234 9.38281 212.492 9.39453 212.633 9.41016L212.996 9.45703C213.051 11.0039 213.086 13.1328 213.102 15.8438L213.031 20.5547C213.031 22.1172 213.484 22.8984 214.391 22.8984C214.773 22.8984 215.094 22.7305 215.352 22.3945C215.617 22.0586 215.758 21.6797 215.773 21.2578L215.82 21.1406L215.855 17.1914L215.867 16.8398C215.867 15.0273 215.844 13.2773 215.797 11.5898L215.773 10.7344C215.758 10.3906 215.75 10.082 215.75 9.80859C215.75 9.53516 215.793 9.34766 215.879 9.24609C218.895 9.24609 221.168 9.25781 222.699 9.28125C222.754 9.33594 222.824 9.38672 222.91 9.43359H222.898L223.027 9.51562C222.965 10.9922 222.934 12.8906 222.934 15.2109V17.2266L222.945 17.918ZM242.832 18.7969L242.82 19.582V23.918L242.844 25.9805V26.5664L242.855 27.1172C242.809 27.1797 242.617 27.2109 242.281 27.2109H241.977L238.297 27.2578C236.734 27.2578 235.57 27.2539 234.805 27.2461C234.688 27.1211 234.262 25.9844 233.527 23.8359L231.289 17.8945L230.867 17.9531L230.855 19.1484V22.3242L230.902 25.5V26.8125C230.902 27.1641 230.824 27.3477 230.668 27.3633C229.895 27.3398 229.156 27.3281 228.453 27.3281H228.09L226.32 27.375H226.086L225.242 27.3984L225.207 27.375C224.949 27.1328 224.82 26.957 224.82 26.8477V26.6367L224.832 26.4023L224.891 21.832C224.891 16.8164 224.938 13.0234 225.031 10.4531L225.055 9.48047C225.055 9.41016 227.746 9.34766 233.129 9.29297C233.176 9.32422 233.246 9.49609 233.34 9.80859V9.77344L233.41 10.0078C233.988 11.6641 234.691 13.5664 235.52 15.7148C236.348 17.8555 236.77 18.9492 236.785 18.9961L237.184 18.9727L237.23 9.42188C237.23 9.35938 237.801 9.32812 238.941 9.32812L241.883 9.38672H242.75C242.805 11.9727 242.832 15.1094 242.832 18.7969Z" fill="#F9F2E1"/>
</svg>
