<svg width="699" height="333" viewBox="0 0 699 333" fill="none" xmlns="http://www.w3.org/2000/svg">
<g clip-path="url(#clip0_873_5283)">
<rect x="4.53223" y="335.945" width="768.293" height="56" transform="rotate(-25 4.53223 335.945)" fill="#533FB8"/>
<path d="M329.551 212.367C328.385 208.98 327.819 206.287 327.853 204.289C327.902 200.438 329.121 197.155 331.509 194.438C333.637 192.014 336.273 190.07 339.417 188.604C344.685 186.147 349.203 185.799 352.972 187.559C355.23 188.592 357.066 190.33 358.481 192.774L359.603 194.681C359.468 195.02 357.999 195.843 355.195 197.151L351.798 198.683L351.522 198.812L349.654 199.631L349.154 199.89L348.729 200.088C348.332 200.273 347.757 199.834 347.003 198.772C346.264 197.703 345.596 197.084 344.999 196.914C344.41 196.723 343.839 196.756 343.287 197.014C342.735 197.271 342.293 197.598 341.96 197.995C341.642 198.385 341.414 198.784 341.277 199.192C341.134 199.587 341.089 200.082 341.142 200.678C341.212 201.714 341.442 202.745 341.834 203.769C342.219 204.779 342.695 205.893 343.263 207.111L343.501 207.621L344.416 209.806C346.239 213.714 348.274 215.196 350.523 214.251C351.089 213.986 351.44 213.702 351.574 213.398C351.932 212.576 351.958 211.245 351.651 209.406C351.592 209.02 351.584 208.687 351.626 208.409L352.433 208.032L353.421 207.598L356.862 205.993L357.893 205.487L359.92 204.567L361.152 203.993L362.416 203.429L363.265 203.033C363.442 202.968 363.632 203.061 363.834 203.311L364.098 204.042C364.749 205.772 365.066 207.469 365.049 209.132C365.007 212.186 363.975 214.926 361.951 217.352C359.935 219.757 357.384 221.68 354.297 223.12C348.901 225.635 344.108 225.931 339.918 224.006C335.727 222.081 332.272 218.201 329.551 212.367ZM387.029 167.204L387.72 166.855C387.895 166.86 388.084 166.988 388.286 167.238L388.234 168.788L388.224 168.767L388.081 172.066C387.796 176.889 387.649 180.086 387.641 181.659L387.562 183.376C387.484 185.24 387.394 188.506 387.295 193.173C387.491 193.668 387.814 194.396 388.263 195.359L392.353 204.132C392.388 204.392 392.299 204.571 392.087 204.67L379.955 210.431C379.459 210.179 379.092 209.799 378.854 209.289L377.658 206.614L377.371 205.998L377.095 205.351L376.393 203.79C375.013 200.831 372.776 198.012 369.683 195.334C369.027 194.778 368.087 194.001 366.863 193.003L360.747 188.148C360.589 188.032 360.161 187.706 359.463 187.17C358.764 186.633 358.004 186.057 357.182 185.44L357.192 185.461C355.253 184.262 354.152 183.379 353.888 182.813C353.855 182.742 354.065 182.601 354.518 182.389L359.977 179.844C362.994 178.437 365.276 177.399 366.826 176.728C367.318 176.602 370.089 179.456 375.137 185.291L377.668 188.223C377.316 183.697 376.732 178.47 375.916 172.541C375.877 172.421 376.898 171.876 378.98 170.905L381.699 169.637C382.35 169.334 382.902 169.093 383.354 168.917L387.029 167.204ZM393.09 174.489L392.871 174.074L392.256 172.757C391.405 170.93 390.463 168.818 389.431 166.42L389.368 166.397L390.486 165.799C394.089 163.877 396.443 162.658 397.548 162.143L407.447 157.528C410.831 155.949 413.969 155.34 416.86 155.698C417.97 156.008 419.04 156.621 420.071 157.537C421.101 158.453 421.953 159.633 422.627 161.077C423.928 163.867 423.165 167.111 420.337 170.808C422.718 170.405 424.768 170.587 426.488 171.354C428.215 172.1 429.511 173.401 430.376 175.256C431.908 178.541 431.598 181.72 429.445 184.793C427.872 187.078 425.429 188.993 422.116 190.538L415.746 193.405C413.013 194.679 409.417 196.434 404.959 198.668C404.173 198.017 402.433 194.803 399.739 189.025C397.045 183.247 394.828 178.402 393.09 174.489ZM414.593 186.107C418.26 184.397 419.497 182.26 418.302 179.697C417.542 178.068 416.538 177.209 415.289 177.119C414.173 177.054 412.681 177.422 410.813 178.223L410.197 178.511L410.37 179.879C410.951 181.383 411.571 182.844 412.232 184.26C412.885 185.662 413.41 186.4 413.807 186.473L414.593 186.107ZM412.533 169.767C412.565 169.097 412.403 168.379 412.047 167.614C411.353 166.128 410.357 165.377 409.057 165.362C407.757 165.348 406.527 165.611 405.366 166.153C404.204 166.694 403.822 167.39 404.218 168.239C404.925 169.755 405.683 171.289 406.493 172.842L407.061 173.948C407.34 174.473 407.8 174.646 408.441 174.468L409.423 173.855C411.456 172.596 412.493 171.234 412.533 169.767ZM425.379 156.277L422.668 150.74C422.682 150.733 422.742 150.731 422.847 150.734C433.523 145.532 441.584 141.652 447.03 139.096C447.099 139.097 447.162 139.12 447.216 139.164L450.01 145.154C450.28 145.734 450.488 146.215 450.631 146.597C450.666 146.856 450.301 147.164 449.536 147.521L449.387 147.59C445.96 149.188 442.365 150.796 438.602 152.413C438.662 152.54 438.746 152.776 438.856 153.122C438.979 153.461 439.067 153.704 439.119 153.853L439.389 154.709C439.569 155.281 439.955 156.238 440.548 157.583L447.063 154.363C448.183 153.807 448.998 153.41 449.508 153.172L449.847 153.013C450.711 152.611 451.291 152.375 451.586 152.306C451.875 152.223 452.076 152.302 452.188 152.543L452.246 152.722L452.484 153.232L455.136 158.642L455.124 158.673L455.114 158.652C450.908 160.872 447.517 162.582 444.94 163.784L443.941 164.25L446.338 169.39L457.704 163.651C458.341 163.353 458.788 163.257 459.044 163.362C459.201 163.737 459.438 164.264 459.755 164.944L462.598 170.652C462.763 171.006 462.703 171.284 462.418 171.486L455.336 174.711C453.948 175.358 451.21 176.695 447.121 178.723L443.677 180.432C441.253 181.666 439.446 182.56 438.256 183.115L438.173 183.102L438.194 183.092C437.986 183.017 437.789 182.945 437.602 182.877L437.256 182.134L426.794 159.367L425.379 156.277ZM459.939 133.283L466.728 130.04C468.172 129.366 469.495 128.783 470.697 128.292C473.894 126.904 476.641 126.529 478.938 127.165C481.248 127.794 482.998 129.383 484.187 131.932C485.012 133.702 485.202 135.458 484.756 137.201C484.303 138.929 483.307 140.73 481.767 142.603C485.373 142.128 488.4 143.648 490.848 147.161C491.394 147.924 491.96 148.823 492.547 149.86C493.148 150.89 493.562 151.576 493.791 151.918L494.508 152.902C495.329 154.071 495.956 154.899 496.391 155.386L496.335 155.489C494.001 156.768 491.835 157.872 489.838 158.804C487.856 159.728 486.083 160.511 484.521 161.154L484.393 161.213C483.954 161.418 482.513 159.547 480.069 155.601L479.537 154.737C478.754 153.205 477.989 152.286 477.243 151.979C476.51 151.666 475.542 151.79 474.339 152.351L474.072 152.501L472.947 153.026L475.958 159.483L476.296 160.153L478.109 164.04C478.132 164.202 478.066 164.336 477.909 164.444C476.378 165.227 474.189 166.282 471.342 167.609C468.51 168.93 466.644 169.809 465.744 170.245L465.597 170.262L465.565 170.303C465.536 170.317 465.484 170.315 465.407 170.299L464.558 168.368L464.24 167.74L460.214 158.885L459.491 157.335L458.77 155.732L456.225 150.22L455.91 149.488L453.598 144.696C453.598 144.696 452.573 142.424 450.523 137.88C450.47 137.767 450.847 137.522 451.655 137.146L453.024 136.533L454.32 135.929L457.027 134.692L459.939 133.283ZM496.488 155.263L496.412 155.376L496.392 155.334C496.385 155.319 496.417 155.296 496.488 155.263ZM496.412 155.376L496.422 155.397C496.408 155.404 496.397 155.4 496.391 155.386L496.412 155.376ZM471.027 136.543C470.006 136.571 468.787 136.915 467.371 137.575L466.139 138.15C466.089 138.449 466.569 139.682 467.579 141.848C468.583 144.001 469.292 145.429 469.706 146.132C474.092 143.966 475.595 141.403 474.215 138.444C473.628 137.183 472.565 136.55 471.027 136.543Z" fill="white"/>
<rect x="114.933" y="341.322" width="659.784" height="56" transform="rotate(-25 114.933 341.322)" fill="#FF810C"/>
<path d="M330.4 267.404C332.099 271.49 333.935 275.651 335.91 279.885L338.862 286.215L337.311 286.938L336.77 287.164L329.259 290.744C328.778 290.969 328.526 291.095 328.504 291.122C328.498 291.108 328.47 290.975 328.421 290.722L328.361 290.594L328.343 290.499C327.797 289.513 327.184 288.29 326.503 286.832L315.524 263.065L314.988 261.97L314.493 260.908L313.519 258.931C313.453 258.79 313.462 258.605 313.545 258.376L316.455 257.019L318.144 256.206C322.138 254.344 325.018 253.07 326.784 252.384C328.564 251.692 329.83 251.17 330.58 250.82C332.127 253.065 334.241 256.009 336.924 259.655L341.978 266.556L342.722 266.209L338.963 251.049C338.906 250.817 338.718 250.155 338.398 249.063C338.072 247.956 337.925 247.327 337.957 247.174L338.042 247.134L351.811 240.559L352.649 240.193L355.028 239.084C355.182 239.081 355.375 239.31 355.607 239.771L359.564 247.701C362.837 254.278 365.374 259.405 367.175 263.082C368.509 265.942 369.718 268.646 370.802 271.192C370.839 271.381 370.602 271.613 370.091 271.885L369.155 272.373C368.403 272.758 367.844 273.037 367.475 273.208L366.371 273.723C365.004 274.378 362.982 275.33 360.306 276.578C359.605 276.37 358.473 274.588 356.908 271.231L353.84 264.542L353.038 262.821C352.331 261.306 351.802 260.191 351.451 259.475L350.575 259.703C350.906 261.634 351.787 265.87 353.216 272.41L353.421 273.349C353.527 273.834 353.723 274.699 354.011 275.944C354.306 277.169 354.518 278.104 354.647 278.751C354.57 279.028 353.865 279.477 352.534 280.098L352.258 280.227L349.849 281.272L348.563 281.898L347.565 282.363L345.897 283.167L345.302 283.445C344.651 283.748 344.22 283.768 344.011 283.504L344.042 283.515L338.177 275.983C338.021 275.797 337.679 275.397 337.15 274.781C336.615 274.151 336.221 273.602 335.969 273.134L331.166 266.995L330.4 267.404ZM377.549 248.004C377.555 248.018 377.565 248.057 377.577 248.12L377.607 248.184C377.827 248.805 378.109 249.484 378.453 250.22C378.796 250.956 379.216 251.709 379.712 252.477C380.223 253.239 380.804 253.968 381.456 254.664C382.122 255.353 382.864 255.817 383.683 256.057C384.557 256.304 385.376 256.25 386.141 255.893C386.92 255.53 387.522 255.12 387.946 254.663C388.379 254.186 388.693 253.694 388.888 253.189C389.098 252.678 389.202 252.069 389.2 251.363C389.16 249.503 388.384 246.951 386.872 243.708C385.334 240.408 383.875 238.278 382.496 237.318C381.125 236.337 379.674 236.203 378.145 236.916C377.38 237.273 376.794 237.77 376.385 238.409C375.99 239.042 375.736 239.625 375.624 240.161C375.525 240.689 375.621 241.67 375.91 243.104C376.214 244.532 376.62 245.791 377.128 246.881L377.549 248.004ZM365.414 253.869L365.238 253.382C364.583 251.533 364.08 249.862 363.729 248.371C363.372 246.865 363.234 245.369 363.317 243.882C363.611 240.556 364.796 237.589 366.874 234.983C368.959 232.356 371.566 230.312 374.695 228.853C377.839 227.387 380.986 226.686 384.137 226.752C386.017 226.789 387.656 227.18 389.054 227.924C391.675 229.219 393.654 230.615 394.99 232.113C396.326 233.61 397.526 235.499 398.589 237.779C400.953 242.848 401.708 247.203 400.854 250.843L400.481 252.594C399.877 254.737 398.566 256.788 396.548 258.746C394.524 260.69 392.336 262.228 389.984 263.359C385.934 265.247 382.217 265.946 378.833 265.455C373.116 264.656 368.643 260.794 365.414 253.869ZM434.709 222.901L435.352 224.334L439.016 232.194L440.802 235.912L441.298 236.974L441.784 237.963C441.752 238.116 441.432 238.334 440.823 238.618L440.27 238.876L433.64 242.071C430.808 243.391 428.695 244.368 427.3 245.001C426.982 244.874 425.25 243.173 422.103 239.9L413.024 231.022L412.308 231.485L413.297 233.661L415.982 239.418L418.751 245.135L419.86 247.514C420.157 248.151 420.171 248.55 419.901 248.71C418.479 249.321 417.131 249.924 415.857 250.519L415.198 250.826L412.03 252.406L411.605 252.604L410.096 253.36L410.012 253.347C409.34 253.126 408.958 252.916 408.866 252.718L408.687 252.336L408.511 251.901L404.754 243.567C400.514 234.476 397.393 227.561 395.391 222.823L394.611 221.04C394.552 220.913 399.377 218.524 409.088 213.876C409.199 213.893 409.472 214.145 409.906 214.632L409.877 214.568L410.202 214.934C412.65 217.447 415.532 220.301 418.849 223.495C422.16 226.675 423.849 228.301 423.917 228.373L424.619 227.994L416.632 210.642C416.579 210.529 417.586 209.99 419.654 209.026L425.035 206.646L426.607 205.913C428.892 210.554 431.592 216.217 434.709 222.901ZM439.73 199.561L443.672 197.645C450.597 194.416 455.996 193.295 459.87 194.282C460.669 194.443 461.664 194.876 462.854 195.579C466.301 197.61 468.866 200.431 470.55 204.042C473.555 210.485 473.56 216.284 470.568 221.438C468.784 224.528 466.179 226.889 462.751 228.522L462.706 228.647L462.175 228.894L456.495 231.465C453.932 232.66 450.754 234.22 446.961 236.143C446.455 235.759 446.039 235.22 445.716 234.526L445.381 233.751L443.835 230.438L441.679 225.702L438.054 217.928C437.193 216.157 436.558 214.832 436.149 213.954L434.525 210.471L434.318 209.972L431.485 203.897C431.432 203.784 432.161 203.332 433.672 202.541C435.176 201.737 436.388 201.12 437.308 200.69L439.73 199.561ZM452.163 202.711C451.085 202.507 450.041 202.597 449.031 202.982C448.685 203.126 448.211 203.33 447.61 203.593C447.022 203.85 446.591 204.034 446.315 204.145C446.239 204.646 446.201 205.009 446.202 205.232L446.186 206.197L446.74 207.386C447.883 209.836 449.488 213.13 451.556 217.269L454.546 223.349C454.836 223.748 455.241 223.878 455.762 223.738C457.207 223.03 458.287 222.406 459.001 221.866C461.328 219.574 461.142 215.532 458.441 209.74C456.44 205.449 454.348 203.106 452.163 202.711ZM514.143 204.247C514.215 204.438 513.868 204.712 513.104 205.068L511.149 205.979L509.842 206.615L508.546 207.219L506.496 208.201C504.443 209.158 502.713 209.905 501.307 210.439C501.258 210.445 501.169 210.383 501.04 210.254L500.726 209.857C499.918 208.458 498.928 207.204 497.756 206.096L488.704 210.42C488.76 210.687 488.909 211.488 489.153 212.823C489.396 214.158 489.581 215.166 489.709 215.848C489.634 216.055 488.994 216.44 487.791 217.001L487.25 217.227L486.018 217.802L480.554 220.505L479.917 220.802L479.332 221.1L477.845 221.794C477.7 221.741 477.534 221.663 477.348 221.56C476.48 216 475.566 209.03 474.606 200.65L474.391 198.914L474.37 198.924L474.122 196.894C474.042 196.242 473.833 194.425 473.495 191.445C473.171 188.459 472.94 186.54 472.802 185.691C472.679 184.835 472.632 184.382 472.661 184.334L476.187 182.69L483.679 179.068L485.767 178.223L487.396 177.334C488.246 176.938 488.75 176.91 488.908 177.25C492.167 180.54 496.708 185.344 502.533 191.662C508.359 197.98 511.634 201.529 512.361 202.311L513.154 203.235C513.431 203.571 513.761 203.908 514.143 204.247ZM487.706 202.455L488.586 202.07L493.653 199.682C492.655 198.096 491.914 196.933 491.431 196.192L488.93 192.937C486.331 189.58 485 187.873 484.939 187.815C484.878 187.758 484.82 187.707 484.765 187.664C484.718 187.6 484.684 187.564 484.663 187.556C484.636 187.535 484.595 187.502 484.54 187.458C484.499 187.408 484.462 187.383 484.427 187.382C484.399 187.36 484.362 187.335 484.313 187.306C484.135 187.182 483.86 187.129 483.489 187.147C483.147 187.41 483.994 192.204 486.032 201.529L486.452 203.04L487.706 202.455ZM526.487 159.235L527.179 158.887C527.353 158.891 527.542 159.019 527.745 159.269L527.692 160.82L527.682 160.798L527.539 164.097C527.254 168.92 527.107 172.117 527.099 173.69L527.021 175.407C526.942 177.272 526.853 180.537 526.753 185.204C526.949 185.699 527.272 186.428 527.721 187.391L531.812 196.163C531.847 196.423 531.758 196.602 531.545 196.701L519.414 202.462C518.917 202.211 518.55 201.83 518.312 201.32L517.117 198.645L516.829 198.029L516.554 197.382L515.852 195.822C514.472 192.862 512.235 190.043 509.141 187.365C508.485 186.809 507.546 186.032 506.322 185.034L500.205 180.18C500.047 180.064 499.619 179.737 498.921 179.201C498.223 178.665 497.462 178.088 496.64 177.471L496.65 177.493C494.712 176.293 493.61 175.41 493.346 174.844C493.313 174.773 493.523 174.632 493.977 174.421L499.436 171.875C502.452 170.469 504.735 169.43 506.284 168.759C506.777 168.633 509.547 171.487 514.596 177.322L517.126 180.254C516.775 175.729 516.19 170.501 515.374 164.572C515.335 164.452 516.357 163.907 518.438 162.936L521.157 161.669C521.809 161.365 522.36 161.125 522.813 160.948L526.487 159.235Z" fill="white"/>
</g>
<defs>
<clipPath id="clip0_873_5283">
<rect width="699" height="333" fill="white"/>
</clipPath>
</defs>
</svg>
