<svg width="203" height="49" viewBox="0 0 203 49" fill="none" xmlns="http://www.w3.org/2000/svg">
<path d="M3.89313 2.25593L3.49536 44.1135L200.625 47.6741L201.023 5.81652L3.89313 2.25593Z" fill="#FF810C"/>
<path d="M49.1106 46.9507C49.3307 46.9664 49.4386 46.9507 49.1106 46.9507V46.9507Z" fill="#FF810C"/>
<path d="M66.3921 0.961737C66.4585 0.961737 66.4917 0.961737 66.5582 0.961737C66.6786 0.910218 66.7907 0.864424 66.9028 0.830078L66.3921 0.961737Z" fill="#FF810C"/>
<path d="M93.7175 1.80313C93.7798 1.80885 93.8254 1.81458 93.8835 1.8203C93.8711 1.78595 93.9043 1.75161 93.7175 1.80313Z" fill="#FF810C"/>
<path d="M1.09607 0.875732C1.08761 1.1505 1.10454 1.31078 1.12995 1.43671C1.11301 1.27071 1.10031 1.09898 1.09607 0.875732Z" fill="#FF810C"/>
<path d="M99.1934 47.5632C99.1934 47.5632 99.1228 47.5632 99.073 47.5632C99.1685 47.5747 99.2682 47.5861 99.3678 47.6033L99.1934 47.5632Z" fill="#FF810C"/>
<path d="M98.641 47.649C98.039 47.5975 98.8071 47.5746 99.0728 47.5689C98.4085 47.483 97.74 47.4658 97.0674 47.4887C97.0715 47.5689 98.3462 47.5803 98.641 47.649Z" fill="#FF810C"/>
<path d="M190.041 48.9714L189.767 49.0001C189.879 48.9943 189.962 48.9829 190.041 48.9714Z" fill="#FF810C"/>
<path d="M7.52505 4.57935C7.51233 4.58492 7.49114 4.59048 7.48267 4.59605C7.51233 4.60162 7.52081 4.59049 7.52505 4.57935Z" fill="#FF810C"/>
<path d="M175.7 48.6279L175.542 48.7596C175.683 48.7081 175.712 48.668 175.7 48.6279Z" fill="#FF810C"/>
<path d="M66.9032 0.835698L67.1024 0.78418C67.0318 0.795628 66.9696 0.812801 66.9032 0.835698Z" fill="#FF810C"/>
<path d="M118.966 2.34692C118.974 2.38699 119.032 2.42134 119.098 2.44996C119.132 2.44996 119.152 2.44996 119.169 2.44996L118.966 2.34692Z" fill="#FF810C"/>
<path d="M200.512 36.4294C200.537 36.4237 200.562 36.4065 200.591 36.3836L200.454 36.0344C200.463 36.2176 200.483 36.3435 200.512 36.4294Z" fill="#FF810C"/>
<path d="M153.594 3.55479C153.623 3.53761 153.706 3.52616 153.714 3.50899C153.125 3.45175 151.559 3.4174 149.562 3.38306L149.438 3.54334L153.594 3.55479Z" fill="#FF810C"/>
<path d="M191.432 8.09416L187.745 7.69346C190.44 7.70491 192.811 7.73925 194.978 7.78505C195.522 7.7965 196.049 7.80794 196.568 7.81939C196.697 7.82512 196.826 7.82512 196.955 7.83084L197.125 7.83657H197.166C197.22 7.83657 197.27 7.84229 197.324 7.84229C197.523 7.85374 197.714 7.86519 197.901 7.87091C197.889 8.02547 197.876 8.18002 197.864 8.33458L197.86 8.39182L197.856 8.62652C197.851 8.81542 197.851 9.00432 197.847 9.19895C197.843 9.58248 197.839 9.96601 197.839 10.3553C197.831 11.9123 197.86 13.5551 197.947 15.4327L197.843 15.0492C197.719 16.0452 198.815 16.6291 197.366 27.6598H197.316C197.32 28.0433 197.42 28.0433 197.283 28.8047L197.602 26.8985C197.714 28.0433 197.939 29.0508 197.959 30.5735C197.901 30.894 197.802 31.0085 197.723 31.0372L197.768 34.7808L197.44 35.92C197.602 37.0648 198.275 36.5554 197.872 39.6121C198.345 38.4673 198.138 41.1348 198.375 40.7627C198.316 40.9173 198.225 41.2665 198.146 41.547C198.184 43.3673 198.279 46.7961 198.512 47.6491C198.512 47.6491 199.558 40.5452 200.073 38.6447C199.923 41.2035 200.123 39.3202 200.285 38.8165L200.172 38.6447C200.301 37.1106 200.592 37.1164 200.683 36.3493C200.658 36.3493 200.629 36.3722 200.6 36.3951L200.637 36.4924C200.583 36.5611 200.55 36.521 200.521 36.4409C200.459 36.4581 200.409 36.3894 200.43 35.9715L200.459 36.0516C200.422 35.4105 200.48 34.3057 200.505 33.8249L200.75 33.8192C200.293 32.6743 201.534 26.1887 201.563 24.6603C201.887 23.1319 201.518 21.22 201.692 19.3081C201.8 16.257 202.066 17.7854 202.29 16.257C202.46 14.3451 201.999 16.6405 201.991 15.8735L202.352 13.5838C202.369 14.9175 202.523 14.1963 202.622 13.9558C202.651 12.9655 202.788 11.689 202.855 10.5842C202.888 10.0347 202.905 9.51951 202.884 9.11308C202.871 8.90701 202.851 8.72956 202.817 8.58073C202.801 8.51776 202.78 8.409 202.759 8.32886C202.738 8.24872 202.709 8.18002 202.68 8.12851C202.805 6.34825 202.917 5.3007 203 4.55082C201.858 4.47068 201.24 4.41343 199.844 4.37909C200.264 4.41916 200.887 4.45923 201.389 4.49358C201.891 4.53365 202.273 4.56799 202.236 4.60234C201.7 4.55654 201.347 4.53365 201.148 4.52792C200.949 4.5222 200.903 4.52792 200.953 4.54509C201.057 4.57944 201.543 4.64241 201.987 4.6653C201.065 4.68248 199.554 4.63668 197.669 4.55654C197.552 4.55082 197.432 4.54509 197.312 4.53937C197.254 4.53937 197.195 4.53365 197.137 4.53365L197.013 4.52792C196.847 4.51647 196.672 4.51075 196.502 4.4993C196.157 4.4764 195.8 4.45923 195.443 4.43633C194.725 4.39054 193.986 4.34474 193.263 4.30467C190.373 4.12722 187.72 3.98411 187.467 4.16157V4.09287C186.902 4.35047 187.803 4.63096 186.113 4.75117L184.992 4.60806L183.298 4.69393C182.165 4.58516 182.721 4.5222 182.725 4.48785C179.968 4.56227 176.119 4.34474 172.781 4.24743L176.31 5.04883C173.495 4.82558 168.413 4.39054 167.848 4.61951L166.158 4.33902C160.512 3.76086 162.214 4.47068 159.959 4.2875L157.124 3.96694L159.947 4.02418C157.124 3.83528 155.994 3.72652 153.748 3.509L153.723 3.51472C153.877 3.52617 153.976 3.54334 153.997 3.56051H153.603C153.258 3.68645 151.784 3.75514 149.795 3.70935C146.972 3.61776 144.759 3.77804 140.249 3.41168L139.12 3.66928L135.732 3.43458L135.736 3.21706C139.054 3.29147 145.298 3.32009 149.563 3.38306L149.637 3.28575C147.109 3.23995 144.231 3.28575 142.558 3.23423C141.744 3.17699 139.66 2.90794 141.175 2.78773L139.61 2.97664C131.169 2.8507 131.115 2.85643 122.308 2.45L123.072 2.57593C121.324 2.61028 119.58 2.6389 119.099 2.45572C113.809 2.32407 108.332 2.08365 104.898 1.74591L104.143 1.99206C103.026 1.95771 101.357 1.53411 100.809 1.88902L98.4212 1.95771C96.8932 1.91192 95.959 2.04358 94.2193 1.8604C94.2151 1.8604 94.211 1.8604 94.211 1.8604C94.103 1.84895 93.9909 1.8375 93.883 1.82605C93.883 1.83178 93.8913 1.84322 93.9037 1.84895C90.4492 1.6715 93.937 2.08365 89.98 1.8604C88.7136 1.65432 88.5724 2.16379 86.6459 2.0722L84.7152 1.66577C81.2233 1.391 80.6212 1.75164 75.5598 1.66005C73.1308 1.48259 71.9599 1.14486 73.5709 0.892991C71.3537 1.19065 72.562 1.09907 69.6223 1.20783C69.1697 1.059 69.4853 1.0361 70.133 0.921612C67.5255 0.709813 68.522 1.01893 66.5581 0.973131C65.9851 1.225 65.3207 1.63715 64.6813 1.63715L65.4411 1.73446C63.3568 1.8375 61.0814 1.8604 58.6649 1.68867L58.7563 1.55701L56.1778 1.57991L56.0159 1.40818L52.3371 1.39673L52.8395 1.45397C51.9759 1.4597 49.14 1.46542 47.5166 1.35093L47.5747 1.25935C43.0032 0.881542 39.2248 1.2021 33.8686 1.13341L34.5745 0.955958C32.7517 0.73271 34.0721 1.24217 31.8964 1.11051L31.7884 0.870094C29.8702 1.14486 29.3138 0.761332 27.9934 0.618224L28.6079 0.938785L26.125 0.830023C23.3887 0.675467 24.4475 0.406425 24.8503 0.251869L22.986 0.463668L22.6248 0.183178C21.2587 0.475117 21.2629 0.108762 18.8754 0.234696C18.6927 0.108762 19.2948 0.057243 18.4851 0L14.5448 0.314836L16.9198 0.188902L16.6291 0.583879C14.1545 0.841472 13.2825 0.480841 11.5138 0.560981L12.7303 0.463668C9.84876 0.509463 9.69514 0.337734 8.07167 0.217523C8.57407 0.303388 9.34636 0.423598 8.17962 0.457944C8.07167 0.457944 7.98448 0.457944 7.91389 0.45222C7.87652 0.45222 7.8433 0.446495 7.81424 0.446495C7.76441 0.440771 7.72289 0.440771 7.68137 0.435047C7.51529 0.417874 7.41564 0.400701 7.32014 0.372079C7.12499 0.326285 6.934 0.269042 6.20323 0.234696C6.09942 0.337734 5.48076 0.41215 4.60882 0.457944C3.73273 0.49229 2.59921 0.503738 1.34943 0.469393C1.34113 0.887266 1.31206 1.31086 1.27054 1.72301C1.21656 1.6715 1.16259 1.59708 1.12937 1.4368C1.15843 1.72874 1.1958 1.95771 1.21656 2.22675C1.23732 2.49579 1.23317 2.79918 1.18335 3.26285C1.03802 3.0396 0.896852 2.79918 0.751529 2.54731C0.884396 3.24568 1.01726 3.9097 1.15013 4.53365C1.14183 4.61379 1.13352 4.69393 1.12937 4.77407C1.12522 4.83131 1.12107 4.88855 1.11691 4.9458C1.11276 5.04311 1.11276 5.14614 1.11691 5.24346C1.12522 5.44381 1.14183 5.63843 1.15428 5.81016C1.17919 6.15362 1.18335 6.39404 1.03387 6.34252L0.950829 5.93037L0.79305 11.4085L0.444274 11.4772C0.917613 12.0268 0.232517 14.4596 0.834571 14.2879C0.498251 15.3182 1.02557 18.3693 0.35708 17.7453C0.269886 21.3459 0.901004 23.3036 0.531468 27.6713C-0.0581293 29.2225 0.087194 33.4986 0 36.3092C0.0539772 37.7689 0.0996502 39.0912 0.149475 40.3563C0.161932 40.6711 0.174388 40.986 0.186844 41.2951C0.195148 41.8332 0.207605 42.3655 0.215909 42.8979C0.232517 44.0084 0.253278 45.1132 0.269886 46.2294C1.69821 46.2409 3.13898 46.2466 4.60467 46.2581C5.32714 46.2638 6.0579 46.2695 6.79698 46.2752C6.97967 46.2752 7.16651 46.2752 7.34921 46.281C7.45301 46.281 7.56096 46.281 7.66892 46.281C7.87652 46.281 8.08413 46.281 8.29588 46.281C9.97333 46.281 11.7504 46.2867 13.6936 46.2867C18.672 46.9221 26.125 46.3268 31.4853 46.7275L32.9552 46.5386C36.5177 46.945 41.9611 46.6244 46.9602 47.048C48.185 46.9736 48.8286 46.9564 49.1151 46.9564C48.8867 46.9393 48.5421 46.8935 48.4383 46.7561C49.8666 46.8763 52.7565 46.8076 52.5489 47.0824L52.1877 47.1053C51.9759 47.3743 56.5224 47.0537 58.1127 47.3228L57.2408 47.0137L59.9438 47.111L59.2172 47.1568C70.9717 46.7217 76.2739 47.7464 87.3144 47.3514C85.8487 47.6433 89.4901 47.2255 89.6312 47.5747C92.409 48.0669 94.7881 47.5747 97.0718 47.4945C97.0718 47.4773 97.1009 47.4602 97.2296 47.4315L101.216 47.546C98.8281 47.9467 104.093 47.2312 101.901 47.5689C112.298 48.0898 125.871 47.9983 137.908 48.3646L137.38 48.2387C140.432 48.3131 144.231 48.2444 146.548 48.4676C148.865 48.6909 151.618 48.273 152.519 48.2673C155.06 48.1185 157.364 48.5478 156.276 48.5077C158.992 48.502 161.55 48.1471 165.316 48.3875C166.599 48.7825 175.596 48.2043 175.708 48.6279L175.75 48.5936C180.57 48.9771 185.129 48.5535 190.324 48.9199C190.324 48.9199 190.224 48.9485 190.05 48.9771L200.637 47.8895L197.64 46.4241L188.484 45.1132L163.638 44.9129L143.816 44.1057L95.5604 43.3845L92.11 43.6421C82.635 42.9151 70.4693 43.3329 60.2552 42.7548L60.0393 43.0238C57.1619 42.9895 57.357 42.8235 56.647 42.7605C47.7574 42.6174 38.7764 42.5087 29.8702 42.3999C25.415 42.3426 20.9805 42.2854 16.5835 42.2282C13.2244 42.1766 9.89444 42.1308 6.61013 42.085C6.61844 41.3065 6.63089 40.5338 6.6392 39.7667C6.66411 38.307 6.68902 36.8645 6.71393 35.4277C6.77622 32.5598 6.85926 29.7549 6.96721 27.0072C7.24956 25.4388 7.13745 20.6475 7.43225 19.4168C7.21219 16.7607 7.11254 14.0303 7.08762 11.294C7.07517 9.92593 7.07517 8.56355 7.08762 7.20689C7.09593 6.53143 7.10423 5.85596 7.11253 5.18049L7.11669 4.95152L7.12084 4.91145L7.12499 4.83131C7.12914 4.77979 7.1333 4.72255 7.13745 4.67103L7.18312 4.72255L7.1416 4.52792L7.46131 4.50502C7.50283 4.52792 7.52359 4.56227 7.51944 4.57944C7.57342 4.55082 7.65646 4.52792 7.75611 4.51647C7.74781 4.51647 7.80178 4.51647 7.835 4.51647H7.94711C8.02184 4.51647 8.09658 4.51647 8.17132 4.51647C8.3208 4.51647 8.47442 4.51647 8.62805 4.51647C8.93531 4.51647 9.25086 4.5222 9.57057 4.5222C10.8494 4.53365 12.2196 4.56799 13.6189 4.61951C16.4174 4.7111 19.3321 4.84848 21.8815 4.9458L21.5826 4.96869C51.3323 5.5583 78.9604 5.54685 108.461 6.46273C122.175 7.15537 138.14 6.82909 153.877 7.48738C156.771 7.80222 188.617 8.16858 191.432 8.09416Z" fill="#FF810C"/>
<path d="M197.714 31.0314V30.9456C197.544 30.9456 197.607 31.0715 197.714 31.0314Z" fill="#FF810C"/>
<path d="M172.561 4.23594C172.631 4.23594 172.702 4.24166 172.768 4.24166L171.988 4.06421L172.561 4.23594Z" fill="#FF810C"/>
<path d="M202.659 15.1006C202.726 13.8184 202.684 13.7612 202.613 13.9386C202.601 14.4023 202.609 14.8087 202.659 15.1006Z" fill="#FF810C"/>
<path d="M197.939 41.5125C197.918 42.188 198.022 41.9304 198.138 41.5354C198.125 40.8485 198.117 40.3677 198.117 40.3677C198.076 40.7512 197.984 41.1233 197.939 41.5125Z" fill="#FF810C"/>
<path d="M200.276 38.8051L200.413 39.0169C200.384 38.6219 200.33 38.6391 200.276 38.8051Z" fill="#FF810C"/>
<path d="M14.035 21V11.9H15.881V15.631H19.391V11.9H21.237V21H19.391V17.2235H15.881V21H14.035ZM26.3919 19.5765C26.7776 19.5765 27.1264 19.479 27.4384 19.284C27.7548 19.089 27.9909 18.829 28.1469 18.504V16.762C27.9909 16.437 27.7548 16.177 27.4384 15.982C27.1264 15.787 26.7776 15.6895 26.3919 15.6895C25.8416 15.6895 25.3801 15.8758 25.0074 16.2485C24.6348 16.6212 24.4484 17.0827 24.4484 17.633C24.4484 18.1833 24.6348 18.6448 25.0074 19.0175C25.3801 19.3902 25.8416 19.5765 26.3919 19.5765ZM26.0149 14.11C26.8686 14.11 27.5793 14.3873 28.1469 14.942V14.266H29.9149V21H28.1469V20.324C27.5793 20.8787 26.8686 21.156 26.0149 21.156C25.3823 21.156 24.8081 20.9978 24.2924 20.6815C23.7768 20.3608 23.3738 19.9318 23.0834 19.3945C22.7974 18.8572 22.6544 18.27 22.6544 17.633C22.6544 16.996 22.7974 16.4088 23.0834 15.8715C23.3738 15.3342 23.7768 14.9073 24.2924 14.591C24.8081 14.2703 25.3823 14.11 26.0149 14.11ZM31.3479 21V19.5505L34.5459 15.813H31.5169V14.266H36.7169V15.7155L33.5189 19.453H36.8469V21H31.3479ZM45.5365 21.156C44.4748 21.156 43.5865 20.8158 42.8715 20.1355C42.1565 19.4552 41.799 18.621 41.799 17.633C41.799 16.645 42.1565 15.8108 42.8715 15.1305C43.5865 14.4502 44.4748 14.11 45.5365 14.11C46.5158 14.11 47.363 14.4112 48.078 15.0135L47.194 16.346C46.6566 15.9083 46.1085 15.6895 45.5495 15.6895C44.9991 15.6895 44.5376 15.878 44.165 16.255C43.7923 16.6277 43.606 17.087 43.606 17.633C43.606 18.1833 43.7923 18.6448 44.165 19.0175C44.5376 19.3902 44.9991 19.5765 45.5495 19.5765C46.1388 19.5765 46.7 19.3403 47.233 18.868L48.2275 20.116C47.5125 20.8093 46.6155 21.156 45.5365 21.156ZM49.4971 21V11.51H51.2846V21H49.4971ZM53.0899 21V14.266H54.8774V21H53.0899ZM53.2329 13.2065C53.0292 13.0072 52.9274 12.7623 52.9274 12.472C52.9274 12.1817 53.0292 11.9368 53.2329 11.7375C53.4365 11.5382 53.6879 11.4385 53.9869 11.4385C54.2859 11.4385 54.5372 11.5382 54.7409 11.7375C54.9445 11.9368 55.0464 12.1817 55.0464 12.472C55.0464 12.7623 54.9445 13.0072 54.7409 13.2065C54.5372 13.4058 54.2859 13.5055 53.9869 13.5055C53.6879 13.5055 53.4365 13.4058 53.2329 13.2065ZM59.9456 21.156C58.884 21.156 57.9956 20.8158 57.2806 20.1355C56.5656 19.4552 56.2081 18.621 56.2081 17.633C56.2081 16.645 56.5656 15.8108 57.2806 15.1305C57.9956 14.4502 58.884 14.11 59.9456 14.11C60.925 14.11 61.7721 14.4112 62.4871 15.0135L61.6031 16.346C61.0658 15.9083 60.5176 15.6895 59.9586 15.6895C59.4083 15.6895 58.9468 15.878 58.5741 16.255C58.2015 16.6277 58.0151 17.087 58.0151 17.633C58.0151 18.1833 58.2015 18.6448 58.5741 19.0175C58.9468 19.3902 59.4083 19.5765 59.9586 19.5765C60.548 19.5765 61.1091 19.3403 61.6421 18.868L62.6366 20.116C61.9216 20.8093 61.0246 21.156 59.9456 21.156ZM71.0921 19.5765C71.4778 19.5765 71.8266 19.479 72.1386 19.284C72.455 19.089 72.6911 18.829 72.8471 18.504V16.762C72.6911 16.437 72.455 16.177 72.1386 15.982C71.8266 15.787 71.4778 15.6895 71.0921 15.6895C70.5418 15.6895 70.0803 15.8758 69.7076 16.2485C69.335 16.6212 69.1486 17.0827 69.1486 17.633C69.1486 18.1833 69.335 18.6448 69.7076 19.0175C70.0803 19.3902 70.5418 19.5765 71.0921 19.5765ZM70.7151 14.11C71.5688 14.11 72.2795 14.3873 72.8471 14.942V14.266H74.6151V21H72.8471V20.324C72.2795 20.8787 71.5688 21.156 70.7151 21.156C70.0825 21.156 69.5083 20.9978 68.9926 20.6815C68.477 20.3608 68.074 19.9318 67.7836 19.3945C67.4976 18.8572 67.3546 18.27 67.3546 17.633C67.3546 16.996 67.4976 16.4088 67.7836 15.8715C68.074 15.3342 68.477 14.9073 68.9926 14.591C69.5083 14.2703 70.0825 14.11 70.7151 14.11ZM79.6361 19.5765C80.0217 19.5765 80.3706 19.479 80.6826 19.284C80.9989 19.089 81.2351 18.829 81.3911 18.504V16.762C81.2351 16.437 80.9989 16.177 80.6826 15.982C80.3706 15.787 80.0217 15.6895 79.6361 15.6895C79.0857 15.6895 78.6242 15.8758 78.2516 16.2485C77.8789 16.6212 77.6926 17.0827 77.6926 17.633C77.6926 18.1833 77.8789 18.6448 78.2516 19.0175C78.6242 19.3902 79.0857 19.5765 79.6361 19.5765ZM79.2591 14.11C80.1127 14.11 80.8234 14.3873 81.3911 14.942V14.266H83.1591V24.016H81.3911V20.324C80.8234 20.8787 80.1127 21.156 79.2591 21.156C78.6264 21.156 78.0522 20.9978 77.5366 20.6815C77.0209 20.3608 76.6179 19.9318 76.3276 19.3945C76.0416 18.8572 75.8986 18.27 75.8986 17.633C75.8986 16.996 76.0416 16.4088 76.3276 15.8715C76.6179 15.3342 77.0209 14.9073 77.5366 14.591C78.0522 14.2703 78.6264 14.11 79.2591 14.11ZM89.337 18.647V14.266H91.1245V21H89.337V20.259C89.1074 20.532 88.8235 20.7508 88.4855 20.9155C88.1519 21.0758 87.8052 21.156 87.4455 21.156C86.6525 21.156 86.0047 20.9025 85.502 20.3955C85.0037 19.8885 84.7545 19.2277 84.7545 18.413V14.266H86.542V18.2375C86.542 18.6188 86.6634 18.9373 86.906 19.193C87.153 19.4487 87.478 19.5765 87.881 19.5765C88.154 19.5765 88.4249 19.4855 88.6935 19.3035C88.9622 19.1215 89.1767 18.9027 89.337 18.647ZM92.8897 21V14.266H94.6772V21H92.8897ZM92.6102 13.304L94.3067 11.081H96.1007L94.3132 13.304H92.6102ZM102.784 24.016H100.919L102.102 21L99.6318 14.266H101.491L102.986 18.738L104.507 14.266H106.366L102.784 24.016ZM114.574 21.156C113.512 21.156 112.624 20.8158 111.909 20.1355C111.194 19.4552 110.836 18.621 110.836 17.633C110.836 16.645 111.194 15.8108 111.909 15.1305C112.624 14.4502 113.512 14.11 114.574 14.11C115.553 14.11 116.4 14.4112 117.115 15.0135L116.231 16.346C115.694 15.9083 115.146 15.6895 114.587 15.6895C114.036 15.6895 113.575 15.878 113.202 16.255C112.829 16.6277 112.643 17.087 112.643 17.633C112.643 18.1833 112.829 18.6448 113.202 19.0175C113.575 19.3902 114.036 19.5765 114.587 19.5765C115.176 19.5765 115.737 19.3403 116.27 18.868L117.265 20.116C116.55 20.8093 115.653 21.156 114.574 21.156ZM121.862 15.6895C121.542 15.6895 121.245 15.787 120.972 15.982C120.699 16.177 120.471 16.4435 120.289 16.7815V21H118.502V14.266H120.289V15.0915C120.779 14.4372 121.379 14.11 122.09 14.11C122.319 14.11 122.523 14.1577 122.701 14.253L122.577 15.8195C122.326 15.7328 122.088 15.6895 121.862 15.6895ZM125.021 18.166C125.099 18.634 125.316 19.0132 125.671 19.3035C126.031 19.5895 126.464 19.7325 126.971 19.7325C127.677 19.7325 128.314 19.453 128.882 18.894L129.955 19.934C129.205 20.7487 128.213 21.156 126.978 21.156C126.432 21.156 125.922 21.065 125.45 20.883C124.978 20.701 124.579 20.4518 124.254 20.1355C123.929 19.8192 123.673 19.4465 123.487 19.0175C123.305 18.5842 123.214 18.1227 123.214 17.633C123.214 17.1477 123.307 16.6883 123.494 16.255C123.68 15.8217 123.933 15.449 124.254 15.137C124.579 14.8207 124.969 14.5715 125.424 14.3895C125.879 14.2032 126.362 14.11 126.874 14.11C127.545 14.11 128.152 14.2638 128.694 14.5715C129.235 14.8748 129.656 15.2865 129.955 15.8065C130.254 16.3222 130.403 16.892 130.403 17.516C130.403 17.7413 130.377 17.958 130.325 18.166H125.021ZM126.861 15.5335C126.44 15.5335 126.065 15.657 125.736 15.904C125.411 16.151 125.188 16.4803 125.067 16.892H128.564C128.464 16.4847 128.262 16.1575 127.959 15.9105C127.656 15.6592 127.29 15.5335 126.861 15.5335ZM134.988 19.5765C135.373 19.5765 135.722 19.479 136.034 19.284C136.35 19.089 136.587 18.829 136.743 18.504V16.762C136.587 16.437 136.35 16.177 136.034 15.982C135.722 15.787 135.373 15.6895 134.988 15.6895C134.437 15.6895 133.976 15.8758 133.603 16.2485C133.23 16.6212 133.044 17.0827 133.044 17.633C133.044 18.1833 133.23 18.6448 133.603 19.0175C133.976 19.3902 134.437 19.5765 134.988 19.5765ZM134.611 14.11C135.464 14.11 136.175 14.3873 136.743 14.942V14.266H138.511V21H136.743V20.324C136.175 20.8787 135.464 21.156 134.611 21.156C133.978 21.156 133.404 20.9978 132.888 20.6815C132.372 20.3608 131.969 19.9318 131.679 19.3945C131.393 18.8572 131.25 18.27 131.25 17.633C131.25 16.996 131.393 16.4088 131.679 15.8715C131.969 15.3342 132.372 14.9073 132.888 14.591C133.404 14.2703 133.978 14.11 134.611 14.11ZM146.408 15.8195V18.6665C146.408 18.9915 146.486 19.2298 146.642 19.3815C146.802 19.5288 147.067 19.6025 147.435 19.6025C147.665 19.6025 147.877 19.5917 148.072 19.57V21.065C147.79 21.1257 147.48 21.156 147.142 21.156C145.461 21.156 144.62 20.363 144.62 18.777V15.8195H143.574V14.266H144.62V12.472L146.408 12.316V14.266H147.994V15.8195H146.408ZM153.728 18.647V14.266H155.515V21H153.728V20.259C153.498 20.532 153.214 20.7508 152.876 20.9155C152.542 21.0758 152.196 21.156 151.836 21.156C151.043 21.156 150.395 20.9025 149.893 20.3955C149.394 19.8885 149.145 19.2277 149.145 18.413V14.266H150.933V18.2375C150.933 18.6188 151.054 18.9373 151.297 19.193C151.544 19.4487 151.869 19.5765 152.272 19.5765C152.545 19.5765 152.815 19.4855 153.084 19.3035C153.353 19.1215 153.567 18.9027 153.728 18.647ZM164.694 19.5765C165.244 19.5765 165.705 19.3902 166.078 19.0175C166.451 18.6448 166.637 18.1833 166.637 17.633C166.637 17.0827 166.451 16.6212 166.078 16.2485C165.705 15.8758 165.244 15.6895 164.694 15.6895C164.308 15.6895 163.957 15.787 163.641 15.982C163.329 16.177 163.095 16.437 162.939 16.762V18.504C163.095 18.829 163.329 19.089 163.641 19.284C163.957 19.479 164.308 19.5765 164.694 19.5765ZM165.071 14.11C165.703 14.11 166.277 14.2703 166.793 14.591C167.309 14.9073 167.71 15.3342 167.996 15.8715C168.286 16.4088 168.431 16.996 168.431 17.633C168.431 18.27 168.286 18.8572 167.996 19.3945C167.71 19.9318 167.309 20.3608 166.793 20.6815C166.277 20.9978 165.703 21.156 165.071 21.156C164.217 21.156 163.506 20.8787 162.939 20.324V24.016H161.171V14.266H162.939V14.942C163.506 14.3873 164.217 14.11 165.071 14.11ZM169.747 21V11.51H171.535V21H169.747ZM176.603 19.5765C176.989 19.5765 177.337 19.479 177.649 19.284C177.966 19.089 178.202 18.829 178.358 18.504V16.762C178.202 16.437 177.966 16.177 177.649 15.982C177.337 15.787 176.989 15.6895 176.603 15.6895C176.053 15.6895 175.591 15.8758 175.218 16.2485C174.846 16.6212 174.659 17.0827 174.659 17.633C174.659 18.1833 174.846 18.6448 175.218 19.0175C175.591 19.3902 176.053 19.5765 176.603 19.5765ZM176.226 14.11C177.08 14.11 177.79 14.3873 178.358 14.942V14.266H180.126V21H178.358V20.324C177.79 20.8787 177.08 21.156 176.226 21.156C175.593 21.156 175.019 20.9978 174.503 20.6815C173.988 20.3608 173.585 19.9318 173.294 19.3945C173.008 18.8572 172.865 18.27 172.865 17.633C172.865 16.996 173.008 16.4088 173.294 15.8715C173.585 15.3342 173.988 14.9073 174.503 14.591C175.019 14.2703 175.593 14.11 176.226 14.11ZM183.639 16.619V21H181.851V14.266H183.639V15.007C183.868 14.734 184.15 14.5173 184.484 14.357C184.822 14.1923 185.171 14.11 185.53 14.11C186.323 14.11 186.969 14.3635 187.467 14.8705C187.97 15.3775 188.221 16.0383 188.221 16.853V21H186.434V17.0285C186.434 16.6472 186.31 16.3287 186.063 16.073C185.821 15.8173 185.498 15.6895 185.095 15.6895C184.822 15.6895 184.551 15.7805 184.282 15.9625C184.014 16.1445 183.799 16.3633 183.639 16.619ZM52.6014 35.5765C52.9871 35.5765 53.3359 35.479 53.6479 35.284C53.9642 35.089 54.2004 34.829 54.3564 34.504V32.762C54.2004 32.437 53.9642 32.177 53.6479 31.982C53.3359 31.787 52.9871 31.6895 52.6014 31.6895C52.0511 31.6895 51.5896 31.8758 51.2169 32.2485C50.8442 32.6212 50.6579 33.0827 50.6579 33.633C50.6579 34.1833 50.8442 34.6448 51.2169 35.0175C51.5896 35.3902 52.0511 35.5765 52.6014 35.5765ZM52.2244 30.11C53.0781 30.11 53.7887 30.3873 54.3564 30.942V27.51H56.1244V37H54.3564V36.324C53.7887 36.8787 53.0781 37.156 52.2244 37.156C51.5917 37.156 51.0176 36.9978 50.5019 36.6815C49.9862 36.3608 49.5832 35.9318 49.2929 35.3945C49.0069 34.8572 48.8639 34.27 48.8639 33.633C48.8639 32.996 49.0069 32.4088 49.2929 31.8715C49.5832 31.3342 49.9862 30.9073 50.5019 30.591C51.0176 30.2703 51.5917 30.11 52.2244 30.11ZM59.2149 34.166C59.2929 34.634 59.5095 35.0132 59.8649 35.3035C60.2245 35.5895 60.6579 35.7325 61.1649 35.7325C61.8712 35.7325 62.5082 35.453 63.0759 34.894L64.1484 35.934C63.3987 36.7487 62.4064 37.156 61.1714 37.156C60.6254 37.156 60.1162 37.065 59.6439 36.883C59.1715 36.701 58.7729 36.4518 58.4479 36.1355C58.1229 35.8192 57.8672 35.4465 57.6809 35.0175C57.4989 34.5842 57.4079 34.1227 57.4079 33.633C57.4079 33.1477 57.501 32.6883 57.6874 32.255C57.8737 31.8217 58.1272 31.449 58.4479 31.137C58.7729 30.8207 59.1629 30.5715 59.6179 30.3895C60.0729 30.2032 60.556 30.11 61.0674 30.11C61.739 30.11 62.3457 30.2638 62.8874 30.5715C63.429 30.8748 63.8494 31.2865 64.1484 31.8065C64.4474 32.3222 64.5969 32.892 64.5969 33.516C64.5969 33.7413 64.5709 33.958 64.5189 34.166H59.2149ZM61.0544 31.5335C60.634 31.5335 60.2592 31.657 59.9299 31.904C59.6049 32.151 59.3817 32.4803 59.2604 32.892H62.7574C62.6577 32.4847 62.4562 32.1575 62.1529 31.9105C61.8495 31.6592 61.4834 31.5335 61.0544 31.5335ZM73.1043 35.5765C73.49 35.5765 73.8388 35.479 74.1508 35.284C74.4672 35.089 74.7033 34.829 74.8593 34.504V32.762C74.7033 32.437 74.4672 32.177 74.1508 31.982C73.8388 31.787 73.49 31.6895 73.1043 31.6895C72.554 31.6895 72.0925 31.8758 71.7198 32.2485C71.3472 32.6212 71.1608 33.0827 71.1608 33.633C71.1608 34.1833 71.3472 34.6448 71.7198 35.0175C72.0925 35.3902 72.554 35.5765 73.1043 35.5765ZM72.7273 30.11C73.581 30.11 74.2917 30.3873 74.8593 30.942V30.266H76.6273V37H74.8593V36.324C74.2917 36.8787 73.581 37.156 72.7273 37.156C72.0947 37.156 71.5205 36.9978 71.0048 36.6815C70.4892 36.3608 70.0862 35.9318 69.7958 35.3945C69.5098 34.8572 69.3668 34.27 69.3668 33.633C69.3668 32.996 69.5098 32.4088 69.7958 31.8715C70.0862 31.3342 70.4892 30.9073 71.0048 30.591C71.5205 30.2703 72.0947 30.11 72.7273 30.11ZM78.3853 37V27.51H80.1728V37H78.3853ZM81.9781 37V30.266H83.7656V37H81.9781ZM82.1211 29.2065C81.9174 29.0072 81.8156 28.7623 81.8156 28.472C81.8156 28.1817 81.9174 27.9368 82.1211 27.7375C82.3247 27.5382 82.5761 27.4385 82.8751 27.4385C83.1741 27.4385 83.4254 27.5382 83.6291 27.7375C83.8327 27.9368 83.9346 28.1817 83.9346 28.472C83.9346 28.7623 83.8327 29.0072 83.6291 29.2065C83.4254 29.4058 83.1741 29.5055 82.8751 29.5055C82.5761 29.5055 82.3247 29.4058 82.1211 29.2065ZM85.5383 30.266H87.3258V31.007C87.5425 30.7383 87.809 30.5238 88.1253 30.3635C88.4417 30.2032 88.7797 30.123 89.1393 30.123C89.6117 30.123 90.0363 30.2248 90.4133 30.4285C90.7947 30.6322 91.1002 30.916 91.3298 31.28C91.5725 30.929 91.8932 30.6473 92.2918 30.435C92.6905 30.2183 93.1108 30.11 93.5528 30.11C94.3285 30.11 94.959 30.3657 95.4443 30.877C95.934 31.384 96.1788 32.0362 96.1788 32.8335V37H94.3913V33.0155C94.3913 32.6385 94.2787 32.3243 94.0533 32.073C93.8323 31.8173 93.5377 31.6895 93.1693 31.6895C92.8963 31.6895 92.6342 31.7805 92.3828 31.9625C92.1315 32.1402 91.917 32.372 91.7393 32.658C91.748 32.8487 91.7523 32.996 91.7523 33.1V37H89.9648V33.0155C89.9648 32.6298 89.8522 32.3135 89.6268 32.0665C89.4015 31.8152 89.1068 31.6895 88.7428 31.6895C88.4698 31.6895 88.2077 31.7783 87.9563 31.956C87.7093 32.1337 87.4992 32.3612 87.3258 32.6385V37H85.5383V30.266ZM99.1416 34.166C99.2196 34.634 99.4363 35.0132 99.7916 35.3035C100.151 35.5895 100.585 35.7325 101.092 35.7325C101.798 35.7325 102.435 35.453 103.003 34.894L104.075 35.934C103.325 36.7487 102.333 37.156 101.098 37.156C100.552 37.156 100.043 37.065 99.5706 36.883C99.0983 36.701 98.6996 36.4518 98.3746 36.1355C98.0496 35.8192 97.7939 35.4465 97.6076 35.0175C97.4256 34.5842 97.3346 34.1227 97.3346 33.633C97.3346 33.1477 97.4278 32.6883 97.6141 32.255C97.8004 31.8217 98.0539 31.449 98.3746 31.137C98.6996 30.8207 99.0896 30.5715 99.5446 30.3895C99.9996 30.2032 100.483 30.11 100.994 30.11C101.666 30.11 102.272 30.2638 102.814 30.5715C103.356 30.8748 103.776 31.2865 104.075 31.8065C104.374 32.3222 104.524 32.892 104.524 33.516C104.524 33.7413 104.498 33.958 104.446 34.166H99.1416ZM100.981 31.5335C100.561 31.5335 100.186 31.657 99.8566 31.904C99.5316 32.151 99.3084 32.4803 99.1871 32.892H102.684C102.584 32.4847 102.383 32.1575 102.08 31.9105C101.776 31.6592 101.41 31.5335 100.981 31.5335ZM107.6 32.619V37H105.813V30.266H107.6V31.007C107.83 30.734 108.112 30.5173 108.445 30.357C108.783 30.1923 109.132 30.11 109.492 30.11C110.285 30.11 110.93 30.3635 111.429 30.8705C111.931 31.3775 112.183 32.0383 112.183 32.853V37H110.395V33.0285C110.395 32.6472 110.272 32.3287 110.025 32.073C109.782 31.8173 109.459 31.6895 109.056 31.6895C108.783 31.6895 108.512 31.7805 108.244 31.9625C107.975 32.1445 107.761 32.3633 107.6 32.619ZM115.907 31.8195V34.6665C115.907 34.9915 115.985 35.2298 116.141 35.3815C116.302 35.5288 116.566 35.6025 116.934 35.6025C117.164 35.6025 117.376 35.5917 117.571 35.57V37.065C117.29 37.1257 116.98 37.156 116.642 37.156C114.961 37.156 114.12 36.363 114.12 34.777V31.8195H113.073V30.266H114.12V28.472L115.907 28.316V30.266H117.493V31.8195H115.907ZM122.07 35.5765C122.456 35.5765 122.805 35.479 123.117 35.284C123.433 35.089 123.669 34.829 123.825 34.504V32.762C123.669 32.437 123.433 32.177 123.117 31.982C122.805 31.787 122.456 31.6895 122.07 31.6895C121.52 31.6895 121.058 31.8758 120.686 32.2485C120.313 32.6212 120.127 33.0827 120.127 33.633C120.127 34.1833 120.313 34.6448 120.686 35.0175C121.058 35.3902 121.52 35.5765 122.07 35.5765ZM121.693 30.11C122.547 30.11 123.257 30.3873 123.825 30.942V30.266H125.593V37H123.825V36.324C123.257 36.8787 122.547 37.156 121.693 37.156C121.06 37.156 120.486 36.9978 119.971 36.6815C119.455 36.3608 119.052 35.9318 118.762 35.3945C118.476 34.8572 118.333 34.27 118.333 33.633C118.333 32.996 118.476 32.4088 118.762 31.8715C119.052 31.3342 119.455 30.9073 119.971 30.591C120.486 30.2703 121.06 30.11 121.693 30.11ZM130.614 37.156C129.552 37.156 128.664 36.8158 127.949 36.1355C127.234 35.4552 126.877 34.621 126.877 33.633C126.877 32.645 127.234 31.8108 127.949 31.1305C128.664 30.4502 129.552 30.11 130.614 30.11C131.593 30.11 132.441 30.4112 133.156 31.0135L132.272 32.346C131.734 31.9083 131.186 31.6895 130.627 31.6895C130.077 31.6895 129.615 31.878 129.243 32.255C128.87 32.6277 128.684 33.087 128.684 33.633C128.684 34.1833 128.87 34.6448 129.243 35.0175C129.615 35.3902 130.077 35.5765 130.627 35.5765C131.216 35.5765 131.778 35.3403 132.311 34.868L133.305 36.116C132.59 36.8093 131.693 37.156 130.614 37.156ZM134.575 37V30.266H136.362V37H134.575ZM134.718 29.2065C134.514 29.0072 134.412 28.7623 134.412 28.472C134.412 28.1817 134.514 27.9368 134.718 27.7375C134.921 27.5382 135.173 27.4385 135.472 27.4385C135.771 27.4385 136.022 27.5382 136.226 27.7375C136.429 27.9368 136.531 28.1817 136.531 28.472C136.531 28.7623 136.429 29.0072 136.226 29.2065C136.022 29.4058 135.771 29.5055 135.472 29.5055C135.173 29.5055 134.921 29.4058 134.718 29.2065ZM138.766 36.1355C138.051 35.4552 137.693 34.621 137.693 33.633C137.693 32.645 138.051 31.8108 138.766 31.1305C139.481 30.4502 140.369 30.11 141.431 30.11C142.133 30.11 142.77 30.266 143.342 30.578C143.914 30.89 144.36 31.3147 144.681 31.852C145.006 32.3893 145.168 32.983 145.168 33.633C145.168 34.283 145.006 34.8767 144.681 35.414C144.36 35.9513 143.914 36.376 143.342 36.688C142.77 37 142.133 37.156 141.431 37.156C140.369 37.156 139.481 36.8158 138.766 36.1355ZM139.487 33.633C139.487 34.1833 139.673 34.6448 140.046 35.0175C140.419 35.3902 140.88 35.5765 141.431 35.5765C141.981 35.5765 142.442 35.3902 142.815 35.0175C143.192 34.6448 143.381 34.1833 143.381 33.633C143.381 33.087 143.192 32.6277 142.815 32.255C142.442 31.878 141.981 31.6895 141.431 31.6895C140.88 31.6895 140.419 31.878 140.046 32.255C139.673 32.6277 139.487 33.087 139.487 33.633ZM140.28 29.304L141.977 27.081H143.771L141.983 29.304H140.28ZM148.238 32.619V37H146.45V30.266H148.238V31.007C148.468 30.734 148.749 30.5173 149.083 30.357C149.421 30.1923 149.77 30.11 150.129 30.11C150.922 30.11 151.568 30.3635 152.066 30.8705C152.569 31.3775 152.82 32.0383 152.82 32.853V37H151.033V33.0285C151.033 32.6472 150.909 32.3287 150.662 32.073C150.42 31.8173 150.097 31.6895 149.694 31.6895C149.421 31.6895 149.15 31.7805 148.881 31.9625C148.613 32.1445 148.398 32.3633 148.238 32.619Z" fill="#F9F2E1"/>
</svg>
