<svg width="181" height="25" viewBox="0 0 181 25" fill="none" xmlns="http://www.w3.org/2000/svg">
<path d="M43.7882 23.9543C43.9844 23.9624 44.0807 23.9543 43.7882 23.9543V23.9543Z" fill="#FCF0DD"/>
<path d="M59.1969 0.490635C59.2561 0.490635 59.2858 0.490635 59.345 0.490635C59.4523 0.46435 59.5523 0.440985 59.6523 0.423462L59.1969 0.490635Z" fill="#FCF0DD"/>
<path d="M83.561 0.92002C83.6165 0.922941 83.6572 0.925861 83.709 0.928782C83.6979 0.911258 83.7275 0.893735 83.561 0.92002Z" fill="#FCF0DD"/>
<path d="M0.977108 0.446777C0.969849 0.586964 0.984367 0.668739 1.00614 0.732992C0.991626 0.648296 0.980737 0.560679 0.977108 0.446777Z" fill="#FCF0DD"/>
<path d="M88.4433 24.2668C88.4433 24.2668 88.3804 24.2668 88.3359 24.2668C88.4211 24.2727 88.5099 24.2785 88.5988 24.2873L88.4433 24.2668Z" fill="#FCF0DD"/>
<path d="M87.951 24.3106C87.4141 24.2843 88.099 24.2726 88.336 24.2697C87.7436 24.2259 87.1476 24.2171 86.5479 24.2288C86.5516 24.2697 87.6881 24.2756 87.951 24.3106Z" fill="#FCF0DD"/>
<path d="M169.446 24.9854L169.201 25C169.301 24.997 169.375 24.9912 169.446 24.9854Z" fill="#FCF0DD"/>
<path d="M6.70779 2.33643C6.69694 2.33927 6.67886 2.34211 6.67163 2.34495C6.69694 2.34779 6.70417 2.34211 6.70779 2.33643Z" fill="#FCF0DD"/>
<path d="M156.659 24.8101L156.518 24.8772C156.644 24.8509 156.67 24.8305 156.659 24.8101Z" fill="#FCF0DD"/>
<path d="M59.6525 0.426431L59.83 0.400146C59.7671 0.405988 59.7117 0.414749 59.6525 0.426431Z" fill="#FCF0DD"/>
<path d="M106.073 1.19739C106.08 1.21783 106.132 1.23535 106.191 1.24996C106.221 1.24996 106.239 1.24996 106.254 1.24996L106.073 1.19739Z" fill="#FCF0DD"/>
<path d="M178.782 18.5864C178.804 18.5835 178.826 18.5747 178.852 18.563L178.73 18.3849C178.738 18.4783 178.756 18.5426 178.782 18.5864Z" fill="#FCF0DD"/>
<path d="M136.948 1.81369C136.974 1.80493 137.048 1.79909 137.056 1.79033C136.53 1.76112 135.134 1.7436 133.353 1.72607L133.242 1.80785L136.948 1.81369Z" fill="#FCF0DD"/>
<path d="M170.686 4.12966L167.398 3.92523C169.801 3.93107 171.915 3.94859 173.848 3.97195C174.333 3.9778 174.803 3.98364 175.265 3.98948C175.38 3.9924 175.495 3.9924 175.61 3.99532L175.762 3.99824H175.799C175.847 3.99824 175.891 4.00116 175.939 4.00116C176.117 4.007 176.287 4.01284 176.454 4.01576C176.443 4.09462 176.432 4.17347 176.42 4.25233L176.417 4.28153L176.413 4.40128C176.409 4.49765 176.409 4.59403 176.406 4.69333C176.402 4.88901 176.398 5.08469 176.398 5.28328C176.391 6.07768 176.417 6.91587 176.495 7.87382L176.402 7.67814C176.291 8.18632 177.268 8.48421 175.976 14.1121H175.932C175.936 14.3078 176.024 14.3078 175.902 14.6962L176.187 13.7237C176.287 14.3078 176.487 14.8218 176.506 15.5987C176.454 15.7622 176.365 15.8206 176.295 15.8352L176.335 17.7453L176.043 18.3265C176.187 18.9106 176.787 18.6507 176.428 20.2102C176.85 19.6261 176.665 20.9871 176.876 20.7973C176.824 20.8761 176.743 21.0543 176.672 21.1974C176.706 22.1261 176.791 23.8755 176.998 24.3107C176.998 24.3107 177.931 20.6863 178.39 19.7167C178.257 21.0222 178.434 20.0613 178.579 19.8043L178.479 19.7167C178.594 18.934 178.853 18.9369 178.934 18.5455C178.912 18.5455 178.886 18.5572 178.86 18.5689L178.894 18.6185C178.845 18.6536 178.816 18.6331 178.79 18.5923C178.734 18.601 178.69 18.566 178.708 18.3528L178.734 18.3937C178.701 18.0666 178.753 17.5029 178.775 17.2576L178.993 17.2546C178.586 16.6705 179.693 13.3615 179.719 12.5818C180.008 11.802 179.678 10.8265 179.834 9.85103C179.93 8.29438 180.167 9.07416 180.367 8.29438C180.519 7.31891 180.108 8.49005 180.1 8.0987L180.422 6.93048C180.437 7.61097 180.574 7.24298 180.663 7.12031C180.689 6.61506 180.811 5.96377 180.87 5.40011C180.9 5.11973 180.915 4.85688 180.896 4.64952C180.885 4.54438 180.867 4.45385 180.837 4.37791C180.822 4.34579 180.804 4.2903 180.785 4.24941C180.767 4.20852 180.741 4.17347 180.715 4.14719C180.826 3.2389 180.926 2.70443 181 2.32184C179.982 2.28095 179.43 2.25175 178.186 2.23422C178.56 2.25467 179.116 2.27511 179.564 2.29264C180.012 2.31308 180.352 2.3306 180.319 2.34813C179.841 2.32476 179.527 2.31308 179.349 2.31016C179.171 2.30724 179.13 2.31016 179.175 2.31892C179.267 2.33644 179.701 2.36857 180.097 2.38025C179.275 2.38901 177.927 2.36565 176.247 2.32476C176.143 2.32184 176.035 2.31892 175.928 2.316C175.876 2.316 175.824 2.31308 175.773 2.31308L175.662 2.31016C175.513 2.30432 175.358 2.3014 175.206 2.29556C174.899 2.28387 174.581 2.27511 174.262 2.26343C173.622 2.24007 172.963 2.2167 172.319 2.19626C169.742 2.10572 167.376 2.03271 167.15 2.12324V2.0882C166.647 2.21962 167.45 2.36273 165.943 2.42406L164.944 2.35105L163.433 2.39486C162.423 2.33936 162.919 2.30724 162.923 2.28972C160.464 2.32768 157.033 2.2167 154.056 2.16705L157.203 2.57593C154.693 2.46203 150.161 2.24007 149.658 2.35689L148.151 2.21378C143.116 1.9188 144.634 2.28095 142.624 2.1875L140.095 2.02394L142.613 2.05315C140.095 1.95677 139.088 1.90128 137.086 1.7903L137.063 1.79322C137.2 1.79906 137.289 1.80782 137.308 1.81659H136.956C136.649 1.88084 135.334 1.91588 133.561 1.89252C131.044 1.84579 129.07 1.92757 125.05 1.74065L124.043 1.87208L121.022 1.75233L121.026 1.64135C123.984 1.67932 129.552 1.69392 133.354 1.72605L133.42 1.6764C131.166 1.65303 128.6 1.6764 127.108 1.65011C126.383 1.62091 124.524 1.48364 125.876 1.42231L124.48 1.51869C116.953 1.45444 116.905 1.45736 109.053 1.25L109.734 1.31425C108.176 1.33177 106.621 1.34638 106.191 1.25292C101.475 1.18575 96.5918 1.06308 93.5302 0.890769L92.8564 1.01635C91.8605 0.99883 90.3723 0.782709 89.8836 0.963783L87.7549 0.99883C86.3925 0.975465 85.5595 1.04264 84.0083 0.94918C84.0046 0.94918 84.0009 0.94918 84.0009 0.94918C83.9047 0.943339 83.8047 0.937498 83.7085 0.931657C83.7085 0.934578 83.7159 0.940419 83.727 0.943339C80.6468 0.852802 83.7566 1.06308 80.2285 0.94918C79.0993 0.84404 78.9735 1.10397 77.2557 1.05724L75.5342 0.849882C72.4207 0.709695 71.8839 0.89369 67.371 0.846961C65.2053 0.756424 64.1613 0.584111 65.5977 0.455607C63.6208 0.607475 64.6981 0.560747 62.077 0.616237C61.6735 0.540303 61.9549 0.52862 62.5324 0.470209C60.2075 0.362149 61.096 0.519859 59.3449 0.496494C58.834 0.624999 58.2416 0.835279 57.6715 0.835279L58.349 0.884928C56.4905 0.937498 54.4618 0.94918 52.3071 0.861564L52.3886 0.794391L50.0896 0.806073L49.9452 0.718457L46.6651 0.712615L47.1131 0.741821C46.3431 0.744742 43.8145 0.747662 42.367 0.689251L42.4188 0.642522C38.3428 0.449765 34.9739 0.613317 30.1981 0.57827L30.8275 0.487733C29.2023 0.373831 30.3795 0.633761 28.4396 0.566588L28.3434 0.443924C26.633 0.584111 26.1369 0.388434 24.9596 0.31542L25.5076 0.478971L23.2937 0.423481C20.854 0.344626 21.798 0.207359 22.1571 0.128504L20.4949 0.236565L20.1728 0.0934578C18.9548 0.242406 18.9585 0.0554905 16.8298 0.119743C16.6669 0.0554905 17.2037 0.0292056 16.4818 0L12.9685 0.160631L15.0861 0.0963783L14.827 0.297897C12.6205 0.429322 11.8431 0.245327 10.266 0.286214L11.3507 0.236565C8.78141 0.259929 8.64443 0.172313 7.19691 0.110981C7.64486 0.154789 8.33346 0.216121 7.29316 0.233644C7.19691 0.233644 7.11916 0.233644 7.05623 0.230724C7.02291 0.230724 6.99329 0.227803 6.96738 0.227803C6.92295 0.224883 6.88593 0.224883 6.84891 0.221962C6.70082 0.213201 6.61197 0.204439 6.52682 0.189836C6.35283 0.166472 6.18253 0.137266 5.53096 0.119743C5.4384 0.172313 4.88679 0.21028 4.10935 0.233644C3.3282 0.251168 2.31752 0.257009 1.20319 0.239486C1.19578 0.452686 1.16987 0.668807 1.13285 0.879087C1.08472 0.852802 1.03659 0.814835 1.00697 0.733059C1.03289 0.882008 1.06621 0.99883 1.08472 1.1361C1.10323 1.27336 1.09953 1.42815 1.0551 1.66472C0.925528 1.55081 0.799656 1.42815 0.670082 1.29965C0.78855 1.65595 0.907018 1.99474 1.02549 2.31308C1.01808 2.35397 1.01068 2.39486 1.00697 2.43574C1.00327 2.46495 0.99957 2.49415 0.995868 2.52336C0.992166 2.57301 0.992166 2.62558 0.995868 2.67523C1.00327 2.77745 1.01808 2.87675 1.02919 2.96436C1.0514 3.1396 1.0551 3.26226 0.921826 3.23598L0.847784 3.0257L0.707104 5.82067L0.396126 5.85571C0.818167 6.13609 0.207318 7.37732 0.744125 7.28971C0.444254 7.81541 0.914422 9.37206 0.318382 9.05372C0.240637 10.8908 0.803358 11.8896 0.47387 14.118C-0.0518296 14.9094 0.0777444 17.0911 0 18.5251C0.0481275 19.2698 0.0888507 19.9445 0.133276 20.5899C0.144382 20.7505 0.155489 20.9112 0.166595 21.0689C0.173999 21.3434 0.185106 21.615 0.19251 21.8866C0.207318 22.4532 0.225829 23.0169 0.240637 23.5864C1.51416 23.5922 2.7988 23.5952 4.10564 23.601C4.74981 23.6039 5.40138 23.6068 6.06036 23.6098C6.22325 23.6098 6.38985 23.6098 6.55274 23.6127C6.64529 23.6127 6.74155 23.6127 6.8378 23.6127C7.02291 23.6127 7.20801 23.6127 7.39682 23.6127C8.89248 23.6127 10.477 23.6156 12.2096 23.6156C16.6484 23.9398 23.2937 23.6361 28.0731 23.8405L29.3837 23.7441C32.5601 23.9515 37.4136 23.7879 41.8709 24.004C42.963 23.9661 43.5368 23.9573 43.7923 23.9573C43.5887 23.9486 43.2814 23.9252 43.1889 23.8551C44.4624 23.9164 47.039 23.8814 46.8539 24.0216L46.5319 24.0332C46.3431 24.1705 50.3969 24.007 51.8148 24.1442L51.0373 23.9865L53.4474 24.0362L52.7995 24.0595C63.2802 23.8376 68.0078 24.3604 77.8517 24.1588C76.5449 24.3078 79.7916 24.0946 79.9175 24.2727C82.3942 24.5239 84.5155 24.2727 86.5517 24.2318C86.5517 24.2231 86.5776 24.2143 86.6924 24.1997L90.2464 24.2581C88.1177 24.4626 92.812 24.0975 90.8573 24.2698C100.127 24.5356 112.23 24.4889 122.962 24.6758L122.492 24.6115C125.213 24.6495 128.6 24.6144 130.666 24.7283C132.732 24.8422 135.186 24.629 135.99 24.6261C138.255 24.5502 140.31 24.7692 139.34 24.7488C141.761 24.7459 144.042 24.5648 147.4 24.6875C148.544 24.889 156.566 24.594 156.666 24.8101L156.703 24.7926C161.001 24.9883 165.066 24.7721 169.697 24.9591C169.697 24.9591 169.609 24.9737 169.453 24.9883L178.894 24.4334L176.221 23.6857L168.057 23.0169L145.904 22.9147L128.23 22.5029L85.2041 22.1349L82.1277 22.2663C73.6795 21.8954 62.8323 22.1086 53.7251 21.8136L53.5326 21.9509C50.967 21.9334 51.141 21.8487 50.5079 21.8165C42.5817 21.7435 34.574 21.688 26.633 21.6326C22.6606 21.6033 18.7068 21.5741 14.7862 21.5449C11.7912 21.5187 8.82213 21.4953 5.89376 21.4719C5.90117 21.0747 5.91227 20.6805 5.91968 20.2891C5.94189 19.5444 5.9641 18.8084 5.98632 18.0753C6.04185 16.6121 6.11589 15.181 6.21215 13.7792C6.46389 12.9789 6.36393 10.5344 6.62678 9.90652C6.43057 8.55138 6.34172 7.15828 6.31951 5.76225C6.3084 5.06424 6.3084 4.36915 6.31951 3.67698C6.32691 3.33235 6.33431 2.98773 6.34172 2.6431L6.34542 2.52628L6.34912 2.50584L6.35283 2.46495C6.35653 2.43866 6.36023 2.40946 6.36393 2.38317L6.40465 2.40946L6.36763 2.31016L6.6527 2.29848C6.68972 2.31016 6.70823 2.32768 6.70453 2.33644C6.75265 2.32184 6.8267 2.31016 6.91555 2.30432C6.90814 2.30432 6.95627 2.30432 6.98589 2.30432H7.08584C7.15248 2.30432 7.21912 2.30432 7.28576 2.30432C7.41903 2.30432 7.55601 2.30432 7.69299 2.30432C7.96695 2.30432 8.24831 2.30724 8.53337 2.30724C9.67362 2.31308 10.8953 2.3306 12.1429 2.35689C14.6382 2.40362 17.237 2.47371 19.5101 2.52336L19.2436 2.53504C45.7692 2.83586 70.4031 2.83002 96.7066 3.29731C108.935 3.65069 123.169 3.48422 137.2 3.82009C139.781 3.98072 168.176 4.16763 170.686 4.12966Z" fill="#FCF0DD"/>
<path d="M176.288 15.8324V15.7886C176.135 15.7886 176.191 15.8528 176.288 15.8324Z" fill="#FCF0DD"/>
<path d="M153.859 2.16122C153.922 2.16122 153.985 2.16415 154.045 2.16415L153.349 2.07361L153.859 2.16122Z" fill="#FCF0DD"/>
<path d="M180.696 7.70441C180.755 7.0502 180.718 7.021 180.655 7.11153C180.644 7.3481 180.652 7.55546 180.696 7.70441Z" fill="#FCF0DD"/>
<path d="M176.487 21.1798C176.469 21.5244 176.561 21.393 176.665 21.1915C176.654 20.841 176.646 20.5957 176.646 20.5957C176.609 20.7914 176.528 20.9812 176.487 21.1798Z" fill="#FCF0DD"/>
<path d="M178.571 19.7984L178.693 19.9065C178.667 19.705 178.619 19.7137 178.571 19.7984Z" fill="#FCF0DD"/>
</svg>
