<svg width="203" height="49" viewBox="0 0 203 49" fill="none" xmlns="http://www.w3.org/2000/svg">
<path d="M3.89313 2.25593L3.49536 44.1135L200.625 47.6741L201.023 5.81652L3.89313 2.25593Z" fill="#533FB8"/>
<path d="M49.1106 46.9507C49.3307 46.9664 49.4386 46.9507 49.1106 46.9507V46.9507Z" fill="#533FB8"/>
<path d="M66.3921 0.961737C66.4585 0.961737 66.4917 0.961737 66.5582 0.961737C66.6786 0.910218 66.7907 0.864424 66.9028 0.830078L66.3921 0.961737Z" fill="#533FB8"/>
<path d="M93.7175 1.80313C93.7798 1.80885 93.8254 1.81458 93.8835 1.8203C93.8711 1.78595 93.9043 1.75161 93.7175 1.80313Z" fill="#533FB8"/>
<path d="M1.09607 0.875732C1.08761 1.1505 1.10454 1.31078 1.12995 1.43671C1.11301 1.27071 1.10031 1.09898 1.09607 0.875732Z" fill="#533FB8"/>
<path d="M99.1934 47.5632C99.1934 47.5632 99.1228 47.5632 99.073 47.5632C99.1685 47.5747 99.2682 47.5861 99.3678 47.6033L99.1934 47.5632Z" fill="#533FB8"/>
<path d="M98.641 47.649C98.039 47.5975 98.8071 47.5746 99.0728 47.5689C98.4085 47.483 97.74 47.4658 97.0674 47.4887C97.0715 47.5689 98.3462 47.5803 98.641 47.649Z" fill="#533FB8"/>
<path d="M190.041 48.9714L189.767 49.0001C189.879 48.9943 189.962 48.9829 190.041 48.9714Z" fill="#533FB8"/>
<path d="M7.52505 4.57935C7.51233 4.58492 7.49114 4.59048 7.48267 4.59605C7.51233 4.60162 7.52081 4.59049 7.52505 4.57935Z" fill="#533FB8"/>
<path d="M175.7 48.6279L175.542 48.7596C175.683 48.7081 175.712 48.668 175.7 48.6279Z" fill="#533FB8"/>
<path d="M66.9032 0.835698L67.1024 0.78418C67.0318 0.795628 66.9696 0.812801 66.9032 0.835698Z" fill="#533FB8"/>
<path d="M118.966 2.34692C118.974 2.38699 119.032 2.42134 119.098 2.44996C119.132 2.44996 119.152 2.44996 119.169 2.44996L118.966 2.34692Z" fill="#533FB8"/>
<path d="M200.512 36.4294C200.537 36.4237 200.562 36.4065 200.591 36.3836L200.454 36.0344C200.463 36.2176 200.483 36.3435 200.512 36.4294Z" fill="#533FB8"/>
<path d="M153.594 3.55479C153.623 3.53761 153.706 3.52616 153.714 3.50899C153.125 3.45175 151.559 3.4174 149.562 3.38306L149.438 3.54334L153.594 3.55479Z" fill="#533FB8"/>
<path d="M191.432 8.09416L187.745 7.69346C190.44 7.70491 192.811 7.73925 194.978 7.78505C195.522 7.7965 196.049 7.80794 196.568 7.81939C196.697 7.82512 196.826 7.82512 196.955 7.83084L197.125 7.83657H197.166C197.22 7.83657 197.27 7.84229 197.324 7.84229C197.523 7.85374 197.714 7.86519 197.901 7.87091C197.889 8.02547 197.876 8.18002 197.864 8.33458L197.86 8.39182L197.856 8.62652C197.851 8.81542 197.851 9.00432 197.847 9.19895C197.843 9.58248 197.839 9.96601 197.839 10.3553C197.831 11.9123 197.86 13.5551 197.947 15.4327L197.843 15.0492C197.719 16.0452 198.815 16.6291 197.366 27.6598H197.316C197.32 28.0433 197.42 28.0433 197.283 28.8047L197.602 26.8985C197.714 28.0433 197.939 29.0508 197.959 30.5735C197.901 30.894 197.802 31.0085 197.723 31.0372L197.768 34.7808L197.44 35.92C197.602 37.0648 198.275 36.5554 197.872 39.6121C198.345 38.4673 198.138 41.1348 198.375 40.7627C198.316 40.9173 198.225 41.2665 198.146 41.547C198.184 43.3673 198.279 46.7961 198.512 47.6491C198.512 47.6491 199.558 40.5452 200.073 38.6447C199.923 41.2035 200.123 39.3202 200.285 38.8165L200.172 38.6447C200.301 37.1106 200.592 37.1164 200.683 36.3493C200.658 36.3493 200.629 36.3722 200.6 36.3951L200.637 36.4924C200.583 36.5611 200.55 36.521 200.521 36.4409C200.459 36.4581 200.409 36.3894 200.43 35.9715L200.459 36.0516C200.422 35.4105 200.48 34.3057 200.505 33.8249L200.75 33.8192C200.293 32.6743 201.534 26.1887 201.563 24.6603C201.887 23.1319 201.518 21.22 201.692 19.3081C201.8 16.257 202.066 17.7854 202.29 16.257C202.46 14.3451 201.999 16.6405 201.991 15.8735L202.352 13.5838C202.369 14.9175 202.523 14.1963 202.622 13.9558C202.651 12.9655 202.788 11.689 202.855 10.5842C202.888 10.0347 202.905 9.51951 202.884 9.11308C202.871 8.90701 202.851 8.72956 202.817 8.58073C202.801 8.51776 202.78 8.409 202.759 8.32886C202.738 8.24872 202.709 8.18002 202.68 8.12851C202.805 6.34825 202.917 5.3007 203 4.55082C201.858 4.47068 201.24 4.41343 199.844 4.37909C200.264 4.41916 200.887 4.45923 201.389 4.49358C201.891 4.53365 202.273 4.56799 202.236 4.60234C201.7 4.55654 201.347 4.53365 201.148 4.52792C200.949 4.5222 200.903 4.52792 200.953 4.54509C201.057 4.57944 201.543 4.64241 201.987 4.6653C201.065 4.68248 199.554 4.63668 197.669 4.55654C197.552 4.55082 197.432 4.54509 197.312 4.53937C197.254 4.53937 197.195 4.53365 197.137 4.53365L197.013 4.52792C196.847 4.51647 196.672 4.51075 196.502 4.4993C196.157 4.4764 195.8 4.45923 195.443 4.43633C194.725 4.39054 193.986 4.34474 193.263 4.30467C190.373 4.12722 187.72 3.98411 187.467 4.16157V4.09287C186.902 4.35047 187.803 4.63096 186.113 4.75117L184.992 4.60806L183.298 4.69393C182.165 4.58516 182.721 4.5222 182.725 4.48785C179.968 4.56227 176.119 4.34474 172.781 4.24743L176.31 5.04883C173.495 4.82558 168.413 4.39054 167.848 4.61951L166.158 4.33902C160.512 3.76086 162.214 4.47068 159.959 4.2875L157.124 3.96694L159.947 4.02418C157.124 3.83528 155.994 3.72652 153.748 3.509L153.723 3.51472C153.877 3.52617 153.976 3.54334 153.997 3.56051H153.603C153.258 3.68645 151.784 3.75514 149.795 3.70935C146.972 3.61776 144.759 3.77804 140.249 3.41168L139.12 3.66928L135.732 3.43458L135.736 3.21706C139.054 3.29147 145.298 3.32009 149.563 3.38306L149.637 3.28575C147.109 3.23995 144.231 3.28575 142.558 3.23423C141.744 3.17699 139.66 2.90794 141.175 2.78773L139.61 2.97664C131.169 2.8507 131.115 2.85643 122.308 2.45L123.072 2.57593C121.324 2.61028 119.58 2.6389 119.099 2.45572C113.809 2.32407 108.332 2.08365 104.898 1.74591L104.143 1.99206C103.026 1.95771 101.357 1.53411 100.809 1.88902L98.4212 1.95771C96.8932 1.91192 95.959 2.04358 94.2193 1.8604C94.2151 1.8604 94.211 1.8604 94.211 1.8604C94.103 1.84895 93.9909 1.8375 93.883 1.82605C93.883 1.83178 93.8913 1.84322 93.9037 1.84895C90.4492 1.6715 93.937 2.08365 89.98 1.8604C88.7136 1.65432 88.5724 2.16379 86.6459 2.0722L84.7152 1.66577C81.2233 1.391 80.6212 1.75164 75.5598 1.66005C73.1308 1.48259 71.9599 1.14486 73.5709 0.892991C71.3537 1.19065 72.562 1.09907 69.6223 1.20783C69.1697 1.059 69.4853 1.0361 70.133 0.921612C67.5255 0.709813 68.522 1.01893 66.5581 0.973131C65.9851 1.225 65.3207 1.63715 64.6813 1.63715L65.4411 1.73446C63.3568 1.8375 61.0814 1.8604 58.6649 1.68867L58.7563 1.55701L56.1778 1.57991L56.0159 1.40818L52.3371 1.39673L52.8395 1.45397C51.9759 1.4597 49.14 1.46542 47.5166 1.35093L47.5747 1.25935C43.0032 0.881542 39.2248 1.2021 33.8686 1.13341L34.5745 0.955958C32.7517 0.73271 34.0721 1.24217 31.8964 1.11051L31.7884 0.870094C29.8702 1.14486 29.3138 0.761332 27.9934 0.618224L28.6079 0.938785L26.125 0.830023C23.3887 0.675467 24.4475 0.406425 24.8503 0.251869L22.986 0.463668L22.6248 0.183178C21.2587 0.475117 21.2629 0.108762 18.8754 0.234696C18.6927 0.108762 19.2948 0.057243 18.4851 0L14.5448 0.314836L16.9198 0.188902L16.6291 0.583879C14.1545 0.841472 13.2825 0.480841 11.5138 0.560981L12.7303 0.463668C9.84876 0.509463 9.69514 0.337734 8.07167 0.217523C8.57407 0.303388 9.34636 0.423598 8.17962 0.457944C8.07167 0.457944 7.98448 0.457944 7.91389 0.45222C7.87652 0.45222 7.8433 0.446495 7.81424 0.446495C7.76441 0.440771 7.72289 0.440771 7.68137 0.435047C7.51529 0.417874 7.41564 0.400701 7.32014 0.372079C7.12499 0.326285 6.934 0.269042 6.20323 0.234696C6.09942 0.337734 5.48076 0.41215 4.60882 0.457944C3.73273 0.49229 2.59921 0.503738 1.34943 0.469393C1.34113 0.887266 1.31206 1.31086 1.27054 1.72301C1.21656 1.6715 1.16259 1.59708 1.12937 1.4368C1.15843 1.72874 1.1958 1.95771 1.21656 2.22675C1.23732 2.49579 1.23317 2.79918 1.18335 3.26285C1.03802 3.0396 0.896852 2.79918 0.751529 2.54731C0.884396 3.24568 1.01726 3.9097 1.15013 4.53365C1.14183 4.61379 1.13352 4.69393 1.12937 4.77407C1.12522 4.83131 1.12107 4.88855 1.11691 4.9458C1.11276 5.04311 1.11276 5.14614 1.11691 5.24346C1.12522 5.44381 1.14183 5.63843 1.15428 5.81016C1.17919 6.15362 1.18335 6.39404 1.03387 6.34252L0.950829 5.93037L0.79305 11.4085L0.444274 11.4772C0.917613 12.0268 0.232517 14.4596 0.834571 14.2879C0.498251 15.3182 1.02557 18.3693 0.35708 17.7453C0.269886 21.3459 0.901004 23.3036 0.531468 27.6713C-0.0581293 29.2225 0.087194 33.4986 0 36.3092C0.0539772 37.7689 0.0996502 39.0912 0.149475 40.3563C0.161932 40.6711 0.174388 40.986 0.186844 41.2951C0.195148 41.8332 0.207605 42.3655 0.215909 42.8979C0.232517 44.0084 0.253278 45.1132 0.269886 46.2294C1.69821 46.2409 3.13898 46.2466 4.60467 46.2581C5.32714 46.2638 6.0579 46.2695 6.79698 46.2752C6.97967 46.2752 7.16651 46.2752 7.34921 46.281C7.45301 46.281 7.56096 46.281 7.66892 46.281C7.87652 46.281 8.08413 46.281 8.29588 46.281C9.97333 46.281 11.7504 46.2867 13.6936 46.2867C18.672 46.9221 26.125 46.3268 31.4853 46.7275L32.9552 46.5386C36.5177 46.945 41.9611 46.6244 46.9602 47.048C48.185 46.9736 48.8286 46.9564 49.1151 46.9564C48.8867 46.9393 48.5421 46.8935 48.4383 46.7561C49.8666 46.8763 52.7565 46.8076 52.5489 47.0824L52.1877 47.1053C51.9759 47.3743 56.5224 47.0537 58.1127 47.3228L57.2408 47.0137L59.9438 47.111L59.2172 47.1568C70.9717 46.7217 76.2739 47.7464 87.3144 47.3514C85.8487 47.6433 89.4901 47.2255 89.6312 47.5747C92.409 48.0669 94.7881 47.5747 97.0718 47.4945C97.0718 47.4773 97.1009 47.4602 97.2296 47.4315L101.216 47.546C98.8281 47.9467 104.093 47.2312 101.901 47.5689C112.298 48.0898 125.871 47.9983 137.908 48.3646L137.38 48.2387C140.432 48.3131 144.231 48.2444 146.548 48.4676C148.865 48.6909 151.618 48.273 152.519 48.2673C155.06 48.1185 157.364 48.5478 156.276 48.5077C158.992 48.502 161.55 48.1471 165.316 48.3875C166.599 48.7825 175.596 48.2043 175.708 48.6279L175.75 48.5936C180.57 48.9771 185.129 48.5535 190.324 48.9199C190.324 48.9199 190.224 48.9485 190.05 48.9771L200.637 47.8895L197.64 46.4241L188.484 45.1132L163.638 44.9129L143.816 44.1057L95.5604 43.3845L92.11 43.6421C82.635 42.9151 70.4693 43.3329 60.2552 42.7548L60.0393 43.0238C57.1619 42.9895 57.357 42.8235 56.647 42.7605C47.7574 42.6174 38.7764 42.5087 29.8702 42.3999C25.415 42.3426 20.9805 42.2854 16.5835 42.2282C13.2244 42.1766 9.89444 42.1308 6.61013 42.085C6.61844 41.3065 6.63089 40.5338 6.6392 39.7667C6.66411 38.307 6.68902 36.8645 6.71393 35.4277C6.77622 32.5598 6.85926 29.7549 6.96721 27.0072C7.24956 25.4388 7.13745 20.6475 7.43225 19.4168C7.21219 16.7607 7.11254 14.0303 7.08762 11.294C7.07517 9.92593 7.07517 8.56355 7.08762 7.20689C7.09593 6.53143 7.10423 5.85596 7.11253 5.18049L7.11669 4.95152L7.12084 4.91145L7.12499 4.83131C7.12914 4.77979 7.1333 4.72255 7.13745 4.67103L7.18312 4.72255L7.1416 4.52792L7.46131 4.50502C7.50283 4.52792 7.52359 4.56227 7.51944 4.57944C7.57342 4.55082 7.65646 4.52792 7.75611 4.51647C7.74781 4.51647 7.80178 4.51647 7.835 4.51647H7.94711C8.02184 4.51647 8.09658 4.51647 8.17132 4.51647C8.3208 4.51647 8.47442 4.51647 8.62805 4.51647C8.93531 4.51647 9.25086 4.5222 9.57057 4.5222C10.8494 4.53365 12.2196 4.56799 13.6189 4.61951C16.4174 4.7111 19.3321 4.84848 21.8815 4.9458L21.5826 4.96869C51.3323 5.5583 78.9604 5.54685 108.461 6.46273C122.175 7.15537 138.14 6.82909 153.877 7.48738C156.771 7.80222 188.617 8.16858 191.432 8.09416Z" fill="#533FB8"/>
<path d="M197.714 31.0314V30.9456C197.544 30.9456 197.607 31.0715 197.714 31.0314Z" fill="#533FB8"/>
<path d="M172.561 4.23594C172.631 4.23594 172.702 4.24166 172.768 4.24166L171.988 4.06421L172.561 4.23594Z" fill="#533FB8"/>
<path d="M202.659 15.1006C202.726 13.8184 202.684 13.7612 202.613 13.9386C202.601 14.4023 202.609 14.8087 202.659 15.1006Z" fill="#533FB8"/>
<path d="M197.939 41.5125C197.918 42.188 198.022 41.9304 198.138 41.5354C198.125 40.8485 198.117 40.3677 198.117 40.3677C198.076 40.7512 197.984 41.1233 197.939 41.5125Z" fill="#533FB8"/>
<path d="M200.276 38.8051L200.413 39.0169C200.384 38.6219 200.33 38.6391 200.276 38.8051Z" fill="#533FB8"/>
<path d="M46.9411 23.366V16.9895H48.7871V23.366H46.9411ZM47.0646 15.9625C46.8479 15.7545 46.7396 15.4967 46.7396 15.189C46.7396 14.8813 46.8479 14.6257 47.0646 14.422C47.2813 14.214 47.5478 14.11 47.8641 14.11C48.1804 14.11 48.4469 14.214 48.6636 14.422C48.8803 14.6257 48.9886 14.8813 48.9886 15.189C48.9886 15.4967 48.8803 15.7545 48.6636 15.9625C48.4469 16.1662 48.1804 16.268 47.8641 16.268C47.5478 16.268 47.2813 16.1662 47.0646 15.9625ZM53.3758 11.9H55.4168L58.6733 21H56.7168L56.0408 18.9525H52.7518L52.0758 21H50.1193L53.3758 11.9ZM55.5663 17.4445L54.3963 13.8695L53.2263 17.4445H55.5663ZM62.8626 19.5765C63.2483 19.5765 63.5971 19.479 63.9091 19.284C64.2255 19.089 64.4616 18.829 64.6176 18.504V16.762C64.4616 16.437 64.2255 16.177 63.9091 15.982C63.5971 15.787 63.2483 15.6895 62.8626 15.6895C62.3123 15.6895 61.8508 15.8758 61.4781 16.2485C61.1055 16.6212 60.9191 17.0827 60.9191 17.633C60.9191 18.1833 61.1055 18.6448 61.4781 19.0175C61.8508 19.3902 62.3123 19.5765 62.8626 19.5765ZM62.4856 14.11C63.3393 14.11 64.05 14.3873 64.6176 14.942V11.51H66.3856V21H64.6176V20.324C64.05 20.8787 63.3393 21.156 62.4856 21.156C61.853 21.156 61.2788 20.9978 60.7631 20.6815C60.2475 20.3608 59.8445 19.9318 59.5541 19.3945C59.2681 18.8572 59.1251 18.27 59.1251 17.633C59.1251 16.996 59.2681 16.4088 59.5541 15.8715C59.8445 15.3342 60.2475 14.9073 60.7631 14.591C61.2788 14.2703 61.853 14.11 62.4856 14.11ZM71.4066 19.5765C71.7922 19.5765 72.1411 19.479 72.4531 19.284C72.7694 19.089 73.0056 18.829 73.1616 18.504V16.762C73.0056 16.437 72.7694 16.177 72.4531 15.982C72.1411 15.787 71.7922 15.6895 71.4066 15.6895C70.8562 15.6895 70.3947 15.8758 70.0221 16.2485C69.6494 16.6212 69.4631 17.0827 69.4631 17.633C69.4631 18.1833 69.6494 18.6448 70.0221 19.0175C70.3947 19.3902 70.8562 19.5765 71.4066 19.5765ZM71.0296 14.11C71.8832 14.11 72.5939 14.3873 73.1616 14.942V14.266H74.9296V24.016H73.1616V20.324C72.5939 20.8787 71.8832 21.156 71.0296 21.156C70.3969 21.156 69.8227 20.9978 69.3071 20.6815C68.7914 20.3608 68.3884 19.9318 68.0981 19.3945C67.8121 18.8572 67.6691 18.27 67.6691 17.633C67.6691 16.996 67.8121 16.4088 68.0981 15.8715C68.3884 15.3342 68.7914 14.9073 69.3071 14.591C69.8227 14.2703 70.3969 14.11 71.0296 14.11ZM81.1075 18.647V14.266H82.895V21H81.1075V20.259C80.8779 20.532 80.594 20.7508 80.256 20.9155C79.9224 21.0758 79.5757 21.156 79.216 21.156C78.423 21.156 77.7752 20.9025 77.2725 20.3955C76.7742 19.8885 76.525 19.2277 76.525 18.413V14.266H78.3125V18.2375C78.3125 18.6188 78.4339 18.9373 78.6765 19.193C78.9235 19.4487 79.2485 19.5765 79.6515 19.5765C79.9245 19.5765 80.1954 19.4855 80.464 19.3035C80.7327 19.1215 80.9472 18.9027 81.1075 18.647ZM84.6602 21V14.266H86.4477V21H84.6602ZM84.8032 13.2065C84.5995 13.0072 84.4977 12.7623 84.4977 12.472C84.4977 12.1817 84.5995 11.9368 84.8032 11.7375C85.0069 11.5382 85.2582 11.4385 85.5572 11.4385C85.8562 11.4385 86.1075 11.5382 86.3112 11.7375C86.5149 11.9368 86.6167 12.1817 86.6167 12.472C86.6167 12.7623 86.5149 13.0072 86.3112 13.2065C86.1075 13.4058 85.8562 13.5055 85.5572 13.5055C85.2582 13.5055 85.0069 13.4058 84.8032 13.2065ZM89.5855 18.166C89.6635 18.634 89.8801 19.0132 90.2355 19.3035C90.5951 19.5895 91.0285 19.7325 91.5355 19.7325C92.2418 19.7325 92.8788 19.453 93.4465 18.894L94.519 19.934C93.7693 20.7487 92.777 21.156 91.542 21.156C90.996 21.156 90.4868 21.065 90.0145 20.883C89.5421 20.701 89.1435 20.4518 88.8185 20.1355C88.4935 19.8192 88.2378 19.4465 88.0515 19.0175C87.8695 18.5842 87.7785 18.1227 87.7785 17.633C87.7785 17.1477 87.8716 16.6883 88.058 16.255C88.2443 15.8217 88.4978 15.449 88.8185 15.137C89.1435 14.8207 89.5335 14.5715 89.9885 14.3895C90.4435 14.2032 90.9266 14.11 91.438 14.11C92.1096 14.11 92.7163 14.2638 93.258 14.5715C93.7996 14.8748 94.22 15.2865 94.519 15.8065C94.818 16.3222 94.9675 16.892 94.9675 17.516C94.9675 17.7413 94.9415 17.958 94.8895 18.166H89.5855ZM91.425 15.5335C91.0046 15.5335 90.6298 15.657 90.3005 15.904C89.9755 16.151 89.7523 16.4803 89.631 16.892H93.128C93.0283 16.4847 92.8268 16.1575 92.5235 15.9105C92.2201 15.6592 91.854 15.5335 91.425 15.5335ZM99.6171 15.6895C99.2964 15.6895 98.9996 15.787 98.7266 15.982C98.4536 16.177 98.2261 16.4435 98.0441 16.7815V21H96.2566V14.266H98.0441V15.0915C98.5338 14.4372 99.1339 14.11 99.8446 14.11C100.074 14.11 100.278 14.1577 100.456 14.253L100.332 15.8195C100.081 15.7328 99.8424 15.6895 99.6171 15.6895ZM102.776 18.166C102.854 18.634 103.071 19.0132 103.426 19.3035C103.786 19.5895 104.219 19.7325 104.726 19.7325C105.432 19.7325 106.069 19.453 106.637 18.894L107.709 19.934C106.96 20.7487 105.967 21.156 104.732 21.156C104.186 21.156 103.677 21.065 103.205 20.883C102.733 20.701 102.334 20.4518 102.009 20.1355C101.684 19.8192 101.428 19.4465 101.242 19.0175C101.06 18.5842 100.969 18.1227 100.969 17.633C100.969 17.1477 101.062 16.6883 101.248 16.255C101.435 15.8217 101.688 15.449 102.009 15.137C102.334 14.8207 102.724 14.5715 103.179 14.3895C103.634 14.2032 104.117 14.11 104.628 14.11C105.3 14.11 105.907 14.2638 106.448 14.5715C106.99 14.8748 107.41 15.2865 107.709 15.8065C108.008 16.3222 108.158 16.892 108.158 17.516C108.158 17.7413 108.132 17.958 108.08 18.166H102.776ZM104.615 15.5335C104.195 15.5335 103.82 15.657 103.491 15.904C103.166 16.151 102.943 16.4803 102.821 16.892H106.318C106.219 16.4847 106.017 16.1575 105.714 15.9105C105.411 15.6592 105.044 15.5335 104.615 15.5335ZM115.619 15.8195V18.6665C115.619 18.9915 115.697 19.2298 115.853 19.3815C116.013 19.5288 116.278 19.6025 116.646 19.6025C116.876 19.6025 117.088 19.5917 117.283 19.57V21.065C117.001 21.1257 116.691 21.156 116.353 21.156C114.672 21.156 113.831 20.363 113.831 18.777V15.8195H112.785V14.266H113.831V12.472L115.619 12.316V14.266H117.205V15.8195H115.619ZM122.939 18.647V14.266H124.726V21H122.939V20.259C122.709 20.532 122.425 20.7508 122.087 20.9155C121.753 21.0758 121.407 21.156 121.047 21.156C120.254 21.156 119.606 20.9025 119.104 20.3955C118.605 19.8885 118.356 19.2277 118.356 18.413V14.266H120.144V18.2375C120.144 18.6188 120.265 18.9373 120.508 19.193C120.755 19.4487 121.08 19.5765 121.483 19.5765C121.756 19.5765 122.026 19.4855 122.295 19.3035C122.564 19.1215 122.778 18.9027 122.939 18.647ZM133.905 19.5765C134.455 19.5765 134.916 19.3902 135.289 19.0175C135.662 18.6448 135.848 18.1833 135.848 17.633C135.848 17.0827 135.662 16.6212 135.289 16.2485C134.916 15.8758 134.455 15.6895 133.905 15.6895C133.519 15.6895 133.168 15.787 132.852 15.982C132.54 16.177 132.306 16.437 132.15 16.762V18.504C132.306 18.829 132.54 19.089 132.852 19.284C133.168 19.479 133.519 19.5765 133.905 19.5765ZM134.282 14.11C134.914 14.11 135.488 14.2703 136.004 14.591C136.52 14.9073 136.921 15.3342 137.207 15.8715C137.497 16.4088 137.642 16.996 137.642 17.633C137.642 18.27 137.497 18.8572 137.207 19.3945C136.921 19.9318 136.52 20.3608 136.004 20.6815C135.488 20.9978 134.914 21.156 134.282 21.156C133.428 21.156 132.717 20.8787 132.15 20.324V24.016H130.382V14.266H132.15V14.942C132.717 14.3873 133.428 14.11 134.282 14.11ZM138.958 21V11.51H140.746V21H138.958ZM145.814 19.5765C146.199 19.5765 146.548 19.479 146.86 19.284C147.177 19.089 147.413 18.829 147.569 18.504V16.762C147.413 16.437 147.177 16.177 146.86 15.982C146.548 15.787 146.199 15.6895 145.814 15.6895C145.263 15.6895 144.802 15.8758 144.429 16.2485C144.057 16.6212 143.87 17.0827 143.87 17.633C143.87 18.1833 144.057 18.6448 144.429 19.0175C144.802 19.3902 145.263 19.5765 145.814 19.5765ZM145.437 14.11C146.29 14.11 147.001 14.3873 147.569 14.942V14.266H149.337V21H147.569V20.324C147.001 20.8787 146.29 21.156 145.437 21.156C144.804 21.156 144.23 20.9978 143.714 20.6815C143.199 20.3608 142.796 19.9318 142.505 19.3945C142.219 18.8572 142.076 18.27 142.076 17.633C142.076 16.996 142.219 16.4088 142.505 15.8715C142.796 15.3342 143.199 14.9073 143.714 14.591C144.23 14.2703 144.804 14.11 145.437 14.11ZM152.85 16.619V21H151.062V14.266H152.85V15.007C153.079 14.734 153.361 14.5173 153.695 14.357C154.033 14.1923 154.382 14.11 154.741 14.11C155.534 14.11 156.18 14.3635 156.678 14.8705C157.181 15.3775 157.432 16.0383 157.432 16.853V21H155.645V17.0285C155.645 16.6472 155.521 16.3287 155.274 16.073C155.032 15.8173 154.709 15.6895 154.306 15.6895C154.033 15.6895 153.762 15.7805 153.493 15.9625C153.225 16.1445 153.01 16.3633 152.85 16.619ZM51.5964 36.038L52.4934 34.9265C52.71 35.1735 52.9657 35.3685 53.2604 35.5115C53.5594 35.6545 53.8735 35.726 54.2029 35.726C54.5105 35.726 54.751 35.6653 54.9244 35.544C55.102 35.4227 55.1909 35.2602 55.1909 35.0565C55.1909 34.8485 55.1042 34.6817 54.9309 34.556C54.7575 34.426 54.4585 34.3177 54.0339 34.231C52.5735 33.932 51.8434 33.2127 51.8434 32.073C51.8434 31.501 52.0665 31.0308 52.5129 30.6625C52.9635 30.2942 53.5507 30.11 54.2744 30.11C54.725 30.11 55.1584 30.1945 55.5744 30.3635C55.9904 30.5282 56.3544 30.7492 56.6664 31.0265L55.8084 32.1445C55.3187 31.7415 54.8594 31.54 54.4304 31.54C54.1834 31.54 53.9819 31.592 53.8259 31.696C53.6699 31.7957 53.5919 31.93 53.5919 32.099C53.5919 32.489 53.9494 32.7577 54.6644 32.905C55.44 33.061 56.012 33.3188 56.3804 33.6785C56.753 34.0382 56.9394 34.504 56.9394 35.076C56.9394 35.6827 56.7032 36.181 56.2309 36.571C55.7585 36.961 55.128 37.156 54.3394 37.156C53.7804 37.156 53.2604 37.0585 52.7794 36.8635C52.2984 36.6642 51.904 36.389 51.5964 36.038ZM59.5801 34.166C59.6581 34.634 59.8748 35.0132 60.2301 35.3035C60.5898 35.5895 61.0231 35.7325 61.5301 35.7325C62.2364 35.7325 62.8734 35.453 63.4411 34.894L64.5136 35.934C63.7639 36.7487 62.7716 37.156 61.5366 37.156C60.9906 37.156 60.4814 37.065 60.0091 36.883C59.5368 36.701 59.1381 36.4518 58.8131 36.1355C58.4881 35.8192 58.2324 35.4465 58.0461 35.0175C57.8641 34.5842 57.7731 34.1227 57.7731 33.633C57.7731 33.1477 57.8663 32.6883 58.0526 32.255C58.2389 31.8217 58.4924 31.449 58.8131 31.137C59.1381 30.8207 59.5281 30.5715 59.9831 30.3895C60.4381 30.2032 60.9213 30.11 61.4326 30.11C62.1043 30.11 62.7109 30.2638 63.2526 30.5715C63.7943 30.8748 64.2146 31.2865 64.5136 31.8065C64.8126 32.3222 64.9621 32.892 64.9621 33.516C64.9621 33.7413 64.9361 33.958 64.8841 34.166H59.5801ZM61.4196 31.5335C60.9993 31.5335 60.6244 31.657 60.2951 31.904C59.9701 32.151 59.7469 32.4803 59.6256 32.892H63.1226C63.0229 32.4847 62.8214 32.1575 62.5181 31.9105C62.2148 31.6592 61.8486 31.5335 61.4196 31.5335ZM66.2512 30.266H68.0387V31.007C68.2554 30.7383 68.5219 30.5238 68.8382 30.3635C69.1546 30.2032 69.4926 30.123 69.8522 30.123C70.3246 30.123 70.7492 30.2248 71.1262 30.4285C71.5076 30.6322 71.8131 30.916 72.0427 31.28C72.2854 30.929 72.6061 30.6473 73.0047 30.435C73.4034 30.2183 73.8237 30.11 74.2657 30.11C75.0414 30.11 75.6719 30.3657 76.1572 30.877C76.6469 31.384 76.8917 32.0362 76.8917 32.8335V37H75.1042V33.0155C75.1042 32.6385 74.9916 32.3243 74.7662 32.073C74.5452 31.8173 74.2506 31.6895 73.8822 31.6895C73.6092 31.6895 73.3471 31.7805 73.0957 31.9625C72.8444 32.1402 72.6299 32.372 72.4522 32.658C72.4609 32.8487 72.4652 32.996 72.4652 33.1V37H70.6777V33.0155C70.6777 32.6298 70.5651 32.3135 70.3397 32.0665C70.1144 31.8152 69.8197 31.6895 69.4557 31.6895C69.1827 31.6895 68.9206 31.7783 68.6692 31.956C68.4222 32.1337 68.2121 32.3612 68.0387 32.6385V37H66.2512V30.266ZM81.785 35.5765C82.1707 35.5765 82.5195 35.479 82.8315 35.284C83.1478 35.089 83.384 34.829 83.54 34.504V32.762C83.384 32.437 83.1478 32.177 82.8315 31.982C82.5195 31.787 82.1707 31.6895 81.785 31.6895C81.2347 31.6895 80.7732 31.8758 80.4005 32.2485C80.0278 32.6212 79.8415 33.0827 79.8415 33.633C79.8415 34.1833 80.0278 34.6448 80.4005 35.0175C80.7732 35.3902 81.2347 35.5765 81.785 35.5765ZM81.408 30.11C82.2617 30.11 82.9723 30.3873 83.54 30.942V30.266H85.308V37H83.54V36.324C82.9723 36.8787 82.2617 37.156 81.408 37.156C80.7753 37.156 80.2012 36.9978 79.6855 36.6815C79.1698 36.3608 78.7668 35.9318 78.4765 35.3945C78.1905 34.8572 78.0475 34.27 78.0475 33.633C78.0475 32.996 78.1905 32.4088 78.4765 31.8715C78.7668 31.3342 79.1698 30.9073 79.6855 30.591C80.2012 30.2703 80.7753 30.11 81.408 30.11ZM88.8209 32.619V37H87.0334V30.266H88.8209V31.007C89.0506 30.734 89.3323 30.5173 89.6659 30.357C90.0039 30.1923 90.3528 30.11 90.7124 30.11C91.5054 30.11 92.1511 30.3635 92.6494 30.8705C93.1521 31.3775 93.4034 32.0383 93.4034 32.853V37H91.6159V33.0285C91.6159 32.6472 91.4924 32.3287 91.2454 32.073C91.0028 31.8173 90.6799 31.6895 90.2769 31.6895C90.0039 31.6895 89.7331 31.7805 89.4644 31.9625C89.1958 32.1445 88.9813 32.3633 88.8209 32.619ZM98.3016 35.5765C98.6873 35.5765 99.0361 35.479 99.3481 35.284C99.6644 35.089 99.9006 34.829 100.057 34.504V32.762C99.9006 32.437 99.6644 32.177 99.3481 31.982C99.0361 31.787 98.6873 31.6895 98.3016 31.6895C97.7513 31.6895 97.2898 31.8758 96.9171 32.2485C96.5444 32.6212 96.3581 33.0827 96.3581 33.633C96.3581 34.1833 96.5444 34.6448 96.9171 35.0175C97.2898 35.3902 97.7513 35.5765 98.3016 35.5765ZM97.9246 30.11C98.7783 30.11 99.4889 30.3873 100.057 30.942V30.266H101.825V37H100.057V36.324C99.4889 36.8787 98.7783 37.156 97.9246 37.156C97.2919 37.156 96.7178 36.9978 96.2021 36.6815C95.6864 36.3608 95.2834 35.9318 94.9931 35.3945C94.7071 34.8572 94.5641 34.27 94.5641 33.633C94.5641 32.996 94.7071 32.4088 94.9931 31.8715C95.2834 31.3342 95.6864 30.9073 96.2021 30.591C96.7178 30.2703 97.2919 30.11 97.9246 30.11ZM103.583 37V27.51H105.37V37H103.583ZM114.361 35.5765C114.747 35.5765 115.096 35.479 115.408 35.284C115.724 35.089 115.96 34.829 116.116 34.504V32.762C115.96 32.437 115.724 32.177 115.408 31.982C115.096 31.787 114.747 31.6895 114.361 31.6895C113.811 31.6895 113.349 31.8758 112.977 32.2485C112.604 32.6212 112.418 33.0827 112.418 33.633C112.418 34.1833 112.604 34.6448 112.977 35.0175C113.349 35.3902 113.811 35.5765 114.361 35.5765ZM113.984 30.11C114.838 30.11 115.549 30.3873 116.116 30.942V30.266H117.884V37H116.116V36.324C115.549 36.8787 114.838 37.156 113.984 37.156C113.352 37.156 112.777 36.9978 112.262 36.6815C111.746 36.3608 111.343 35.9318 111.053 35.3945C110.767 34.8572 110.624 34.27 110.624 33.633C110.624 32.996 110.767 32.4088 111.053 31.8715C111.343 31.3342 111.746 30.9073 112.262 30.591C112.777 30.2703 113.352 30.11 113.984 30.11ZM121.397 32.619V37H119.61V27.51H121.397V31.007C121.627 30.734 121.908 30.5173 122.242 30.357C122.58 30.1923 122.929 30.11 123.289 30.11C124.082 30.11 124.727 30.3635 125.226 30.8705C125.728 31.3775 125.98 32.0383 125.98 32.853V37H124.192V33.0285C124.192 32.6472 124.069 32.3287 123.822 32.073C123.579 31.8173 123.256 31.6895 122.853 31.6895C122.58 31.6895 122.309 31.7805 122.041 31.9625C121.772 32.1445 121.557 32.3633 121.397 32.619ZM128.213 36.1355C127.498 35.4552 127.14 34.621 127.14 33.633C127.14 32.645 127.498 31.8108 128.213 31.1305C128.928 30.4502 129.816 30.11 130.878 30.11C131.58 30.11 132.217 30.266 132.789 30.578C133.361 30.89 133.807 31.3147 134.128 31.852C134.453 32.3893 134.615 32.983 134.615 33.633C134.615 34.283 134.453 34.8767 134.128 35.414C133.807 35.9513 133.361 36.376 132.789 36.688C132.217 37 131.58 37.156 130.878 37.156C129.816 37.156 128.928 36.8158 128.213 36.1355ZM128.934 33.633C128.934 34.1833 129.121 34.6448 129.493 35.0175C129.866 35.3902 130.327 35.5765 130.878 35.5765C131.428 35.5765 131.89 35.3902 132.262 35.0175C132.639 34.6448 132.828 34.1833 132.828 33.633C132.828 33.087 132.639 32.6277 132.262 32.255C131.89 31.878 131.428 31.6895 130.878 31.6895C130.327 31.6895 129.866 31.878 129.493 32.255C129.121 32.6277 128.934 33.087 128.934 33.633ZM139.258 31.6895C138.938 31.6895 138.641 31.787 138.368 31.982C138.095 32.177 137.867 32.4435 137.685 32.7815V37H135.898V30.266H137.685V31.0915C138.175 30.4372 138.775 30.11 139.486 30.11C139.715 30.11 139.919 30.1577 140.097 30.253L139.973 31.8195C139.722 31.7328 139.484 31.6895 139.258 31.6895ZM144.348 35.5765C144.733 35.5765 145.082 35.479 145.394 35.284C145.71 35.089 145.947 34.829 146.103 34.504V32.762C145.947 32.437 145.71 32.177 145.394 31.982C145.082 31.787 144.733 31.6895 144.348 31.6895C143.797 31.6895 143.336 31.8758 142.963 32.2485C142.59 32.6212 142.404 33.0827 142.404 33.633C142.404 34.1833 142.59 34.6448 142.963 35.0175C143.336 35.3902 143.797 35.5765 144.348 35.5765ZM143.971 30.11C144.824 30.11 145.535 30.3873 146.103 30.942V30.266H147.871V37H146.103V36.324C145.535 36.8787 144.824 37.156 143.971 37.156C143.338 37.156 142.764 36.9978 142.248 36.6815C141.732 36.3608 141.329 35.9318 141.039 35.3945C140.753 34.8572 140.61 34.27 140.61 33.633C140.61 32.996 140.753 32.4088 141.039 31.8715C141.329 31.3342 141.732 30.9073 142.248 30.591C142.764 30.2703 143.338 30.11 143.971 30.11ZM149.843 34.2765V27.9H151.689V34.2765H149.843ZM149.966 36.8505C149.75 36.6425 149.641 36.3847 149.641 36.077C149.641 35.7693 149.75 35.5137 149.966 35.31C150.183 35.102 150.45 34.998 150.766 34.998C151.082 34.998 151.349 35.102 151.565 35.31C151.782 35.5137 151.89 35.7693 151.89 36.077C151.89 36.3847 151.782 36.6425 151.565 36.8505C151.349 37.0542 151.082 37.156 150.766 37.156C150.45 37.156 150.183 37.0542 149.966 36.8505Z" fill="#F9F2E1"/>
</svg>
