<svg width="156" height="28" viewBox="0 0 156 28" fill="none" xmlns="http://www.w3.org/2000/svg">
<path d="M37.7401 26.2861C37.9092 26.2977 37.9922 26.2861 37.7401 26.2861V26.2861Z" fill="#FF810C"/>
<path d="M51.0205 0.538391C51.0716 0.538391 51.0971 0.538391 51.1481 0.538391C51.2407 0.509516 51.3268 0.48385 51.413 0.4646L51.0205 0.538391Z" fill="#FF810C"/>
<path d="M72.0194 1.00975C72.0672 1.01299 72.1023 1.01623 72.1469 1.01947C72.1374 1.00002 72.1629 0.980579 72.0194 1.00975Z" fill="#FF810C"/>
<path d="M0.842234 0.490234C0.835862 0.644073 0.848606 0.733812 0.867722 0.804321C0.854978 0.711377 0.84542 0.615228 0.842234 0.490234Z" fill="#FF810C"/>
<path d="M76.2274 26.6294C76.2274 26.6294 76.1732 26.6294 76.1349 26.6294C76.2083 26.6359 76.2849 26.6424 76.3615 26.6521L76.2274 26.6294Z" fill="#FF810C"/>
<path d="M75.8029 26.6774C75.3403 26.6486 75.9305 26.6358 76.1348 26.6326C75.6242 26.5845 75.1105 26.5749 74.5936 26.5877C74.5968 26.6326 75.5764 26.639 75.8029 26.6774Z" fill="#FF810C"/>
<path d="M146.042 27.4177L145.831 27.4347C145.917 27.4313 145.981 27.4245 146.042 27.4177Z" fill="#FF810C"/>
<path d="M5.78183 2.56396C5.77235 2.56726 5.75656 2.57056 5.75024 2.57385C5.77235 2.57715 5.77867 2.57056 5.78183 2.56396Z" fill="#FF810C"/>
<path d="M135.021 27.2253L134.9 27.2991C135.008 27.2702 135.03 27.2478 135.021 27.2253Z" fill="#FF810C"/>
<path d="M51.4133 0.468384L51.5664 0.438965C51.5122 0.445502 51.4644 0.455309 51.4133 0.468384Z" fill="#FF810C"/>
<path d="M91.4219 1.31396C91.4283 1.3364 91.4729 1.35562 91.524 1.37164C91.5495 1.37164 91.5655 1.37164 91.5782 1.37164L91.4219 1.31396Z" fill="#FF810C"/>
<path d="M154.088 20.3958C154.107 20.3925 154.127 20.3829 154.149 20.3701L154.044 20.1746C154.05 20.2771 154.066 20.3477 154.088 20.3958Z" fill="#FF810C"/>
<path d="M118.033 1.99017C118.055 1.98056 118.119 1.97415 118.125 1.96454C117.672 1.9325 116.469 1.91327 114.935 1.89404L114.839 1.98376L118.033 1.99017Z" fill="#FF810C"/>
<path d="M147.111 4.53168L144.277 4.30734C146.348 4.31375 148.17 4.33298 149.835 4.35862C150.253 4.36503 150.659 4.37144 151.058 4.37785C151.156 4.38105 151.255 4.38105 151.354 4.38426L151.485 4.38746H151.517C151.558 4.38746 151.597 4.39067 151.638 4.39067C151.791 4.39708 151.938 4.40349 152.082 4.40669C152.072 4.49322 152.063 4.57975 152.053 4.66629L152.05 4.69833L152.047 4.82973C152.043 4.93549 152.043 5.04125 152.04 5.15022C152.037 5.36495 152.034 5.57967 152.034 5.7976C152.027 6.66933 152.05 7.58912 152.117 8.64032L152.037 8.4256C151.941 8.98324 152.784 9.31014 151.67 15.4859H151.632C151.635 15.7006 151.712 15.7006 151.606 16.1269L151.852 15.0597C151.938 15.7006 152.11 16.2647 152.126 17.1172C152.082 17.2967 152.005 17.3608 151.945 17.3768L151.98 19.4728L151.728 20.1105C151.852 20.7515 152.369 20.4663 152.059 22.1777C152.423 21.5367 152.264 23.0302 152.445 22.8219C152.401 22.9084 152.331 23.1039 152.27 23.2609C152.299 24.2801 152.372 26.1998 152.551 26.6773C152.551 26.6773 153.355 22.7001 153.751 21.6361C153.636 23.0686 153.789 22.0142 153.913 21.7322L153.827 21.6361C153.926 20.7772 154.149 20.7804 154.22 20.3509C154.2 20.3509 154.178 20.3637 154.156 20.3765L154.184 20.431C154.143 20.4695 154.117 20.447 154.095 20.4022C154.047 20.4118 154.009 20.3733 154.025 20.1394L154.047 20.1842C154.019 19.8253 154.063 19.2068 154.082 18.9376L154.271 18.9344C153.92 18.2934 154.874 14.6623 154.896 13.8066C155.145 12.9509 154.861 11.8804 154.995 10.81C155.078 9.10182 155.282 9.95752 155.454 9.10182C155.585 8.0314 155.231 9.31655 155.225 8.8871L155.502 7.60515C155.515 8.35188 155.633 7.94807 155.71 7.81347C155.732 7.25902 155.837 6.54434 155.888 5.9258C155.914 5.61813 155.927 5.32969 155.911 5.10215C155.901 4.98677 155.885 4.88742 155.86 4.8041C155.847 4.76884 155.831 4.70795 155.815 4.66308C155.799 4.61821 155.777 4.57975 155.754 4.55091C155.85 3.5542 155.936 2.96771 156 2.54787C155.123 2.503 154.647 2.47095 153.575 2.45172C153.897 2.47416 154.376 2.49659 154.762 2.51582C155.148 2.53825 155.442 2.55748 155.413 2.57671C155.001 2.55107 154.73 2.53825 154.577 2.53505C154.424 2.53184 154.389 2.53505 154.427 2.54466C154.507 2.56389 154.88 2.59915 155.221 2.61197C154.513 2.62158 153.352 2.59594 151.903 2.55107C151.814 2.54787 151.721 2.54466 151.629 2.54146C151.584 2.54146 151.539 2.53825 151.495 2.53825L151.399 2.53505C151.271 2.52864 151.137 2.52543 151.006 2.51903C150.742 2.50621 150.467 2.49659 150.193 2.48377C149.641 2.45813 149.073 2.43249 148.518 2.41006C146.297 2.31071 144.258 2.23059 144.063 2.32994V2.29148C143.629 2.4357 144.322 2.59274 143.023 2.66004L142.162 2.57992L140.86 2.62799C139.989 2.5671 140.416 2.53184 140.419 2.51262C138.301 2.55428 135.343 2.43249 132.778 2.37801L135.49 2.82669C133.326 2.7017 129.421 2.45813 128.987 2.58633L127.688 2.42929C123.349 2.1056 124.657 2.503 122.924 2.40044L120.745 2.22097L122.915 2.25302C120.745 2.14726 119.877 2.08637 118.151 1.96458L118.132 1.96779C118.25 1.9742 118.327 1.98381 118.343 1.99343H118.039C117.775 2.06393 116.642 2.10239 115.113 2.07675C112.944 2.02548 111.243 2.11521 107.778 1.9101L106.91 2.05432L104.306 1.92292L104.31 1.80114C106.859 1.8428 111.658 1.85882 114.935 1.89408L114.992 1.83959C113.049 1.81395 110.838 1.83959 109.552 1.81075C108.927 1.7787 107.325 1.62807 108.489 1.56077L107.286 1.66653C100.8 1.59602 100.758 1.59923 93.9906 1.37168L94.5777 1.44219C93.2343 1.46142 91.8942 1.47744 91.5241 1.37489C87.459 1.30118 83.2504 1.16657 80.6116 0.977484L80.0309 1.11529C79.1726 1.09606 77.8899 0.858904 77.4687 1.05761L75.634 1.09606C74.4598 1.07043 73.7419 1.14414 72.405 1.04158C72.4018 1.04158 72.3986 1.04158 72.3986 1.04158C72.3156 1.03517 72.2295 1.02876 72.1465 1.02235C72.1465 1.02556 72.1529 1.03197 72.1625 1.03517C69.5078 0.935821 72.188 1.16657 69.1472 1.04158C68.174 0.926206 68.0655 1.21144 66.585 1.16016L65.1013 0.932616C62.4179 0.778783 61.9552 0.980689 58.0657 0.929411C56.1991 0.83006 55.2993 0.640973 56.5373 0.499959C54.8334 0.666612 55.7619 0.615334 53.5028 0.676227C53.1551 0.5929 53.3976 0.580081 53.8953 0.515984C51.8915 0.397403 52.6573 0.570466 51.1481 0.544827C50.7077 0.685841 50.1972 0.916592 49.7058 0.916592L50.2897 0.971075C48.688 1.02876 46.9394 1.04158 45.0824 0.945436L45.1526 0.871724L43.1711 0.884543L43.0467 0.788397L40.2197 0.781987L40.6058 0.814036C39.9421 0.817241 37.7628 0.820446 36.5152 0.756349L36.5599 0.705071C33.0468 0.493549 30.1432 0.673022 26.0271 0.634564L26.5696 0.535213C25.1688 0.410223 26.1835 0.695456 24.5115 0.621744L24.4285 0.48714C22.9544 0.640973 22.5268 0.426247 21.5122 0.346126L21.9844 0.525598L20.0763 0.464706C17.9736 0.378174 18.7873 0.227546 19.0968 0.141014L17.6641 0.259594L17.3865 0.102556C16.3368 0.266004 16.3399 0.0608925 14.5052 0.1314C14.3649 0.0608925 14.8275 0.0320487 14.2053 0L11.1773 0.176268L13.0024 0.105761L12.779 0.326896C10.8773 0.471115 10.2073 0.269209 8.84801 0.314077L9.7829 0.259594C7.56851 0.285233 7.45045 0.189087 6.20286 0.121785C6.58894 0.169858 7.18243 0.23716 6.28582 0.256389C6.20286 0.256389 6.13585 0.256389 6.08161 0.253184C6.05289 0.253184 6.02737 0.24998 6.00503 0.24998C5.96674 0.246775 5.93483 0.246775 5.90293 0.24357C5.7753 0.233955 5.69872 0.224341 5.62533 0.208316C5.47536 0.182677 5.32859 0.150629 4.76701 0.1314C4.68724 0.189087 4.21182 0.23075 3.54176 0.256389C2.8685 0.275619 1.99742 0.282028 1.037 0.262799C1.03062 0.496754 1.00828 0.733914 0.976376 0.964665C0.934896 0.935821 0.893416 0.894158 0.86789 0.804421C0.890225 0.96787 0.918942 1.09606 0.934896 1.24669C0.95085 1.39732 0.947659 1.56718 0.90937 1.82677C0.797693 1.70178 0.689207 1.56718 0.57753 1.42617C0.679634 1.81716 0.781739 2.18892 0.883844 2.53825C0.877462 2.58312 0.871081 2.62799 0.86789 2.67286C0.864699 2.70491 0.861508 2.73696 0.858317 2.76901C0.855127 2.82349 0.855127 2.88118 0.858317 2.93566C0.864699 3.04783 0.877462 3.15679 0.887034 3.25294C0.906179 3.44523 0.90937 3.57984 0.794502 3.55099L0.730687 3.32024L0.609437 6.3873L0.341413 6.42576C0.70516 6.73342 0.178683 8.09549 0.641345 7.99935C0.382893 8.57622 0.788121 10.2844 0.274406 9.93509C0.2074 11.9509 0.692397 13.047 0.408419 15.4923C-0.0446708 16.3608 0.0670062 18.7549 0 20.3285C0.04148 21.1457 0.0765785 21.886 0.114868 22.5943C0.12444 22.7706 0.134012 22.9468 0.143585 23.1199C0.149966 23.4212 0.159539 23.7192 0.16592 24.0173C0.178683 24.639 0.194637 25.2576 0.2074 25.8825C1.30503 25.8889 2.41222 25.8921 3.53857 25.8985C4.09376 25.9017 4.65534 25.9049 5.22329 25.9081C5.36369 25.9081 5.50727 25.9081 5.64767 25.9113C5.72744 25.9113 5.81039 25.9113 5.89335 25.9113C6.05289 25.9113 6.21243 25.9113 6.37516 25.9113C7.66423 25.9113 9.02988 25.9146 10.5232 25.9146C14.3489 26.2703 20.0763 25.937 24.1956 26.1613L25.3252 26.0556C28.0628 26.2831 32.2459 26.1036 36.0876 26.3408C37.0289 26.2991 37.5235 26.2895 37.7436 26.2895C37.5681 26.2799 37.3033 26.2543 37.2235 26.1774C38.3212 26.2447 40.5419 26.2062 40.3824 26.36L40.1048 26.3728C39.9421 26.5235 43.436 26.344 44.658 26.4946L43.988 26.3216L46.0652 26.3761L45.5068 26.4017C54.5399 26.1581 58.6145 26.7318 67.0987 26.5107C65.9724 26.6741 68.7707 26.4402 68.8792 26.6356C71.0138 26.9113 72.8421 26.6356 74.597 26.5908C74.597 26.5812 74.6194 26.5715 74.7183 26.5555L77.7814 26.6196C75.9467 26.844 79.9926 26.4434 78.3079 26.6324C86.2976 26.9241 96.7282 26.8728 105.978 27.0779L105.573 27.0074C107.918 27.0491 110.838 27.0106 112.618 27.1356C114.399 27.2606 116.514 27.0266 117.207 27.0234C119.159 26.9401 120.93 27.1805 120.094 27.158C122.181 27.1548 124.147 26.9561 127.041 27.0907C128.027 27.3119 134.941 26.9882 135.027 27.2253L135.059 27.2061C138.763 27.4208 142.267 27.1837 146.259 27.3888C146.259 27.3888 146.182 27.4048 146.048 27.4208L154.184 26.8119L151.881 25.9915L144.845 25.2576L125.751 25.1454L110.519 24.6935L73.4356 24.2897L70.7841 24.4339C63.5027 24.0269 54.1538 24.2608 46.3045 23.9371L46.1386 24.0878C43.9274 24.0685 44.0773 23.9756 43.5317 23.9404C36.7003 23.8602 29.7986 23.7993 22.9544 23.7384C19.5307 23.7064 16.123 23.6743 12.7439 23.6423C10.1626 23.6135 7.60361 23.5878 5.07971 23.5622C5.08609 23.1263 5.09566 22.6937 5.10204 22.2642C5.12119 21.447 5.14033 20.6393 5.15948 19.8349C5.20734 18.2293 5.27115 16.6589 5.35411 15.1206C5.57109 14.2424 5.48494 11.56 5.71148 10.8709C5.54237 9.38385 5.46579 7.85513 5.44665 6.3232C5.43707 5.55724 5.43707 4.79448 5.44665 4.03493C5.45303 3.65675 5.45941 3.27858 5.46579 2.9004L5.46898 2.77221L5.47217 2.74978L5.47536 2.70491C5.47855 2.67606 5.48175 2.64402 5.48494 2.61517L5.52003 2.64401L5.48813 2.53505L5.73382 2.52223C5.76572 2.53505 5.78168 2.55428 5.77849 2.56389C5.81997 2.54787 5.88378 2.53505 5.96036 2.52864C5.95398 2.52864 5.99546 2.52864 6.02099 2.52864H6.10714C6.16457 2.52864 6.222 2.52864 6.27944 2.52864C6.39431 2.52864 6.51236 2.52864 6.63042 2.52864C6.86654 2.52864 7.10904 2.53184 7.35473 2.53184C8.33749 2.53825 9.39044 2.55748 10.4657 2.58633C12.6163 2.63761 14.8562 2.71452 16.8154 2.76901L16.5856 2.78182C39.4475 3.11193 60.6789 3.10552 83.3493 3.61829C93.8884 4.00608 106.157 3.82341 118.25 4.19197C120.474 4.36823 144.947 4.57334 147.111 4.53168Z" fill="#FF810C"/>
<path d="M151.938 17.3746V17.3257C151.808 17.3257 151.855 17.3974 151.938 17.3746Z" fill="#FF810C"/>
<path d="M132.608 2.37149C132.662 2.37149 132.717 2.37469 132.768 2.37469L132.168 2.27539L132.608 2.37149Z" fill="#FF810C"/>
<path d="M155.738 8.45441C155.788 7.73661 155.756 7.70457 155.703 7.80391C155.693 8.06347 155.7 8.29098 155.738 8.45441Z" fill="#FF810C"/>
<path d="M152.11 23.2416C152.094 23.6197 152.174 23.4755 152.264 23.2544C152.254 22.8698 152.248 22.6006 152.248 22.6006C152.216 22.8153 152.146 23.0236 152.11 23.2416Z" fill="#FF810C"/>
<path d="M153.906 21.726L154.012 21.8445C153.989 21.6234 153.948 21.633 153.906 21.726Z" fill="#FF810C"/>
</svg>
