<svg width="203" height="49" viewBox="0 0 203 49" fill="none" xmlns="http://www.w3.org/2000/svg">
<path d="M3.89313 2.25593L3.49536 44.1135L200.625 47.6741L201.023 5.81652L3.89313 2.25593Z" fill="#009167"/>
<path d="M49.1106 46.9507C49.3307 46.9664 49.4386 46.9507 49.1106 46.9507V46.9507Z" fill="#009167"/>
<path d="M66.3921 0.961737C66.4585 0.961737 66.4917 0.961737 66.5582 0.961737C66.6786 0.910218 66.7907 0.864424 66.9028 0.830078L66.3921 0.961737Z" fill="#009167"/>
<path d="M93.7175 1.80313C93.7798 1.80885 93.8254 1.81458 93.8835 1.8203C93.8711 1.78595 93.9043 1.75161 93.7175 1.80313Z" fill="#009167"/>
<path d="M1.09607 0.875732C1.08761 1.1505 1.10454 1.31078 1.12995 1.43671C1.11301 1.27071 1.10031 1.09898 1.09607 0.875732Z" fill="#009167"/>
<path d="M99.1934 47.5632C99.1934 47.5632 99.1228 47.5632 99.073 47.5632C99.1685 47.5747 99.2682 47.5861 99.3678 47.6033L99.1934 47.5632Z" fill="#009167"/>
<path d="M98.641 47.649C98.039 47.5975 98.8071 47.5746 99.0728 47.5689C98.4085 47.483 97.74 47.4658 97.0674 47.4887C97.0715 47.5689 98.3462 47.5803 98.641 47.649Z" fill="#009167"/>
<path d="M190.041 48.9714L189.767 49.0001C189.879 48.9943 189.962 48.9829 190.041 48.9714Z" fill="#009167"/>
<path d="M7.52505 4.57935C7.51233 4.58492 7.49114 4.59048 7.48267 4.59605C7.51233 4.60162 7.52081 4.59049 7.52505 4.57935Z" fill="#009167"/>
<path d="M175.7 48.6279L175.542 48.7596C175.683 48.7081 175.712 48.668 175.7 48.6279Z" fill="#009167"/>
<path d="M66.9032 0.835698L67.1024 0.78418C67.0318 0.795628 66.9696 0.812801 66.9032 0.835698Z" fill="#009167"/>
<path d="M118.966 2.34692C118.974 2.38699 119.032 2.42134 119.098 2.44996C119.132 2.44996 119.152 2.44996 119.169 2.44996L118.966 2.34692Z" fill="#009167"/>
<path d="M200.512 36.4294C200.537 36.4237 200.562 36.4065 200.591 36.3836L200.454 36.0344C200.463 36.2176 200.483 36.3435 200.512 36.4294Z" fill="#009167"/>
<path d="M153.594 3.55479C153.623 3.53761 153.706 3.52616 153.714 3.50899C153.125 3.45175 151.559 3.4174 149.562 3.38306L149.438 3.54334L153.594 3.55479Z" fill="#009167"/>
<path d="M191.432 8.09416L187.745 7.69346C190.44 7.70491 192.811 7.73925 194.978 7.78505C195.522 7.7965 196.049 7.80794 196.568 7.81939C196.697 7.82512 196.826 7.82512 196.955 7.83084L197.125 7.83657H197.166C197.22 7.83657 197.27 7.84229 197.324 7.84229C197.523 7.85374 197.714 7.86519 197.901 7.87091C197.889 8.02547 197.876 8.18002 197.864 8.33458L197.86 8.39182L197.856 8.62652C197.851 8.81542 197.851 9.00432 197.847 9.19895C197.843 9.58248 197.839 9.96601 197.839 10.3553C197.831 11.9123 197.86 13.5551 197.947 15.4327L197.843 15.0492C197.719 16.0452 198.815 16.6291 197.366 27.6598H197.316C197.32 28.0433 197.42 28.0433 197.283 28.8047L197.602 26.8985C197.714 28.0433 197.939 29.0508 197.959 30.5735C197.901 30.894 197.802 31.0085 197.723 31.0372L197.768 34.7808L197.44 35.92C197.602 37.0648 198.275 36.5554 197.872 39.6121C198.345 38.4673 198.138 41.1348 198.375 40.7627C198.316 40.9173 198.225 41.2665 198.146 41.547C198.184 43.3673 198.279 46.7961 198.512 47.6491C198.512 47.6491 199.558 40.5452 200.073 38.6447C199.923 41.2035 200.123 39.3202 200.285 38.8165L200.172 38.6447C200.301 37.1106 200.592 37.1164 200.683 36.3493C200.658 36.3493 200.629 36.3722 200.6 36.3951L200.637 36.4924C200.583 36.5611 200.55 36.521 200.521 36.4409C200.459 36.4581 200.409 36.3894 200.43 35.9715L200.459 36.0516C200.422 35.4105 200.48 34.3057 200.505 33.8249L200.75 33.8192C200.293 32.6743 201.534 26.1887 201.563 24.6603C201.887 23.1319 201.518 21.22 201.692 19.3081C201.8 16.257 202.066 17.7854 202.29 16.257C202.46 14.3451 201.999 16.6405 201.991 15.8735L202.352 13.5838C202.369 14.9175 202.523 14.1963 202.622 13.9558C202.651 12.9655 202.788 11.689 202.855 10.5842C202.888 10.0347 202.905 9.51951 202.884 9.11308C202.871 8.90701 202.851 8.72956 202.817 8.58073C202.801 8.51776 202.78 8.409 202.759 8.32886C202.738 8.24872 202.709 8.18002 202.68 8.12851C202.805 6.34825 202.917 5.3007 203 4.55082C201.858 4.47068 201.24 4.41343 199.844 4.37909C200.264 4.41916 200.887 4.45923 201.389 4.49358C201.891 4.53365 202.273 4.56799 202.236 4.60234C201.7 4.55654 201.347 4.53365 201.148 4.52792C200.949 4.5222 200.903 4.52792 200.953 4.54509C201.057 4.57944 201.543 4.64241 201.987 4.6653C201.065 4.68248 199.554 4.63668 197.669 4.55654C197.552 4.55082 197.432 4.54509 197.312 4.53937C197.254 4.53937 197.195 4.53365 197.137 4.53365L197.013 4.52792C196.847 4.51647 196.672 4.51075 196.502 4.4993C196.157 4.4764 195.8 4.45923 195.443 4.43633C194.725 4.39054 193.986 4.34474 193.263 4.30467C190.373 4.12722 187.72 3.98411 187.467 4.16157V4.09287C186.902 4.35047 187.803 4.63096 186.113 4.75117L184.992 4.60806L183.298 4.69393C182.165 4.58516 182.721 4.5222 182.725 4.48785C179.968 4.56227 176.119 4.34474 172.781 4.24743L176.31 5.04883C173.495 4.82558 168.413 4.39054 167.848 4.61951L166.158 4.33902C160.512 3.76086 162.214 4.47068 159.959 4.2875L157.124 3.96694L159.947 4.02418C157.124 3.83528 155.994 3.72652 153.748 3.509L153.723 3.51472C153.877 3.52617 153.976 3.54334 153.997 3.56051H153.603C153.258 3.68645 151.784 3.75514 149.795 3.70935C146.972 3.61776 144.759 3.77804 140.249 3.41168L139.12 3.66928L135.732 3.43458L135.736 3.21706C139.054 3.29147 145.298 3.32009 149.563 3.38306L149.637 3.28575C147.109 3.23995 144.231 3.28575 142.558 3.23423C141.744 3.17699 139.66 2.90794 141.175 2.78773L139.61 2.97664C131.169 2.8507 131.115 2.85643 122.308 2.45L123.072 2.57593C121.324 2.61028 119.58 2.6389 119.099 2.45572C113.809 2.32407 108.332 2.08365 104.898 1.74591L104.143 1.99206C103.026 1.95771 101.357 1.53411 100.809 1.88902L98.4212 1.95771C96.8932 1.91192 95.959 2.04358 94.2193 1.8604C94.2151 1.8604 94.211 1.8604 94.211 1.8604C94.103 1.84895 93.9909 1.8375 93.883 1.82605C93.883 1.83178 93.8913 1.84322 93.9037 1.84895C90.4492 1.6715 93.937 2.08365 89.98 1.8604C88.7136 1.65432 88.5724 2.16379 86.6459 2.0722L84.7152 1.66577C81.2233 1.391 80.6212 1.75164 75.5598 1.66005C73.1308 1.48259 71.9599 1.14486 73.5709 0.892991C71.3537 1.19065 72.562 1.09907 69.6223 1.20783C69.1697 1.059 69.4853 1.0361 70.133 0.921612C67.5255 0.709813 68.522 1.01893 66.5581 0.973131C65.9851 1.225 65.3207 1.63715 64.6813 1.63715L65.4411 1.73446C63.3568 1.8375 61.0814 1.8604 58.6649 1.68867L58.7563 1.55701L56.1778 1.57991L56.0159 1.40818L52.3371 1.39673L52.8395 1.45397C51.9759 1.4597 49.14 1.46542 47.5166 1.35093L47.5747 1.25935C43.0032 0.881542 39.2248 1.2021 33.8686 1.13341L34.5745 0.955958C32.7517 0.73271 34.0721 1.24217 31.8964 1.11051L31.7884 0.870094C29.8702 1.14486 29.3138 0.761332 27.9934 0.618224L28.6079 0.938785L26.125 0.830023C23.3887 0.675467 24.4475 0.406425 24.8503 0.251869L22.986 0.463668L22.6248 0.183178C21.2587 0.475117 21.2629 0.108762 18.8754 0.234696C18.6927 0.108762 19.2948 0.057243 18.4851 0L14.5448 0.314836L16.9198 0.188902L16.6291 0.583879C14.1545 0.841472 13.2825 0.480841 11.5138 0.560981L12.7303 0.463668C9.84876 0.509463 9.69514 0.337734 8.07167 0.217523C8.57407 0.303388 9.34636 0.423598 8.17962 0.457944C8.07167 0.457944 7.98448 0.457944 7.91389 0.45222C7.87652 0.45222 7.8433 0.446495 7.81424 0.446495C7.76441 0.440771 7.72289 0.440771 7.68137 0.435047C7.51529 0.417874 7.41564 0.400701 7.32014 0.372079C7.12499 0.326285 6.934 0.269042 6.20323 0.234696C6.09942 0.337734 5.48076 0.41215 4.60882 0.457944C3.73273 0.49229 2.59921 0.503738 1.34943 0.469393C1.34113 0.887266 1.31206 1.31086 1.27054 1.72301C1.21656 1.6715 1.16259 1.59708 1.12937 1.4368C1.15843 1.72874 1.1958 1.95771 1.21656 2.22675C1.23732 2.49579 1.23317 2.79918 1.18335 3.26285C1.03802 3.0396 0.896852 2.79918 0.751529 2.54731C0.884396 3.24568 1.01726 3.9097 1.15013 4.53365C1.14183 4.61379 1.13352 4.69393 1.12937 4.77407C1.12522 4.83131 1.12107 4.88855 1.11691 4.9458C1.11276 5.04311 1.11276 5.14614 1.11691 5.24346C1.12522 5.44381 1.14183 5.63843 1.15428 5.81016C1.17919 6.15362 1.18335 6.39404 1.03387 6.34252L0.950829 5.93037L0.79305 11.4085L0.444274 11.4772C0.917613 12.0268 0.232517 14.4596 0.834571 14.2879C0.498251 15.3182 1.02557 18.3693 0.35708 17.7453C0.269886 21.3459 0.901004 23.3036 0.531468 27.6713C-0.0581293 29.2225 0.087194 33.4986 0 36.3092C0.0539772 37.7689 0.0996502 39.0912 0.149475 40.3563C0.161932 40.6711 0.174388 40.986 0.186844 41.2951C0.195148 41.8332 0.207605 42.3655 0.215909 42.8979C0.232517 44.0084 0.253278 45.1132 0.269886 46.2294C1.69821 46.2409 3.13898 46.2466 4.60467 46.2581C5.32714 46.2638 6.0579 46.2695 6.79698 46.2752C6.97967 46.2752 7.16651 46.2752 7.34921 46.281C7.45301 46.281 7.56096 46.281 7.66892 46.281C7.87652 46.281 8.08413 46.281 8.29588 46.281C9.97333 46.281 11.7504 46.2867 13.6936 46.2867C18.672 46.9221 26.125 46.3268 31.4853 46.7275L32.9552 46.5386C36.5177 46.945 41.9611 46.6244 46.9602 47.048C48.185 46.9736 48.8286 46.9564 49.1151 46.9564C48.8867 46.9393 48.5421 46.8935 48.4383 46.7561C49.8666 46.8763 52.7565 46.8076 52.5489 47.0824L52.1877 47.1053C51.9759 47.3743 56.5224 47.0537 58.1127 47.3228L57.2408 47.0137L59.9438 47.111L59.2172 47.1568C70.9717 46.7217 76.2739 47.7464 87.3144 47.3514C85.8487 47.6433 89.4901 47.2255 89.6312 47.5747C92.409 48.0669 94.7881 47.5747 97.0718 47.4945C97.0718 47.4773 97.1009 47.4602 97.2296 47.4315L101.216 47.546C98.8281 47.9467 104.093 47.2312 101.901 47.5689C112.298 48.0898 125.871 47.9983 137.908 48.3646L137.38 48.2387C140.432 48.3131 144.231 48.2444 146.548 48.4676C148.865 48.6909 151.618 48.273 152.519 48.2673C155.06 48.1185 157.364 48.5478 156.276 48.5077C158.992 48.502 161.55 48.1471 165.316 48.3875C166.599 48.7825 175.596 48.2043 175.708 48.6279L175.75 48.5936C180.57 48.9771 185.129 48.5535 190.324 48.9199C190.324 48.9199 190.224 48.9485 190.05 48.9771L200.637 47.8895L197.64 46.4241L188.484 45.1132L163.638 44.9129L143.816 44.1057L95.5604 43.3845L92.11 43.6421C82.635 42.9151 70.4693 43.3329 60.2552 42.7548L60.0393 43.0238C57.1619 42.9895 57.357 42.8235 56.647 42.7605C47.7574 42.6174 38.7764 42.5087 29.8702 42.3999C25.415 42.3426 20.9805 42.2854 16.5835 42.2282C13.2244 42.1766 9.89444 42.1308 6.61013 42.085C6.61844 41.3065 6.63089 40.5338 6.6392 39.7667C6.66411 38.307 6.68902 36.8645 6.71393 35.4277C6.77622 32.5598 6.85926 29.7549 6.96721 27.0072C7.24956 25.4388 7.13745 20.6475 7.43225 19.4168C7.21219 16.7607 7.11254 14.0303 7.08762 11.294C7.07517 9.92593 7.07517 8.56355 7.08762 7.20689C7.09593 6.53143 7.10423 5.85596 7.11253 5.18049L7.11669 4.95152L7.12084 4.91145L7.12499 4.83131C7.12914 4.77979 7.1333 4.72255 7.13745 4.67103L7.18312 4.72255L7.1416 4.52792L7.46131 4.50502C7.50283 4.52792 7.52359 4.56227 7.51944 4.57944C7.57342 4.55082 7.65646 4.52792 7.75611 4.51647C7.74781 4.51647 7.80178 4.51647 7.835 4.51647H7.94711C8.02184 4.51647 8.09658 4.51647 8.17132 4.51647C8.3208 4.51647 8.47442 4.51647 8.62805 4.51647C8.93531 4.51647 9.25086 4.5222 9.57057 4.5222C10.8494 4.53365 12.2196 4.56799 13.6189 4.61951C16.4174 4.7111 19.3321 4.84848 21.8815 4.9458L21.5826 4.96869C51.3323 5.5583 78.9604 5.54685 108.461 6.46273C122.175 7.15537 138.14 6.82909 153.877 7.48738C156.771 7.80222 188.617 8.16858 191.432 8.09416Z" fill="#009167"/>
<path d="M197.714 31.0314V30.9456C197.544 30.9456 197.607 31.0715 197.714 31.0314Z" fill="#009167"/>
<path d="M172.561 4.23594C172.631 4.23594 172.702 4.24166 172.768 4.24166L171.988 4.06421L172.561 4.23594Z" fill="#009167"/>
<path d="M202.659 15.1006C202.726 13.8184 202.684 13.7612 202.613 13.9386C202.601 14.4023 202.609 14.8087 202.659 15.1006Z" fill="#009167"/>
<path d="M197.939 41.5125C197.918 42.188 198.022 41.9304 198.138 41.5354C198.125 40.8485 198.117 40.3677 198.117 40.3677C198.076 40.7512 197.984 41.1233 197.939 41.5125Z" fill="#009167"/>
<path d="M200.276 38.8051L200.413 39.0169C200.384 38.6219 200.33 38.6391 200.276 38.8051Z" fill="#009167"/>
<path d="M31.7179 28.156C30.8123 28.156 29.9846 27.9502 29.2349 27.5385C28.4896 27.1225 27.9024 26.5548 27.4734 25.8355C27.0488 25.1162 26.8364 24.321 26.8364 23.45C26.8364 22.579 27.0488 21.7838 27.4734 21.0645C27.9024 20.3452 28.4896 19.7797 29.2349 19.368C29.9846 18.952 30.8123 18.744 31.7179 18.744C32.8923 18.744 33.9323 19.095 34.8379 19.797L33.9084 21.1685C33.5444 20.9085 33.1891 20.7092 32.8424 20.5705C32.5001 20.4275 32.1253 20.356 31.7179 20.356C30.8686 20.356 30.1536 20.6528 29.5729 21.2465C28.9923 21.8402 28.7019 22.5747 28.7019 23.45C28.7019 24.3253 28.9923 25.0598 29.5729 25.6535C30.1536 26.2472 30.8686 26.544 31.7179 26.544C32.1253 26.544 32.5239 26.4638 32.9139 26.3035C33.3039 26.1432 33.6571 25.9308 33.9734 25.6665L34.9484 27.025C34.0384 27.779 32.9616 28.156 31.7179 28.156ZM36.6161 27.1355C35.9011 26.4552 35.5436 25.621 35.5436 24.633C35.5436 23.645 35.9011 22.8108 36.6161 22.1305C37.3311 21.4502 38.2194 21.11 39.2811 21.11C39.9831 21.11 40.6201 21.266 41.1921 21.578C41.7641 21.89 42.2104 22.3147 42.5311 22.852C42.8561 23.3893 43.0186 23.983 43.0186 24.633C43.0186 25.283 42.8561 25.8767 42.5311 26.414C42.2104 26.9513 41.7641 27.376 41.1921 27.688C40.6201 28 39.9831 28.156 39.2811 28.156C38.2194 28.156 37.3311 27.8158 36.6161 27.1355ZM37.3376 24.633C37.3376 25.1833 37.5239 25.6448 37.8966 26.0175C38.2693 26.3902 38.7308 26.5765 39.2811 26.5765C39.8314 26.5765 40.2929 26.3902 40.6656 26.0175C41.0426 25.6448 41.2311 25.1833 41.2311 24.633C41.2311 24.087 41.0426 23.6277 40.6656 23.255C40.2929 22.878 39.8314 22.6895 39.2811 22.6895C38.7308 22.6895 38.2693 22.878 37.8966 23.255C37.5239 23.6277 37.3376 24.087 37.3376 24.633ZM46.0885 23.619V28H44.301V21.266H46.0885V22.007C46.3182 21.734 46.5999 21.5173 46.9335 21.357C47.2715 21.1923 47.6204 21.11 47.98 21.11C48.773 21.11 49.4187 21.3635 49.917 21.8705C50.4197 22.3775 50.671 23.0383 50.671 23.853V28H48.8835V24.0285C48.8835 23.6472 48.76 23.3287 48.513 23.073C48.2704 22.8173 47.9475 22.6895 47.5445 22.6895C47.2715 22.6895 47.0007 22.7805 46.732 22.9625C46.4634 23.1445 46.2489 23.3633 46.0885 23.619ZM52.9042 27.1355C52.1892 26.4552 51.8317 25.621 51.8317 24.633C51.8317 23.645 52.1892 22.8108 52.9042 22.1305C53.6192 21.4502 54.5075 21.11 55.5692 21.11C56.2712 21.11 56.9082 21.266 57.4802 21.578C58.0522 21.89 58.4985 22.3147 58.8192 22.852C59.1442 23.3893 59.3067 23.983 59.3067 24.633C59.3067 25.283 59.1442 25.8767 58.8192 26.414C58.4985 26.9513 58.0522 27.376 57.4802 27.688C56.9082 28 56.2712 28.156 55.5692 28.156C54.5075 28.156 53.6192 27.8158 52.9042 27.1355ZM53.6257 24.633C53.6257 25.1833 53.812 25.6448 54.1847 26.0175C54.5573 26.3902 55.0188 26.5765 55.5692 26.5765C56.1195 26.5765 56.581 26.3902 56.9537 26.0175C57.3307 25.6448 57.5192 25.1833 57.5192 24.633C57.5192 24.087 57.3307 23.6277 56.9537 23.255C56.581 22.878 56.1195 22.6895 55.5692 22.6895C55.0188 22.6895 54.5573 22.878 54.1847 23.255C53.812 23.6277 53.6257 24.087 53.6257 24.633ZM63.8846 28.156C62.8229 28.156 61.9346 27.8158 61.2196 27.1355C60.5046 26.4552 60.1471 25.621 60.1471 24.633C60.1471 23.645 60.5046 22.8108 61.2196 22.1305C61.9346 21.4502 62.8229 21.11 63.8846 21.11C64.8639 21.11 65.7111 21.4112 66.4261 22.0135L65.5421 23.346C65.0048 22.9083 64.4566 22.6895 63.8976 22.6895C63.3473 22.6895 62.8858 22.878 62.5131 23.255C62.1404 23.6277 61.9541 24.087 61.9541 24.633C61.9541 25.1833 62.1404 25.6448 62.5131 26.0175C62.8858 26.3902 63.3473 26.5765 63.8976 26.5765C64.4869 26.5765 65.0481 26.3403 65.5811 25.868L66.5756 27.116C65.8606 27.8093 64.9636 28.156 63.8846 28.156ZM69.0508 25.166C69.1288 25.634 69.3455 26.0132 69.7008 26.3035C70.0605 26.5895 70.4938 26.7325 71.0008 26.7325C71.7071 26.7325 72.3441 26.453 72.9118 25.894L73.9843 26.934C73.2346 27.7487 72.2423 28.156 71.0073 28.156C70.4613 28.156 69.9521 28.065 69.4798 27.883C69.0075 27.701 68.6088 27.4518 68.2838 27.1355C67.9588 26.8192 67.7031 26.4465 67.5168 26.0175C67.3348 25.5842 67.2438 25.1227 67.2438 24.633C67.2438 24.1477 67.337 23.6883 67.5233 23.255C67.7096 22.8217 67.9631 22.449 68.2838 22.137C68.6088 21.8207 68.9988 21.5715 69.4538 21.3895C69.9088 21.2032 70.392 21.11 70.9033 21.11C71.575 21.11 72.1816 21.2638 72.7233 21.5715C73.265 21.8748 73.6853 22.2865 73.9843 22.8065C74.2833 23.3222 74.4328 23.892 74.4328 24.516C74.4328 24.7413 74.4068 24.958 74.3548 25.166H69.0508ZM70.8903 22.5335C70.47 22.5335 70.0951 22.657 69.7658 22.904C69.4408 23.151 69.2176 23.4803 69.0963 23.892H72.5933C72.4936 23.4847 72.2921 23.1575 71.9888 22.9105C71.6855 22.6592 71.3193 22.5335 70.8903 22.5335ZM81.4323 23.619V28H79.6448V21.266H81.4323V22.007C81.6619 21.734 81.9436 21.5173 82.2773 21.357C82.6153 21.1923 82.9641 21.11 83.3238 21.11C84.1168 21.11 84.7624 21.3635 85.2608 21.8705C85.7634 22.3775 86.0148 23.0383 86.0148 23.853V28H84.2273V24.0285C84.2273 23.6472 84.1038 23.3287 83.8568 23.073C83.6141 22.8173 83.2913 22.6895 82.8883 22.6895C82.6153 22.6895 82.3444 22.7805 82.0758 22.9625C81.8071 23.1445 81.5926 23.3633 81.4323 23.619ZM92.0699 25.647V21.266H93.8574V28H92.0699V27.259C91.8403 27.532 91.5564 27.7508 91.2184 27.9155C90.8848 28.0758 90.5381 28.156 90.1784 28.156C89.3854 28.156 88.7376 27.9025 88.2349 27.3955C87.7366 26.8885 87.4874 26.2277 87.4874 25.413V21.266H89.2749V25.2375C89.2749 25.6188 89.3963 25.9373 89.6389 26.193C89.8859 26.4487 90.2109 26.5765 90.6139 26.5765C90.8869 26.5765 91.1578 26.4855 91.4264 26.3035C91.6951 26.1215 91.9096 25.9027 92.0699 25.647ZM96.9551 25.166C97.0331 25.634 97.2498 26.0132 97.6051 26.3035C97.9648 26.5895 98.3981 26.7325 98.9051 26.7325C99.6114 26.7325 100.248 26.453 100.816 25.894L101.889 26.934C101.139 27.7487 100.147 28.156 98.9116 28.156C98.3656 28.156 97.8564 28.065 97.3841 27.883C96.9118 27.701 96.5131 27.4518 96.1881 27.1355C95.8631 26.8192 95.6074 26.4465 95.4211 26.0175C95.2391 25.5842 95.1481 25.1227 95.1481 24.633C95.1481 24.1477 95.2413 23.6883 95.4276 23.255C95.6139 22.8217 95.8674 22.449 96.1881 22.137C96.5131 21.8207 96.9031 21.5715 97.3581 21.3895C97.8131 21.2032 98.2963 21.11 98.8076 21.11C99.4793 21.11 100.086 21.2638 100.628 21.5715C101.169 21.8748 101.59 22.2865 101.889 22.8065C102.188 23.3222 102.337 23.892 102.337 24.516C102.337 24.7413 102.311 24.958 102.259 25.166H96.9551ZM98.7946 22.5335C98.3743 22.5335 97.9994 22.657 97.6701 22.904C97.3451 23.151 97.1219 23.4803 97.0006 23.892H100.498C100.398 23.4847 100.196 23.1575 99.8931 22.9105C99.5898 22.6592 99.2236 22.5335 98.7946 22.5335ZM103.165 27.038L104.062 25.9265C104.278 26.1735 104.534 26.3685 104.829 26.5115C105.128 26.6545 105.442 26.726 105.771 26.726C106.079 26.726 106.319 26.6653 106.493 26.544C106.67 26.4227 106.759 26.2602 106.759 26.0565C106.759 25.8485 106.673 25.6817 106.499 25.556C106.326 25.426 106.027 25.3177 105.602 25.231C104.142 24.932 103.412 24.2127 103.412 23.073C103.412 22.501 103.635 22.0308 104.081 21.6625C104.532 21.2942 105.119 21.11 105.843 21.11C106.293 21.11 106.727 21.1945 107.143 21.3635C107.559 21.5282 107.923 21.7492 108.235 22.0265L107.377 23.1445C106.887 22.7415 106.428 22.54 105.999 22.54C105.752 22.54 105.55 22.592 105.394 22.696C105.238 22.7957 105.16 22.93 105.16 23.099C105.16 23.489 105.518 23.7577 106.233 23.905C107.008 24.061 107.58 24.3188 107.949 24.6785C108.321 25.0382 108.508 25.504 108.508 26.076C108.508 26.6827 108.272 27.181 107.799 27.571C107.327 27.961 106.696 28.156 105.908 28.156C105.349 28.156 104.829 28.0585 104.348 27.8635C103.867 27.6642 103.472 27.389 103.165 27.038ZM111.905 22.8195V25.6665C111.905 25.9915 111.983 26.2298 112.139 26.3815C112.3 26.5288 112.564 26.6025 112.932 26.6025C113.162 26.6025 113.374 26.5917 113.569 26.57V28.065C113.288 28.1257 112.978 28.156 112.64 28.156C110.959 28.156 110.118 27.363 110.118 25.777V22.8195H109.071V21.266H110.118V19.472L111.905 19.316V21.266H113.491V22.8195H111.905ZM118.133 22.6895C117.813 22.6895 117.516 22.787 117.243 22.982C116.97 23.177 116.742 23.4435 116.56 23.7815V28H114.773V21.266H116.56V22.0915C117.05 21.4372 117.65 21.11 118.361 21.11C118.59 21.11 118.794 21.1577 118.972 21.253L118.848 22.8195C118.597 22.7328 118.359 22.6895 118.133 22.6895ZM120.558 27.1355C119.843 26.4552 119.485 25.621 119.485 24.633C119.485 23.645 119.843 22.8108 120.558 22.1305C121.273 21.4502 122.161 21.11 123.223 21.11C123.925 21.11 124.562 21.266 125.134 21.578C125.706 21.89 126.152 22.3147 126.473 22.852C126.798 23.3893 126.96 23.983 126.96 24.633C126.96 25.283 126.798 25.8767 126.473 26.414C126.152 26.9513 125.706 27.376 125.134 27.688C124.562 28 123.925 28.156 123.223 28.156C122.161 28.156 121.273 27.8158 120.558 27.1355ZM121.279 24.633C121.279 25.1833 121.465 25.6448 121.838 26.0175C122.211 26.3902 122.672 26.5765 123.223 26.5765C123.773 26.5765 124.234 26.3902 124.607 26.0175C124.984 25.6448 125.173 25.1833 125.173 24.633C125.173 24.087 124.984 23.6277 124.607 23.255C124.234 22.878 123.773 22.6895 123.223 22.6895C122.672 22.6895 122.211 22.878 121.838 23.255C121.465 23.6277 121.279 24.087 121.279 24.633ZM127.781 27.038L128.678 25.9265C128.895 26.1735 129.15 26.3685 129.445 26.5115C129.744 26.6545 130.058 26.726 130.387 26.726C130.695 26.726 130.936 26.6653 131.109 26.544C131.287 26.4227 131.375 26.2602 131.375 26.0565C131.375 25.8485 131.289 25.6817 131.115 25.556C130.942 25.426 130.643 25.3177 130.218 25.231C128.758 24.932 128.028 24.2127 128.028 23.073C128.028 22.501 128.251 22.0308 128.697 21.6625C129.148 21.2942 129.735 21.11 130.459 21.11C130.91 21.11 131.343 21.1945 131.759 21.3635C132.175 21.5282 132.539 21.7492 132.851 22.0265L131.993 23.1445C131.503 22.7415 131.044 22.54 130.615 22.54C130.368 22.54 130.166 22.592 130.01 22.696C129.854 22.7957 129.776 22.93 129.776 23.099C129.776 23.489 130.134 23.7577 130.849 23.905C131.625 24.061 132.197 24.3188 132.565 24.6785C132.938 25.0382 133.124 25.504 133.124 26.076C133.124 26.6827 132.888 27.181 132.415 27.571C131.943 27.961 131.313 28.156 130.524 28.156C129.965 28.156 129.445 28.0585 128.964 27.8635C128.483 27.6642 128.089 27.389 127.781 27.038ZM141.846 26.5765C142.396 26.5765 142.857 26.3902 143.23 26.0175C143.603 25.6448 143.789 25.1833 143.789 24.633C143.789 24.0827 143.603 23.6212 143.23 23.2485C142.857 22.8758 142.396 22.6895 141.846 22.6895C141.46 22.6895 141.109 22.787 140.793 22.982C140.481 23.177 140.247 23.437 140.091 23.762V25.504C140.247 25.829 140.481 26.089 140.793 26.284C141.109 26.479 141.46 26.5765 141.846 26.5765ZM142.223 21.11C142.855 21.11 143.429 21.2703 143.945 21.591C144.461 21.9073 144.862 22.3342 145.148 22.8715C145.438 23.4088 145.583 23.996 145.583 24.633C145.583 25.27 145.438 25.8572 145.148 26.3945C144.862 26.9318 144.461 27.3608 143.945 27.6815C143.429 27.9978 142.855 28.156 142.223 28.156C141.369 28.156 140.658 27.8787 140.091 27.324V31.016H138.323V21.266H140.091V21.942C140.658 21.3873 141.369 21.11 142.223 21.11ZM146.899 28V18.51H148.686V28H146.899ZM153.755 26.5765C154.14 26.5765 154.489 26.479 154.801 26.284C155.118 26.089 155.354 25.829 155.51 25.504V23.762C155.354 23.437 155.118 23.177 154.801 22.982C154.489 22.787 154.14 22.6895 153.755 22.6895C153.204 22.6895 152.743 22.8758 152.37 23.2485C151.998 23.6212 151.811 24.0827 151.811 24.633C151.811 25.1833 151.998 25.6448 152.37 26.0175C152.743 26.3902 153.204 26.5765 153.755 26.5765ZM153.378 21.11C154.231 21.11 154.942 21.3873 155.51 21.942V21.266H157.278V28H155.51V27.324C154.942 27.8787 154.231 28.156 153.378 28.156C152.745 28.156 152.171 27.9978 151.655 27.6815C151.14 27.3608 150.737 26.9318 150.446 26.3945C150.16 25.8572 150.017 25.27 150.017 24.633C150.017 23.996 150.16 23.4088 150.446 22.8715C150.737 22.3342 151.14 21.9073 151.655 21.591C152.171 21.2703 152.745 21.11 153.378 21.11ZM161.189 22.8195V25.6665C161.189 25.9915 161.267 26.2298 161.423 26.3815C161.583 26.5288 161.847 26.6025 162.216 26.6025C162.445 26.6025 162.658 26.5917 162.853 26.57V28.065C162.571 28.1257 162.261 28.156 161.923 28.156C160.242 28.156 159.401 27.363 159.401 25.777V22.8195H158.355V21.266H159.401V19.472L161.189 19.316V21.266H162.775V22.8195H161.189ZM164.686 27.1355C163.971 26.4552 163.614 25.621 163.614 24.633C163.614 23.645 163.971 22.8108 164.686 22.1305C165.401 21.4502 166.29 21.11 167.351 21.11C168.053 21.11 168.69 21.266 169.262 21.578C169.834 21.89 170.281 22.3147 170.601 22.852C170.926 23.3893 171.089 23.983 171.089 24.633C171.089 25.283 170.926 25.8767 170.601 26.414C170.281 26.9513 169.834 27.376 169.262 27.688C168.69 28 168.053 28.156 167.351 28.156C166.29 28.156 165.401 27.8158 164.686 27.1355ZM165.408 24.633C165.408 25.1833 165.594 25.6448 165.967 26.0175C166.34 26.3902 166.801 26.5765 167.351 26.5765C167.902 26.5765 168.363 26.3902 168.736 26.0175C169.113 25.6448 169.301 25.1833 169.301 24.633C169.301 24.087 169.113 23.6277 168.736 23.255C168.363 22.878 167.902 22.6895 167.351 22.6895C166.801 22.6895 166.34 22.878 165.967 23.255C165.594 23.6277 165.408 24.087 165.408 24.633ZM171.91 27.038L172.807 25.9265C173.024 26.1735 173.279 26.3685 173.574 26.5115C173.873 26.6545 174.187 26.726 174.516 26.726C174.824 26.726 175.065 26.6653 175.238 26.544C175.416 26.4227 175.504 26.2602 175.504 26.0565C175.504 25.8485 175.418 25.6817 175.244 25.556C175.071 25.426 174.772 25.3177 174.347 25.231C172.887 24.932 172.157 24.2127 172.157 23.073C172.157 22.501 172.38 22.0308 172.826 21.6625C173.277 21.2942 173.864 21.11 174.588 21.11C175.039 21.11 175.472 21.1945 175.888 21.3635C176.304 21.5282 176.668 21.7492 176.98 22.0265L176.122 23.1445C175.632 22.7415 175.173 22.54 174.744 22.54C174.497 22.54 174.295 22.592 174.139 22.696C173.983 22.7957 173.905 22.93 173.905 23.099C173.905 23.489 174.263 23.7577 174.978 23.905C175.754 24.061 176.326 24.3188 176.694 24.6785C177.067 25.0382 177.253 25.504 177.253 26.076C177.253 26.6827 177.017 27.181 176.544 27.571C176.072 27.961 175.442 28.156 174.653 28.156C174.094 28.156 173.574 28.0585 173.093 27.8635C172.612 27.6642 172.218 27.389 171.91 27.038Z" fill="#F9F2E1"/>
</svg>
