<svg width="263" height="25" viewBox="0 0 263 25" fill="none" xmlns="http://www.w3.org/2000/svg">
<path d="M63.626 23.9543C63.9111 23.9624 64.0509 23.9543 63.626 23.9543V23.9543Z" fill="#FCF0DD"/>
<path d="M86.0151 0.490635C86.1012 0.490635 86.1442 0.490635 86.2303 0.490635C86.3863 0.46435 86.5316 0.440985 86.6768 0.423462L86.0151 0.490635Z" fill="#FCF0DD"/>
<path d="M121.417 0.92002C121.498 0.922941 121.557 0.925861 121.633 0.928782C121.616 0.911258 121.659 0.893735 121.417 0.92002Z" fill="#FCF0DD"/>
<path d="M1.41974 0.446777C1.40919 0.586964 1.43028 0.668739 1.46193 0.732992C1.44083 0.648296 1.42501 0.560679 1.41974 0.446777Z" fill="#FCF0DD"/>
<path d="M128.511 24.2668C128.511 24.2668 128.42 24.2668 128.355 24.2668C128.479 24.2727 128.608 24.2785 128.737 24.2873L128.511 24.2668Z" fill="#FCF0DD"/>
<path d="M127.796 24.3106C127.016 24.2843 128.011 24.2726 128.356 24.2697C127.495 24.2259 126.629 24.2171 125.757 24.2288C125.763 24.2697 127.414 24.2756 127.796 24.3106Z" fill="#FCF0DD"/>
<path d="M246.211 24.9854L245.856 25C246.001 24.997 246.109 24.9912 246.211 24.9854Z" fill="#FCF0DD"/>
<path d="M9.74688 2.33643C9.73112 2.33927 9.70484 2.34211 9.69434 2.34495C9.73112 2.34779 9.74162 2.34211 9.74688 2.33643Z" fill="#FCF0DD"/>
<path d="M227.631 24.8101L227.427 24.8772C227.61 24.8509 227.647 24.8305 227.631 24.8101Z" fill="#FCF0DD"/>
<path d="M86.6772 0.426431L86.9353 0.400146C86.8439 0.405988 86.7633 0.414749 86.6772 0.426431Z" fill="#FCF0DD"/>
<path d="M154.128 1.19739C154.139 1.21783 154.214 1.23535 154.3 1.24996C154.343 1.24996 154.37 1.24996 154.392 1.24996L154.128 1.19739Z" fill="#FCF0DD"/>
<path d="M259.777 18.5864C259.81 18.5835 259.842 18.5747 259.88 18.563L259.702 18.3849C259.713 18.4783 259.74 18.5426 259.777 18.5864Z" fill="#FCF0DD"/>
<path d="M198.992 1.81369C199.029 1.80493 199.137 1.79909 199.148 1.79033C198.384 1.76112 196.356 1.7436 193.768 1.72607L193.607 1.80785L198.992 1.81369Z" fill="#FCF0DD"/>
<path d="M248.013 4.12966L243.236 3.92523C246.728 3.93107 249.799 3.94859 252.607 3.97195C253.312 3.9778 253.995 3.98364 254.667 3.98948C254.834 3.9924 255.001 3.9924 255.168 3.99532L255.388 3.99824H255.442C255.512 3.99824 255.577 4.00116 255.646 4.00116C255.905 4.007 256.152 4.01284 256.394 4.01576C256.378 4.09462 256.362 4.17347 256.346 4.25233L256.34 4.28153L256.335 4.40128C256.33 4.49766 256.33 4.59403 256.324 4.69333C256.319 4.88901 256.314 5.08469 256.314 5.28328C256.303 6.07768 256.34 6.91587 256.453 7.87382L256.319 7.67814C256.158 8.18632 257.578 8.48421 255.7 14.1121H255.636C255.641 14.3078 255.77 14.3078 255.593 14.6962L256.007 13.7237C256.152 14.3078 256.443 14.8218 256.47 15.5987C256.394 15.7622 256.265 15.8206 256.163 15.8353L256.222 17.7453L255.797 18.3265C256.007 18.9106 256.878 18.6507 256.357 20.2102C256.97 19.6261 256.701 20.9871 257.007 20.7973C256.932 20.8761 256.814 21.0543 256.712 21.1974C256.76 22.1261 256.884 23.8755 257.185 24.3107C257.185 24.3107 258.541 20.6863 259.208 19.7167C259.014 21.0222 259.272 20.0613 259.482 19.8043L259.337 19.7167C259.503 18.934 259.88 18.9369 259.998 18.5455C259.966 18.5455 259.928 18.5572 259.891 18.5689L259.939 18.6185C259.869 18.6536 259.826 18.6331 259.789 18.5923C259.708 18.601 259.643 18.566 259.67 18.3528L259.708 18.3937C259.659 18.0666 259.735 17.5029 259.767 17.2576L260.084 17.2546C259.493 16.6705 261.101 13.3615 261.139 12.5818C261.558 11.802 261.08 10.8265 261.306 9.85103C261.445 8.29438 261.79 9.07416 262.08 8.29438C262.301 7.31891 261.704 8.49005 261.693 8.0987L262.161 6.93048C262.182 7.61097 262.381 7.24298 262.51 7.12031C262.548 6.61506 262.726 5.96377 262.812 5.40011C262.855 5.11973 262.876 4.85688 262.849 4.64952C262.833 4.54438 262.806 4.45385 262.763 4.37791C262.742 4.34579 262.715 4.2903 262.688 4.24941C262.661 4.20852 262.623 4.17347 262.586 4.14719C262.747 3.2389 262.892 2.70443 263 2.32184C261.521 2.28095 260.719 2.25175 258.912 2.23422C259.455 2.25467 260.262 2.27511 260.913 2.29264C261.564 2.31308 262.059 2.3306 262.01 2.34813C261.316 2.32476 260.859 2.31308 260.601 2.31016C260.343 2.30724 260.283 2.31016 260.348 2.31892C260.483 2.33644 261.112 2.36857 261.687 2.38025C260.493 2.38901 258.535 2.36565 256.093 2.32476C255.942 2.32184 255.786 2.31892 255.63 2.316C255.555 2.316 255.48 2.31308 255.404 2.31308L255.243 2.31016C255.028 2.30432 254.802 2.3014 254.581 2.29556C254.135 2.28387 253.672 2.27511 253.21 2.26343C252.279 2.24007 251.322 2.2167 250.386 2.19626C246.641 2.10572 243.204 2.03271 242.876 2.12324V2.0882C242.144 2.21962 243.312 2.36273 241.122 2.42406L239.67 2.35105L237.475 2.39486C236.007 2.33936 236.727 2.30724 236.733 2.28972C233.161 2.32768 228.174 2.2167 223.849 2.16705L228.422 2.57593C224.775 2.46203 218.19 2.24007 217.459 2.35689L215.269 2.21378C207.953 1.9188 210.159 2.28095 207.238 2.1875L203.564 2.02394L207.222 2.05315C203.564 1.95677 202.101 1.90128 199.191 1.7903L199.158 1.79322C199.357 1.79906 199.486 1.80782 199.513 1.81659H199.002C198.556 1.88084 196.646 1.91588 194.069 1.89252C190.412 1.84579 187.544 1.92757 181.702 1.74065L180.239 1.87208L175.85 1.75233L175.855 1.64135C180.153 1.67932 188.244 1.69392 193.768 1.72605L193.865 1.6764C190.589 1.65303 186.861 1.6764 184.693 1.65011C183.639 1.62091 180.939 1.48364 182.902 1.42231L180.874 1.51869C169.938 1.45444 169.868 1.45736 158.458 1.25L159.448 1.31425C157.184 1.33177 154.924 1.34638 154.3 1.25292C147.447 1.18575 140.352 1.06308 135.903 0.890769L134.924 1.01635C133.477 0.99883 131.314 0.782709 130.604 0.963783L127.511 0.99883C125.532 0.975465 124.321 1.04264 122.067 0.94918C122.062 0.94918 122.057 0.94918 122.057 0.94918C121.917 0.943339 121.772 0.937498 121.632 0.931657C121.632 0.934578 121.642 0.940419 121.659 0.943339C117.183 0.852802 121.702 1.06308 116.575 0.94918C114.934 0.84404 114.752 1.10397 112.256 1.05724L109.754 0.849882C105.23 0.709695 104.45 0.89369 97.8927 0.846961C94.7458 0.756424 93.2289 0.584111 95.3161 0.455607C92.4435 0.607475 94.0089 0.560747 90.2003 0.616237C89.614 0.540303 90.0228 0.52862 90.862 0.470209C87.4838 0.362149 88.7748 0.519859 86.2304 0.496494C85.4881 0.624999 84.6274 0.835279 83.7989 0.835279L84.7834 0.884928C82.0829 0.937498 79.1351 0.94918 76.0043 0.861564L76.1227 0.794391L72.7821 0.806073L72.5723 0.718457L67.8062 0.712615L68.4571 0.741821C67.3382 0.744742 63.6642 0.747662 61.5609 0.689251L61.6362 0.642522C55.7135 0.449765 50.8184 0.613317 43.8791 0.57827L44.7935 0.487733C42.432 0.373831 44.1426 0.633761 41.3239 0.566588L41.184 0.443924C38.6988 0.584111 37.978 0.388434 36.2673 0.31542L37.0635 0.478971L33.8466 0.423481C30.3017 0.344626 31.6734 0.207359 32.1952 0.128504L29.7799 0.236565L29.3119 0.0934578C27.5421 0.242406 27.5475 0.0554905 24.4544 0.119743C24.2177 0.0554905 24.9977 0.0292056 23.9487 0L18.8437 0.160631L21.9207 0.0963783L21.5441 0.297897C18.3381 0.429322 17.2084 0.245327 14.9168 0.286214L16.493 0.236565C12.7597 0.259929 12.5607 0.172313 10.4574 0.110981C11.1083 0.154789 12.1088 0.216121 10.5972 0.233644C10.4574 0.233644 10.3444 0.233644 10.253 0.230724C10.2046 0.230724 10.1615 0.227803 10.1239 0.227803C10.0593 0.224883 10.0055 0.224883 9.95173 0.221962C9.73656 0.213201 9.60745 0.204439 9.48373 0.189836C9.2309 0.166472 8.98345 0.137266 8.03669 0.119743C7.90221 0.172313 7.10069 0.21028 5.97104 0.233644C4.836 0.251168 3.36745 0.257009 1.74828 0.239486C1.73752 0.452686 1.69986 0.668807 1.64607 0.879087C1.57614 0.852802 1.50621 0.814835 1.46317 0.733059C1.50083 0.882008 1.54924 0.99883 1.57614 1.1361C1.60304 1.27336 1.59766 1.42815 1.5331 1.66472C1.34483 1.55081 1.16193 1.42815 0.973656 1.29965C1.14579 1.65595 1.31793 1.99474 1.49007 2.31308C1.47931 2.35397 1.46855 2.39486 1.46317 2.43574C1.45779 2.46495 1.45241 2.49415 1.44704 2.52336C1.44166 2.57301 1.44166 2.62558 1.44704 2.67523C1.45779 2.77745 1.47931 2.87675 1.49545 2.96436C1.52772 3.1396 1.5331 3.26226 1.33945 3.23598L1.23186 3.0257L1.02745 5.82067L0.575587 5.85571C1.18883 6.13609 0.301241 7.37732 1.08124 7.28971C0.645518 7.81541 1.32869 9.37206 0.462621 9.05372C0.349655 10.8908 1.16731 11.8896 0.688552 14.118C-0.0753104 14.9094 0.112966 17.0911 0 18.5251C0.0699311 19.2698 0.129104 19.9445 0.193655 20.5899C0.209793 20.7505 0.225931 20.9112 0.242069 21.0689C0.252828 21.3434 0.268966 21.615 0.279724 21.8866C0.301242 22.4532 0.328138 23.0169 0.349655 23.5864C2.20014 23.5922 4.06676 23.5952 5.96566 23.601C6.90166 23.6039 7.84842 23.6068 8.80594 23.6098C9.04263 23.6098 9.2847 23.6098 9.52139 23.6127C9.65587 23.6127 9.79573 23.6127 9.93559 23.6127C10.2046 23.6127 10.4735 23.6127 10.7479 23.6127C12.9211 23.6127 15.2235 23.6156 17.741 23.6156C24.1908 23.9398 33.8466 23.6361 40.7913 23.8405L42.6956 23.7441C47.3111 23.9515 54.3633 23.7879 60.84 24.004C62.4269 23.9661 63.2607 23.9573 63.6319 23.9573C63.336 23.9486 62.8896 23.9252 62.7551 23.8551C64.6056 23.9164 68.3496 23.8814 68.0806 24.0216L67.6126 24.0332C67.3382 24.1705 73.2286 24.007 75.2889 24.1442L74.1592 23.9865L77.6611 24.0362L76.7198 24.0595C91.9486 23.8376 98.818 24.3604 113.122 24.1588C111.223 24.3078 115.94 24.0946 116.123 24.2727C119.722 24.5239 122.804 24.2727 125.763 24.2318C125.763 24.2231 125.801 24.2143 125.967 24.1997L131.132 24.2581C128.038 24.4626 134.859 24.0975 132.019 24.2698C145.489 24.5356 163.074 24.4889 178.669 24.6758L177.985 24.6115C181.939 24.6495 186.861 24.6144 189.863 24.7283C192.865 24.8422 196.431 24.629 197.598 24.6261C200.89 24.5502 203.876 24.7692 202.467 24.7488C205.985 24.7459 209.298 24.5648 214.177 24.6875C215.84 24.889 227.497 24.594 227.642 24.8101L227.696 24.7926C233.941 24.9883 239.847 24.7721 246.577 24.9591C246.577 24.9591 246.448 24.9737 246.222 24.9883L259.939 24.4334L256.055 23.6857L244.194 23.0169L212.004 22.9147L186.323 22.5029L123.805 22.1349L119.335 22.2663C107.059 21.8954 91.2977 22.1086 78.0646 21.8136L77.7849 21.9509C74.057 21.9334 74.3098 21.8487 73.39 21.8165C61.8729 21.7435 50.2374 21.688 38.6988 21.6326C32.9268 21.6033 27.1817 21.5741 21.485 21.5449C17.1331 21.5186 12.8189 21.4953 8.56387 21.4719C8.57463 21.0747 8.59076 20.6805 8.60152 20.2891C8.6338 19.5444 8.66607 18.8084 8.69835 18.0753C8.77904 16.6121 8.88663 15.181 9.02649 13.7792C9.39228 12.9789 9.24704 10.5344 9.62897 9.90652C9.34387 8.55138 9.21476 7.15828 9.18249 5.76225C9.16635 5.06424 9.16635 4.36915 9.18249 3.67698C9.19325 3.33235 9.204 2.98773 9.21476 2.6431L9.22014 2.52628L9.22552 2.50584L9.2309 2.46495C9.23628 2.43866 9.24166 2.40946 9.24704 2.38317L9.30621 2.40946L9.25242 2.31016L9.66663 2.29848C9.72042 2.31016 9.74732 2.32768 9.74194 2.33644C9.81187 2.32184 9.91945 2.31016 10.0486 2.30432C10.0378 2.30432 10.1077 2.30432 10.1508 2.30432H10.296C10.3928 2.30432 10.4897 2.30432 10.5865 2.30432C10.7801 2.30432 10.9792 2.30432 11.1782 2.30432C11.5763 2.30432 11.9851 2.30724 12.3993 2.30724C14.0561 2.31308 15.8313 2.3306 17.6441 2.35689C21.2698 2.40362 25.0461 2.47371 28.349 2.52336L27.9617 2.53504C66.5044 2.83586 102.298 2.83002 140.518 3.29731C158.286 3.65069 178.97 3.48422 199.357 3.82009C203.107 3.98072 244.366 4.16763 248.013 4.12966Z" fill="#FCF0DD"/>
<path d="M256.154 15.8324V15.7886C255.931 15.7886 256.013 15.8528 256.154 15.8324Z" fill="#FCF0DD"/>
<path d="M223.564 2.16122C223.655 2.16122 223.747 2.16415 223.833 2.16415L222.821 2.07361L223.564 2.16122Z" fill="#FCF0DD"/>
<path d="M262.558 7.70441C262.644 7.0502 262.59 7.021 262.499 7.11153C262.483 7.3481 262.494 7.55546 262.558 7.70441Z" fill="#FCF0DD"/>
<path d="M256.443 21.1798C256.416 21.5244 256.55 21.393 256.701 21.1915C256.685 20.841 256.674 20.5957 256.674 20.5957C256.62 20.7914 256.502 20.9812 256.443 21.1798Z" fill="#FCF0DD"/>
<path d="M259.47 19.7984L259.648 19.9065C259.61 19.705 259.54 19.7137 259.47 19.7984Z" fill="#FCF0DD"/>
</svg>
