<svg width="335" height="64" viewBox="0 0 335 64" fill="none" xmlns="http://www.w3.org/2000/svg">
<path d="M81.0447 61.3232C81.4078 61.3431 81.586 61.3232 81.0447 61.3232V61.3232Z" fill="#FCF0DD"/>
<path d="M109.563 1.25619C109.673 1.25619 109.728 1.25619 109.837 1.25619C110.036 1.1889 110.221 1.12909 110.406 1.08423L109.563 1.25619Z" fill="#FCF0DD"/>
<path d="M154.657 2.35565C154.76 2.36324 154.835 2.37084 154.931 2.37843C154.911 2.33287 154.965 2.28731 154.657 2.35565Z" fill="#FCF0DD"/>
<path d="M1.80878 1.1438C1.79493 1.50268 1.82263 1.71202 1.86417 1.87651C1.83648 1.65969 1.8157 1.43539 1.80878 1.1438Z" fill="#FCF0DD"/>
<path d="M163.693 62.1233C163.693 62.1233 163.577 62.1233 163.495 62.1233C163.652 62.1385 163.817 62.1537 163.981 62.1765L163.693 62.1233Z" fill="#FCF0DD"/>
<path d="M162.782 62.2353C161.788 62.168 163.056 62.1381 163.495 62.1306C162.398 62.0185 161.295 61.9961 160.185 62.026C160.192 62.1306 162.295 62.1456 162.782 62.2353Z" fill="#FCF0DD"/>
<path d="M313.615 63.9626L313.163 64.0006C313.348 63.993 313.485 63.9778 313.615 63.9626Z" fill="#FCF0DD"/>
<path d="M12.4175 5.9812C12.3967 5.98859 12.362 5.99598 12.3481 6.00337C12.3967 6.01075 12.4105 5.99598 12.4175 5.9812Z" fill="#FCF0DD"/>
<path d="M289.948 63.5139L289.688 63.6859C289.921 63.6186 289.969 63.5663 289.948 63.5139Z" fill="#FCF0DD"/>
<path d="M110.407 1.09146L110.735 1.02417C110.619 1.03912 110.516 1.06155 110.407 1.09146Z" fill="#FCF0DD"/>
<path d="M196.322 3.06543C196.336 3.11777 196.432 3.16263 196.542 3.20001C196.596 3.20001 196.631 3.20001 196.658 3.20001L196.322 3.06543Z" fill="#FCF0DD"/>
<path d="M330.895 47.5813C330.936 47.5738 330.977 47.5514 331.025 47.5215L330.799 47.0654C330.813 47.3047 330.847 47.4692 330.895 47.5813Z" fill="#FCF0DD"/>
<path d="M253.468 4.643C253.516 4.62057 253.653 4.60562 253.666 4.58319C252.693 4.50842 250.11 4.46356 246.814 4.4187L246.609 4.62805L253.468 4.643Z" fill="#FCF0DD"/>
<path d="M315.91 10.572L309.826 10.0486C314.273 10.0635 318.185 10.1084 321.762 10.1682C322.66 10.1832 323.53 10.1981 324.386 10.2131C324.599 10.2206 324.811 10.2206 325.024 10.228L325.304 10.2355H325.373C325.462 10.2355 325.544 10.243 325.633 10.243C325.962 10.2579 326.277 10.2729 326.586 10.2804C326.565 10.4822 326.545 10.6841 326.524 10.886L326.517 10.9607L326.51 11.2673C326.504 11.514 326.504 11.7607 326.497 12.0149C326.49 12.5159 326.483 13.0168 326.483 13.5252C326.469 15.5589 326.517 17.7047 326.661 20.157L326.49 19.6561C326.284 20.957 328.093 21.7196 325.702 36.1271H325.62C325.626 36.628 325.791 36.628 325.565 37.6224L326.092 35.1327C326.277 36.628 326.647 37.9439 326.682 39.9327C326.586 40.3514 326.421 40.5009 326.291 40.5383L326.366 45.428L325.825 46.9158C326.092 48.4112 327.202 47.7457 326.538 51.7383C327.319 50.2429 326.976 53.7271 327.367 53.2411C327.271 53.4429 327.12 53.899 326.99 54.2654C327.052 56.6429 327.209 61.1214 327.593 62.2355C327.593 62.2355 329.32 52.957 330.169 50.4747C329.923 53.8168 330.252 51.357 330.519 50.699L330.334 50.4747C330.546 48.471 331.026 48.4785 331.177 47.4766C331.135 47.4766 331.088 47.5065 331.04 47.5364L331.101 47.6635C331.012 47.7532 330.957 47.7009 330.909 47.5962C330.807 47.6186 330.724 47.5289 330.759 46.9831L330.807 47.0878C330.745 46.2504 330.841 44.8074 330.882 44.1794L331.286 44.1719C330.533 42.6766 332.581 34.2056 332.629 32.2093C333.164 30.2131 332.554 27.7159 332.842 25.2187C333.02 21.2336 333.458 23.2299 333.828 21.2336C334.109 18.7364 333.349 21.7346 333.335 20.7327L333.931 17.742C333.959 19.4841 334.212 18.542 334.376 18.228C334.424 16.9346 334.651 15.2673 334.76 13.8243C334.815 13.1065 334.842 12.4336 334.808 11.9028C334.788 11.6336 334.753 11.4019 334.699 11.2075C334.671 11.1252 334.637 10.9832 334.603 10.8785C334.568 10.7738 334.52 10.6841 334.472 10.6168C334.678 8.29158 334.863 6.92336 335 5.94392C333.116 5.83925 332.095 5.76448 329.792 5.71962C330.485 5.77196 331.512 5.82429 332.341 5.86915C333.171 5.92149 333.801 5.96635 333.739 6.01121C332.855 5.9514 332.273 5.92149 331.944 5.91401C331.615 5.90654 331.54 5.91401 331.622 5.93644C331.793 5.9813 332.595 6.06355 333.328 6.09345C331.807 6.11588 329.313 6.05607 326.202 5.9514C326.01 5.94392 325.812 5.93644 325.613 5.92897C325.517 5.92897 325.421 5.92149 325.325 5.92149L325.119 5.91401C324.845 5.89906 324.558 5.89158 324.277 5.87663C323.708 5.84672 323.119 5.82429 322.529 5.79439C321.344 5.73457 320.124 5.67476 318.932 5.62243C314.163 5.39065 309.785 5.20373 309.367 5.43551V5.34579C308.435 5.68224 309.922 6.04859 307.133 6.2056L305.283 6.01869L302.487 6.13084C300.617 5.98878 301.535 5.90654 301.542 5.86168C296.992 5.95887 290.64 5.67476 285.131 5.54766L290.956 6.59439C286.31 6.3028 277.923 5.73457 276.991 6.03364L274.202 5.66728C264.884 4.91215 267.693 5.83925 263.972 5.59999L259.293 5.1813L263.952 5.25607C259.293 5.00934 257.429 4.86729 253.722 4.58317L253.681 4.59065C253.934 4.6056 254.099 4.62803 254.133 4.65046H253.482C252.913 4.81495 250.481 4.90467 247.199 4.84486C242.539 4.72523 238.887 4.93458 231.446 4.45607L229.582 4.79252L223.991 4.48598L223.998 4.20187C229.473 4.29906 239.778 4.33644 246.815 4.41869L246.938 4.29158C242.766 4.23177 238.017 4.29158 235.256 4.2243C233.913 4.14953 230.473 3.79813 232.974 3.64112L230.391 3.88785C216.461 3.72336 216.372 3.73084 201.839 3.2L203.099 3.36448C200.215 3.40934 197.337 3.44673 196.542 3.20747C187.813 3.03551 178.775 2.72149 173.108 2.28037L171.861 2.60187C170.018 2.55701 167.264 2.00374 166.359 2.46729L162.419 2.55701C159.898 2.49719 158.356 2.66916 155.485 2.4299C155.478 2.4299 155.471 2.4299 155.471 2.4299C155.293 2.41495 155.108 2.4 154.93 2.38504C154.93 2.39252 154.944 2.40747 154.964 2.41495C149.263 2.18318 155.019 2.72149 148.489 2.4299C146.399 2.16075 146.166 2.82617 142.987 2.70654L139.801 2.1757C134.038 1.81682 133.045 2.28785 124.692 2.16822C120.684 1.93645 118.752 1.49533 121.41 1.16635C117.751 1.55514 119.745 1.43551 114.894 1.57757C114.147 1.38318 114.668 1.35327 115.737 1.20374C111.434 0.927102 113.078 1.33084 109.837 1.27103C108.892 1.6 107.795 2.13832 106.74 2.13832L107.994 2.26542C104.554 2.4 100.799 2.4299 96.8116 2.20561L96.9623 2.03364L92.7073 2.06355L92.44 1.83925L86.3692 1.8243L87.1983 1.89906C85.773 1.90654 81.0932 1.91402 78.414 1.76448L78.51 1.64486C70.9659 1.1514 64.7306 1.57009 55.8916 1.48037L57.0564 1.2486C54.0484 0.957008 56.2273 1.62243 52.6369 1.45047L52.4587 1.13645C49.2931 1.49533 48.375 0.994392 46.196 0.807476L47.2101 1.22617L43.1126 1.08411C38.5972 0.882242 40.3444 0.530841 41.0091 0.328972L37.9325 0.605607L37.3364 0.239252C35.0821 0.62056 35.089 0.142056 31.1491 0.306542C30.8476 0.142056 31.8411 0.0747663 30.505 0L24.0025 0.411215L27.9218 0.246729L27.4422 0.762616C23.3584 1.09906 21.9195 0.628037 19.0005 0.73271L21.0082 0.605607C16.2529 0.66542 15.9994 0.441121 13.3202 0.284112C14.1493 0.396261 15.4238 0.553271 13.4984 0.59813C13.3202 0.59813 13.1764 0.59813 13.0599 0.590654C12.9982 0.590654 12.9434 0.583177 12.8954 0.583177C12.8132 0.5757 12.7447 0.5757 12.6762 0.568224C12.4021 0.545794 12.2376 0.523364 12.08 0.485981C11.758 0.426168 11.4428 0.351402 10.2369 0.306542C10.0656 0.441121 9.04461 0.538317 7.60569 0.59813C6.15993 0.64299 4.28934 0.657943 2.22689 0.613084C2.21319 1.15888 2.16522 1.71215 2.0967 2.25047C2.00763 2.18318 1.91855 2.08598 1.86374 1.87663C1.9117 2.25794 1.97337 2.55701 2.00763 2.90841C2.04189 3.25981 2.03504 3.65607 1.95281 4.26168C1.71299 3.97009 1.48003 3.65607 1.24021 3.3271C1.45947 4.23925 1.67873 5.10654 1.898 5.92149C1.88429 6.02616 1.87059 6.13084 1.86374 6.23551C1.85689 6.31027 1.85003 6.38504 1.84318 6.45981C1.83633 6.58691 1.83633 6.72149 1.84318 6.84859C1.85689 7.11027 1.88429 7.36448 1.90485 7.58878C1.94596 8.03738 1.95281 8.35139 1.70614 8.2841L1.5691 7.74579L1.30873 14.9009L0.733162 14.9906C1.51429 15.7084 0.383711 18.886 1.37725 18.6617C0.822237 20.0075 1.69244 23.9925 0.58927 23.1775C0.445379 27.8804 1.48688 30.4374 0.877053 36.142C-0.0959277 38.1682 0.143892 43.7532 0 47.4243C0.0890757 49.3308 0.164447 51.0579 0.246671 52.7102C0.267227 53.1214 0.287783 53.5327 0.308339 53.9364C0.322043 54.6392 0.342599 55.3345 0.356303 56.0299C0.383711 57.4803 0.417971 58.9233 0.445379 60.3813C2.80246 60.3962 5.18009 60.4037 7.59884 60.4186C8.79109 60.4261 9.99704 60.4336 11.2167 60.4411C11.5182 60.4411 11.8265 60.4411 12.128 60.4485C12.2993 60.4485 12.4774 60.4485 12.6556 60.4485C12.9982 60.4485 13.3408 60.4485 13.6903 60.4485C16.4584 60.4485 19.3911 60.456 22.5978 60.456C30.8133 61.2859 43.1126 60.5084 51.9585 61.0317L54.3841 60.785C60.2631 61.3158 69.2461 60.8971 77.4959 61.4504C79.5172 61.3532 80.5792 61.3308 81.052 61.3308C80.6752 61.3084 80.1065 61.2485 79.9352 61.0691C82.2923 61.2261 87.0612 61.1364 86.7186 61.4953L86.1225 61.5252C85.773 61.8766 93.276 61.4579 95.9003 61.8093L94.4614 61.4055L98.922 61.5327L97.7229 61.5925C117.121 61.0242 125.871 62.3626 144.09 61.8467C141.671 62.228 147.681 61.6822 147.914 62.1383C152.498 62.7813 156.424 62.1383 160.192 62.0336C160.192 62.0112 160.24 61.9887 160.453 61.9513L167.031 62.1009C163.091 62.6242 171.779 61.6897 168.161 62.1308C185.319 62.8112 207.718 62.6915 227.582 63.17L226.711 63.0055C231.748 63.1027 238.017 63.013 241.841 63.3046C245.664 63.5962 250.207 63.0504 251.694 63.0429C255.887 62.8485 259.69 63.4093 257.895 63.3569C262.376 63.3495 266.597 62.8859 272.811 63.1999C274.929 63.7158 289.777 62.9607 289.962 63.514L290.03 63.4691C297.986 63.97 305.509 63.4168 314.081 63.8953C314.081 63.8953 313.916 63.9326 313.629 63.97L331.101 62.5495L326.154 60.6355L311.046 58.9233L270.043 58.6616L237.332 57.6074L157.698 56.6654L152.004 57.0018C136.368 56.0523 116.292 56.5981 99.4359 55.8429L99.0796 56.1943C94.3312 56.1495 94.6532 55.9327 93.4815 55.8504C78.8114 55.6635 63.9906 55.5214 49.2931 55.3794C41.941 55.3046 34.623 55.2299 27.3668 55.1551C21.8235 55.0878 16.3283 55.028 10.9083 54.9682C10.9221 53.9513 10.9426 52.942 10.9563 51.9401C10.9974 50.0336 11.0385 48.1495 11.0796 46.2729C11.1824 42.5271 11.3195 38.8635 11.4976 35.2747C11.9636 33.2261 11.7785 26.9682 12.265 25.3607C11.9019 21.8916 11.7374 18.3252 11.6963 14.7514C11.6758 12.9645 11.6758 11.185 11.6963 9.41308C11.71 8.53083 11.7237 7.64859 11.7374 6.76635L11.7443 6.46728L11.7511 6.41495L11.758 6.31027C11.7648 6.24298 11.7717 6.16822 11.7785 6.10093L11.8539 6.16822L11.7854 5.91401L12.313 5.88411C12.3815 5.91401 12.4158 5.95887 12.4089 5.9813C12.498 5.94392 12.635 5.91401 12.7995 5.89906C12.7858 5.89906 12.8749 5.89906 12.9297 5.89906H13.1147C13.238 5.89906 13.3614 5.89906 13.4847 5.89906C13.7314 5.89906 13.9849 5.89906 14.2384 5.89906C14.7455 5.89906 15.2662 5.90654 15.7938 5.90654C17.9042 5.92149 20.1654 5.96635 22.4745 6.03364C27.0927 6.15327 31.9028 6.33271 36.1099 6.45981L35.6166 6.48971C84.711 7.25981 130.304 7.24485 178.987 8.44111C201.619 9.34579 227.965 8.91962 253.934 9.77943C258.71 10.1906 311.265 10.6691 315.91 10.572Z" fill="#FCF0DD"/>
<path d="M326.278 40.5308V40.4187C325.997 40.4187 326.1 40.5832 326.278 40.5308Z" fill="#FCF0DD"/>
<path d="M284.767 5.53265C284.884 5.53265 285 5.54013 285.11 5.54013L283.822 5.30835L284.767 5.53265Z" fill="#FCF0DD"/>
<path d="M334.438 19.7233C334.548 18.0485 334.479 17.9738 334.362 18.2055C334.341 18.8111 334.355 19.342 334.438 19.7233Z" fill="#FCF0DD"/>
<path d="M326.647 54.2204C326.613 55.1027 326.784 54.7662 326.976 54.2503C326.956 53.3531 326.942 52.7251 326.942 52.7251C326.873 53.226 326.723 53.712 326.647 54.2204Z" fill="#FCF0DD"/>
<path d="M330.504 50.6843L330.73 50.9609C330.682 50.445 330.593 50.4674 330.504 50.6843Z" fill="#FCF0DD"/>
</svg>
