<svg width="203" height="49" viewBox="0 0 203 49" fill="none" xmlns="http://www.w3.org/2000/svg">
<path d="M3.89313 2.25593L3.49536 44.1135L200.625 47.6741L201.023 5.81652L3.89313 2.25593Z" fill="#533FB8"/>
<path d="M49.1106 46.9507C49.3307 46.9664 49.4386 46.9507 49.1106 46.9507V46.9507Z" fill="#533FB8"/>
<path d="M66.3921 0.961737C66.4585 0.961737 66.4917 0.961737 66.5582 0.961737C66.6786 0.910218 66.7907 0.864424 66.9028 0.830078L66.3921 0.961737Z" fill="#533FB8"/>
<path d="M93.7175 1.80313C93.7798 1.80885 93.8254 1.81458 93.8835 1.8203C93.8711 1.78595 93.9043 1.75161 93.7175 1.80313Z" fill="#533FB8"/>
<path d="M1.09595 0.875732C1.08748 1.1505 1.10442 1.31078 1.12982 1.43671C1.11289 1.27071 1.10019 1.09898 1.09595 0.875732Z" fill="#533FB8"/>
<path d="M99.1934 47.5632C99.1934 47.5632 99.1228 47.5632 99.073 47.5632C99.1685 47.5747 99.2682 47.5861 99.3678 47.6033L99.1934 47.5632Z" fill="#533FB8"/>
<path d="M98.641 47.649C98.039 47.5975 98.8071 47.5746 99.0728 47.5689C98.4085 47.483 97.74 47.4658 97.0674 47.4887C97.0715 47.5689 98.3462 47.5803 98.641 47.649Z" fill="#533FB8"/>
<path d="M190.041 48.9714L189.767 49.0001C189.879 48.9943 189.962 48.9829 190.041 48.9714Z" fill="#533FB8"/>
<path d="M7.52505 4.57935C7.51233 4.58492 7.49114 4.59048 7.48267 4.59605C7.51233 4.60162 7.52081 4.59049 7.52505 4.57935Z" fill="#533FB8"/>
<path d="M175.7 48.6279L175.542 48.7596C175.683 48.7081 175.712 48.668 175.7 48.6279Z" fill="#533FB8"/>
<path d="M66.9033 0.835698L67.1025 0.78418C67.0319 0.795628 66.9697 0.812801 66.9033 0.835698Z" fill="#533FB8"/>
<path d="M118.966 2.34692C118.974 2.38699 119.032 2.42134 119.098 2.44996C119.132 2.44996 119.152 2.44996 119.169 2.44996L118.966 2.34692Z" fill="#533FB8"/>
<path d="M200.512 36.4294C200.537 36.4237 200.562 36.4065 200.591 36.3836L200.454 36.0344C200.462 36.2176 200.483 36.3435 200.512 36.4294Z" fill="#533FB8"/>
<path d="M153.594 3.55479C153.623 3.53761 153.706 3.52616 153.714 3.50899C153.125 3.45175 151.559 3.4174 149.562 3.38306L149.438 3.54334L153.594 3.55479Z" fill="#533FB8"/>
<path d="M191.432 8.09416L187.745 7.69346C190.44 7.70491 192.811 7.73925 194.978 7.78505C195.522 7.7965 196.049 7.80794 196.568 7.81939C196.697 7.82512 196.826 7.82512 196.955 7.83084L197.125 7.83657H197.166C197.22 7.83657 197.27 7.84229 197.324 7.84229C197.523 7.85374 197.714 7.86519 197.901 7.87091C197.889 8.02547 197.876 8.18002 197.864 8.33458L197.86 8.39182L197.856 8.62652C197.851 8.81542 197.851 9.00432 197.847 9.19895C197.843 9.58248 197.839 9.96601 197.839 10.3553C197.831 11.9123 197.86 13.5551 197.947 15.4327L197.843 15.0492C197.719 16.0452 198.815 16.6291 197.366 27.6598H197.316C197.32 28.0433 197.42 28.0433 197.283 28.8047L197.602 26.8985C197.714 28.0433 197.939 29.0508 197.959 30.5735C197.901 30.894 197.802 31.0085 197.723 31.0372L197.768 34.7808L197.44 35.92C197.602 37.0648 198.275 36.5554 197.872 39.6121C198.345 38.4673 198.138 41.1348 198.375 40.7627C198.316 40.9173 198.225 41.2665 198.146 41.547C198.184 43.3673 198.279 46.7961 198.512 47.6491C198.512 47.6491 199.558 40.5452 200.073 38.6447C199.923 41.2035 200.123 39.3202 200.285 38.8165L200.172 38.6447C200.301 37.1106 200.592 37.1164 200.683 36.3493C200.658 36.3493 200.629 36.3722 200.6 36.3951L200.637 36.4924C200.583 36.5611 200.55 36.521 200.521 36.4409C200.459 36.4581 200.409 36.3894 200.43 35.9715L200.459 36.0516C200.422 35.4105 200.48 34.3057 200.505 33.8249L200.75 33.8192C200.293 32.6743 201.534 26.1887 201.563 24.6603C201.887 23.1319 201.518 21.22 201.692 19.3081C201.8 16.257 202.066 17.7854 202.29 16.257C202.46 14.3451 201.999 16.6405 201.991 15.8735L202.352 13.5838C202.369 14.9175 202.523 14.1963 202.622 13.9558C202.651 12.9655 202.788 11.689 202.855 10.5842C202.888 10.0347 202.905 9.51951 202.884 9.11308C202.871 8.90701 202.851 8.72956 202.817 8.58073C202.801 8.51776 202.78 8.409 202.759 8.32886C202.738 8.24872 202.709 8.18002 202.68 8.12851C202.805 6.34825 202.917 5.3007 203 4.55082C201.858 4.47068 201.24 4.41343 199.844 4.37909C200.264 4.41916 200.887 4.45923 201.389 4.49358C201.891 4.53365 202.273 4.56799 202.236 4.60234C201.7 4.55654 201.347 4.53365 201.148 4.52792C200.949 4.5222 200.903 4.52792 200.953 4.54509C201.057 4.57944 201.543 4.64241 201.987 4.6653C201.065 4.68248 199.554 4.63668 197.669 4.55654C197.552 4.55082 197.432 4.54509 197.312 4.53937C197.254 4.53937 197.195 4.53365 197.137 4.53365L197.013 4.52792C196.847 4.51647 196.672 4.51075 196.502 4.4993C196.157 4.4764 195.8 4.45923 195.443 4.43633C194.725 4.39054 193.986 4.34474 193.263 4.30467C190.373 4.12722 187.72 3.98411 187.467 4.16157V4.09287C186.902 4.35047 187.803 4.63096 186.113 4.75117L184.992 4.60806L183.298 4.69393C182.165 4.58516 182.721 4.5222 182.725 4.48785C179.968 4.56227 176.119 4.34474 172.781 4.24743L176.31 5.04883C173.495 4.82558 168.413 4.39054 167.848 4.61951L166.158 4.33902C160.512 3.76086 162.214 4.47068 159.959 4.2875L157.124 3.96694L159.947 4.02418C157.124 3.83528 155.994 3.72652 153.748 3.509L153.723 3.51472C153.877 3.52617 153.976 3.54334 153.997 3.56051H153.603C153.258 3.68645 151.784 3.75514 149.795 3.70935C146.972 3.61776 144.759 3.77804 140.249 3.41168L139.12 3.66928L135.732 3.43458L135.736 3.21706C139.054 3.29147 145.298 3.32009 149.563 3.38306L149.637 3.28575C147.109 3.23995 144.231 3.28575 142.558 3.23423C141.744 3.17699 139.66 2.90794 141.175 2.78773L139.61 2.97664C131.169 2.8507 131.115 2.85643 122.308 2.45L123.072 2.57593C121.324 2.61028 119.58 2.6389 119.099 2.45572C113.809 2.32407 108.332 2.08365 104.898 1.74591L104.143 1.99206C103.026 1.95771 101.357 1.53411 100.809 1.88902L98.4212 1.95771C96.8932 1.91192 95.959 2.04358 94.2193 1.8604C94.2151 1.8604 94.211 1.8604 94.211 1.8604C94.103 1.84895 93.9909 1.8375 93.883 1.82605C93.883 1.83178 93.8913 1.84322 93.9037 1.84895C90.4492 1.6715 93.937 2.08365 89.98 1.8604C88.7136 1.65432 88.5724 2.16379 86.6459 2.0722L84.7152 1.66577C81.2233 1.391 80.6212 1.75164 75.5598 1.66005C73.1308 1.48259 71.9599 1.14486 73.5709 0.892991C71.3537 1.19065 72.562 1.09907 69.6223 1.20783C69.1697 1.059 69.4853 1.0361 70.133 0.921612C67.5255 0.709813 68.522 1.01893 66.5581 0.973131C65.9851 1.225 65.3207 1.63715 64.6813 1.63715L65.4411 1.73446C63.3568 1.8375 61.0814 1.8604 58.6649 1.68867L58.7563 1.55701L56.1778 1.57991L56.0159 1.40818L52.3371 1.39673L52.8395 1.45397C51.9759 1.4597 49.14 1.46542 47.5166 1.35093L47.5747 1.25935C43.0032 0.881542 39.2248 1.2021 33.8686 1.13341L34.5745 0.955958C32.7517 0.73271 34.0721 1.24217 31.8964 1.11051L31.7884 0.870094C29.8702 1.14486 29.3138 0.761332 27.9934 0.618224L28.6079 0.938785L26.125 0.830023C23.3887 0.675467 24.4475 0.406425 24.8503 0.251869L22.986 0.463668L22.6248 0.183178C21.2587 0.475117 21.2629 0.108762 18.8754 0.234696C18.6927 0.108762 19.2948 0.057243 18.4851 0L14.5448 0.314836L16.9198 0.188902L16.6291 0.583879C14.1545 0.841472 13.2825 0.480841 11.5138 0.560981L12.7303 0.463668C9.84876 0.509463 9.69514 0.337734 8.07167 0.217523C8.57407 0.303388 9.34636 0.423598 8.17962 0.457944C8.07167 0.457944 7.98448 0.457944 7.91389 0.45222C7.87652 0.45222 7.8433 0.446495 7.81424 0.446495C7.76441 0.440771 7.72289 0.440771 7.68137 0.435047C7.51529 0.417874 7.41564 0.400701 7.32014 0.372079C7.12499 0.326285 6.934 0.269042 6.20323 0.234696C6.09942 0.337734 5.48076 0.41215 4.60882 0.457944C3.73273 0.49229 2.59921 0.503738 1.34943 0.469393C1.34113 0.887266 1.31206 1.31086 1.27054 1.72301C1.21656 1.6715 1.16259 1.59708 1.12937 1.4368C1.15843 1.72874 1.1958 1.95771 1.21656 2.22675C1.23732 2.49579 1.23317 2.79918 1.18335 3.26285C1.03802 3.0396 0.896852 2.79918 0.751529 2.54731C0.884396 3.24568 1.01726 3.9097 1.15013 4.53365C1.14183 4.61379 1.13352 4.69393 1.12937 4.77407C1.12522 4.83131 1.12107 4.88855 1.11691 4.9458C1.11276 5.04311 1.11276 5.14614 1.11691 5.24346C1.12522 5.44381 1.14183 5.63843 1.15428 5.81016C1.17919 6.15362 1.18335 6.39404 1.03387 6.34252L0.950829 5.93037L0.79305 11.4085L0.444274 11.4772C0.917613 12.0268 0.232517 14.4596 0.834571 14.2879C0.498251 15.3182 1.02557 18.3693 0.35708 17.7453C0.269886 21.3459 0.901004 23.3036 0.531468 27.6713C-0.0581293 29.2225 0.087194 33.4986 0 36.3092C0.0539772 37.7689 0.0996502 39.0912 0.149475 40.3563C0.161932 40.6711 0.174388 40.986 0.186844 41.2951C0.195148 41.8332 0.207605 42.3655 0.215909 42.8979C0.232517 44.0084 0.253278 45.1132 0.269886 46.2294C1.69821 46.2409 3.13898 46.2466 4.60467 46.2581C5.32714 46.2638 6.0579 46.2695 6.79698 46.2752C6.97967 46.2752 7.16651 46.2752 7.34921 46.281C7.45301 46.281 7.56096 46.281 7.66892 46.281C7.87652 46.281 8.08413 46.281 8.29588 46.281C9.97333 46.281 11.7504 46.2867 13.6936 46.2867C18.672 46.9221 26.125 46.3268 31.4853 46.7275L32.9552 46.5386C36.5177 46.945 41.9611 46.6244 46.9602 47.048C48.185 46.9736 48.8286 46.9564 49.1151 46.9564C48.8867 46.9393 48.5421 46.8935 48.4383 46.7561C49.8666 46.8763 52.7565 46.8076 52.5489 47.0824L52.1877 47.1053C51.9759 47.3743 56.5224 47.0537 58.1127 47.3228L57.2408 47.0137L59.9438 47.111L59.2172 47.1568C70.9717 46.7217 76.2739 47.7464 87.3144 47.3514C85.8487 47.6433 89.4901 47.2255 89.6312 47.5747C92.409 48.0669 94.7881 47.5747 97.0718 47.4945C97.0718 47.4773 97.1009 47.4602 97.2296 47.4315L101.216 47.546C98.8281 47.9467 104.093 47.2312 101.901 47.5689C112.298 48.0898 125.871 47.9983 137.908 48.3646L137.38 48.2387C140.432 48.3131 144.231 48.2444 146.548 48.4676C148.865 48.6909 151.618 48.273 152.519 48.2673C155.06 48.1185 157.364 48.5478 156.276 48.5077C158.992 48.502 161.55 48.1471 165.316 48.3875C166.599 48.7825 175.596 48.2043 175.708 48.6279L175.75 48.5936C180.57 48.9771 185.129 48.5535 190.324 48.9199C190.324 48.9199 190.224 48.9485 190.05 48.9771L200.637 47.8895L197.64 46.4241L188.484 45.1132L163.638 44.9129L143.816 44.1057L95.5604 43.3845L92.11 43.6421C82.635 42.9151 70.4693 43.3329 60.2552 42.7548L60.0393 43.0238C57.1619 42.9895 57.357 42.8235 56.647 42.7605C47.7574 42.6174 38.7764 42.5087 29.8702 42.3999C25.415 42.3426 20.9805 42.2854 16.5835 42.2282C13.2244 42.1766 9.89444 42.1308 6.61013 42.085C6.61844 41.3065 6.63089 40.5338 6.6392 39.7667C6.66411 38.307 6.68902 36.8645 6.71393 35.4277C6.77622 32.5598 6.85926 29.7549 6.96721 27.0072C7.24956 25.4388 7.13745 20.6475 7.43225 19.4168C7.21219 16.7607 7.11254 14.0303 7.08762 11.294C7.07517 9.92593 7.07517 8.56355 7.08762 7.20689C7.09593 6.53143 7.10423 5.85596 7.11253 5.18049L7.11669 4.95152L7.12084 4.91145L7.12499 4.83131C7.12914 4.77979 7.1333 4.72255 7.13745 4.67103L7.18312 4.72255L7.1416 4.52792L7.46131 4.50502C7.50283 4.52792 7.52359 4.56227 7.51944 4.57944C7.57342 4.55082 7.65646 4.52792 7.75611 4.51647C7.74781 4.51647 7.80178 4.51647 7.835 4.51647H7.94711C8.02184 4.51647 8.09658 4.51647 8.17132 4.51647C8.3208 4.51647 8.47442 4.51647 8.62805 4.51647C8.93531 4.51647 9.25086 4.5222 9.57057 4.5222C10.8494 4.53365 12.2196 4.56799 13.6189 4.61951C16.4174 4.7111 19.3321 4.84848 21.8815 4.9458L21.5826 4.96869C51.3323 5.5583 78.9604 5.54685 108.461 6.46273C122.175 7.15537 138.14 6.82909 153.877 7.48738C156.771 7.80222 188.617 8.16858 191.432 8.09416Z" fill="#533FB8"/>
<path d="M197.714 31.0314V30.9456C197.544 30.9456 197.607 31.0715 197.714 31.0314Z" fill="#533FB8"/>
<path d="M172.561 4.23594C172.631 4.23594 172.702 4.24166 172.768 4.24166L171.988 4.06421L172.561 4.23594Z" fill="#533FB8"/>
<path d="M202.659 15.1006C202.726 13.8184 202.685 13.7612 202.614 13.9386C202.601 14.4023 202.609 14.8087 202.659 15.1006Z" fill="#533FB8"/>
<path d="M197.939 41.5125C197.918 42.188 198.022 41.9304 198.138 41.5354C198.125 40.8485 198.117 40.3677 198.117 40.3677C198.076 40.7512 197.984 41.1233 197.939 41.5125Z" fill="#533FB8"/>
<path d="M200.275 38.8051L200.412 39.0169C200.383 38.6219 200.329 38.6391 200.275 38.8051Z" fill="#533FB8"/>
<path d="M12.4095 10.9H15.705C17.0917 10.9 18.1989 11.3117 19.0265 12.135C19.8542 12.9583 20.268 14.0633 20.268 15.45C20.268 16.8367 19.8542 17.9417 19.0265 18.765C18.1989 19.5883 17.0917 20 15.705 20H12.4095V10.9ZM15.64 12.512H14.2555V18.388H15.64C16.485 18.388 17.1567 18.141 17.655 17.647C18.1534 17.1487 18.4025 16.4163 18.4025 15.45C18.4025 14.4837 18.1534 13.7535 17.655 13.2595C17.1567 12.7612 16.485 12.512 15.64 12.512ZM23.001 17.166C23.079 17.634 23.2957 18.0132 23.651 18.3035C24.0107 18.5895 24.444 18.7325 24.951 18.7325C25.6573 18.7325 26.2943 18.453 26.862 17.894L27.9345 18.934C27.1848 19.7487 26.1925 20.156 24.9575 20.156C24.4115 20.156 23.9023 20.065 23.43 19.883C22.9577 19.701 22.559 19.4518 22.234 19.1355C21.909 18.8192 21.6533 18.4465 21.467 18.0175C21.285 17.5842 21.194 17.1227 21.194 16.633C21.194 16.1477 21.2872 15.6883 21.4735 15.255C21.6598 14.8217 21.9133 14.449 22.234 14.137C22.559 13.8207 22.949 13.5715 23.404 13.3895C23.859 13.2032 24.3422 13.11 24.8535 13.11C25.5252 13.11 26.1318 13.2638 26.6735 13.5715C27.2152 13.8748 27.6355 14.2865 27.9345 14.8065C28.2335 15.3222 28.383 15.892 28.383 16.516C28.383 16.7413 28.357 16.958 28.305 17.166H23.001ZM24.8405 14.5335C24.4202 14.5335 24.0453 14.657 23.716 14.904C23.391 15.151 23.1678 15.4803 23.0465 15.892H26.5435C26.4438 15.4847 26.2423 15.1575 25.939 14.9105C25.6357 14.6592 25.2695 14.5335 24.8405 14.5335ZM29.2106 19.038L30.1076 17.9265C30.3243 18.1735 30.58 18.3685 30.8746 18.5115C31.1736 18.6545 31.4878 18.726 31.8171 18.726C32.1248 18.726 32.3653 18.6653 32.5386 18.544C32.7163 18.4227 32.8051 18.2602 32.8051 18.0565C32.8051 17.8485 32.7185 17.6817 32.5451 17.556C32.3718 17.426 32.0728 17.3177 31.6481 17.231C30.1878 16.932 29.4576 16.2127 29.4576 15.073C29.4576 14.501 29.6808 14.0308 30.1271 13.6625C30.5778 13.2942 31.165 13.11 31.8886 13.11C32.3393 13.11 32.7726 13.1945 33.1886 13.3635C33.6046 13.5282 33.9686 13.7492 34.2806 14.0265L33.4226 15.1445C32.933 14.7415 32.4736 14.54 32.0446 14.54C31.7976 14.54 31.5961 14.592 31.4401 14.696C31.2841 14.7957 31.2061 14.93 31.2061 15.099C31.2061 15.489 31.5636 15.7577 32.2786 15.905C33.0543 16.061 33.6263 16.3188 33.9946 16.6785C34.3673 17.0382 34.5536 17.504 34.5536 18.076C34.5536 18.6827 34.3175 19.181 33.8451 19.571C33.3728 19.961 32.7423 20.156 31.9536 20.156C31.3946 20.156 30.8746 20.0585 30.3936 19.8635C29.9126 19.6642 29.5183 19.389 29.2106 19.038ZM39.1248 20.156C38.0632 20.156 37.1748 19.8158 36.4598 19.1355C35.7448 18.4552 35.3873 17.621 35.3873 16.633C35.3873 15.645 35.7448 14.8108 36.4598 14.1305C37.1748 13.4502 38.0632 13.11 39.1248 13.11C40.1042 13.11 40.9513 13.4112 41.6663 14.0135L40.7823 15.346C40.245 14.9083 39.6968 14.6895 39.1378 14.6895C38.5875 14.6895 38.126 14.878 37.7533 15.255C37.3807 15.6277 37.1943 16.087 37.1943 16.633C37.1943 17.1833 37.3807 17.6448 37.7533 18.0175C38.126 18.3902 38.5875 18.5765 39.1378 18.5765C39.7272 18.5765 40.2883 18.3403 40.8213 17.868L41.8158 19.116C41.1008 19.8093 40.2038 20.156 39.1248 20.156ZM47.5055 17.647V13.266H49.293V20H47.5055V19.259C47.2758 19.532 46.992 19.7508 46.654 19.9155C46.3203 20.0758 45.9736 20.156 45.614 20.156C44.821 20.156 44.1731 19.9025 43.6705 19.3955C43.1721 18.8885 42.923 18.2277 42.923 17.413V13.266H44.7105V17.2375C44.7105 17.6188 44.8318 17.9373 45.0745 18.193C45.3215 18.4487 45.6465 18.5765 46.0495 18.5765C46.3225 18.5765 46.5933 18.4855 46.862 18.3035C47.1306 18.1215 47.3451 17.9027 47.5055 17.647ZM54.5486 18.5765C55.099 18.5765 55.5605 18.3902 55.9331 18.0175C56.3058 17.6448 56.4921 17.1833 56.4921 16.633C56.4921 16.0827 56.3058 15.6212 55.9331 15.2485C55.5605 14.8758 55.099 14.6895 54.5486 14.6895C54.163 14.6895 53.812 14.787 53.4956 14.982C53.1836 15.177 52.9496 15.437 52.7936 15.762V17.504C52.9496 17.829 53.1836 18.089 53.4956 18.284C53.812 18.479 54.163 18.5765 54.5486 18.5765ZM54.9256 13.11C55.5583 13.11 56.1325 13.2703 56.6481 13.591C57.1638 13.9073 57.5646 14.3342 57.8506 14.8715C58.141 15.4088 58.2861 15.996 58.2861 16.633C58.2861 17.27 58.141 17.8572 57.8506 18.3945C57.5646 18.9318 57.1638 19.3608 56.6481 19.6815C56.1325 19.9978 55.5583 20.156 54.9256 20.156C54.072 20.156 53.3613 19.8787 52.7936 19.324V20H51.0256V10.51H52.7936V13.942C53.3613 13.3873 54.072 13.11 54.9256 13.11ZM62.9301 14.6895C62.6094 14.6895 62.3126 14.787 62.0396 14.982C61.7666 15.177 61.5391 15.4435 61.3571 15.7815V20H59.5696V13.266H61.3571V14.0915C61.8467 13.4372 62.4469 13.11 63.1576 13.11C63.3872 13.11 63.5909 13.1577 63.7686 13.253L63.6451 14.8195C63.3937 14.7328 63.1554 14.6895 62.9301 14.6895ZM66.0889 17.166C66.1669 17.634 66.3835 18.0132 66.7389 18.3035C67.0985 18.5895 67.5319 18.7325 68.0389 18.7325C68.7452 18.7325 69.3822 18.453 69.9499 17.894L71.0224 18.934C70.2727 19.7487 69.2804 20.156 68.0454 20.156C67.4994 20.156 66.9902 20.065 66.5179 19.883C66.0455 19.701 65.6469 19.4518 65.3219 19.1355C64.9969 18.8192 64.7412 18.4465 64.5549 18.0175C64.3729 17.5842 64.2819 17.1227 64.2819 16.633C64.2819 16.1477 64.375 15.6883 64.5614 15.255C64.7477 14.8217 65.0012 14.449 65.3219 14.137C65.6469 13.8207 66.0369 13.5715 66.4919 13.3895C66.9469 13.2032 67.43 13.11 67.9414 13.11C68.613 13.11 69.2197 13.2638 69.7614 13.5715C70.303 13.8748 70.7234 14.2865 71.0224 14.8065C71.3214 15.3222 71.4709 15.892 71.4709 16.516C71.4709 16.7413 71.4449 16.958 71.3929 17.166H66.0889ZM67.9284 14.5335C67.508 14.5335 67.1332 14.657 66.8039 14.904C66.4789 15.151 66.2557 15.4803 66.1344 15.892H69.6314C69.5317 15.4847 69.3302 15.1575 69.0269 14.9105C68.7235 14.6592 68.3574 14.5335 67.9284 14.5335ZM78.4704 15.619V20H76.6829V13.266H78.4704V14.007C78.7 13.734 78.9817 13.5173 79.3154 13.357C79.6534 13.1923 80.0022 13.11 80.3619 13.11C81.1549 13.11 81.8005 13.3635 82.2989 13.8705C82.8015 14.3775 83.0529 15.0383 83.0529 15.853V20H81.2654V16.0285C81.2654 15.6472 81.1419 15.3287 80.8949 15.073C80.6522 14.8173 80.3294 14.6895 79.9264 14.6895C79.6534 14.6895 79.3825 14.7805 79.1139 14.9625C78.8452 15.1445 78.6307 15.3633 78.4704 15.619ZM89.108 17.647V13.266H90.8955V20H89.108V19.259C88.8783 19.532 88.5945 19.7508 88.2565 19.9155C87.9228 20.0758 87.5762 20.156 87.2165 20.156C86.4235 20.156 85.7757 19.9025 85.273 19.3955C84.7747 18.8885 84.5255 18.2277 84.5255 17.413V13.266H86.313V17.2375C86.313 17.6188 86.4343 17.9373 86.677 18.193C86.924 18.4487 87.249 18.5765 87.652 18.5765C87.925 18.5765 88.1958 18.4855 88.4645 18.3035C88.7332 18.1215 88.9477 17.9027 89.108 17.647ZM93.9932 17.166C94.0712 17.634 94.2878 18.0132 94.6432 18.3035C95.0028 18.5895 95.4362 18.7325 95.9432 18.7325C96.6495 18.7325 97.2865 18.453 97.8542 17.894L98.9267 18.934C98.177 19.7487 97.1847 20.156 95.9497 20.156C95.4037 20.156 94.8945 20.065 94.4222 19.883C93.9498 19.701 93.5512 19.4518 93.2262 19.1355C92.9012 18.8192 92.6455 18.4465 92.4592 18.0175C92.2772 17.5842 92.1862 17.1227 92.1862 16.633C92.1862 16.1477 92.2793 15.6883 92.4657 15.255C92.652 14.8217 92.9055 14.449 93.2262 14.137C93.5512 13.8207 93.9412 13.5715 94.3962 13.3895C94.8512 13.2032 95.3343 13.11 95.8457 13.11C96.5173 13.11 97.124 13.2638 97.6657 13.5715C98.2073 13.8748 98.6277 14.2865 98.9267 14.8065C99.2257 15.3222 99.3752 15.892 99.3752 16.516C99.3752 16.7413 99.3492 16.958 99.2972 17.166H93.9932ZM95.8327 14.5335C95.4123 14.5335 95.0375 14.657 94.7082 14.904C94.3832 15.151 94.16 15.4803 94.0387 15.892H97.5357C97.436 15.4847 97.2345 15.1575 96.9312 14.9105C96.6278 14.6592 96.2617 14.5335 95.8327 14.5335ZM100.203 19.038L101.1 17.9265C101.316 18.1735 101.572 18.3685 101.867 18.5115C102.166 18.6545 102.48 18.726 102.809 18.726C103.117 18.726 103.357 18.6653 103.531 18.544C103.708 18.4227 103.797 18.2602 103.797 18.0565C103.797 17.8485 103.711 17.6817 103.537 17.556C103.364 17.426 103.065 17.3177 102.64 17.231C101.18 16.932 100.45 16.2127 100.45 15.073C100.45 14.501 100.673 14.0308 101.119 13.6625C101.57 13.2942 102.157 13.11 102.881 13.11C103.331 13.11 103.765 13.1945 104.181 13.3635C104.597 13.5282 104.961 13.7492 105.273 14.0265L104.415 15.1445C103.925 14.7415 103.466 14.54 103.037 14.54C102.79 14.54 102.588 14.592 102.432 14.696C102.276 14.7957 102.198 14.93 102.198 15.099C102.198 15.489 102.556 15.7577 103.271 15.905C104.046 16.061 104.618 16.3188 104.987 16.6785C105.359 17.0382 105.546 17.504 105.546 18.076C105.546 18.6827 105.31 19.181 104.837 19.571C104.365 19.961 103.734 20.156 102.946 20.156C102.387 20.156 101.867 20.0585 101.386 19.8635C100.905 19.6642 100.51 19.389 100.203 19.038ZM108.944 14.8195V17.6665C108.944 17.9915 109.022 18.2298 109.178 18.3815C109.338 18.5288 109.602 18.6025 109.971 18.6025C110.2 18.6025 110.413 18.5917 110.608 18.57V20.065C110.326 20.1257 110.016 20.156 109.678 20.156C107.997 20.156 107.156 19.363 107.156 17.777V14.8195H106.11V13.266H107.156V11.472L108.944 11.316V13.266H110.53V14.8195H108.944ZM115.171 14.6895C114.851 14.6895 114.554 14.787 114.281 14.982C114.008 15.177 113.78 15.4435 113.598 15.7815V20H111.811V13.266H113.598V14.0915C114.088 13.4372 114.688 13.11 115.399 13.11C115.628 13.11 115.832 13.1577 116.01 13.253L115.886 14.8195C115.635 14.7328 115.397 14.6895 115.171 14.6895ZM120.261 18.5765C120.646 18.5765 120.995 18.479 121.307 18.284C121.623 18.089 121.86 17.829 122.016 17.504V15.762C121.86 15.437 121.623 15.177 121.307 14.982C120.995 14.787 120.646 14.6895 120.261 14.6895C119.71 14.6895 119.249 14.8758 118.876 15.2485C118.503 15.6212 118.317 16.0827 118.317 16.633C118.317 17.1833 118.503 17.6448 118.876 18.0175C119.249 18.3902 119.71 18.5765 120.261 18.5765ZM119.884 13.11C120.737 13.11 121.448 13.3873 122.016 13.942V13.266H123.784V20H122.016V19.324C121.448 19.8787 120.737 20.156 119.884 20.156C119.251 20.156 118.677 19.9978 118.161 19.6815C117.645 19.3608 117.242 18.9318 116.952 18.3945C116.666 17.8572 116.523 17.27 116.523 16.633C116.523 15.996 116.666 15.4088 116.952 14.8715C117.242 14.3342 117.645 13.9073 118.161 13.591C118.677 13.2703 119.251 13.11 119.884 13.11ZM133.566 13.266H135.425L133.02 20H131.096L128.691 13.266H130.55L132.058 17.8485L133.566 13.266ZM139.583 18.5765C139.969 18.5765 140.317 18.479 140.629 18.284C140.946 18.089 141.182 17.829 141.338 17.504V15.762C141.182 15.437 140.946 15.177 140.629 14.982C140.317 14.787 139.969 14.6895 139.583 14.6895C139.033 14.6895 138.571 14.8758 138.198 15.2485C137.826 15.6212 137.639 16.0827 137.639 16.633C137.639 17.1833 137.826 17.6448 138.198 18.0175C138.571 18.3902 139.033 18.5765 139.583 18.5765ZM139.206 13.11C140.06 13.11 140.77 13.3873 141.338 13.942V13.266H143.106V20H141.338V19.324C140.77 19.8787 140.06 20.156 139.206 20.156C138.573 20.156 137.999 19.9978 137.483 19.6815C136.968 19.3608 136.565 18.9318 136.274 18.3945C135.988 17.8572 135.845 17.27 135.845 16.633C135.845 15.996 135.988 15.4088 136.274 14.8715C136.565 14.3342 136.968 13.9073 137.483 13.591C137.999 13.2703 138.573 13.11 139.206 13.11ZM148.192 14.6895C147.871 14.6895 147.574 14.787 147.301 14.982C147.028 15.177 146.801 15.4435 146.619 15.7815V20H144.831V13.266H146.619V14.0915C147.108 13.4372 147.709 13.11 148.419 13.11C148.649 13.11 148.853 13.1577 149.03 13.253L148.907 14.8195C148.655 14.7328 148.417 14.6895 148.192 14.6895ZM150.221 20V13.266H152.009V20H150.221ZM150.364 12.2065C150.161 12.0072 150.059 11.7623 150.059 11.472C150.059 11.1817 150.161 10.9368 150.364 10.7375C150.568 10.5382 150.819 10.4385 151.118 10.4385C151.417 10.4385 151.669 10.5382 151.872 10.7375C152.076 10.9368 152.178 11.1817 152.178 11.472C152.178 11.7623 152.076 12.0072 151.872 12.2065C151.669 12.4058 151.417 12.5055 151.118 12.5055C150.819 12.5055 150.568 12.4058 150.364 12.2065ZM155.146 17.166C155.224 17.634 155.441 18.0132 155.796 18.3035C156.156 18.5895 156.589 18.7325 157.096 18.7325C157.803 18.7325 158.44 18.453 159.007 17.894L160.08 18.934C159.33 19.7487 158.338 20.156 157.103 20.156C156.557 20.156 156.048 20.065 155.575 19.883C155.103 19.701 154.704 19.4518 154.379 19.1355C154.054 18.8192 153.799 18.4465 153.612 18.0175C153.43 17.5842 153.339 17.1227 153.339 16.633C153.339 16.1477 153.433 15.6883 153.619 15.255C153.805 14.8217 154.059 14.449 154.379 14.137C154.704 13.8207 155.094 13.5715 155.549 13.3895C156.004 13.2032 156.488 13.11 156.999 13.11C157.671 13.11 158.277 13.2638 158.819 13.5715C159.361 13.8748 159.781 14.2865 160.08 14.8065C160.379 15.3222 160.528 15.892 160.528 16.516C160.528 16.7413 160.502 16.958 160.45 17.166H155.146ZM156.986 14.5335C156.566 14.5335 156.191 14.657 155.861 14.904C155.536 15.151 155.313 15.4803 155.192 15.892H158.689C158.589 15.4847 158.388 15.1575 158.084 14.9105C157.781 14.6592 157.415 14.5335 156.986 14.5335ZM165.113 18.5765C165.499 18.5765 165.848 18.479 166.16 18.284C166.476 18.089 166.712 17.829 166.868 17.504V15.762C166.712 15.437 166.476 15.177 166.16 14.982C165.848 14.787 165.499 14.6895 165.113 14.6895C164.563 14.6895 164.101 14.8758 163.729 15.2485C163.356 15.6212 163.17 16.0827 163.17 16.633C163.17 17.1833 163.356 17.6448 163.729 18.0175C164.101 18.3902 164.563 18.5765 165.113 18.5765ZM164.736 13.11C165.59 13.11 166.3 13.3873 166.868 13.942V10.51H168.636V20H166.868V19.324C166.3 19.8787 165.59 20.156 164.736 20.156C164.103 20.156 163.529 19.9978 163.014 19.6815C162.498 19.3608 162.095 18.9318 161.805 18.3945C161.519 17.8572 161.376 17.27 161.376 16.633C161.376 15.996 161.519 15.4088 161.805 14.8715C162.095 14.3342 162.498 13.9073 163.014 13.591C163.529 13.2703 164.103 13.11 164.736 13.11ZM173.657 18.5765C174.043 18.5765 174.392 18.479 174.704 18.284C175.02 18.089 175.256 17.829 175.412 17.504V15.762C175.256 15.437 175.02 15.177 174.704 14.982C174.392 14.787 174.043 14.6895 173.657 14.6895C173.107 14.6895 172.645 14.8758 172.273 15.2485C171.9 15.6212 171.714 16.0827 171.714 16.633C171.714 17.1833 171.9 17.6448 172.273 18.0175C172.645 18.3902 173.107 18.5765 173.657 18.5765ZM173.28 13.11C174.134 13.11 174.844 13.3873 175.412 13.942V13.266H177.18V20H175.412V19.324C174.844 19.8787 174.134 20.156 173.28 20.156C172.647 20.156 172.073 19.9978 171.558 19.6815C171.042 19.3608 170.639 18.9318 170.349 18.3945C170.063 17.8572 169.92 17.27 169.92 16.633C169.92 15.996 170.063 15.4088 170.349 14.8715C170.639 14.3342 171.042 13.9073 171.558 13.591C172.073 13.2703 172.647 13.11 173.28 13.11ZM182.201 18.5765C182.587 18.5765 182.936 18.479 183.248 18.284C183.564 18.089 183.8 17.829 183.956 17.504V15.762C183.8 15.437 183.564 15.177 183.248 14.982C182.936 14.787 182.587 14.6895 182.201 14.6895C181.651 14.6895 181.189 14.8758 180.817 15.2485C180.444 15.6212 180.258 16.0827 180.258 16.633C180.258 17.1833 180.444 17.6448 180.817 18.0175C181.189 18.3902 181.651 18.5765 182.201 18.5765ZM181.824 13.11C182.678 13.11 183.388 13.3873 183.956 13.942V10.51H185.724V20H183.956V19.324C183.388 19.8787 182.678 20.156 181.824 20.156C181.191 20.156 180.617 19.9978 180.102 19.6815C179.586 19.3608 179.183 18.9318 178.893 18.3945C178.607 17.8572 178.464 17.27 178.464 16.633C178.464 15.996 178.607 15.4088 178.893 14.8715C179.183 14.3342 179.586 13.9073 180.102 13.591C180.617 13.2703 181.191 13.11 181.824 13.11ZM61.1893 34.5765C61.575 34.5765 61.9238 34.479 62.2358 34.284C62.5521 34.089 62.7883 33.829 62.9443 33.504V31.762C62.7883 31.437 62.5521 31.177 62.2358 30.982C61.9238 30.787 61.575 30.6895 61.1893 30.6895C60.639 30.6895 60.1775 30.8758 59.8048 31.2485C59.4321 31.6212 59.2458 32.0827 59.2458 32.633C59.2458 33.1833 59.4321 33.6448 59.8048 34.0175C60.1775 34.3902 60.639 34.5765 61.1893 34.5765ZM60.8123 29.11C61.666 29.11 62.3766 29.3873 62.9443 29.942V26.51H64.7123V36H62.9443V35.324C62.3766 35.8787 61.666 36.156 60.8123 36.156C60.1796 36.156 59.6055 35.9978 59.0898 35.6815C58.5741 35.3608 58.1711 34.9318 57.8808 34.3945C57.5948 33.8572 57.4518 33.27 57.4518 32.633C57.4518 31.996 57.5948 31.4088 57.8808 30.8715C58.1711 30.3342 58.5741 29.9073 59.0898 29.591C59.6055 29.2703 60.1796 29.11 60.8123 29.11ZM67.8027 33.166C67.8807 33.634 68.0974 34.0132 68.4527 34.3035C68.8124 34.5895 69.2457 34.7325 69.7527 34.7325C70.4591 34.7325 71.0961 34.453 71.6637 33.894L72.7362 34.934C71.9866 35.7487 70.9942 36.156 69.7592 36.156C69.2132 36.156 68.7041 36.065 68.2317 35.883C67.7594 35.701 67.3607 35.4518 67.0357 35.1355C66.7107 34.8192 66.4551 34.4465 66.2687 34.0175C66.0867 33.5842 65.9957 33.1227 65.9957 32.633C65.9957 32.1477 66.0889 31.6883 66.2752 31.255C66.4616 30.8217 66.7151 30.449 67.0357 30.137C67.3607 29.8207 67.7507 29.5715 68.2057 29.3895C68.6607 29.2032 69.1439 29.11 69.6552 29.11C70.3269 29.11 70.9336 29.2638 71.4752 29.5715C72.0169 29.8748 72.4372 30.2865 72.7362 30.8065C73.0352 31.3222 73.1847 31.892 73.1847 32.516C73.1847 32.7413 73.1587 32.958 73.1067 33.166H67.8027ZM69.6422 30.5335C69.2219 30.5335 68.8471 30.657 68.5177 30.904C68.1927 31.151 67.9696 31.4803 67.8482 31.892H71.3452C71.2456 31.4847 71.0441 31.1575 70.7407 30.9105C70.4374 30.6592 70.0712 30.5335 69.6422 30.5335ZM81.6922 34.5765C82.0779 34.5765 82.4267 34.479 82.7387 34.284C83.0551 34.089 83.2912 33.829 83.4472 33.504V31.762C83.2912 31.437 83.0551 31.177 82.7387 30.982C82.4267 30.787 82.0779 30.6895 81.6922 30.6895C81.1419 30.6895 80.6804 30.8758 80.3077 31.2485C79.9351 31.6212 79.7487 32.0827 79.7487 32.633C79.7487 33.1833 79.9351 33.6448 80.3077 34.0175C80.6804 34.3902 81.1419 34.5765 81.6922 34.5765ZM81.3152 29.11C82.1689 29.11 82.8796 29.3873 83.4472 29.942V29.266H85.2152V36H83.4472V35.324C82.8796 35.8787 82.1689 36.156 81.3152 36.156C80.6826 36.156 80.1084 35.9978 79.5927 35.6815C79.0771 35.3608 78.6741 34.9318 78.3837 34.3945C78.0977 33.8572 77.9547 33.27 77.9547 32.633C77.9547 31.996 78.0977 31.4088 78.3837 30.8715C78.6741 30.3342 79.0771 29.9073 79.5927 29.591C80.1084 29.2703 80.6826 29.11 81.3152 29.11ZM86.9732 36V26.51H88.7607V36H86.9732ZM90.5659 36V29.266H92.3534V36H90.5659ZM90.7089 28.2065C90.5053 28.0072 90.4034 27.7623 90.4034 27.472C90.4034 27.1817 90.5053 26.9368 90.7089 26.7375C90.9126 26.5382 91.1639 26.4385 91.4629 26.4385C91.7619 26.4385 92.0133 26.5382 92.2169 26.7375C92.4206 26.9368 92.5224 27.1817 92.5224 27.472C92.5224 27.7623 92.4206 28.0072 92.2169 28.2065C92.0133 28.4058 91.7619 28.5055 91.4629 28.5055C91.1639 28.5055 90.9126 28.4058 90.7089 28.2065ZM94.1262 29.266H95.9137V30.007C96.1304 29.7383 96.3969 29.5238 96.7132 29.3635C97.0296 29.2032 97.3676 29.123 97.7272 29.123C98.1996 29.123 98.6242 29.2248 99.0012 29.4285C99.3826 29.6322 99.6881 29.916 99.9177 30.28C100.16 29.929 100.481 29.6473 100.88 29.435C101.278 29.2183 101.699 29.11 102.141 29.11C102.916 29.11 103.547 29.3657 104.032 29.877C104.522 30.384 104.767 31.0362 104.767 31.8335V36H102.979V32.0155C102.979 31.6385 102.867 31.3243 102.641 31.073C102.42 30.8173 102.126 30.6895 101.757 30.6895C101.484 30.6895 101.222 30.7805 100.971 30.9625C100.719 31.1402 100.505 31.372 100.327 31.658C100.336 31.8487 100.34 31.996 100.34 32.1V36H98.5527V32.0155C98.5527 31.6298 98.4401 31.3135 98.2147 31.0665C97.9894 30.8152 97.6947 30.6895 97.3307 30.6895C97.0577 30.6895 96.7956 30.7783 96.5442 30.956C96.2972 31.1337 96.0871 31.3612 95.9137 31.6385V36H94.1262V29.266ZM107.73 33.166C107.808 33.634 108.024 34.0132 108.38 34.3035C108.739 34.5895 109.173 34.7325 109.68 34.7325C110.386 34.7325 111.023 34.453 111.591 33.894L112.663 34.934C111.913 35.7487 110.921 36.156 109.686 36.156C109.14 36.156 108.631 36.065 108.159 35.883C107.686 35.701 107.288 35.4518 106.963 35.1355C106.638 34.8192 106.382 34.4465 106.196 34.0175C106.014 33.5842 105.923 33.1227 105.923 32.633C105.923 32.1477 106.016 31.6883 106.202 31.255C106.388 30.8217 106.642 30.449 106.963 30.137C107.288 29.8207 107.678 29.5715 108.133 29.3895C108.588 29.2032 109.071 29.11 109.582 29.11C110.254 29.11 110.86 29.2638 111.402 29.5715C111.944 29.8748 112.364 30.2865 112.663 30.8065C112.962 31.3222 113.112 31.892 113.112 32.516C113.112 32.7413 113.086 32.958 113.034 33.166H107.73ZM109.569 30.5335C109.149 30.5335 108.774 30.657 108.445 30.904C108.12 31.151 107.896 31.4803 107.775 31.892H111.272C111.172 31.4847 110.971 31.1575 110.668 30.9105C110.364 30.6592 109.998 30.5335 109.569 30.5335ZM116.188 31.619V36H114.401V29.266H116.188V30.007C116.418 29.734 116.699 29.5173 117.033 29.357C117.371 29.1923 117.72 29.11 118.08 29.11C118.873 29.11 119.518 29.3635 120.017 29.8705C120.519 30.3775 120.771 31.0383 120.771 31.853V36H118.983V32.0285C118.983 31.6472 118.86 31.3287 118.613 31.073C118.37 30.8173 118.047 30.6895 117.644 30.6895C117.371 30.6895 117.1 30.7805 116.832 30.9625C116.563 31.1445 116.348 31.3633 116.188 31.619ZM124.495 30.8195V33.6665C124.495 33.9915 124.573 34.2298 124.729 34.3815C124.89 34.5288 125.154 34.6025 125.522 34.6025C125.752 34.6025 125.964 34.5917 126.159 34.57V36.065C125.878 36.1257 125.568 36.156 125.23 36.156C123.549 36.156 122.708 35.363 122.708 33.777V30.8195H121.661V29.266H122.708V27.472L124.495 27.316V29.266H126.081V30.8195H124.495ZM127.993 35.1355C127.278 34.4552 126.921 33.621 126.921 32.633C126.921 31.645 127.278 30.8108 127.993 30.1305C128.708 29.4502 129.596 29.11 130.658 29.11C131.36 29.11 131.997 29.266 132.569 29.578C133.141 29.89 133.587 30.3147 133.908 30.852C134.233 31.3893 134.396 31.983 134.396 32.633C134.396 33.283 134.233 33.8767 133.908 34.414C133.587 34.9513 133.141 35.376 132.569 35.688C131.997 36 131.36 36.156 130.658 36.156C129.596 36.156 128.708 35.8158 127.993 35.1355ZM128.715 32.633C128.715 33.1833 128.901 33.6448 129.274 34.0175C129.646 34.3902 130.108 34.5765 130.658 34.5765C131.208 34.5765 131.67 34.3902 132.043 34.0175C132.42 33.6448 132.608 33.1833 132.608 32.633C132.608 32.087 132.42 31.6277 132.043 31.255C131.67 30.878 131.208 30.6895 130.658 30.6895C130.108 30.6895 129.646 30.878 129.274 31.255C128.901 31.6277 128.715 32.087 128.715 32.633ZM135.216 35.038L136.113 33.9265C136.33 34.1735 136.586 34.3685 136.88 34.5115C137.179 34.6545 137.494 34.726 137.823 34.726C138.131 34.726 138.371 34.6653 138.544 34.544C138.722 34.4227 138.811 34.2602 138.811 34.0565C138.811 33.8485 138.724 33.6817 138.551 33.556C138.378 33.426 138.079 33.3177 137.654 33.231C136.194 32.932 135.463 32.2127 135.463 31.073C135.463 30.501 135.687 30.0308 136.133 29.6625C136.584 29.2942 137.171 29.11 137.894 29.11C138.345 29.11 138.778 29.1945 139.194 29.3635C139.61 29.5282 139.974 29.7492 140.286 30.0265L139.428 31.1445C138.939 30.7415 138.479 30.54 138.05 30.54C137.803 30.54 137.602 30.592 137.446 30.696C137.29 30.7957 137.212 30.93 137.212 31.099C137.212 31.489 137.569 31.7577 138.284 31.905C139.06 32.061 139.632 32.3188 140 32.6785C140.373 33.0382 140.559 33.504 140.559 34.076C140.559 34.6827 140.323 35.181 139.851 35.571C139.379 35.961 138.748 36.156 137.959 36.156C137.4 36.156 136.88 36.0585 136.399 35.8635C135.918 35.6642 135.524 35.389 135.216 35.038Z" fill="#F9F2E1"/>
</svg>
