<svg width="203" height="49" viewBox="0 0 203 49" fill="none" xmlns="http://www.w3.org/2000/svg">
<path d="M3.89289 2.25593L3.49512 44.1135L200.625 47.6741L201.023 5.81652L3.89289 2.25593Z" fill="#009167"/>
<path d="M49.1104 46.9507C49.3304 46.9664 49.4384 46.9507 49.1104 46.9507V46.9507Z" fill="#009167"/>
<path d="M66.3921 0.961737C66.4585 0.961737 66.4917 0.961737 66.5582 0.961737C66.6786 0.910218 66.7907 0.864424 66.9028 0.830078L66.3921 0.961737Z" fill="#009167"/>
<path d="M93.7178 1.80313C93.78 1.80885 93.8257 1.81458 93.8838 1.8203C93.8713 1.78595 93.9045 1.75161 93.7178 1.80313Z" fill="#009167"/>
<path d="M1.09595 0.875732C1.08748 1.1505 1.10442 1.31078 1.12982 1.43671C1.11289 1.27071 1.10019 1.09898 1.09595 0.875732Z" fill="#009167"/>
<path d="M99.1937 47.5632C99.1937 47.5632 99.1231 47.5632 99.0732 47.5632C99.1687 47.5747 99.2684 47.5861 99.3681 47.6033L99.1937 47.5632Z" fill="#009167"/>
<path d="M98.641 47.649C98.039 47.5975 98.8071 47.5746 99.0728 47.5689C98.4085 47.483 97.74 47.4658 97.0674 47.4887C97.0715 47.5689 98.3462 47.5803 98.641 47.649Z" fill="#009167"/>
<path d="M190.041 48.9714L189.767 49.0001C189.879 48.9943 189.962 48.9829 190.041 48.9714Z" fill="#009167"/>
<path d="M7.5248 4.57935C7.51209 4.58492 7.4909 4.59048 7.48242 4.59605C7.51209 4.60162 7.52057 4.59049 7.5248 4.57935Z" fill="#009167"/>
<path d="M175.7 48.6279L175.542 48.7596C175.683 48.7081 175.712 48.668 175.7 48.6279Z" fill="#009167"/>
<path d="M66.9033 0.835698L67.1025 0.78418C67.0319 0.795628 66.9697 0.812801 66.9033 0.835698Z" fill="#009167"/>
<path d="M118.966 2.34692C118.974 2.38699 119.032 2.42134 119.099 2.44996C119.132 2.44996 119.153 2.44996 119.169 2.44996L118.966 2.34692Z" fill="#009167"/>
<path d="M200.512 36.4294C200.537 36.4237 200.562 36.4065 200.591 36.3836L200.454 36.0344C200.462 36.2176 200.483 36.3435 200.512 36.4294Z" fill="#009167"/>
<path d="M153.594 3.55479C153.623 3.53761 153.706 3.52616 153.714 3.50899C153.125 3.45175 151.559 3.4174 149.562 3.38306L149.438 3.54334L153.594 3.55479Z" fill="#009167"/>
<path d="M191.432 8.09416L187.745 7.69346C190.44 7.70491 192.811 7.73925 194.978 7.78505C195.522 7.7965 196.049 7.80794 196.568 7.81939C196.697 7.82512 196.826 7.82512 196.955 7.83084L197.125 7.83657H197.166C197.22 7.83657 197.27 7.84229 197.324 7.84229C197.523 7.85374 197.714 7.86519 197.901 7.87091C197.889 8.02547 197.876 8.18002 197.864 8.33458L197.86 8.39182L197.856 8.62652C197.851 8.81542 197.851 9.00432 197.847 9.19895C197.843 9.58248 197.839 9.96601 197.839 10.3553C197.831 11.9123 197.86 13.5551 197.947 15.4327L197.843 15.0492C197.719 16.0452 198.815 16.6291 197.366 27.6598H197.316C197.32 28.0433 197.42 28.0433 197.283 28.8047L197.602 26.8985C197.714 28.0433 197.939 29.0508 197.959 30.5735C197.901 30.894 197.802 31.0085 197.723 31.0372L197.768 34.7808L197.44 35.92C197.602 37.0648 198.275 36.5554 197.872 39.6121C198.345 38.4673 198.138 41.1348 198.375 40.7627C198.316 40.9173 198.225 41.2665 198.146 41.547C198.184 43.3673 198.279 46.7961 198.512 47.6491C198.512 47.6491 199.558 40.5452 200.073 38.6447C199.923 41.2035 200.123 39.3202 200.285 38.8165L200.172 38.6447C200.301 37.1106 200.592 37.1164 200.683 36.3493C200.658 36.3493 200.629 36.3722 200.6 36.3951L200.637 36.4924C200.583 36.5611 200.55 36.521 200.521 36.4409C200.459 36.4581 200.409 36.3894 200.43 35.9715L200.459 36.0516C200.422 35.4105 200.48 34.3057 200.505 33.8249L200.75 33.8192C200.293 32.6743 201.534 26.1887 201.563 24.6603C201.887 23.1319 201.518 21.22 201.692 19.3081C201.8 16.257 202.066 17.7854 202.29 16.257C202.46 14.3451 201.999 16.6405 201.991 15.8735L202.352 13.5838C202.369 14.9175 202.523 14.1963 202.622 13.9558C202.651 12.9655 202.788 11.689 202.855 10.5842C202.888 10.0347 202.905 9.51951 202.884 9.11308C202.871 8.90701 202.851 8.72956 202.817 8.58073C202.801 8.51776 202.78 8.409 202.759 8.32886C202.738 8.24872 202.709 8.18002 202.68 8.12851C202.805 6.34825 202.917 5.3007 203 4.55082C201.858 4.47068 201.24 4.41343 199.844 4.37909C200.264 4.41916 200.887 4.45923 201.389 4.49358C201.891 4.53365 202.273 4.56799 202.236 4.60234C201.7 4.55654 201.347 4.53365 201.148 4.52792C200.949 4.5222 200.903 4.52792 200.953 4.54509C201.057 4.57944 201.543 4.64241 201.987 4.6653C201.065 4.68248 199.554 4.63668 197.669 4.55654C197.552 4.55082 197.432 4.54509 197.312 4.53937C197.254 4.53937 197.195 4.53365 197.137 4.53365L197.013 4.52792C196.847 4.51647 196.672 4.51075 196.502 4.4993C196.157 4.4764 195.8 4.45923 195.443 4.43633C194.725 4.39054 193.986 4.34474 193.263 4.30467C190.373 4.12722 187.72 3.98411 187.467 4.16157V4.09287C186.902 4.35047 187.803 4.63096 186.113 4.75117L184.992 4.60806L183.298 4.69393C182.165 4.58516 182.721 4.5222 182.725 4.48785C179.968 4.56227 176.119 4.34474 172.781 4.24743L176.31 5.04883C173.495 4.82558 168.413 4.39054 167.848 4.61951L166.158 4.33902C160.512 3.76086 162.214 4.47068 159.959 4.2875L157.124 3.96694L159.947 4.02418C157.124 3.83528 155.994 3.72652 153.748 3.509L153.723 3.51472C153.877 3.52617 153.976 3.54334 153.997 3.56051H153.603C153.258 3.68645 151.784 3.75514 149.795 3.70935C146.972 3.61776 144.759 3.77804 140.249 3.41168L139.12 3.66928L135.732 3.43458L135.736 3.21706C139.054 3.29147 145.298 3.32009 149.563 3.38306L149.637 3.28575C147.109 3.23995 144.231 3.28575 142.558 3.23423C141.744 3.17699 139.66 2.90794 141.175 2.78773L139.61 2.97664C131.169 2.8507 131.115 2.85643 122.308 2.45L123.072 2.57593C121.324 2.61028 119.58 2.6389 119.099 2.45572C113.809 2.32407 108.332 2.08365 104.898 1.74591L104.143 1.99206C103.026 1.95771 101.357 1.53411 100.809 1.88902L98.4212 1.95771C96.8932 1.91192 95.959 2.04358 94.2193 1.8604C94.2151 1.8604 94.211 1.8604 94.211 1.8604C94.103 1.84895 93.9909 1.8375 93.883 1.82605C93.883 1.83178 93.8913 1.84322 93.9037 1.84895C90.4492 1.6715 93.937 2.08365 89.98 1.8604C88.7136 1.65432 88.5724 2.16379 86.6459 2.0722L84.7152 1.66577C81.2233 1.391 80.6212 1.75164 75.5598 1.66005C73.1308 1.48259 71.9599 1.14486 73.5709 0.892991C71.3537 1.19065 72.562 1.09907 69.6223 1.20783C69.1697 1.059 69.4853 1.0361 70.133 0.921612C67.5255 0.709813 68.522 1.01893 66.5581 0.973131C65.9851 1.225 65.3207 1.63715 64.6813 1.63715L65.4411 1.73446C63.3568 1.8375 61.0814 1.8604 58.6649 1.68867L58.7563 1.55701L56.1778 1.57991L56.0159 1.40818L52.3371 1.39673L52.8395 1.45397C51.9759 1.4597 49.14 1.46542 47.5166 1.35093L47.5747 1.25935C43.0032 0.881542 39.2248 1.2021 33.8686 1.13341L34.5745 0.955958C32.7517 0.73271 34.0721 1.24217 31.8964 1.11051L31.7884 0.870094C29.8702 1.14486 29.3138 0.761332 27.9934 0.618224L28.6079 0.938785L26.125 0.830023C23.3887 0.675467 24.4475 0.406425 24.8503 0.251869L22.986 0.463668L22.6248 0.183178C21.2587 0.475117 21.2629 0.108762 18.8754 0.234696C18.6927 0.108762 19.2948 0.057243 18.4851 0L14.5448 0.314836L16.9198 0.188902L16.6291 0.583879C14.1545 0.841472 13.2825 0.480841 11.5138 0.560981L12.7303 0.463668C9.84876 0.509463 9.69514 0.337734 8.07167 0.217523C8.57407 0.303388 9.34636 0.423598 8.17962 0.457944C8.07167 0.457944 7.98448 0.457944 7.91389 0.45222C7.87652 0.45222 7.8433 0.446495 7.81424 0.446495C7.76441 0.440771 7.72289 0.440771 7.68137 0.435047C7.51529 0.417874 7.41564 0.400701 7.32014 0.372079C7.12499 0.326285 6.934 0.269042 6.20323 0.234696C6.09942 0.337734 5.48076 0.41215 4.60882 0.457944C3.73273 0.49229 2.59921 0.503738 1.34943 0.469393C1.34113 0.887266 1.31206 1.31086 1.27054 1.72301C1.21656 1.6715 1.16259 1.59708 1.12937 1.4368C1.15843 1.72874 1.1958 1.95771 1.21656 2.22675C1.23732 2.49579 1.23317 2.79918 1.18335 3.26285C1.03802 3.0396 0.896852 2.79918 0.751529 2.54731C0.884396 3.24568 1.01726 3.9097 1.15013 4.53365C1.14183 4.61379 1.13352 4.69393 1.12937 4.77407C1.12522 4.83131 1.12107 4.88855 1.11691 4.9458C1.11276 5.04311 1.11276 5.14614 1.11691 5.24346C1.12522 5.44381 1.14183 5.63843 1.15428 5.81016C1.17919 6.15362 1.18335 6.39404 1.03387 6.34252L0.950829 5.93037L0.79305 11.4085L0.444274 11.4772C0.917613 12.0268 0.232517 14.4596 0.834571 14.2879C0.498251 15.3182 1.02557 18.3693 0.35708 17.7453C0.269886 21.3459 0.901004 23.3036 0.531468 27.6713C-0.0581293 29.2225 0.087194 33.4986 0 36.3092C0.0539772 37.7689 0.0996502 39.0912 0.149475 40.3563C0.161932 40.6711 0.174388 40.986 0.186844 41.2951C0.195148 41.8332 0.207605 42.3655 0.215909 42.8979C0.232517 44.0084 0.253278 45.1132 0.269886 46.2294C1.69821 46.2409 3.13898 46.2466 4.60467 46.2581C5.32714 46.2638 6.0579 46.2695 6.79698 46.2752C6.97967 46.2752 7.16651 46.2752 7.34921 46.281C7.45301 46.281 7.56096 46.281 7.66892 46.281C7.87652 46.281 8.08413 46.281 8.29588 46.281C9.97333 46.281 11.7504 46.2867 13.6936 46.2867C18.672 46.9221 26.125 46.3268 31.4853 46.7275L32.9552 46.5386C36.5177 46.945 41.9611 46.6244 46.9602 47.048C48.185 46.9736 48.8286 46.9564 49.1151 46.9564C48.8867 46.9393 48.5421 46.8935 48.4383 46.7561C49.8666 46.8763 52.7565 46.8076 52.5489 47.0824L52.1877 47.1053C51.9759 47.3743 56.5224 47.0537 58.1127 47.3228L57.2408 47.0137L59.9438 47.111L59.2172 47.1568C70.9717 46.7217 76.2739 47.7464 87.3144 47.3514C85.8487 47.6433 89.4901 47.2255 89.6312 47.5747C92.409 48.0669 94.7881 47.5747 97.0718 47.4945C97.0718 47.4773 97.1009 47.4602 97.2296 47.4315L101.216 47.546C98.8281 47.9467 104.093 47.2312 101.901 47.5689C112.298 48.0898 125.871 47.9983 137.908 48.3646L137.38 48.2387C140.432 48.3131 144.231 48.2444 146.548 48.4676C148.865 48.6909 151.618 48.273 152.519 48.2673C155.06 48.1185 157.364 48.5478 156.276 48.5077C158.992 48.502 161.55 48.1471 165.316 48.3875C166.599 48.7825 175.596 48.2043 175.708 48.6279L175.75 48.5936C180.57 48.9771 185.129 48.5535 190.324 48.9199C190.324 48.9199 190.224 48.9485 190.05 48.9771L200.637 47.8895L197.64 46.4241L188.484 45.1132L163.638 44.9129L143.816 44.1057L95.5604 43.3845L92.11 43.6421C82.635 42.9151 70.4693 43.3329 60.2552 42.7548L60.0393 43.0238C57.1619 42.9895 57.357 42.8235 56.647 42.7605C47.7574 42.6174 38.7764 42.5087 29.8702 42.3999C25.415 42.3426 20.9805 42.2854 16.5835 42.2282C13.2244 42.1766 9.89444 42.1308 6.61013 42.085C6.61844 41.3065 6.63089 40.5338 6.6392 39.7667C6.66411 38.307 6.68902 36.8645 6.71393 35.4277C6.77622 32.5598 6.85926 29.7549 6.96721 27.0072C7.24956 25.4388 7.13745 20.6475 7.43225 19.4168C7.21219 16.7607 7.11254 14.0303 7.08762 11.294C7.07517 9.92593 7.07517 8.56355 7.08762 7.20689C7.09593 6.53143 7.10423 5.85596 7.11253 5.18049L7.11669 4.95152L7.12084 4.91145L7.12499 4.83131C7.12914 4.77979 7.1333 4.72255 7.13745 4.67103L7.18312 4.72255L7.1416 4.52792L7.46131 4.50502C7.50283 4.52792 7.52359 4.56227 7.51944 4.57944C7.57342 4.55082 7.65646 4.52792 7.75611 4.51647C7.74781 4.51647 7.80178 4.51647 7.835 4.51647H7.94711C8.02184 4.51647 8.09658 4.51647 8.17132 4.51647C8.3208 4.51647 8.47442 4.51647 8.62805 4.51647C8.93531 4.51647 9.25086 4.5222 9.57057 4.5222C10.8494 4.53365 12.2196 4.56799 13.6189 4.61951C16.4174 4.7111 19.3321 4.84848 21.8815 4.9458L21.5826 4.96869C51.3323 5.5583 78.9604 5.54685 108.461 6.46273C122.175 7.15537 138.14 6.82909 153.877 7.48738C156.771 7.80222 188.617 8.16858 191.432 8.09416Z" fill="#009167"/>
<path d="M197.714 31.0314V30.9456C197.544 30.9456 197.607 31.0715 197.714 31.0314Z" fill="#009167"/>
<path d="M172.56 4.23594C172.631 4.23594 172.701 4.24166 172.768 4.24166L171.987 4.06421L172.56 4.23594Z" fill="#009167"/>
<path d="M202.659 15.1006C202.726 13.8184 202.685 13.7612 202.614 13.9386C202.601 14.4023 202.609 14.8087 202.659 15.1006Z" fill="#009167"/>
<path d="M197.939 41.5125C197.918 42.188 198.022 41.9304 198.138 41.5354C198.125 40.8485 198.117 40.3677 198.117 40.3677C198.076 40.7512 197.984 41.1233 197.939 41.5125Z" fill="#009167"/>
<path d="M200.275 38.8051L200.412 39.0169C200.383 38.6219 200.329 38.6391 200.275 38.8051Z" fill="#009167"/>
<path d="M11.7176 10.9H14.9351C15.9015 10.9 16.6728 11.1687 17.2491 11.706C17.8255 12.239 18.1136 12.9475 18.1136 13.8315C18.1136 14.5118 17.9381 15.0925 17.5871 15.5735C17.2361 16.0502 16.7486 16.3817 16.1246 16.568L18.3281 20H16.3131L14.2721 16.763H13.5506V20H11.7176V10.9ZM14.7921 12.421H13.5506V15.2875H14.7921C15.2601 15.2875 15.622 15.1575 15.8776 14.8975C16.1376 14.6375 16.2676 14.2908 16.2676 13.8575C16.2676 13.4155 16.1376 13.0667 15.8776 12.811C15.622 12.551 15.2601 12.421 14.7921 12.421ZM20.7983 17.166C20.8763 17.634 21.093 18.0132 21.4483 18.3035C21.808 18.5895 22.2413 18.7325 22.7483 18.7325C23.4547 18.7325 24.0917 18.453 24.6593 17.894L25.7318 18.934C24.9822 19.7487 23.9898 20.156 22.7548 20.156C22.2088 20.156 21.6997 20.065 21.2273 19.883C20.755 19.701 20.3563 19.4518 20.0313 19.1355C19.7063 18.8192 19.4507 18.4465 19.2643 18.0175C19.0823 17.5842 18.9913 17.1227 18.9913 16.633C18.9913 16.1477 19.0845 15.6883 19.2708 15.255C19.4572 14.8217 19.7107 14.449 20.0313 14.137C20.3563 13.8207 20.7463 13.5715 21.2013 13.3895C21.6563 13.2032 22.1395 13.11 22.6508 13.11C23.3225 13.11 23.9292 13.2638 24.4708 13.5715C25.0125 13.8748 25.4328 14.2865 25.7318 14.8065C26.0308 15.3222 26.1803 15.892 26.1803 16.516C26.1803 16.7413 26.1543 16.958 26.1023 17.166H20.7983ZM22.6378 14.5335C22.2175 14.5335 21.8427 14.657 21.5133 14.904C21.1883 15.151 20.9652 15.4803 20.8438 15.892H24.3408C24.2412 15.4847 24.0397 15.1575 23.7363 14.9105C23.433 14.6592 23.0668 14.5335 22.6378 14.5335ZM32.52 17.504V15.762C32.364 15.437 32.1278 15.177 31.8115 14.982C31.4995 14.787 31.1506 14.6895 30.765 14.6895C30.2146 14.6895 29.7531 14.8758 29.3805 15.2485C29.0078 15.6212 28.8215 16.0827 28.8215 16.633C28.8215 17.1833 29.0078 17.6448 29.3805 18.0175C29.7531 18.3902 30.2146 18.5765 30.765 18.5765C31.1506 18.5765 31.4995 18.479 31.8115 18.284C32.1278 18.089 32.364 17.829 32.52 17.504ZM32.52 13.942V13.266H34.288V19.6035C34.288 20.6348 33.9738 21.4603 33.3455 22.08C32.7171 22.704 31.8375 23.016 30.7065 23.016C30.0695 23.016 29.4715 22.9012 28.9125 22.6715C28.3578 22.4462 27.8876 22.1298 27.502 21.7225L28.529 20.546C29.1573 21.1743 29.8571 21.4885 30.6285 21.4885C31.2048 21.4885 31.6641 21.3303 32.0065 21.014C32.3488 20.702 32.52 20.2708 32.52 19.7205V19.2785C31.9566 19.8332 31.246 20.1105 30.388 20.1105C29.7553 20.1105 29.1811 19.9545 28.6655 19.6425C28.1498 19.3305 27.7468 18.9102 27.4565 18.3815C27.1705 17.8485 27.0275 17.2657 27.0275 16.633C27.0275 15.996 27.1705 15.4088 27.4565 14.8715C27.7468 14.3342 28.1498 13.9073 28.6655 13.591C29.1811 13.2703 29.7553 13.11 30.388 13.11C31.2416 13.11 31.9523 13.3873 32.52 13.942ZM36.0459 20V13.266H37.8334V20H36.0459ZM35.7664 12.304L37.4629 10.081H39.2569L37.4694 12.304H35.7664ZM39.1447 19.038L40.0417 17.9265C40.2584 18.1735 40.514 18.3685 40.8087 18.5115C41.1077 18.6545 41.4219 18.726 41.7512 18.726C42.0589 18.726 42.2994 18.6653 42.4727 18.544C42.6504 18.4227 42.7392 18.2602 42.7392 18.0565C42.7392 17.8485 42.6525 17.6817 42.4792 17.556C42.3059 17.426 42.0069 17.3177 41.5822 17.231C40.1219 16.932 39.3917 16.2127 39.3917 15.073C39.3917 14.501 39.6149 14.0308 40.0612 13.6625C40.5119 13.2942 41.099 13.11 41.8227 13.11C42.2734 13.11 42.7067 13.1945 43.1227 13.3635C43.5387 13.5282 43.9027 13.7492 44.2147 14.0265L43.3567 15.1445C42.867 14.7415 42.4077 14.54 41.9787 14.54C41.7317 14.54 41.5302 14.592 41.3742 14.696C41.2182 14.7957 41.1402 14.93 41.1402 15.099C41.1402 15.489 41.4977 15.7577 42.2127 15.905C42.9884 16.061 43.5604 16.3188 43.9287 16.6785C44.3014 17.0382 44.4877 17.504 44.4877 18.076C44.4877 18.6827 44.2515 19.181 43.7792 19.571C43.3069 19.961 42.6764 20.156 41.8877 20.156C41.3287 20.156 40.8087 20.0585 40.3277 19.8635C39.8467 19.6642 39.4524 19.389 39.1447 19.038ZM47.8855 14.8195V17.6665C47.8855 17.9915 47.9635 18.2298 48.1195 18.3815C48.2798 18.5288 48.5441 18.6025 48.9125 18.6025C49.1421 18.6025 49.3545 18.5917 49.5495 18.57V20.065C49.2678 20.1257 48.958 20.156 48.62 20.156C46.9386 20.156 46.098 19.363 46.098 17.777V14.8195H45.0515V13.266H46.098V11.472L47.8855 11.316V13.266H49.4715V14.8195H47.8855ZM54.1132 14.6895C53.7925 14.6895 53.4957 14.787 53.2227 14.982C52.9497 15.177 52.7222 15.4435 52.5402 15.7815V20H50.7527V13.266H52.5402V14.0915C53.0299 13.4372 53.63 13.11 54.3407 13.11C54.5704 13.11 54.774 13.1577 54.9517 13.253L54.8282 14.8195C54.5769 14.7328 54.3385 14.6895 54.1132 14.6895ZM59.2025 18.5765C59.5881 18.5765 59.937 18.479 60.249 18.284C60.5653 18.089 60.8015 17.829 60.9575 17.504V15.762C60.8015 15.437 60.5653 15.177 60.249 14.982C59.937 14.787 59.5881 14.6895 59.2025 14.6895C58.6521 14.6895 58.1906 14.8758 57.818 15.2485C57.4453 15.6212 57.259 16.0827 57.259 16.633C57.259 17.1833 57.4453 17.6448 57.818 18.0175C58.1906 18.3902 58.6521 18.5765 59.2025 18.5765ZM58.8255 13.11C59.6791 13.11 60.3898 13.3873 60.9575 13.942V13.266H62.7255V20H60.9575V19.324C60.3898 19.8787 59.6791 20.156 58.8255 20.156C58.1928 20.156 57.6186 19.9978 57.103 19.6815C56.5873 19.3608 56.1843 18.9318 55.894 18.3945C55.608 17.8572 55.465 17.27 55.465 16.633C55.465 15.996 55.608 15.4088 55.894 14.8715C56.1843 14.3342 56.5873 13.9073 57.103 13.591C57.6186 13.2703 58.1928 13.11 58.8255 13.11ZM66.6364 14.8195V17.6665C66.6364 17.9915 66.7144 18.2298 66.8704 18.3815C67.0308 18.5288 67.2951 18.6025 67.6634 18.6025C67.8931 18.6025 68.1054 18.5917 68.3004 18.57V20.065C68.0188 20.1257 67.7089 20.156 67.3709 20.156C65.6896 20.156 64.8489 19.363 64.8489 17.777V14.8195H63.8024V13.266H64.8489V11.472L66.6364 11.316V13.266H68.2224V14.8195H66.6364ZM70.8687 17.166C70.9467 17.634 71.1633 18.0132 71.5187 18.3035C71.8783 18.5895 72.3117 18.7325 72.8187 18.7325C73.525 18.7325 74.162 18.453 74.7297 17.894L75.8022 18.934C75.0525 19.7487 74.0602 20.156 72.8252 20.156C72.2792 20.156 71.77 20.065 71.2977 19.883C70.8253 19.701 70.4267 19.4518 70.1017 19.1355C69.7767 18.8192 69.521 18.4465 69.3347 18.0175C69.1527 17.5842 69.0617 17.1227 69.0617 16.633C69.0617 16.1477 69.1548 15.6883 69.3412 15.255C69.5275 14.8217 69.781 14.449 70.1017 14.137C70.4267 13.8207 70.8167 13.5715 71.2717 13.3895C71.7267 13.2032 72.2098 13.11 72.7212 13.11C73.3928 13.11 73.9995 13.2638 74.5412 13.5715C75.0828 13.8748 75.5032 14.2865 75.8022 14.8065C76.1012 15.3222 76.2507 15.892 76.2507 16.516C76.2507 16.7413 76.2247 16.958 76.1727 17.166H70.8687ZM72.7082 14.5335C72.2878 14.5335 71.913 14.657 71.5837 14.904C71.2587 15.151 71.0355 15.4803 70.9142 15.892H74.4112C74.3115 15.4847 74.11 15.1575 73.8067 14.9105C73.5033 14.6592 73.1372 14.5335 72.7082 14.5335ZM83.8741 23.016H82.0086L83.1916 20L80.7216 13.266H82.5806L84.0756 17.738L85.5966 13.266H87.4556L83.8741 23.016ZM93.7329 17.166C93.8109 17.634 94.0276 18.0132 94.3829 18.3035C94.7426 18.5895 95.1759 18.7325 95.6829 18.7325C96.3893 18.7325 97.0263 18.453 97.5939 17.894L98.6664 18.934C97.9168 19.7487 96.9244 20.156 95.6894 20.156C95.1434 20.156 94.6343 20.065 94.1619 19.883C93.6896 19.701 93.2909 19.4518 92.9659 19.1355C92.6409 18.8192 92.3853 18.4465 92.1989 18.0175C92.0169 17.5842 91.9259 17.1227 91.9259 16.633C91.9259 16.1477 92.0191 15.6883 92.2054 15.255C92.3918 14.8217 92.6453 14.449 92.9659 14.137C93.2909 13.8207 93.6809 13.5715 94.1359 13.3895C94.5909 13.2032 95.0741 13.11 95.5854 13.11C96.2571 13.11 96.8638 13.2638 97.4054 13.5715C97.9471 13.8748 98.3674 14.2865 98.6664 14.8065C98.9654 15.3222 99.1149 15.892 99.1149 16.516C99.1149 16.7413 99.0889 16.958 99.0369 17.166H93.7329ZM95.5724 14.5335C95.1521 14.5335 94.7773 14.657 94.4479 14.904C94.1229 15.151 93.8998 15.4803 93.7784 15.892H97.2754C97.1758 15.4847 96.9743 15.1575 96.6709 14.9105C96.3676 14.6592 96.0014 14.5335 95.5724 14.5335ZM99.9426 19.038L100.84 17.9265C101.056 18.1735 101.312 18.3685 101.607 18.5115C101.906 18.6545 102.22 18.726 102.549 18.726C102.857 18.726 103.097 18.6653 103.271 18.544C103.448 18.4227 103.537 18.2602 103.537 18.0565C103.537 17.8485 103.45 17.6817 103.277 17.556C103.104 17.426 102.805 17.3177 102.38 17.231C100.92 16.932 100.19 16.2127 100.19 15.073C100.19 14.501 100.413 14.0308 100.859 13.6625C101.31 13.2942 101.897 13.11 102.621 13.11C103.071 13.11 103.505 13.1945 103.921 13.3635C104.337 13.5282 104.701 13.7492 105.013 14.0265L104.155 15.1445C103.665 14.7415 103.206 14.54 102.777 14.54C102.53 14.54 102.328 14.592 102.172 14.696C102.016 14.7957 101.938 14.93 101.938 15.099C101.938 15.489 102.296 15.7577 103.011 15.905C103.786 16.061 104.358 16.3188 104.727 16.6785C105.099 17.0382 105.286 17.504 105.286 18.076C105.286 18.6827 105.049 19.181 104.577 19.571C104.105 19.961 103.474 20.156 102.686 20.156C102.127 20.156 101.607 20.0585 101.126 19.8635C100.645 19.6642 100.25 19.389 99.9426 19.038ZM109.857 20.156C108.795 20.156 107.907 19.8158 107.192 19.1355C106.477 18.4552 106.119 17.621 106.119 16.633C106.119 15.645 106.477 14.8108 107.192 14.1305C107.907 13.4502 108.795 13.11 109.857 13.11C110.836 13.11 111.683 13.4112 112.398 14.0135L111.514 15.346C110.977 14.9083 110.429 14.6895 109.87 14.6895C109.319 14.6895 108.858 14.878 108.485 15.255C108.113 15.6277 107.926 16.087 107.926 16.633C107.926 17.1833 108.113 17.6448 108.485 18.0175C108.858 18.3902 109.319 18.5765 109.87 18.5765C110.459 18.5765 111.02 18.3403 111.553 17.868L112.548 19.116C111.833 19.8093 110.936 20.156 109.857 20.156ZM114.288 19.1355C113.573 18.4552 113.216 17.621 113.216 16.633C113.216 15.645 113.573 14.8108 114.288 14.1305C115.003 13.4502 115.892 13.11 116.953 13.11C117.655 13.11 118.292 13.266 118.864 13.578C119.436 13.89 119.883 14.3147 120.203 14.852C120.528 15.3893 120.691 15.983 120.691 16.633C120.691 17.283 120.528 17.8767 120.203 18.414C119.883 18.9513 119.436 19.376 118.864 19.688C118.292 20 117.655 20.156 116.953 20.156C115.892 20.156 115.003 19.8158 114.288 19.1355ZM115.01 16.633C115.01 17.1833 115.196 17.6448 115.569 18.0175C115.942 18.3902 116.403 18.5765 116.953 18.5765C117.504 18.5765 117.965 18.3902 118.338 18.0175C118.715 17.6448 118.903 17.1833 118.903 16.633C118.903 16.087 118.715 15.6277 118.338 15.255C117.965 14.878 117.504 14.6895 116.953 14.6895C116.403 14.6895 115.942 14.878 115.569 15.255C115.196 15.6277 115.01 16.087 115.01 16.633ZM127.024 17.504V15.762C126.868 15.437 126.632 15.177 126.315 14.982C126.003 14.787 125.655 14.6895 125.269 14.6895C124.719 14.6895 124.257 14.8758 123.884 15.2485C123.512 15.6212 123.325 16.0827 123.325 16.633C123.325 17.1833 123.512 17.6448 123.884 18.0175C124.257 18.3902 124.719 18.5765 125.269 18.5765C125.655 18.5765 126.003 18.479 126.315 18.284C126.632 18.089 126.868 17.829 127.024 17.504ZM127.024 13.942V13.266H128.792V19.6035C128.792 20.6348 128.478 21.4603 127.849 22.08C127.221 22.704 126.341 23.016 125.21 23.016C124.573 23.016 123.975 22.9012 123.416 22.6715C122.862 22.4462 122.392 22.1298 122.006 21.7225L123.033 20.546C123.661 21.1743 124.361 21.4885 125.132 21.4885C125.709 21.4885 126.168 21.3303 126.51 21.014C126.853 20.702 127.024 20.2708 127.024 19.7205V19.2785C126.461 19.8332 125.75 20.1105 124.892 20.1105C124.259 20.1105 123.685 19.9545 123.169 19.6425C122.654 19.3305 122.251 18.9102 121.96 18.3815C121.674 17.8485 121.531 17.2657 121.531 16.633C121.531 15.996 121.674 15.4088 121.96 14.8715C122.251 14.3342 122.654 13.9073 123.169 13.591C123.685 13.2703 124.259 13.11 124.892 13.11C125.746 13.11 126.456 13.3873 127.024 13.942ZM131.882 17.166C131.96 17.634 132.177 18.0132 132.532 18.3035C132.892 18.5895 133.325 18.7325 133.832 18.7325C134.539 18.7325 135.176 18.453 135.743 17.894L136.816 18.934C136.066 19.7487 135.074 20.156 133.839 20.156C133.293 20.156 132.784 20.065 132.311 19.883C131.839 19.701 131.44 19.4518 131.115 19.1355C130.79 18.8192 130.535 18.4465 130.348 18.0175C130.166 17.5842 130.075 17.1227 130.075 16.633C130.075 16.1477 130.168 15.6883 130.355 15.255C130.541 14.8217 130.795 14.449 131.115 14.137C131.44 13.8207 131.83 13.5715 132.285 13.3895C132.74 13.2032 133.223 13.11 133.735 13.11C134.406 13.11 135.013 13.2638 135.555 13.5715C136.096 13.8748 136.517 14.2865 136.816 14.8065C137.115 15.3222 137.264 15.892 137.264 16.516C137.264 16.7413 137.238 16.958 137.186 17.166H131.882ZM133.722 14.5335C133.301 14.5335 132.927 14.657 132.597 14.904C132.272 15.151 132.049 15.4803 131.928 15.892H135.425C135.325 15.4847 135.124 15.1575 134.82 14.9105C134.517 14.6592 134.151 14.5335 133.722 14.5335ZM144.725 14.8195V17.6665C144.725 17.9915 144.803 18.2298 144.959 18.3815C145.12 18.5288 145.384 18.6025 145.752 18.6025C145.982 18.6025 146.194 18.5917 146.389 18.57V20.065C146.108 20.1257 145.798 20.156 145.46 20.156C143.778 20.156 142.938 19.363 142.938 17.777V14.8195H141.891V13.266H142.938V11.472L144.725 11.316V13.266H146.311V14.8195H144.725ZM152.045 17.647V13.266H153.833V20H152.045V19.259C151.815 19.532 151.532 19.7508 151.194 19.9155C150.86 20.0758 150.513 20.156 150.154 20.156C149.361 20.156 148.713 19.9025 148.21 19.3955C147.712 18.8885 147.463 18.2277 147.463 17.413V13.266H149.25V17.2375C149.25 17.6188 149.371 17.9373 149.614 18.193C149.861 18.4487 150.186 18.5765 150.589 18.5765C150.862 18.5765 151.133 18.4855 151.402 18.3035C151.67 18.1215 151.885 17.9027 152.045 17.647ZM163.011 18.5765C163.561 18.5765 164.023 18.3902 164.396 18.0175C164.768 17.6448 164.955 17.1833 164.955 16.633C164.955 16.0827 164.768 15.6212 164.396 15.2485C164.023 14.8758 163.561 14.6895 163.011 14.6895C162.625 14.6895 162.274 14.787 161.958 14.982C161.646 15.177 161.412 15.437 161.256 15.762V17.504C161.412 17.829 161.646 18.089 161.958 18.284C162.274 18.479 162.625 18.5765 163.011 18.5765ZM163.388 13.11C164.021 13.11 164.595 13.2703 165.111 13.591C165.626 13.9073 166.027 14.3342 166.313 14.8715C166.603 15.4088 166.749 15.996 166.749 16.633C166.749 17.27 166.603 17.8572 166.313 18.3945C166.027 18.9318 165.626 19.3608 165.111 19.6815C164.595 19.9978 164.021 20.156 163.388 20.156C162.534 20.156 161.824 19.8787 161.256 19.324V23.016H159.488V13.266H161.256V13.942C161.824 13.3873 162.534 13.11 163.388 13.11ZM168.064 20V10.51H169.852V20H168.064ZM174.92 18.5765C175.306 18.5765 175.655 18.479 175.967 18.284C176.283 18.089 176.519 17.829 176.675 17.504V15.762C176.519 15.437 176.283 15.177 175.967 14.982C175.655 14.787 175.306 14.6895 174.92 14.6895C174.37 14.6895 173.908 14.8758 173.536 15.2485C173.163 15.6212 172.977 16.0827 172.977 16.633C172.977 17.1833 173.163 17.6448 173.536 18.0175C173.908 18.3902 174.37 18.5765 174.92 18.5765ZM174.543 13.11C175.397 13.11 176.108 13.3873 176.675 13.942V13.266H178.443V20H176.675V19.324C176.108 19.8787 175.397 20.156 174.543 20.156C173.911 20.156 173.336 19.9978 172.821 19.6815C172.305 19.3608 171.902 18.9318 171.612 18.3945C171.326 17.8572 171.183 17.27 171.183 16.633C171.183 15.996 171.326 15.4088 171.612 14.8715C171.902 14.3342 172.305 13.9073 172.821 13.591C173.336 13.2703 173.911 13.11 174.543 13.11ZM181.956 15.619V20H180.169V13.266H181.956V14.007C182.186 13.734 182.468 13.5173 182.801 13.357C183.139 13.1923 183.488 13.11 183.848 13.11C184.641 13.11 185.286 13.3635 185.785 13.8705C186.287 14.3775 186.539 15.0383 186.539 15.853V20H184.751V16.0285C184.751 15.6472 184.628 15.3287 184.381 15.073C184.138 14.8173 183.815 14.6895 183.412 14.6895C183.139 14.6895 182.868 14.7805 182.6 14.9625C182.331 15.1445 182.117 15.3633 181.956 15.619ZM21.0975 34.5765C21.4832 34.5765 21.832 34.479 22.144 34.284C22.4603 34.089 22.6965 33.829 22.8525 33.504V31.762C22.6965 31.437 22.4603 31.177 22.144 30.982C21.832 30.787 21.4832 30.6895 21.0975 30.6895C20.5472 30.6895 20.0857 30.8758 19.713 31.2485C19.3403 31.6212 19.154 32.0827 19.154 32.633C19.154 33.1833 19.3403 33.6448 19.713 34.0175C20.0857 34.3902 20.5472 34.5765 21.0975 34.5765ZM20.7205 29.11C21.5742 29.11 22.2848 29.3873 22.8525 29.942V26.51H24.6205V36H22.8525V35.324C22.2848 35.8787 21.5742 36.156 20.7205 36.156C20.0878 36.156 19.5137 35.9978 18.998 35.6815C18.4823 35.3608 18.0793 34.9318 17.789 34.3945C17.503 33.8572 17.36 33.27 17.36 32.633C17.36 31.996 17.503 31.4088 17.789 30.8715C18.0793 30.3342 18.4823 29.9073 18.998 29.591C19.5137 29.2703 20.0878 29.11 20.7205 29.11ZM27.7109 33.166C27.7889 33.634 28.0056 34.0132 28.3609 34.3035C28.7206 34.5895 29.1539 34.7325 29.6609 34.7325C30.3673 34.7325 31.0043 34.453 31.5719 33.894L32.6444 34.934C31.8948 35.7487 30.9024 36.156 29.6674 36.156C29.1214 36.156 28.6123 36.065 28.1399 35.883C27.6676 35.701 27.2689 35.4518 26.9439 35.1355C26.6189 34.8192 26.3633 34.4465 26.1769 34.0175C25.9949 33.5842 25.9039 33.1227 25.9039 32.633C25.9039 32.1477 25.9971 31.6883 26.1834 31.255C26.3698 30.8217 26.6233 30.449 26.9439 30.137C27.2689 29.8207 27.6589 29.5715 28.1139 29.3895C28.5689 29.2032 29.0521 29.11 29.5634 29.11C30.2351 29.11 30.8418 29.2638 31.3834 29.5715C31.9251 29.8748 32.3454 30.2865 32.6444 30.8065C32.9434 31.3222 33.0929 31.892 33.0929 32.516C33.0929 32.7413 33.0669 32.958 33.0149 33.166H27.7109ZM29.5504 30.5335C29.1301 30.5335 28.7553 30.657 28.4259 30.904C28.1009 31.151 27.8778 31.4803 27.7564 31.892H31.2534C31.1538 31.4847 30.9523 31.1575 30.6489 30.9105C30.3456 30.6592 29.9794 30.5335 29.5504 30.5335ZM41.6004 34.5765C41.9861 34.5765 42.3349 34.479 42.6469 34.284C42.9633 34.089 43.1994 33.829 43.3554 33.504V31.762C43.1994 31.437 42.9633 31.177 42.6469 30.982C42.3349 30.787 41.9861 30.6895 41.6004 30.6895C41.0501 30.6895 40.5886 30.8758 40.2159 31.2485C39.8433 31.6212 39.6569 32.0827 39.6569 32.633C39.6569 33.1833 39.8433 33.6448 40.2159 34.0175C40.5886 34.3902 41.0501 34.5765 41.6004 34.5765ZM41.2234 29.11C42.0771 29.11 42.7878 29.3873 43.3554 29.942V29.266H45.1234V36H43.3554V35.324C42.7878 35.8787 42.0771 36.156 41.2234 36.156C40.5908 36.156 40.0166 35.9978 39.5009 35.6815C38.9853 35.3608 38.5823 34.9318 38.2919 34.3945C38.0059 33.8572 37.8629 33.27 37.8629 32.633C37.8629 31.996 38.0059 31.4088 38.2919 30.8715C38.5823 30.3342 38.9853 29.9073 39.5009 29.591C40.0166 29.2703 40.5908 29.11 41.2234 29.11ZM46.8814 36V26.51H48.6689V36H46.8814ZM50.4741 36V29.266H52.2616V36H50.4741ZM50.6171 28.2065C50.4135 28.0072 50.3116 27.7623 50.3116 27.472C50.3116 27.1817 50.4135 26.9368 50.6171 26.7375C50.8208 26.5382 51.0721 26.4385 51.3711 26.4385C51.6701 26.4385 51.9215 26.5382 52.1251 26.7375C52.3288 26.9368 52.4306 27.1817 52.4306 27.472C52.4306 27.7623 52.3288 28.0072 52.1251 28.2065C51.9215 28.4058 51.6701 28.5055 51.3711 28.5055C51.0721 28.5055 50.8208 28.4058 50.6171 28.2065ZM54.0344 29.266H55.8219V30.007C56.0386 29.7383 56.3051 29.5238 56.6214 29.3635C56.9378 29.2032 57.2758 29.123 57.6354 29.123C58.1078 29.123 58.5324 29.2248 58.9094 29.4285C59.2908 29.6322 59.5963 29.916 59.8259 30.28C60.0686 29.929 60.3893 29.6473 60.7879 29.435C61.1866 29.2183 61.6069 29.11 62.0489 29.11C62.8246 29.11 63.4551 29.3657 63.9404 29.877C64.4301 30.384 64.6749 31.0362 64.6749 31.8335V36H62.8874V32.0155C62.8874 31.6385 62.7748 31.3243 62.5494 31.073C62.3284 30.8173 62.0338 30.6895 61.6654 30.6895C61.3924 30.6895 61.1303 30.7805 60.8789 30.9625C60.6276 31.1402 60.4131 31.372 60.2354 31.658C60.2441 31.8487 60.2484 31.996 60.2484 32.1V36H58.4609V32.0155C58.4609 31.6298 58.3483 31.3135 58.1229 31.0665C57.8976 30.8152 57.6029 30.6895 57.2389 30.6895C56.9659 30.6895 56.7038 30.7783 56.4524 30.956C56.2054 31.1337 55.9953 31.3612 55.8219 31.6385V36H54.0344V29.266ZM67.6377 33.166C67.7157 33.634 67.9324 34.0132 68.2877 34.3035C68.6474 34.5895 69.0807 34.7325 69.5877 34.7325C70.294 34.7325 70.931 34.453 71.4987 33.894L72.5712 34.934C71.8215 35.7487 70.8292 36.156 69.5942 36.156C69.0482 36.156 68.539 36.065 68.0667 35.883C67.5944 35.701 67.1957 35.4518 66.8707 35.1355C66.5457 34.8192 66.29 34.4465 66.1037 34.0175C65.9217 33.5842 65.8307 33.1227 65.8307 32.633C65.8307 32.1477 65.9239 31.6883 66.1102 31.255C66.2965 30.8217 66.55 30.449 66.8707 30.137C67.1957 29.8207 67.5857 29.5715 68.0407 29.3895C68.4957 29.2032 68.9789 29.11 69.4902 29.11C70.1619 29.11 70.7685 29.2638 71.3102 29.5715C71.8519 29.8748 72.2722 30.2865 72.5712 30.8065C72.8702 31.3222 73.0197 31.892 73.0197 32.516C73.0197 32.7413 72.9937 32.958 72.9417 33.166H67.6377ZM69.4772 30.5335C69.0569 30.5335 68.682 30.657 68.3527 30.904C68.0277 31.151 67.8045 31.4803 67.6832 31.892H71.1802C71.0805 31.4847 70.879 31.1575 70.5757 30.9105C70.2724 30.6592 69.9062 30.5335 69.4772 30.5335ZM76.0963 31.619V36H74.3088V29.266H76.0963V30.007C76.326 29.734 76.6077 29.5173 76.9413 29.357C77.2793 29.1923 77.6282 29.11 77.9878 29.11C78.7808 29.11 79.4265 29.3635 79.9248 29.8705C80.4275 30.3775 80.6788 31.0383 80.6788 31.853V36H78.8913V32.0285C78.8913 31.6472 78.7678 31.3287 78.5208 31.073C78.2782 30.8173 77.9553 30.6895 77.5523 30.6895C77.2793 30.6895 77.0085 30.7805 76.7398 30.9625C76.4712 31.1445 76.2567 31.3633 76.0963 31.619ZM84.4035 30.8195V33.6665C84.4035 33.9915 84.4815 34.2298 84.6375 34.3815C84.7979 34.5288 85.0622 34.6025 85.4305 34.6025C85.6602 34.6025 85.8725 34.5917 86.0675 34.57V36.065C85.7859 36.1257 85.476 36.156 85.138 36.156C83.4567 36.156 82.616 35.363 82.616 33.777V30.8195H81.5695V29.266H82.616V27.472L84.4035 27.316V29.266H85.9895V30.8195H84.4035ZM90.5663 34.5765C90.9519 34.5765 91.3008 34.479 91.6128 34.284C91.9291 34.089 92.1653 33.829 92.3213 33.504V31.762C92.1653 31.437 91.9291 31.177 91.6128 30.982C91.3008 30.787 90.9519 30.6895 90.5663 30.6895C90.0159 30.6895 89.5544 30.8758 89.1818 31.2485C88.8091 31.6212 88.6228 32.0827 88.6228 32.633C88.6228 33.1833 88.8091 33.6448 89.1818 34.0175C89.5544 34.3902 90.0159 34.5765 90.5663 34.5765ZM90.1893 29.11C91.0429 29.11 91.7536 29.3873 92.3213 29.942V29.266H94.0893V36H92.3213V35.324C91.7536 35.8787 91.0429 36.156 90.1893 36.156C89.5566 36.156 88.9824 35.9978 88.4668 35.6815C87.9511 35.3608 87.5481 34.9318 87.2578 34.3945C86.9718 33.8572 86.8288 33.27 86.8288 32.633C86.8288 31.996 86.9718 31.4088 87.2578 30.8715C87.5481 30.3342 87.9511 29.9073 88.4668 29.591C88.9824 29.2703 89.5566 29.11 90.1893 29.11ZM99.1102 36.156C98.0485 36.156 97.1602 35.8158 96.4452 35.1355C95.7302 34.4552 95.3727 33.621 95.3727 32.633C95.3727 31.645 95.7302 30.8108 96.4452 30.1305C97.1602 29.4502 98.0485 29.11 99.1102 29.11C100.09 29.11 100.937 29.4112 101.652 30.0135L100.768 31.346C100.23 30.9083 99.6822 30.6895 99.1232 30.6895C98.5729 30.6895 98.1114 30.878 97.7387 31.255C97.366 31.6277 97.1797 32.087 97.1797 32.633C97.1797 33.1833 97.366 33.6448 97.7387 34.0175C98.1114 34.3902 98.5729 34.5765 99.1232 34.5765C99.7125 34.5765 100.274 34.3403 100.807 33.868L101.801 35.116C101.086 35.8093 100.189 36.156 99.1102 36.156ZM103.071 36V29.266H104.858V36H103.071ZM103.214 28.2065C103.01 28.0072 102.908 27.7623 102.908 27.472C102.908 27.1817 103.01 26.9368 103.214 26.7375C103.417 26.5382 103.669 26.4385 103.968 26.4385C104.267 26.4385 104.518 26.5382 104.722 26.7375C104.925 26.9368 105.027 27.1817 105.027 27.472C105.027 27.7623 104.925 28.0072 104.722 28.2065C104.518 28.4058 104.267 28.5055 103.968 28.5055C103.669 28.5055 103.417 28.4058 103.214 28.2065ZM107.262 35.1355C106.547 34.4552 106.189 33.621 106.189 32.633C106.189 31.645 106.547 30.8108 107.262 30.1305C107.977 29.4502 108.865 29.11 109.927 29.11C110.629 29.11 111.266 29.266 111.838 29.578C112.41 29.89 112.856 30.3147 113.177 30.852C113.502 31.3893 113.664 31.983 113.664 32.633C113.664 33.283 113.502 33.8767 113.177 34.414C112.856 34.9513 112.41 35.376 111.838 35.688C111.266 36 110.629 36.156 109.927 36.156C108.865 36.156 107.977 35.8158 107.262 35.1355ZM107.983 32.633C107.983 33.1833 108.169 33.6448 108.542 34.0175C108.915 34.3902 109.376 34.5765 109.927 34.5765C110.477 34.5765 110.938 34.3902 111.311 34.0175C111.688 33.6448 111.877 33.1833 111.877 32.633C111.877 32.087 111.688 31.6277 111.311 31.255C110.938 30.878 110.477 30.6895 109.927 30.6895C109.376 30.6895 108.915 30.878 108.542 31.255C108.169 31.6277 107.983 32.087 107.983 32.633ZM108.776 28.304L110.473 26.081H112.267L110.479 28.304H108.776ZM116.734 31.619V36H114.947V29.266H116.734V30.007C116.964 29.734 117.245 29.5173 117.579 29.357C117.917 29.1923 118.266 29.11 118.626 29.11C119.419 29.11 120.064 29.3635 120.563 29.8705C121.065 30.3775 121.317 31.0383 121.317 31.853V36H119.529V32.0285C119.529 31.6472 119.406 31.3287 119.159 31.073C118.916 30.8173 118.593 30.6895 118.19 30.6895C117.917 30.6895 117.646 30.7805 117.378 30.9625C117.109 31.1445 116.894 31.3633 116.734 31.619ZM126.381 35.038L127.278 33.9265C127.494 34.1735 127.75 34.3685 128.045 34.5115C128.344 34.6545 128.658 34.726 128.987 34.726C129.295 34.726 129.535 34.6653 129.709 34.544C129.886 34.4227 129.975 34.2602 129.975 34.0565C129.975 33.8485 129.888 33.6817 129.715 33.556C129.542 33.426 129.243 33.3177 128.818 33.231C127.358 32.932 126.628 32.2127 126.628 31.073C126.628 30.501 126.851 30.0308 127.297 29.6625C127.748 29.2942 128.335 29.11 129.059 29.11C129.509 29.11 129.943 29.1945 130.359 29.3635C130.775 29.5282 131.139 29.7492 131.451 30.0265L130.593 31.1445C130.103 30.7415 129.644 30.54 129.215 30.54C128.968 30.54 128.766 30.592 128.61 30.696C128.454 30.7957 128.376 30.93 128.376 31.099C128.376 31.489 128.734 31.7577 129.449 31.905C130.224 32.061 130.796 32.3188 131.165 32.6785C131.537 33.0382 131.724 33.504 131.724 34.076C131.724 34.6827 131.487 35.181 131.015 35.571C130.543 35.961 129.912 36.156 129.124 36.156C128.565 36.156 128.045 36.0585 127.564 35.8635C127.083 35.6642 126.688 35.389 126.381 35.038ZM134.364 33.166C134.442 33.634 134.659 34.0132 135.014 34.3035C135.374 34.5895 135.807 34.7325 136.314 34.7325C137.021 34.7325 137.658 34.453 138.225 33.894L139.298 34.934C138.548 35.7487 137.556 36.156 136.321 36.156C135.775 36.156 135.266 36.065 134.793 35.883C134.321 35.701 133.922 35.4518 133.597 35.1355C133.272 34.8192 133.017 34.4465 132.83 34.0175C132.648 33.5842 132.557 33.1227 132.557 32.633C132.557 32.1477 132.65 31.6883 132.837 31.255C133.023 30.8217 133.277 30.449 133.597 30.137C133.922 29.8207 134.312 29.5715 134.767 29.3895C135.222 29.2032 135.705 29.11 136.217 29.11C136.888 29.11 137.495 29.2638 138.037 29.5715C138.578 29.8748 138.999 30.2865 139.298 30.8065C139.597 31.3222 139.746 31.892 139.746 32.516C139.746 32.7413 139.72 32.958 139.668 33.166H134.364ZM136.204 30.5335C135.783 30.5335 135.409 30.657 135.079 30.904C134.754 31.151 134.531 31.4803 134.41 31.892H137.907C137.807 31.4847 137.606 31.1575 137.302 30.9105C136.999 30.6592 136.633 30.5335 136.204 30.5335ZM141.035 29.266H142.823V30.007C143.04 29.7383 143.306 29.5238 143.622 29.3635C143.939 29.2032 144.277 29.123 144.636 29.123C145.109 29.123 145.533 29.2248 145.91 29.4285C146.292 29.6322 146.597 29.916 146.827 30.28C147.07 29.929 147.39 29.6473 147.789 29.435C148.188 29.2183 148.608 29.11 149.05 29.11C149.826 29.11 150.456 29.3657 150.941 29.877C151.431 30.384 151.676 31.0362 151.676 31.8335V36H149.888V32.0155C149.888 31.6385 149.776 31.3243 149.55 31.073C149.329 30.8173 149.035 30.6895 148.666 30.6895C148.393 30.6895 148.131 30.7805 147.88 30.9625C147.629 31.1402 147.414 31.372 147.236 31.658C147.245 31.8487 147.249 31.996 147.249 32.1V36H145.462V32.0155C145.462 31.6298 145.349 31.3135 145.124 31.0665C144.899 30.8152 144.604 30.6895 144.24 30.6895C143.967 30.6895 143.705 30.7783 143.453 30.956C143.206 31.1337 142.996 31.3612 142.823 31.6385V36H141.035V29.266ZM156.569 34.5765C156.955 34.5765 157.304 34.479 157.616 34.284C157.932 34.089 158.168 33.829 158.324 33.504V31.762C158.168 31.437 157.932 31.177 157.616 30.982C157.304 30.787 156.955 30.6895 156.569 30.6895C156.019 30.6895 155.557 30.8758 155.185 31.2485C154.812 31.6212 154.626 32.0827 154.626 32.633C154.626 33.1833 154.812 33.6448 155.185 34.0175C155.557 34.3902 156.019 34.5765 156.569 34.5765ZM156.192 29.11C157.046 29.11 157.757 29.3873 158.324 29.942V29.266H160.092V36H158.324V35.324C157.757 35.8787 157.046 36.156 156.192 36.156C155.56 36.156 154.985 35.9978 154.47 35.6815C153.954 35.3608 153.551 34.9318 153.261 34.3945C152.975 33.8572 152.832 33.27 152.832 32.633C152.832 31.996 152.975 31.4088 153.261 30.8715C153.551 30.3342 153.954 29.9073 154.47 29.591C154.985 29.2703 155.56 29.11 156.192 29.11ZM163.605 31.619V36H161.818V29.266H163.605V30.007C163.835 29.734 164.116 29.5173 164.45 29.357C164.788 29.1923 165.137 29.11 165.497 29.11C166.29 29.11 166.935 29.3635 167.434 29.8705C167.936 30.3775 168.188 31.0383 168.188 31.853V36H166.4V32.0285C166.4 31.6472 166.277 31.3287 166.03 31.073C165.787 30.8173 165.464 30.6895 165.061 30.6895C164.788 30.6895 164.517 30.7805 164.249 30.9625C163.98 31.1445 163.765 31.3633 163.605 31.619ZM173.086 34.5765C173.471 34.5765 173.82 34.479 174.132 34.284C174.449 34.089 174.685 33.829 174.841 33.504V31.762C174.685 31.437 174.449 31.177 174.132 30.982C173.82 30.787 173.471 30.6895 173.086 30.6895C172.535 30.6895 172.074 30.8758 171.701 31.2485C171.329 31.6212 171.142 32.0827 171.142 32.633C171.142 33.1833 171.329 33.6448 171.701 34.0175C172.074 34.3902 172.535 34.5765 173.086 34.5765ZM172.709 29.11C173.562 29.11 174.273 29.3873 174.841 29.942V29.266H176.609V36H174.841V35.324C174.273 35.8787 173.562 36.156 172.709 36.156C172.076 36.156 171.502 35.9978 170.986 35.6815C170.471 35.3608 170.068 34.9318 169.777 34.3945C169.491 33.8572 169.348 33.27 169.348 32.633C169.348 31.996 169.491 31.4088 169.777 30.8715C170.068 30.3342 170.471 29.9073 170.986 29.591C171.502 29.2703 172.076 29.11 172.709 29.11ZM178.367 36V26.51H180.154V36H178.367Z" fill="#F9F2E1"/>
</svg>
