<svg width="203" height="49" viewBox="0 0 203 49" fill="none" xmlns="http://www.w3.org/2000/svg">
<path d="M3.89289 2.25593L3.49512 44.1135L200.625 47.6741L201.023 5.81652L3.89289 2.25593Z" fill="#009167"/>
<path d="M49.1104 46.9507C49.3304 46.9664 49.4384 46.9507 49.1104 46.9507V46.9507Z" fill="#009167"/>
<path d="M66.3921 0.961737C66.4585 0.961737 66.4917 0.961737 66.5582 0.961737C66.6786 0.910218 66.7907 0.864424 66.9028 0.830078L66.3921 0.961737Z" fill="#009167"/>
<path d="M93.7178 1.80313C93.78 1.80885 93.8257 1.81458 93.8838 1.8203C93.8713 1.78595 93.9045 1.75161 93.7178 1.80313Z" fill="#009167"/>
<path d="M1.09595 0.875732C1.08748 1.1505 1.10442 1.31078 1.12982 1.43671C1.11289 1.27071 1.10019 1.09898 1.09595 0.875732Z" fill="#009167"/>
<path d="M99.1937 47.5632C99.1937 47.5632 99.1231 47.5632 99.0732 47.5632C99.1687 47.5747 99.2684 47.5861 99.3681 47.6033L99.1937 47.5632Z" fill="#009167"/>
<path d="M98.641 47.649C98.039 47.5975 98.8071 47.5746 99.0728 47.5689C98.4085 47.483 97.74 47.4658 97.0674 47.4887C97.0715 47.5689 98.3462 47.5803 98.641 47.649Z" fill="#009167"/>
<path d="M190.041 48.9714L189.767 49.0001C189.879 48.9943 189.962 48.9829 190.041 48.9714Z" fill="#009167"/>
<path d="M7.5248 4.57935C7.51209 4.58492 7.4909 4.59048 7.48242 4.59605C7.51209 4.60162 7.52057 4.59049 7.5248 4.57935Z" fill="#009167"/>
<path d="M175.7 48.6279L175.542 48.7596C175.683 48.7081 175.712 48.668 175.7 48.6279Z" fill="#009167"/>
<path d="M66.9033 0.835698L67.1025 0.78418C67.0319 0.795628 66.9697 0.812801 66.9033 0.835698Z" fill="#009167"/>
<path d="M118.966 2.34692C118.974 2.38699 119.032 2.42134 119.099 2.44996C119.132 2.44996 119.153 2.44996 119.169 2.44996L118.966 2.34692Z" fill="#009167"/>
<path d="M200.512 36.4294C200.537 36.4237 200.562 36.4065 200.591 36.3836L200.454 36.0344C200.462 36.2176 200.483 36.3435 200.512 36.4294Z" fill="#009167"/>
<path d="M153.594 3.55479C153.623 3.53761 153.706 3.52616 153.714 3.50899C153.125 3.45175 151.559 3.4174 149.562 3.38306L149.438 3.54334L153.594 3.55479Z" fill="#009167"/>
<path d="M191.432 8.09416L187.745 7.69346C190.44 7.70491 192.811 7.73925 194.978 7.78505C195.522 7.7965 196.049 7.80794 196.568 7.81939C196.697 7.82512 196.826 7.82512 196.955 7.83084L197.125 7.83657H197.166C197.22 7.83657 197.27 7.84229 197.324 7.84229C197.523 7.85374 197.714 7.86519 197.901 7.87091C197.889 8.02547 197.876 8.18002 197.864 8.33458L197.86 8.39182L197.856 8.62652C197.851 8.81542 197.851 9.00432 197.847 9.19895C197.843 9.58248 197.839 9.96601 197.839 10.3553C197.831 11.9123 197.86 13.5551 197.947 15.4327L197.843 15.0492C197.719 16.0452 198.815 16.6291 197.366 27.6598H197.316C197.32 28.0433 197.42 28.0433 197.283 28.8047L197.602 26.8985C197.714 28.0433 197.939 29.0508 197.959 30.5735C197.901 30.894 197.802 31.0085 197.723 31.0372L197.768 34.7808L197.44 35.92C197.602 37.0648 198.275 36.5554 197.872 39.6121C198.345 38.4673 198.138 41.1348 198.375 40.7627C198.316 40.9173 198.225 41.2665 198.146 41.547C198.184 43.3673 198.279 46.7961 198.512 47.6491C198.512 47.6491 199.558 40.5452 200.073 38.6447C199.923 41.2035 200.123 39.3202 200.285 38.8165L200.172 38.6447C200.301 37.1106 200.592 37.1164 200.683 36.3493C200.658 36.3493 200.629 36.3722 200.6 36.3951L200.637 36.4924C200.583 36.5611 200.55 36.521 200.521 36.4409C200.459 36.4581 200.409 36.3894 200.43 35.9715L200.459 36.0516C200.422 35.4105 200.48 34.3057 200.505 33.8249L200.75 33.8192C200.293 32.6743 201.534 26.1887 201.563 24.6603C201.887 23.1319 201.518 21.22 201.692 19.3081C201.8 16.257 202.066 17.7854 202.29 16.257C202.46 14.3451 201.999 16.6405 201.991 15.8735L202.352 13.5838C202.369 14.9175 202.523 14.1963 202.622 13.9558C202.651 12.9655 202.788 11.689 202.855 10.5842C202.888 10.0347 202.905 9.51951 202.884 9.11308C202.871 8.90701 202.851 8.72956 202.817 8.58073C202.801 8.51776 202.78 8.409 202.759 8.32886C202.738 8.24872 202.709 8.18002 202.68 8.12851C202.805 6.34825 202.917 5.3007 203 4.55082C201.858 4.47068 201.24 4.41343 199.844 4.37909C200.264 4.41916 200.887 4.45923 201.389 4.49358C201.891 4.53365 202.273 4.56799 202.236 4.60234C201.7 4.55654 201.347 4.53365 201.148 4.52792C200.949 4.5222 200.903 4.52792 200.953 4.54509C201.057 4.57944 201.543 4.64241 201.987 4.6653C201.065 4.68248 199.554 4.63668 197.669 4.55654C197.552 4.55082 197.432 4.54509 197.312 4.53937C197.254 4.53937 197.195 4.53365 197.137 4.53365L197.013 4.52792C196.847 4.51647 196.672 4.51075 196.502 4.4993C196.157 4.4764 195.8 4.45923 195.443 4.43633C194.725 4.39054 193.986 4.34474 193.263 4.30467C190.373 4.12722 187.72 3.98411 187.467 4.16157V4.09287C186.902 4.35047 187.803 4.63096 186.113 4.75117L184.992 4.60806L183.298 4.69393C182.165 4.58516 182.721 4.5222 182.725 4.48785C179.968 4.56227 176.119 4.34474 172.781 4.24743L176.31 5.04883C173.495 4.82558 168.413 4.39054 167.848 4.61951L166.158 4.33902C160.512 3.76086 162.214 4.47068 159.959 4.2875L157.124 3.96694L159.947 4.02418C157.124 3.83528 155.994 3.72652 153.748 3.509L153.723 3.51472C153.877 3.52617 153.976 3.54334 153.997 3.56051H153.603C153.258 3.68645 151.784 3.75514 149.795 3.70935C146.972 3.61776 144.759 3.77804 140.249 3.41168L139.12 3.66928L135.732 3.43458L135.736 3.21706C139.054 3.29147 145.298 3.32009 149.563 3.38306L149.637 3.28575C147.109 3.23995 144.231 3.28575 142.558 3.23423C141.744 3.17699 139.66 2.90794 141.175 2.78773L139.61 2.97664C131.169 2.8507 131.115 2.85643 122.308 2.45L123.072 2.57593C121.324 2.61028 119.58 2.6389 119.099 2.45572C113.809 2.32407 108.332 2.08365 104.898 1.74591L104.143 1.99206C103.026 1.95771 101.357 1.53411 100.809 1.88902L98.4212 1.95771C96.8932 1.91192 95.959 2.04358 94.2193 1.8604C94.2151 1.8604 94.211 1.8604 94.211 1.8604C94.103 1.84895 93.9909 1.8375 93.883 1.82605C93.883 1.83178 93.8913 1.84322 93.9037 1.84895C90.4492 1.6715 93.937 2.08365 89.98 1.8604C88.7136 1.65432 88.5724 2.16379 86.6459 2.0722L84.7152 1.66577C81.2233 1.391 80.6212 1.75164 75.5598 1.66005C73.1308 1.48259 71.9599 1.14486 73.5709 0.892991C71.3537 1.19065 72.562 1.09907 69.6223 1.20783C69.1697 1.059 69.4853 1.0361 70.133 0.921612C67.5255 0.709813 68.522 1.01893 66.5581 0.973131C65.9851 1.225 65.3207 1.63715 64.6813 1.63715L65.4411 1.73446C63.3568 1.8375 61.0814 1.8604 58.6649 1.68867L58.7563 1.55701L56.1778 1.57991L56.0159 1.40818L52.3371 1.39673L52.8395 1.45397C51.9759 1.4597 49.14 1.46542 47.5166 1.35093L47.5747 1.25935C43.0032 0.881542 39.2248 1.2021 33.8686 1.13341L34.5745 0.955958C32.7517 0.73271 34.0721 1.24217 31.8964 1.11051L31.7884 0.870094C29.8702 1.14486 29.3138 0.761332 27.9934 0.618224L28.6079 0.938785L26.125 0.830023C23.3887 0.675467 24.4475 0.406425 24.8503 0.251869L22.986 0.463668L22.6248 0.183178C21.2587 0.475117 21.2629 0.108762 18.8754 0.234696C18.6927 0.108762 19.2948 0.057243 18.4851 0L14.5448 0.314836L16.9198 0.188902L16.6291 0.583879C14.1545 0.841472 13.2825 0.480841 11.5138 0.560981L12.7303 0.463668C9.84876 0.509463 9.69514 0.337734 8.07167 0.217523C8.57407 0.303388 9.34636 0.423598 8.17962 0.457944C8.07167 0.457944 7.98448 0.457944 7.91389 0.45222C7.87652 0.45222 7.8433 0.446495 7.81424 0.446495C7.76441 0.440771 7.72289 0.440771 7.68137 0.435047C7.51529 0.417874 7.41564 0.400701 7.32014 0.372079C7.12499 0.326285 6.934 0.269042 6.20323 0.234696C6.09942 0.337734 5.48076 0.41215 4.60882 0.457944C3.73273 0.49229 2.59921 0.503738 1.34943 0.469393C1.34113 0.887266 1.31206 1.31086 1.27054 1.72301C1.21656 1.6715 1.16259 1.59708 1.12937 1.4368C1.15843 1.72874 1.1958 1.95771 1.21656 2.22675C1.23732 2.49579 1.23317 2.79918 1.18335 3.26285C1.03802 3.0396 0.896852 2.79918 0.751529 2.54731C0.884396 3.24568 1.01726 3.9097 1.15013 4.53365C1.14183 4.61379 1.13352 4.69393 1.12937 4.77407C1.12522 4.83131 1.12107 4.88855 1.11691 4.9458C1.11276 5.04311 1.11276 5.14614 1.11691 5.24346C1.12522 5.44381 1.14183 5.63843 1.15428 5.81016C1.17919 6.15362 1.18335 6.39404 1.03387 6.34252L0.950829 5.93037L0.79305 11.4085L0.444274 11.4772C0.917613 12.0268 0.232517 14.4596 0.834571 14.2879C0.498251 15.3182 1.02557 18.3693 0.35708 17.7453C0.269886 21.3459 0.901004 23.3036 0.531468 27.6713C-0.0581293 29.2225 0.087194 33.4986 0 36.3092C0.0539772 37.7689 0.0996502 39.0912 0.149475 40.3563C0.161932 40.6711 0.174388 40.986 0.186844 41.2951C0.195148 41.8332 0.207605 42.3655 0.215909 42.8979C0.232517 44.0084 0.253278 45.1132 0.269886 46.2294C1.69821 46.2409 3.13898 46.2466 4.60467 46.2581C5.32714 46.2638 6.0579 46.2695 6.79698 46.2752C6.97967 46.2752 7.16651 46.2752 7.34921 46.281C7.45301 46.281 7.56096 46.281 7.66892 46.281C7.87652 46.281 8.08413 46.281 8.29588 46.281C9.97333 46.281 11.7504 46.2867 13.6936 46.2867C18.672 46.9221 26.125 46.3268 31.4853 46.7275L32.9552 46.5386C36.5177 46.945 41.9611 46.6244 46.9602 47.048C48.185 46.9736 48.8286 46.9564 49.1151 46.9564C48.8867 46.9393 48.5421 46.8935 48.4383 46.7561C49.8666 46.8763 52.7565 46.8076 52.5489 47.0824L52.1877 47.1053C51.9759 47.3743 56.5224 47.0537 58.1127 47.3228L57.2408 47.0137L59.9438 47.111L59.2172 47.1568C70.9717 46.7217 76.2739 47.7464 87.3144 47.3514C85.8487 47.6433 89.4901 47.2255 89.6312 47.5747C92.409 48.0669 94.7881 47.5747 97.0718 47.4945C97.0718 47.4773 97.1009 47.4602 97.2296 47.4315L101.216 47.546C98.8281 47.9467 104.093 47.2312 101.901 47.5689C112.298 48.0898 125.871 47.9983 137.908 48.3646L137.38 48.2387C140.432 48.3131 144.231 48.2444 146.548 48.4676C148.865 48.6909 151.618 48.273 152.519 48.2673C155.06 48.1185 157.364 48.5478 156.276 48.5077C158.992 48.502 161.55 48.1471 165.316 48.3875C166.599 48.7825 175.596 48.2043 175.708 48.6279L175.75 48.5936C180.57 48.9771 185.129 48.5535 190.324 48.9199C190.324 48.9199 190.224 48.9485 190.05 48.9771L200.637 47.8895L197.64 46.4241L188.484 45.1132L163.638 44.9129L143.816 44.1057L95.5604 43.3845L92.11 43.6421C82.635 42.9151 70.4693 43.3329 60.2552 42.7548L60.0393 43.0238C57.1619 42.9895 57.357 42.8235 56.647 42.7605C47.7574 42.6174 38.7764 42.5087 29.8702 42.3999C25.415 42.3426 20.9805 42.2854 16.5835 42.2282C13.2244 42.1766 9.89444 42.1308 6.61013 42.085C6.61844 41.3065 6.63089 40.5338 6.6392 39.7667C6.66411 38.307 6.68902 36.8645 6.71393 35.4277C6.77622 32.5598 6.85926 29.7549 6.96721 27.0072C7.24956 25.4388 7.13745 20.6475 7.43225 19.4168C7.21219 16.7607 7.11254 14.0303 7.08762 11.294C7.07517 9.92593 7.07517 8.56355 7.08762 7.20689C7.09593 6.53143 7.10423 5.85596 7.11253 5.18049L7.11669 4.95152L7.12084 4.91145L7.12499 4.83131C7.12914 4.77979 7.1333 4.72255 7.13745 4.67103L7.18312 4.72255L7.1416 4.52792L7.46131 4.50502C7.50283 4.52792 7.52359 4.56227 7.51944 4.57944C7.57342 4.55082 7.65646 4.52792 7.75611 4.51647C7.74781 4.51647 7.80178 4.51647 7.835 4.51647H7.94711C8.02184 4.51647 8.09658 4.51647 8.17132 4.51647C8.3208 4.51647 8.47442 4.51647 8.62805 4.51647C8.93531 4.51647 9.25086 4.5222 9.57057 4.5222C10.8494 4.53365 12.2196 4.56799 13.6189 4.61951C16.4174 4.7111 19.3321 4.84848 21.8815 4.9458L21.5826 4.96869C51.3323 5.5583 78.9604 5.54685 108.461 6.46273C122.175 7.15537 138.14 6.82909 153.877 7.48738C156.771 7.80222 188.617 8.16858 191.432 8.09416Z" fill="#009167"/>
<path d="M197.714 31.0314V30.9456C197.544 30.9456 197.607 31.0715 197.714 31.0314Z" fill="#009167"/>
<path d="M172.56 4.23594C172.631 4.23594 172.701 4.24166 172.768 4.24166L171.987 4.06421L172.56 4.23594Z" fill="#009167"/>
<path d="M202.659 15.1006C202.726 13.8184 202.685 13.7612 202.614 13.9386C202.601 14.4023 202.609 14.8087 202.659 15.1006Z" fill="#009167"/>
<path d="M197.939 41.5125C197.918 42.188 198.022 41.9304 198.138 41.5354C198.125 40.8485 198.117 40.3677 198.117 40.3677C198.076 40.7512 197.984 41.1233 197.939 41.5125Z" fill="#009167"/>
<path d="M200.275 38.8051L200.412 39.0169C200.383 38.6219 200.329 38.6391 200.275 38.8051Z" fill="#009167"/>
<path d="M16.8973 20V10.9H18.7433V14.631H22.2533V10.9H24.0993V20H22.2533V16.2235H18.7433V20H16.8973ZM29.2542 18.5765C29.6399 18.5765 29.9887 18.479 30.3007 18.284C30.6171 18.089 30.8532 17.829 31.0092 17.504V15.762C30.8532 15.437 30.6171 15.177 30.3007 14.982C29.9887 14.787 29.6399 14.6895 29.2542 14.6895C28.7039 14.6895 28.2424 14.8758 27.8697 15.2485C27.4971 15.6212 27.3107 16.0827 27.3107 16.633C27.3107 17.1833 27.4971 17.6448 27.8697 18.0175C28.2424 18.3902 28.7039 18.5765 29.2542 18.5765ZM28.8772 13.11C29.7309 13.11 30.4416 13.3873 31.0092 13.942V13.266H32.7772V20H31.0092V19.324C30.4416 19.8787 29.7309 20.156 28.8772 20.156C28.2446 20.156 27.6704 19.9978 27.1547 19.6815C26.6391 19.3608 26.2361 18.9318 25.9457 18.3945C25.6597 17.8572 25.5167 17.27 25.5167 16.633C25.5167 15.996 25.6597 15.4088 25.9457 14.8715C26.2361 14.3342 26.6391 13.9073 27.1547 13.591C27.6704 13.2703 28.2446 13.11 28.8772 13.11ZM34.2102 20V18.5505L37.4082 14.813H34.3792V13.266H39.5792V14.7155L36.3812 18.453H39.7092V20H34.2102ZM48.3988 20.156C47.3371 20.156 46.4488 19.8158 45.7338 19.1355C45.0188 18.4552 44.6613 17.621 44.6613 16.633C44.6613 15.645 45.0188 14.8108 45.7338 14.1305C46.4488 13.4502 47.3371 13.11 48.3988 13.11C49.3781 13.11 50.2253 13.4112 50.9403 14.0135L50.0563 15.346C49.5189 14.9083 48.9708 14.6895 48.4118 14.6895C47.8614 14.6895 47.3999 14.878 47.0273 15.255C46.6546 15.6277 46.4683 16.087 46.4683 16.633C46.4683 17.1833 46.6546 17.6448 47.0273 18.0175C47.3999 18.3902 47.8614 18.5765 48.4118 18.5765C49.0011 18.5765 49.5623 18.3403 50.0953 17.868L51.0898 19.116C50.3748 19.8093 49.4778 20.156 48.3988 20.156ZM52.3594 20V10.51H54.1469V20H52.3594ZM55.9522 20V13.266H57.7397V20H55.9522ZM56.0952 12.2065C55.8915 12.0072 55.7897 11.7623 55.7897 11.472C55.7897 11.1817 55.8915 10.9368 56.0952 10.7375C56.2988 10.5382 56.5502 10.4385 56.8492 10.4385C57.1482 10.4385 57.3995 10.5382 57.6032 10.7375C57.8068 10.9368 57.9087 11.1817 57.9087 11.472C57.9087 11.7623 57.8068 12.0072 57.6032 12.2065C57.3995 12.4058 57.1482 12.5055 56.8492 12.5055C56.5502 12.5055 56.2988 12.4058 56.0952 12.2065ZM62.8079 20.156C61.7463 20.156 60.8579 19.8158 60.1429 19.1355C59.4279 18.4552 59.0704 17.621 59.0704 16.633C59.0704 15.645 59.4279 14.8108 60.1429 14.1305C60.8579 13.4502 61.7463 13.11 62.8079 13.11C63.7873 13.11 64.6344 13.4112 65.3494 14.0135L64.4654 15.346C63.9281 14.9083 63.3799 14.6895 62.8209 14.6895C62.2706 14.6895 61.8091 14.878 61.4364 15.255C61.0638 15.6277 60.8774 16.087 60.8774 16.633C60.8774 17.1833 61.0638 17.6448 61.4364 18.0175C61.8091 18.3902 62.2706 18.5765 62.8209 18.5765C63.4103 18.5765 63.9714 18.3403 64.5044 17.868L65.4989 19.116C64.7839 19.8093 63.8869 20.156 62.8079 20.156ZM73.9544 18.5765C74.3401 18.5765 74.6889 18.479 75.0009 18.284C75.3173 18.089 75.5534 17.829 75.7094 17.504V15.762C75.5534 15.437 75.3173 15.177 75.0009 14.982C74.6889 14.787 74.3401 14.6895 73.9544 14.6895C73.4041 14.6895 72.9426 14.8758 72.5699 15.2485C72.1973 15.6212 72.0109 16.0827 72.0109 16.633C72.0109 17.1833 72.1973 17.6448 72.5699 18.0175C72.9426 18.3902 73.4041 18.5765 73.9544 18.5765ZM73.5774 13.11C74.4311 13.11 75.1418 13.3873 75.7094 13.942V13.266H77.4774V20H75.7094V19.324C75.1418 19.8787 74.4311 20.156 73.5774 20.156C72.9448 20.156 72.3706 19.9978 71.8549 19.6815C71.3393 19.3608 70.9363 18.9318 70.6459 18.3945C70.3599 17.8572 70.2169 17.27 70.2169 16.633C70.2169 15.996 70.3599 15.4088 70.6459 14.8715C70.9363 14.3342 71.3393 13.9073 71.8549 13.591C72.3706 13.2703 72.9448 13.11 73.5774 13.11ZM82.4984 18.5765C82.884 18.5765 83.2329 18.479 83.5449 18.284C83.8612 18.089 84.0974 17.829 84.2534 17.504V15.762C84.0974 15.437 83.8612 15.177 83.5449 14.982C83.2329 14.787 82.884 14.6895 82.4984 14.6895C81.948 14.6895 81.4865 14.8758 81.1139 15.2485C80.7412 15.6212 80.5549 16.0827 80.5549 16.633C80.5549 17.1833 80.7412 17.6448 81.1139 18.0175C81.4865 18.3902 81.948 18.5765 82.4984 18.5765ZM82.1214 13.11C82.975 13.11 83.6857 13.3873 84.2534 13.942V13.266H86.0214V23.016H84.2534V19.324C83.6857 19.8787 82.975 20.156 82.1214 20.156C81.4887 20.156 80.9145 19.9978 80.3989 19.6815C79.8832 19.3608 79.4802 18.9318 79.1899 18.3945C78.9039 17.8572 78.7609 17.27 78.7609 16.633C78.7609 15.996 78.9039 15.4088 79.1899 14.8715C79.4802 14.3342 79.8832 13.9073 80.3989 13.591C80.9145 13.2703 81.4887 13.11 82.1214 13.11ZM92.1993 17.647V13.266H93.9868V20H92.1993V19.259C91.9697 19.532 91.6858 19.7508 91.3478 19.9155C91.0142 20.0758 90.6675 20.156 90.3078 20.156C89.5148 20.156 88.867 19.9025 88.3643 19.3955C87.866 18.8885 87.6168 18.2277 87.6168 17.413V13.266H89.4043V17.2375C89.4043 17.6188 89.5257 17.9373 89.7683 18.193C90.0153 18.4487 90.3403 18.5765 90.7433 18.5765C91.0163 18.5765 91.2872 18.4855 91.5558 18.3035C91.8245 18.1215 92.039 17.9027 92.1993 17.647ZM95.752 20V13.266H97.5395V20H95.752ZM95.4725 12.304L97.169 10.081H98.963L97.1755 12.304H95.4725ZM105.647 23.016H103.781L104.964 20L102.494 13.266H104.353L105.848 17.738L107.369 13.266H109.228L105.647 23.016ZM117.436 20.156C116.374 20.156 115.486 19.8158 114.771 19.1355C114.056 18.4552 113.698 17.621 113.698 16.633C113.698 15.645 114.056 14.8108 114.771 14.1305C115.486 13.4502 116.374 13.11 117.436 13.11C118.415 13.11 119.262 13.4112 119.977 14.0135L119.093 15.346C118.556 14.9083 118.008 14.6895 117.449 14.6895C116.899 14.6895 116.437 14.878 116.064 15.255C115.692 15.6277 115.505 16.087 115.505 16.633C115.505 17.1833 115.692 17.6448 116.064 18.0175C116.437 18.3902 116.899 18.5765 117.449 18.5765C118.038 18.5765 118.599 18.3403 119.132 17.868L120.127 19.116C119.412 19.8093 118.515 20.156 117.436 20.156ZM121.868 19.1355C121.153 18.4552 120.795 17.621 120.795 16.633C120.795 15.645 121.153 14.8108 121.868 14.1305C122.583 13.4502 123.471 13.11 124.533 13.11C125.235 13.11 125.872 13.266 126.444 13.578C127.016 13.89 127.462 14.3147 127.783 14.852C128.108 15.3893 128.27 15.983 128.27 16.633C128.27 17.283 128.108 17.8767 127.783 18.414C127.462 18.9513 127.016 19.376 126.444 19.688C125.872 20 125.235 20.156 124.533 20.156C123.471 20.156 122.583 19.8158 121.868 19.1355ZM122.589 16.633C122.589 17.1833 122.775 17.6448 123.148 18.0175C123.521 18.3902 123.982 18.5765 124.533 18.5765C125.083 18.5765 125.544 18.3902 125.917 18.0175C126.294 17.6448 126.483 17.1833 126.483 16.633C126.483 16.087 126.294 15.6277 125.917 15.255C125.544 14.878 125.083 14.6895 124.533 14.6895C123.982 14.6895 123.521 14.878 123.148 15.255C122.775 15.6277 122.589 16.087 122.589 16.633ZM131.34 15.619V20H129.552V13.266H131.34V14.007C131.57 13.734 131.851 13.5173 132.185 13.357C132.523 13.1923 132.872 13.11 133.231 13.11C134.024 13.11 134.67 13.3635 135.168 13.8705C135.671 14.3775 135.922 15.0383 135.922 15.853V20H134.135V16.0285C134.135 15.6472 134.011 15.3287 133.764 15.073C133.522 14.8173 133.199 14.6895 132.796 14.6895C132.523 14.6895 132.252 14.7805 131.983 14.9625C131.715 15.1445 131.5 15.3633 131.34 15.619ZM138.156 19.1355C137.441 18.4552 137.083 17.621 137.083 16.633C137.083 15.645 137.441 14.8108 138.156 14.1305C138.871 13.4502 139.759 13.11 140.821 13.11C141.523 13.11 142.16 13.266 142.732 13.578C143.304 13.89 143.75 14.3147 144.071 14.852C144.396 15.3893 144.558 15.983 144.558 16.633C144.558 17.283 144.396 17.8767 144.071 18.414C143.75 18.9513 143.304 19.376 142.732 19.688C142.16 20 141.523 20.156 140.821 20.156C139.759 20.156 138.871 19.8158 138.156 19.1355ZM138.877 16.633C138.877 17.1833 139.063 17.6448 139.436 18.0175C139.809 18.3902 140.27 18.5765 140.821 18.5765C141.371 18.5765 141.832 18.3902 142.205 18.0175C142.582 17.6448 142.771 17.1833 142.771 16.633C142.771 16.087 142.582 15.6277 142.205 15.255C141.832 14.878 141.371 14.6895 140.821 14.6895C140.27 14.6895 139.809 14.878 139.436 15.255C139.063 15.6277 138.877 16.087 138.877 16.633ZM149.136 20.156C148.074 20.156 147.186 19.8158 146.471 19.1355C145.756 18.4552 145.399 17.621 145.399 16.633C145.399 15.645 145.756 14.8108 146.471 14.1305C147.186 13.4502 148.074 13.11 149.136 13.11C150.115 13.11 150.963 13.4112 151.678 14.0135L150.794 15.346C150.256 14.9083 149.708 14.6895 149.149 14.6895C148.599 14.6895 148.137 14.878 147.765 15.255C147.392 15.6277 147.206 16.087 147.206 16.633C147.206 17.1833 147.392 17.6448 147.765 18.0175C148.137 18.3902 148.599 18.5765 149.149 18.5765C149.738 18.5765 150.3 18.3403 150.833 17.868L151.827 19.116C151.112 19.8093 150.215 20.156 149.136 20.156ZM154.302 17.166C154.38 17.634 154.597 18.0132 154.952 18.3035C155.312 18.5895 155.745 18.7325 156.252 18.7325C156.959 18.7325 157.596 18.453 158.163 17.894L159.236 18.934C158.486 19.7487 157.494 20.156 156.259 20.156C155.713 20.156 155.204 20.065 154.731 19.883C154.259 19.701 153.86 19.4518 153.535 19.1355C153.21 18.8192 152.955 18.4465 152.768 18.0175C152.586 17.5842 152.495 17.1227 152.495 16.633C152.495 16.1477 152.588 15.6883 152.775 15.255C152.961 14.8217 153.215 14.449 153.535 14.137C153.86 13.8207 154.25 13.5715 154.705 13.3895C155.16 13.2032 155.643 13.11 156.155 13.11C156.826 13.11 157.433 13.2638 157.975 13.5715C158.516 13.8748 158.937 14.2865 159.236 14.8065C159.535 15.3222 159.684 15.892 159.684 16.516C159.684 16.7413 159.658 16.958 159.606 17.166H154.302ZM156.142 14.5335C155.721 14.5335 155.347 14.657 155.017 14.904C154.692 15.151 154.469 15.4803 154.348 15.892H157.845C157.745 15.4847 157.544 15.1575 157.24 14.9105C156.937 14.6592 156.571 14.5335 156.142 14.5335ZM164.929 20V10.51H166.716V20H164.929ZM169.12 19.1355C168.405 18.4552 168.047 17.621 168.047 16.633C168.047 15.645 168.405 14.8108 169.12 14.1305C169.835 13.4502 170.723 13.11 171.785 13.11C172.487 13.11 173.124 13.266 173.696 13.578C174.268 13.89 174.714 14.3147 175.035 14.852C175.36 15.3893 175.522 15.983 175.522 16.633C175.522 17.283 175.36 17.8767 175.035 18.414C174.714 18.9513 174.268 19.376 173.696 19.688C173.124 20 172.487 20.156 171.785 20.156C170.723 20.156 169.835 19.8158 169.12 19.1355ZM169.841 16.633C169.841 17.1833 170.027 17.6448 170.4 18.0175C170.773 18.3902 171.234 18.5765 171.785 18.5765C172.335 18.5765 172.796 18.3902 173.169 18.0175C173.546 17.6448 173.735 17.1833 173.735 16.633C173.735 16.087 173.546 15.6277 173.169 15.255C172.796 14.878 172.335 14.6895 171.785 14.6895C171.234 14.6895 170.773 14.878 170.4 15.255C170.027 15.6277 169.841 16.087 169.841 16.633ZM176.343 19.038L177.24 17.9265C177.457 18.1735 177.712 18.3685 178.007 18.5115C178.306 18.6545 178.62 18.726 178.949 18.726C179.257 18.726 179.498 18.6653 179.671 18.544C179.849 18.4227 179.937 18.2602 179.937 18.0565C179.937 17.8485 179.851 17.6817 179.677 17.556C179.504 17.426 179.205 17.3177 178.78 17.231C177.32 16.932 176.59 16.2127 176.59 15.073C176.59 14.501 176.813 14.0308 177.259 13.6625C177.71 13.2942 178.297 13.11 179.021 13.11C179.472 13.11 179.905 13.1945 180.321 13.3635C180.737 13.5282 181.101 13.7492 181.413 14.0265L180.555 15.1445C180.065 14.7415 179.606 14.54 179.177 14.54C178.93 14.54 178.728 14.592 178.572 14.696C178.416 14.7957 178.338 14.93 178.338 15.099C178.338 15.489 178.696 15.7577 179.411 15.905C180.187 16.061 180.759 16.3188 181.127 16.6785C181.5 17.0382 181.686 17.504 181.686 18.076C181.686 18.6827 181.45 19.181 180.977 19.571C180.505 19.961 179.875 20.156 179.086 20.156C178.527 20.156 178.007 20.0585 177.526 19.8635C177.045 19.6642 176.651 19.389 176.343 19.038ZM15.4788 34.5765C16.0291 34.5765 16.4906 34.3902 16.8633 34.0175C17.236 33.6448 17.4223 33.1833 17.4223 32.633C17.4223 32.0827 17.236 31.6212 16.8633 31.2485C16.4906 30.8758 16.0291 30.6895 15.4788 30.6895C15.0931 30.6895 14.7421 30.787 14.4258 30.982C14.1138 31.177 13.8798 31.437 13.7238 31.762V33.504C13.8798 33.829 14.1138 34.089 14.4258 34.284C14.7421 34.479 15.0931 34.5765 15.4788 34.5765ZM15.8558 29.11C16.4885 29.11 17.0626 29.2703 17.5783 29.591C18.094 29.9073 18.4948 30.3342 18.7808 30.8715C19.0711 31.4088 19.2163 31.996 19.2163 32.633C19.2163 33.27 19.0711 33.8572 18.7808 34.3945C18.4948 34.9318 18.094 35.3608 17.5783 35.6815C17.0626 35.9978 16.4885 36.156 15.8558 36.156C15.0021 36.156 14.2915 35.8787 13.7238 35.324V39.016H11.9558V29.266H13.7238V29.942C14.2915 29.3873 15.0021 29.11 15.8558 29.11ZM20.5323 36V26.51H22.3198V36H20.5323ZM27.388 34.5765C27.7737 34.5765 28.1225 34.479 28.4345 34.284C28.7509 34.089 28.987 33.829 29.143 33.504V31.762C28.987 31.437 28.7509 31.177 28.4345 30.982C28.1225 30.787 27.7737 30.6895 27.388 30.6895C26.8377 30.6895 26.3762 30.8758 26.0035 31.2485C25.6309 31.6212 25.4445 32.0827 25.4445 32.633C25.4445 33.1833 25.6309 33.6448 26.0035 34.0175C26.3762 34.3902 26.8377 34.5765 27.388 34.5765ZM27.011 29.11C27.8647 29.11 28.5754 29.3873 29.143 29.942V29.266H30.911V36H29.143V35.324C28.5754 35.8787 27.8647 36.156 27.011 36.156C26.3784 36.156 25.8042 35.9978 25.2885 35.6815C24.7729 35.3608 24.3699 34.9318 24.0795 34.3945C23.7935 33.8572 23.6505 33.27 23.6505 32.633C23.6505 31.996 23.7935 31.4088 24.0795 30.8715C24.3699 30.3342 24.7729 29.9073 25.2885 29.591C25.8042 29.2703 26.3784 29.11 27.011 29.11ZM34.822 30.8195V33.6665C34.822 33.9915 34.9 34.2298 35.056 34.3815C35.2163 34.5288 35.4807 34.6025 35.849 34.6025C36.0787 34.6025 36.291 34.5917 36.486 34.57V36.065C36.2043 36.1257 35.8945 36.156 35.5565 36.156C33.8752 36.156 33.0345 35.363 33.0345 33.777V30.8195H31.988V29.266H33.0345V27.472L34.822 27.316V29.266H36.408V30.8195H34.822ZM38.3197 35.1355C37.6047 34.4552 37.2472 33.621 37.2472 32.633C37.2472 31.645 37.6047 30.8108 38.3197 30.1305C39.0347 29.4502 39.923 29.11 40.9847 29.11C41.6867 29.11 42.3237 29.266 42.8957 29.578C43.4677 29.89 43.914 30.3147 44.2347 30.852C44.5597 31.3893 44.7222 31.983 44.7222 32.633C44.7222 33.283 44.5597 33.8767 44.2347 34.414C43.914 34.9513 43.4677 35.376 42.8957 35.688C42.3237 36 41.6867 36.156 40.9847 36.156C39.923 36.156 39.0347 35.8158 38.3197 35.1355ZM39.0412 32.633C39.0412 33.1833 39.2275 33.6448 39.6002 34.0175C39.9729 34.3902 40.4344 34.5765 40.9847 34.5765C41.535 34.5765 41.9965 34.3902 42.3692 34.0175C42.7462 33.6448 42.9347 33.1833 42.9347 32.633C42.9347 32.087 42.7462 31.6277 42.3692 31.255C41.9965 30.878 41.535 30.6895 40.9847 30.6895C40.4344 30.6895 39.9729 30.878 39.6002 31.255C39.2275 31.6277 39.0412 32.087 39.0412 32.633ZM45.5431 35.038L46.4401 33.9265C46.6568 34.1735 46.9125 34.3685 47.2071 34.5115C47.5061 34.6545 47.8203 34.726 48.1496 34.726C48.4573 34.726 48.6978 34.6653 48.8711 34.544C49.0488 34.4227 49.1376 34.2602 49.1376 34.0565C49.1376 33.8485 49.051 33.6817 48.8776 33.556C48.7043 33.426 48.4053 33.3177 47.9806 33.231C46.5203 32.932 45.7901 32.2127 45.7901 31.073C45.7901 30.501 46.0133 30.0308 46.4596 29.6625C46.9103 29.2942 47.4975 29.11 48.2211 29.11C48.6718 29.11 49.1051 29.1945 49.5211 29.3635C49.9371 29.5282 50.3011 29.7492 50.6131 30.0265L49.7551 31.1445C49.2655 30.7415 48.8061 30.54 48.3771 30.54C48.1301 30.54 47.9286 30.592 47.7726 30.696C47.6166 30.7957 47.5386 30.93 47.5386 31.099C47.5386 31.489 47.8961 31.7577 48.6111 31.905C49.3868 32.061 49.9588 32.3188 50.3271 32.6785C50.6998 33.0382 50.8861 33.504 50.8861 34.076C50.8861 34.6827 50.65 35.181 50.1776 35.571C49.7053 35.961 49.0748 36.156 48.2861 36.156C47.7271 36.156 47.2071 36.0585 46.7261 35.8635C46.2451 35.6642 45.8508 35.389 45.5431 35.038ZM59.3802 34.5765C59.7659 34.5765 60.1147 34.479 60.4267 34.284C60.743 34.089 60.9792 33.829 61.1352 33.504V31.762C60.9792 31.437 60.743 31.177 60.4267 30.982C60.1147 30.787 59.7659 30.6895 59.3802 30.6895C58.8299 30.6895 58.3684 30.8758 57.9957 31.2485C57.623 31.6212 57.4367 32.0827 57.4367 32.633C57.4367 33.1833 57.623 33.6448 57.9957 34.0175C58.3684 34.3902 58.8299 34.5765 59.3802 34.5765ZM59.0032 29.11C59.8569 29.11 60.5675 29.3873 61.1352 29.942V29.266H62.9032V39.016H61.1352V35.324C60.5675 35.8787 59.8569 36.156 59.0032 36.156C58.3705 36.156 57.7964 35.9978 57.2807 35.6815C56.765 35.3608 56.362 34.9318 56.0717 34.3945C55.7857 33.8572 55.6427 33.27 55.6427 32.633C55.6427 31.996 55.7857 31.4088 56.0717 30.8715C56.362 30.3342 56.765 29.9073 57.2807 29.591C57.7964 29.2703 58.3705 29.11 59.0032 29.11ZM69.0812 33.647V29.266H70.8687V36H69.0812V35.259C68.8515 35.532 68.5677 35.7508 68.2297 35.9155C67.896 36.0758 67.5493 36.156 67.1897 36.156C66.3967 36.156 65.7488 35.9025 65.2462 35.3955C64.7478 34.8885 64.4987 34.2277 64.4987 33.413V29.266H66.2862V33.2375C66.2862 33.6188 66.4075 33.9373 66.6502 34.193C66.8972 34.4487 67.2222 34.5765 67.6252 34.5765C67.8982 34.5765 68.169 34.4855 68.4377 34.3035C68.7063 34.1215 68.9208 33.9027 69.0812 33.647ZM73.9663 33.166C74.0443 33.634 74.261 34.0132 74.6163 34.3035C74.976 34.5895 75.4093 34.7325 75.9163 34.7325C76.6226 34.7325 77.2597 34.453 77.8273 33.894L78.8998 34.934C78.1501 35.7487 77.1578 36.156 75.9228 36.156C75.3768 36.156 74.8676 36.065 74.3953 35.883C73.923 35.701 73.5243 35.4518 73.1993 35.1355C72.8743 34.8192 72.6186 34.4465 72.4323 34.0175C72.2503 33.5842 72.1593 33.1227 72.1593 32.633C72.1593 32.1477 72.2525 31.6883 72.4388 31.255C72.6251 30.8217 72.8786 30.449 73.1993 30.137C73.5243 29.8207 73.9143 29.5715 74.3693 29.3895C74.8243 29.2032 75.3075 29.11 75.8188 29.11C76.4905 29.11 77.0972 29.2638 77.6388 29.5715C78.1805 29.8748 78.6008 30.2865 78.8998 30.8065C79.1988 31.3222 79.3483 31.892 79.3483 32.516C79.3483 32.7413 79.3223 32.958 79.2703 33.166H73.9663ZM75.8058 30.5335C75.3855 30.5335 75.0106 30.657 74.6813 30.904C74.3563 31.151 74.1331 31.4803 74.0118 31.892H77.5088C77.4092 31.4847 77.2077 31.1575 76.9043 30.9105C76.601 30.6592 76.2348 30.5335 75.8058 30.5335ZM86.8093 30.8195V33.6665C86.8093 33.9915 86.8873 34.2298 87.0433 34.3815C87.2036 34.5288 87.468 34.6025 87.8363 34.6025C88.066 34.6025 88.2783 34.5917 88.4733 34.57V36.065C88.1916 36.1257 87.8818 36.156 87.5438 36.156C85.8625 36.156 85.0218 35.363 85.0218 33.777V30.8195H83.9753V29.266H85.0218V27.472L86.8093 27.316V29.266H88.3953V30.8195H86.8093ZM91.0415 33.166C91.1195 33.634 91.3362 34.0132 91.6915 34.3035C92.0512 34.5895 92.4845 34.7325 92.9915 34.7325C93.6978 34.7325 94.3348 34.453 94.9025 33.894L95.975 34.934C95.2253 35.7487 94.233 36.156 92.998 36.156C92.452 36.156 91.9428 36.065 91.4705 35.883C90.9982 35.701 90.5995 35.4518 90.2745 35.1355C89.9495 34.8192 89.6938 34.4465 89.5075 34.0175C89.3255 33.5842 89.2345 33.1227 89.2345 32.633C89.2345 32.1477 89.3277 31.6883 89.514 31.255C89.7003 30.8217 89.9538 30.449 90.2745 30.137C90.5995 29.8207 90.9895 29.5715 91.4445 29.3895C91.8995 29.2032 92.3827 29.11 92.894 29.11C93.5657 29.11 94.1723 29.2638 94.714 29.5715C95.2557 29.8748 95.676 30.2865 95.975 30.8065C96.274 31.3222 96.4235 31.892 96.4235 32.516C96.4235 32.7413 96.3975 32.958 96.3455 33.166H91.0415ZM92.881 30.5335C92.4607 30.5335 92.0858 30.657 91.7565 30.904C91.4315 31.151 91.2083 31.4803 91.087 31.892H94.584C94.4843 31.4847 94.2828 31.1575 93.9795 30.9105C93.6762 30.6592 93.31 30.5335 92.881 30.5335ZM99.5001 31.619V36H97.7126V29.266H99.5001V30.007C99.7298 29.734 100.011 29.5173 100.345 29.357C100.683 29.1923 101.032 29.11 101.392 29.11C102.185 29.11 102.83 29.3635 103.329 29.8705C103.831 30.3775 104.083 31.0383 104.083 31.853V36H102.295V32.0285C102.295 31.6472 102.172 31.3287 101.925 31.073C101.682 30.8173 101.359 30.6895 100.956 30.6895C100.683 30.6895 100.412 30.7805 100.144 30.9625C99.875 31.1445 99.6605 31.3633 99.5001 31.619ZM107.05 33.166C107.128 33.634 107.345 34.0132 107.7 34.3035C108.06 34.5895 108.493 34.7325 109 34.7325C109.707 34.7325 110.344 34.453 110.911 33.894L111.984 34.934C111.234 35.7487 110.242 36.156 109.007 36.156C108.461 36.156 107.952 36.065 107.479 35.883C107.007 35.701 106.608 35.4518 106.283 35.1355C105.958 34.8192 105.703 34.4465 105.516 34.0175C105.334 33.5842 105.243 33.1227 105.243 32.633C105.243 32.1477 105.336 31.6883 105.523 31.255C105.709 30.8217 105.963 30.449 106.283 30.137C106.608 29.8207 106.998 29.5715 107.453 29.3895C107.908 29.2032 108.391 29.11 108.903 29.11C109.574 29.11 110.181 29.2638 110.723 29.5715C111.264 29.8748 111.685 30.2865 111.984 30.8065C112.283 31.3222 112.432 31.892 112.432 32.516C112.432 32.7413 112.406 32.958 112.354 33.166H107.05ZM108.89 30.5335C108.469 30.5335 108.095 30.657 107.765 30.904C107.44 31.151 107.217 31.4803 107.096 31.892H110.593C110.493 31.4847 110.292 31.1575 109.988 30.9105C109.685 30.6592 109.319 30.5335 108.89 30.5335ZM113.721 29.266H115.509V30.007C115.726 29.7383 115.992 29.5238 116.308 29.3635C116.625 29.2032 116.963 29.123 117.322 29.123C117.795 29.123 118.219 29.2248 118.596 29.4285C118.978 29.6322 119.283 29.916 119.513 30.28C119.756 29.929 120.076 29.6473 120.475 29.435C120.874 29.2183 121.294 29.11 121.736 29.11C122.512 29.11 123.142 29.3657 123.627 29.877C124.117 30.384 124.362 31.0362 124.362 31.8335V36H122.574V32.0155C122.574 31.6385 122.462 31.3243 122.236 31.073C122.015 30.8173 121.721 30.6895 121.352 30.6895C121.079 30.6895 120.817 30.7805 120.566 30.9625C120.315 31.1402 120.1 31.372 119.922 31.658C119.931 31.8487 119.935 31.996 119.935 32.1V36H118.148V32.0155C118.148 31.6298 118.035 31.3135 117.81 31.0665C117.585 30.8152 117.29 30.6895 116.926 30.6895C116.653 30.6895 116.391 30.7783 116.139 30.956C115.892 31.1337 115.682 31.3612 115.509 31.6385V36H113.721V29.266ZM126.59 35.1355C125.875 34.4552 125.518 33.621 125.518 32.633C125.518 31.645 125.875 30.8108 126.59 30.1305C127.305 29.4502 128.194 29.11 129.255 29.11C129.957 29.11 130.594 29.266 131.166 29.578C131.738 29.89 132.185 30.3147 132.505 30.852C132.83 31.3893 132.993 31.983 132.993 32.633C132.993 33.283 132.83 33.8767 132.505 34.414C132.185 34.9513 131.738 35.376 131.166 35.688C130.594 36 129.957 36.156 129.255 36.156C128.194 36.156 127.305 35.8158 126.59 35.1355ZM127.312 32.633C127.312 33.1833 127.498 33.6448 127.871 34.0175C128.243 34.3902 128.705 34.5765 129.255 34.5765C129.806 34.5765 130.267 34.3902 130.64 34.0175C131.017 33.6448 131.205 33.1833 131.205 32.633C131.205 32.087 131.017 31.6277 130.64 31.255C130.267 30.878 129.806 30.6895 129.255 30.6895C128.705 30.6895 128.243 30.878 127.871 31.255C127.498 31.6277 127.312 32.087 127.312 32.633ZM133.814 35.038L134.711 33.9265C134.927 34.1735 135.183 34.3685 135.478 34.5115C135.777 34.6545 136.091 34.726 136.42 34.726C136.728 34.726 136.968 34.6653 137.142 34.544C137.319 34.4227 137.408 34.2602 137.408 34.0565C137.408 33.8485 137.321 33.6817 137.148 33.556C136.975 33.426 136.676 33.3177 136.251 33.231C134.791 32.932 134.061 32.2127 134.061 31.073C134.061 30.501 134.284 30.0308 134.73 29.6625C135.181 29.2942 135.768 29.11 136.492 29.11C136.942 29.11 137.376 29.1945 137.792 29.3635C138.208 29.5282 138.572 29.7492 138.884 30.0265L138.026 31.1445C137.536 30.7415 137.077 30.54 136.648 30.54C136.401 30.54 136.199 30.592 136.043 30.696C135.887 30.7957 135.809 30.93 135.809 31.099C135.809 31.489 136.167 31.7577 136.882 31.905C137.657 32.061 138.229 32.3188 138.598 32.6785C138.97 33.0382 139.157 33.504 139.157 34.076C139.157 34.6827 138.92 35.181 138.448 35.571C137.976 35.961 137.345 36.156 136.557 36.156C135.998 36.156 135.478 36.0585 134.997 35.8635C134.516 35.6642 134.121 35.389 133.814 35.038ZM147.878 34.5765C148.429 34.5765 148.89 34.3902 149.263 34.0175C149.635 33.6448 149.822 33.1833 149.822 32.633C149.822 32.0827 149.635 31.6212 149.263 31.2485C148.89 30.8758 148.429 30.6895 147.878 30.6895C147.493 30.6895 147.142 30.787 146.825 30.982C146.513 31.177 146.279 31.437 146.123 31.762V33.504C146.279 33.829 146.513 34.089 146.825 34.284C147.142 34.479 147.493 34.5765 147.878 34.5765ZM148.255 29.11C148.888 29.11 149.462 29.2703 149.978 29.591C150.493 29.9073 150.894 30.3342 151.18 30.8715C151.471 31.4088 151.616 31.996 151.616 32.633C151.616 33.27 151.471 33.8572 151.18 34.3945C150.894 34.9318 150.493 35.3608 149.978 35.6815C149.462 35.9978 148.888 36.156 148.255 36.156C147.402 36.156 146.691 35.8787 146.123 35.324V39.016H144.355V29.266H146.123V29.942C146.691 29.3873 147.402 29.11 148.255 29.11ZM156.195 34.5765C156.58 34.5765 156.929 34.479 157.241 34.284C157.558 34.089 157.794 33.829 157.95 33.504V31.762C157.794 31.437 157.558 31.177 157.241 30.982C156.929 30.787 156.58 30.6895 156.195 30.6895C155.644 30.6895 155.183 30.8758 154.81 31.2485C154.438 31.6212 154.251 32.0827 154.251 32.633C154.251 33.1833 154.438 33.6448 154.81 34.0175C155.183 34.3902 155.644 34.5765 156.195 34.5765ZM155.818 29.11C156.671 29.11 157.382 29.3873 157.95 29.942V29.266H159.718V36H157.95V35.324C157.382 35.8787 156.671 36.156 155.818 36.156C155.185 36.156 154.611 35.9978 154.095 35.6815C153.58 35.3608 153.177 34.9318 152.886 34.3945C152.6 33.8572 152.457 33.27 152.457 32.633C152.457 31.996 152.6 31.4088 152.886 30.8715C153.177 30.3342 153.58 29.9073 154.095 29.591C154.611 29.2703 155.185 29.11 155.818 29.11ZM164.804 30.6895C164.483 30.6895 164.186 30.787 163.913 30.982C163.64 31.177 163.413 31.4435 163.231 31.7815V36H161.443V29.266H163.231V30.0915C163.72 29.4372 164.32 29.11 165.031 29.11C165.261 29.11 165.464 29.1577 165.642 29.253L165.519 30.8195C165.267 30.7328 165.029 30.6895 164.804 30.6895ZM169.893 34.5765C170.279 34.5765 170.627 34.479 170.939 34.284C171.256 34.089 171.492 33.829 171.648 33.504V31.762C171.492 31.437 171.256 31.177 170.939 30.982C170.627 30.787 170.279 30.6895 169.893 30.6895C169.343 30.6895 168.881 30.8758 168.508 31.2485C168.136 31.6212 167.949 32.0827 167.949 32.633C167.949 33.1833 168.136 33.6448 168.508 34.0175C168.881 34.3902 169.343 34.5765 169.893 34.5765ZM169.516 29.11C170.37 29.11 171.08 29.3873 171.648 29.942V29.266H173.416V36H171.648V35.324C171.08 35.8787 170.37 36.156 169.516 36.156C168.883 36.156 168.309 35.9978 167.793 35.6815C167.278 35.3608 166.875 34.9318 166.584 34.3945C166.298 33.8572 166.155 33.27 166.155 32.633C166.155 31.996 166.298 31.4088 166.584 30.8715C166.875 30.3342 167.278 29.9073 167.793 29.591C168.309 29.2703 168.883 29.11 169.516 29.11ZM181.313 30.8195V33.6665C181.313 33.9915 181.391 34.2298 181.547 34.3815C181.708 34.5288 181.972 34.6025 182.34 34.6025C182.57 34.6025 182.782 34.5917 182.977 34.57V36.065C182.696 36.1257 182.386 36.156 182.048 36.156C180.366 36.156 179.526 35.363 179.526 33.777V30.8195H178.479V29.266H179.526V27.472L181.313 27.316V29.266H182.899V30.8195H181.313ZM184.213 36V29.266H186V36H184.213ZM184.356 28.2065C184.152 28.0072 184.05 27.7623 184.05 27.472C184.05 27.1817 184.152 26.9368 184.356 26.7375C184.56 26.5382 184.811 26.4385 185.11 26.4385C185.409 26.4385 185.66 26.5382 185.864 26.7375C186.068 26.9368 186.169 27.1817 186.169 27.472C186.169 27.7623 186.068 28.0072 185.864 28.2065C185.66 28.4058 185.409 28.5055 185.11 28.5055C184.811 28.5055 184.56 28.4058 184.356 28.2065Z" fill="#F9F2E1"/>
</svg>
