<svg width="215" height="33" viewBox="0 0 215 33" fill="none" xmlns="http://www.w3.org/2000/svg">
<path d="M52.0137 31.6198C52.2467 31.6303 52.3611 31.6198 52.0137 31.6198V31.6198Z" fill="#FCF0DD"/>
<path d="M70.3164 0.647628C70.3868 0.647628 70.422 0.647628 70.4923 0.647628C70.6198 0.612932 70.7386 0.582091 70.8573 0.55896L70.3164 0.647628Z" fill="#FCF0DD"/>
<path d="M99.2578 1.21447C99.3237 1.21833 99.3721 1.22218 99.4336 1.22604C99.4204 1.2029 99.4556 1.17977 99.2578 1.21447Z" fill="#FCF0DD"/>
<path d="M1.16043 0.589722C1.15188 0.774768 1.16897 0.882712 1.19459 0.967525C1.17751 0.855726 1.1647 0.740072 1.16043 0.589722Z" fill="#FCF0DD"/>
<path d="M105.057 32.0322C105.057 32.0322 104.982 32.0322 104.929 32.0322C105.03 32.0399 105.136 32.0477 105.241 32.0592L105.057 32.0322Z" fill="#FCF0DD"/>
<path d="M104.472 32.09C103.835 32.0553 104.648 32.0399 104.93 32.036C104.226 31.9782 103.518 31.9666 102.806 31.982C102.81 32.036 104.16 32.0437 104.472 32.09Z" fill="#FCF0DD"/>
<path d="M201.275 32.9807L200.985 33C201.104 32.9961 201.192 32.9884 201.275 32.9807Z" fill="#FCF0DD"/>
<path d="M7.96785 3.08411C7.95508 3.08786 7.9338 3.09161 7.92529 3.09536C7.95508 3.09911 7.96359 3.09161 7.96785 3.08411Z" fill="#FCF0DD"/>
<path d="M186.086 32.7493L185.919 32.8379C186.069 32.8032 186.1 32.7763 186.086 32.7493Z" fill="#FCF0DD"/>
<path d="M70.8579 0.562894L71.0688 0.528198C70.9941 0.535909 70.9282 0.547474 70.8579 0.562894Z" fill="#FCF0DD"/>
<path d="M125.998 1.58057C126.007 1.60755 126.068 1.63068 126.139 1.64996C126.174 1.64996 126.196 1.64996 126.214 1.64996L125.998 1.58057Z" fill="#FCF0DD"/>
<path d="M212.366 24.5341C212.392 24.5302 212.418 24.5186 212.449 24.5032L212.304 24.2681C212.313 24.3914 212.335 24.4762 212.366 24.5341Z" fill="#FCF0DD"/>
<path d="M162.673 2.3941C162.704 2.38253 162.792 2.37482 162.801 2.36326C162.176 2.3247 160.519 2.30157 158.403 2.27844L158.271 2.38639L162.673 2.3941Z" fill="#FCF0DD"/>
<path d="M202.748 5.45116L198.843 5.1813C201.697 5.18901 204.208 5.21214 206.504 5.24298C207.08 5.25069 207.639 5.2584 208.188 5.26611C208.325 5.26997 208.461 5.26997 208.597 5.27382L208.777 5.27768H208.821C208.879 5.27768 208.931 5.28153 208.989 5.28153C209.2 5.28924 209.402 5.29695 209.6 5.30081C209.587 5.4049 209.573 5.50898 209.56 5.61307L209.556 5.65162L209.551 5.80968C209.547 5.9369 209.547 6.06412 209.543 6.1952C209.538 6.45349 209.534 6.71179 209.534 6.97393C209.525 8.02253 209.556 9.12895 209.648 10.3934L209.538 10.1351C209.406 10.8059 210.567 11.1992 209.033 18.628H208.98C208.984 18.8863 209.09 18.8863 208.945 19.399L209.283 18.1153C209.402 18.8863 209.639 19.5648 209.661 20.5903C209.6 20.8062 209.494 20.8833 209.411 20.9025L209.459 23.4238L209.112 24.191C209.283 24.962 209.996 24.6189 209.569 26.6775C210.07 25.9065 209.85 27.703 210.101 27.4524C210.04 27.5565 209.943 27.7917 209.859 27.9806C209.899 29.2065 210 31.5157 210.246 32.0901C210.246 32.0901 211.354 27.3059 211.9 26.026C211.741 27.7492 211.953 26.4809 212.124 26.1417L212.005 26.026C212.142 24.9928 212.449 24.9967 212.546 24.4801C212.52 24.4801 212.489 24.4955 212.458 24.5109L212.498 24.5765C212.441 24.6227 212.405 24.5957 212.375 24.5418C212.309 24.5533 212.256 24.5071 212.278 24.2257L212.309 24.2796C212.269 23.8478 212.331 23.1038 212.357 22.78L212.617 22.7761C212.133 22.0051 213.448 17.6372 213.478 16.6079C213.821 15.5786 213.43 14.291 213.615 13.0034C213.729 10.9486 214.011 11.9779 214.248 10.9486C214.428 9.66096 213.94 11.2069 213.931 10.6903L214.314 9.14823C214.332 10.0465 214.494 9.56073 214.6 9.39881C214.631 8.73188 214.776 7.87218 214.846 7.12814C214.881 6.75805 214.899 6.41109 214.877 6.13737C214.864 5.99859 214.842 5.87908 214.807 5.77884C214.789 5.73644 214.767 5.66319 214.745 5.60922C214.723 5.55525 214.692 5.50898 214.661 5.47429C214.793 4.27534 214.912 3.56985 215 3.06483C213.791 3.01086 213.135 2.97231 211.658 2.94918C212.102 2.97616 212.762 3.00315 213.294 3.02628C213.826 3.05327 214.23 3.0764 214.191 3.09953C213.624 3.06869 213.25 3.05326 213.039 3.04941C212.828 3.04555 212.779 3.04941 212.832 3.06098C212.942 3.08411 213.456 3.12651 213.927 3.14193C212.951 3.1535 211.35 3.12266 209.354 3.06869C209.23 3.06483 209.103 3.06098 208.975 3.05712C208.914 3.05712 208.852 3.05326 208.791 3.05326L208.659 3.04941C208.483 3.0417 208.298 3.03784 208.118 3.03013C207.753 3.01471 207.375 3.00315 206.996 2.98773C206.236 2.95689 205.453 2.92605 204.688 2.89906C201.627 2.77955 198.817 2.68317 198.549 2.80268V2.75642C197.951 2.9299 198.905 3.1188 197.115 3.19976L195.928 3.10338L194.134 3.16121C192.933 3.08796 193.522 3.04555 193.527 3.02242C190.607 3.07254 186.53 2.92605 182.995 2.86051L186.733 3.40023C183.751 3.24988 178.369 2.95689 177.77 3.11109L175.981 2.92219C170 2.53282 171.803 3.01086 169.415 2.88749L166.412 2.67161L169.402 2.71016C166.412 2.58294 165.215 2.50969 162.836 2.3632L162.81 2.36705C162.973 2.37476 163.078 2.38633 163.1 2.39789H162.682C162.318 2.48271 160.756 2.52897 158.65 2.49813C155.66 2.43644 153.316 2.54439 148.54 2.29766L147.344 2.47114L143.755 2.31308L143.76 2.16658C147.274 2.2167 153.887 2.23598 158.404 2.27838L158.483 2.21285C155.805 2.182 152.757 2.21285 150.985 2.17815C150.123 2.1396 147.916 1.95841 149.521 1.87745L147.863 2.00467C138.923 1.91986 138.865 1.92371 129.538 1.65L130.347 1.73481C128.496 1.75794 126.649 1.77722 126.139 1.65385C120.536 1.56518 114.736 1.40327 111.099 1.17582L110.299 1.34159C109.116 1.31846 107.348 1.03318 106.768 1.27219L104.239 1.31846C102.621 1.28761 101.631 1.37628 99.7889 1.25292C99.7845 1.25292 99.7801 1.25292 99.7801 1.25292C99.6658 1.24521 99.5471 1.2375 99.4327 1.22979C99.4327 1.23364 99.4415 1.24135 99.4547 1.24521C95.796 1.1257 99.4899 1.40327 95.299 1.25292C93.9578 1.11413 93.8083 1.45724 91.7678 1.39556L89.723 1.12184C86.0246 0.936797 85.387 1.17967 80.0264 1.11799C77.4538 0.998479 76.2137 0.771026 77.92 0.601401C75.5717 0.801868 76.8514 0.740185 73.7379 0.813433C73.2586 0.713199 73.5928 0.697779 74.2788 0.620676C71.5172 0.478036 72.5726 0.686214 70.4925 0.655373C69.8857 0.824998 69.1821 1.10257 68.5048 1.10257L69.3096 1.16811C67.102 1.2375 64.6922 1.25292 62.1328 1.13726L62.2295 1.0486L59.4987 1.06402L59.3272 0.948363L55.431 0.940652L55.9631 0.979204C55.0484 0.983059 52.0449 0.986914 50.3254 0.909811L50.387 0.848129C45.5453 0.59369 41.5435 0.809578 35.8707 0.763316L36.6183 0.643807C34.6878 0.493457 36.0862 0.836564 33.7819 0.747896L33.6675 0.58598C31.6359 0.771026 31.0466 0.512733 29.6482 0.416354L30.299 0.632242L27.6693 0.558994C24.7713 0.454906 25.8927 0.273714 26.3193 0.169626L24.3448 0.312266L23.9622 0.123364C22.5154 0.319976 22.5198 0.0732475 19.9912 0.15806C19.7977 0.0732475 20.4354 0.0385513 19.5778 0L15.4046 0.212032L17.92 0.127219L17.6121 0.393224C14.9912 0.566705 14.0677 0.323831 12.1944 0.377803L13.4828 0.312266C10.431 0.343107 10.2683 0.227453 8.54881 0.146495C9.08091 0.204322 9.89886 0.28528 8.66315 0.308411C8.54881 0.308411 8.45646 0.308411 8.38171 0.304555C8.34213 0.304555 8.30695 0.3007 8.27617 0.3007C8.22339 0.296845 8.17942 0.296845 8.13544 0.29299C7.95954 0.281425 7.854 0.269859 7.75286 0.250584C7.54617 0.219743 7.34389 0.181191 6.56992 0.15806C6.45998 0.227453 5.80475 0.27757 4.88127 0.308411C3.95339 0.331541 2.75286 0.339252 1.4292 0.316121C1.4204 0.597546 1.38962 0.882825 1.34565 1.16039C1.28848 1.1257 1.23131 1.07558 1.19613 0.967638C1.22691 1.16425 1.26649 1.31846 1.28848 1.49965C1.31047 1.68084 1.30607 1.88516 1.2533 2.19743C1.09938 2.04708 0.949868 1.88516 0.795954 1.71553C0.936675 2.18586 1.0774 2.63306 1.21812 3.05326C1.20932 3.10724 1.20053 3.16121 1.19613 3.21518C1.19173 3.25373 1.18734 3.29228 1.18294 3.33083C1.17854 3.39637 1.17854 3.46576 1.18294 3.5313C1.19173 3.66623 1.20932 3.79731 1.22252 3.91296C1.2489 4.14427 1.2533 4.30618 1.09499 4.27149L1.00704 3.99392L0.83993 7.68328L0.470537 7.72954C0.971856 8.09963 0.246262 9.73806 0.883905 9.62241C0.527704 10.3163 1.08619 12.3711 0.378188 11.9509C0.28584 14.3758 0.954266 15.6942 0.562885 18.6357C-0.0615655 19.6805 0.0923483 22.5602 0 24.4531C0.057168 25.4362 0.105541 26.3267 0.158311 27.1787C0.171504 27.3907 0.184697 27.6027 0.197889 27.8109C0.206684 28.1733 0.219877 28.5318 0.228672 28.8904C0.246262 29.6383 0.26825 30.3823 0.28584 31.1341C1.79859 31.1418 3.32454 31.1456 4.87687 31.1533C5.64204 31.1572 6.41601 31.161 7.19877 31.1649C7.39226 31.1649 7.59015 31.1649 7.78364 31.1687C7.89358 31.1687 8.00792 31.1687 8.12225 31.1687C8.34213 31.1687 8.56201 31.1687 8.78628 31.1687C10.5629 31.1687 12.445 31.1726 14.5031 31.1726C19.7757 31.6005 27.6693 31.1996 33.3465 31.4694L34.9033 31.3422C38.6763 31.6159 44.4415 31.4001 49.7361 31.6853C51.0334 31.6352 51.715 31.6237 52.0185 31.6237C51.7766 31.6121 51.4116 31.5812 51.3017 31.4887C52.8144 31.5697 55.8751 31.5234 55.6552 31.7085L55.2726 31.7239C55.0484 31.9051 59.8637 31.6892 61.5479 31.8704L60.6245 31.6622L63.4872 31.7277L62.7177 31.7586C75.1671 31.4656 80.7828 32.1557 92.4758 31.8897C90.9235 32.0863 94.7801 31.8048 94.9296 32.04C97.8716 32.3715 100.391 32.04 102.81 31.986C102.81 31.9745 102.841 31.9629 102.977 31.9436L107.199 32.0207C104.67 32.2906 110.246 31.8087 107.924 32.0361C118.936 32.387 133.311 32.3253 146.06 32.572L145.501 32.4872C148.734 32.5373 152.757 32.4911 155.211 32.6414C157.665 32.7918 160.58 32.5103 161.535 32.5065C164.226 32.4062 166.667 32.6954 165.515 32.6684C168.391 32.6645 171.099 32.4255 175.088 32.5874C176.447 32.8534 185.976 32.4641 186.095 32.7493L186.139 32.7262C191.245 32.9845 196.073 32.6992 201.574 32.946C201.574 32.946 201.469 32.9652 201.284 32.9845L212.498 32.252L209.323 31.2651L199.626 30.3823L173.311 30.2474L152.318 29.7038L101.209 29.2181L97.555 29.3915C87.5198 28.9019 74.635 29.1834 63.8171 28.794L63.5884 28.9752C60.5409 28.952 60.7476 28.8402 59.9956 28.7978C50.5805 28.7015 41.0686 28.6282 31.6359 28.555C26.9173 28.5164 22.2208 28.4779 17.5638 28.4393C14.0062 28.4046 10.4793 28.3738 7.00088 28.3429C7.00968 27.8186 7.02287 27.2982 7.03166 26.7816C7.05805 25.7985 7.08443 24.8271 7.11082 23.8594C7.17678 21.928 7.26473 20.039 7.37907 18.1885C7.6781 17.1322 7.55937 13.9055 7.87159 13.0766C7.63852 11.2878 7.53298 9.44893 7.5066 7.60618C7.4934 6.6848 7.4934 5.76728 7.5066 4.85361C7.51539 4.39871 7.52419 3.9438 7.53298 3.4889L7.53738 3.33469L7.54178 3.3077L7.54617 3.25373C7.55057 3.21904 7.55497 3.18048 7.55937 3.14579L7.60774 3.18048L7.56377 3.04941L7.90237 3.03399C7.94635 3.04941 7.96834 3.07254 7.96394 3.08411C8.02111 3.06483 8.10906 3.04941 8.2146 3.0417C8.2058 3.0417 8.26297 3.0417 8.29815 3.0417H8.41689C8.49604 3.0417 8.5752 3.0417 8.65435 3.0417C8.81266 3.0417 8.97537 3.0417 9.13808 3.0417C9.4635 3.0417 9.79771 3.04555 10.1363 3.04555C11.4908 3.05327 12.942 3.0764 14.4239 3.11109C17.3879 3.17277 20.4749 3.2653 23.175 3.33083L22.8584 3.34626C54.3668 3.74333 83.628 3.73562 114.872 4.35244C129.398 4.81892 146.306 4.59917 162.973 5.04251C166.038 5.25455 199.767 5.50127 202.748 5.45116Z" fill="#FCF0DD"/>
<path d="M209.404 20.8988V20.8409C209.221 20.8409 209.288 20.9258 209.404 20.8988Z" fill="#FCF0DD"/>
<path d="M182.761 2.85284C182.836 2.85284 182.911 2.85669 182.981 2.85669L182.154 2.73718L182.761 2.85284Z" fill="#FCF0DD"/>
<path d="M214.638 10.1698C214.708 9.30627 214.664 9.26772 214.591 9.38722C214.578 9.69949 214.586 9.9732 214.638 10.1698Z" fill="#FCF0DD"/>
<path d="M209.64 27.9573C209.618 28.4122 209.727 28.2387 209.851 27.9727C209.837 27.5101 209.829 27.1863 209.829 27.1863C209.785 27.4446 209.688 27.6952 209.64 27.9573Z" fill="#FCF0DD"/>
<path d="M212.114 26.1339L212.259 26.2766C212.229 26.0106 212.171 26.0221 212.114 26.1339Z" fill="#FCF0DD"/>
</svg>
