<svg width="170" height="23" viewBox="0 0 170 23" fill="none" xmlns="http://www.w3.org/2000/svg">
<path d="M41.1274 21.6077C41.3117 21.6174 41.4021 21.6077 41.1274 21.6077V21.6077Z" fill="#FFCF00"/>
<path d="M55.5991 0.443604C55.6548 0.443604 55.6826 0.443604 55.7382 0.443604C55.839 0.419529 55.9329 0.39813 56.0268 0.38208L55.5991 0.443604Z" fill="#FFCF00"/>
<path d="M78.4824 0.829622C78.5345 0.832236 78.5728 0.83485 78.6214 0.837463C78.611 0.821781 78.6388 0.806099 78.4824 0.829622Z" fill="#FFCF00"/>
<path d="M0.918306 0.403076C0.911379 0.529516 0.925233 0.603273 0.946014 0.661224C0.93216 0.584834 0.921769 0.505809 0.918306 0.403076Z" fill="#FFCF00"/>
<path d="M83.0681 21.8899C83.0681 21.8899 83.009 21.8899 82.9673 21.8899C83.0473 21.8951 83.1307 21.9004 83.2142 21.9083L83.0681 21.8899Z" fill="#FFCF00"/>
<path d="M82.6054 21.9303C82.1012 21.9063 82.7445 21.8956 82.967 21.8929C82.4107 21.853 81.8509 21.845 81.2876 21.8556C81.2911 21.8929 82.3585 21.8983 82.6054 21.9303Z" fill="#FFCF00"/>
<path d="M159.147 22.5381L158.918 22.5515C159.012 22.5489 159.081 22.5435 159.147 22.5381Z" fill="#FFCF00"/>
<path d="M6.30045 2.10767C6.29015 2.11046 6.27298 2.11325 6.26611 2.11605C6.29015 2.11884 6.29701 2.11325 6.30045 2.10767Z" fill="#FFCF00"/>
<path d="M147.137 22.3799L147.005 22.4414C147.124 22.4173 147.148 22.3986 147.137 22.3799Z" fill="#FFCF00"/>
<path d="M56.0269 0.385773L56.1936 0.36084C56.1346 0.36638 56.0825 0.374691 56.0269 0.385773Z" fill="#FFCF00"/>
<path d="M99.626 1.08008C99.6329 1.09851 99.6816 1.11431 99.7373 1.12747C99.7651 1.12747 99.7825 1.12747 99.7964 1.12747L99.626 1.08008Z" fill="#FFCF00"/>
<path d="M167.917 16.7656C167.938 16.763 167.959 16.7551 167.983 16.7445L167.868 16.5837C167.875 16.6681 167.892 16.7261 167.917 16.7656Z" fill="#FFCF00"/>
<path d="M128.626 1.63678C128.65 1.62879 128.719 1.62346 128.726 1.61547C128.233 1.58884 126.922 1.57286 125.249 1.55688L125.145 1.63145L128.626 1.63678Z" fill="#FFCF00"/>
<path d="M160.313 3.72514L157.225 3.54073C159.482 3.546 161.467 3.5618 163.282 3.58288C163.738 3.58815 164.179 3.59342 164.614 3.59869C164.722 3.60132 164.83 3.60132 164.937 3.60396L165.08 3.60659H165.115C165.16 3.60659 165.202 3.60922 165.247 3.60922C165.414 3.61449 165.574 3.61976 165.73 3.6224C165.72 3.69353 165.709 3.76466 165.699 3.83579L165.695 3.86213L165.692 3.97015C165.688 4.05708 165.688 4.14402 165.685 4.23359C165.681 4.4101 165.678 4.58661 165.678 4.76576C165.671 5.48233 165.695 6.23843 165.768 7.10253L165.681 6.92602C165.577 7.38442 166.495 7.65314 165.282 12.7298H165.24C165.243 12.9063 165.327 12.9063 165.212 13.2567L165.48 12.3794C165.574 12.9063 165.761 13.3699 165.779 14.0707C165.73 14.2182 165.647 14.2709 165.581 14.2841L165.619 16.007L165.344 16.5313C165.48 17.0582 166.043 16.8237 165.706 18.2305C166.102 17.7036 165.928 18.9313 166.126 18.7601C166.078 18.8312 166.001 18.9919 165.935 19.121C165.967 19.9587 166.047 21.5368 166.241 21.9293C166.241 21.9293 167.117 18.66 167.549 17.7853C167.423 18.9629 167.59 18.0962 167.726 17.8643L167.632 17.7853C167.74 17.0793 167.983 17.0819 168.06 16.7289C168.039 16.7289 168.015 16.7394 167.99 16.75L168.022 16.7947C167.976 16.8264 167.949 16.8079 167.924 16.771C167.872 16.7789 167.83 16.7473 167.848 16.555L167.872 16.5919C167.841 16.2968 167.889 15.7884 167.91 15.5671L168.115 15.5645C167.733 15.0376 168.773 12.0527 168.797 11.3493C169.068 10.6459 168.759 9.76598 168.905 8.88607C168.995 7.4819 169.218 8.1853 169.405 7.4819C169.548 6.60198 169.162 7.65841 169.155 7.30539L169.458 6.2516C169.471 6.86543 169.6 6.53349 169.684 6.42284C169.708 5.96708 169.823 5.37959 169.878 4.87114C169.906 4.61823 169.92 4.38112 169.903 4.19408C169.892 4.09924 169.875 4.01757 169.847 3.94907C169.833 3.92009 169.816 3.87004 169.798 3.83315C169.781 3.79627 169.757 3.76466 169.732 3.74095C169.837 2.92163 169.93 2.43952 170 2.0944C169.044 2.05752 168.526 2.03118 167.357 2.01537C167.709 2.03381 168.23 2.05225 168.651 2.06806C169.072 2.0865 169.392 2.10231 169.36 2.11811C168.912 2.09704 168.616 2.0865 168.449 2.08387C168.282 2.08123 168.244 2.08387 168.286 2.09177C168.373 2.10758 168.78 2.13656 169.152 2.14709C168.38 2.155 167.114 2.13392 165.535 2.09704C165.438 2.0944 165.337 2.09177 165.236 2.08913C165.188 2.08913 165.139 2.0865 165.09 2.0865L164.986 2.08387C164.847 2.0786 164.701 2.07596 164.558 2.07069C164.27 2.06016 163.971 2.05225 163.672 2.04171C163.07 2.02064 162.451 1.99956 161.846 1.98112C159.426 1.89945 157.204 1.83359 156.992 1.91526V1.88365C156.519 2.0022 157.274 2.13129 155.859 2.18661L154.92 2.12075L153.501 2.16027C152.552 2.11021 153.018 2.08123 153.021 2.06542C150.712 2.09967 147.489 1.99956 144.694 1.95478L147.649 2.3236C145.292 2.22086 141.036 2.02064 140.563 2.12602L139.147 1.99693C134.419 1.73085 135.844 2.05752 133.956 1.97322L131.581 1.82569L133.946 1.85203C131.581 1.7651 130.636 1.71504 128.754 1.61493L128.734 1.61756C128.862 1.62283 128.946 1.63074 128.963 1.63864H128.633C128.344 1.6966 127.11 1.72821 125.444 1.70714C123.08 1.66499 121.226 1.73875 117.45 1.57014L116.504 1.6887L113.667 1.58068L113.671 1.48057C116.449 1.51482 121.678 1.52799 125.249 1.55697L125.312 1.51219C123.194 1.49111 120.785 1.51219 119.384 1.48848C118.702 1.46213 116.957 1.33831 118.226 1.28299L116.915 1.36992C109.846 1.31197 109.801 1.3146 102.426 1.12755L103.065 1.18551C101.602 1.20132 100.141 1.21449 99.7378 1.13019C95.3079 1.06959 90.7216 0.958947 87.846 0.803513L87.2132 0.916796C86.2778 0.900989 84.88 0.706038 84.4211 0.869375L82.4217 0.900989C81.1421 0.879913 80.3598 0.940506 78.9029 0.856203C78.8994 0.856203 78.8959 0.856203 78.8959 0.856203C78.8055 0.850934 78.7116 0.845665 78.6212 0.840396C78.6212 0.843031 78.6282 0.848299 78.6386 0.850934C75.7456 0.769265 78.6664 0.958947 75.3527 0.856203C74.2922 0.761362 74.174 0.99583 72.5606 0.953678L70.9437 0.766631C68.0195 0.640176 67.5153 0.806148 63.2767 0.763996C61.2426 0.682328 60.262 0.526894 61.6111 0.410977C59.7544 0.54797 60.7662 0.505818 58.3044 0.555873C57.9254 0.487377 58.1897 0.476839 58.7321 0.42415C56.5485 0.326674 57.383 0.468936 55.7383 0.44786C55.2584 0.563777 54.7021 0.753458 54.1666 0.753458L54.8029 0.798245C53.0574 0.845665 51.152 0.856203 49.1283 0.777169L49.2048 0.716576L47.0455 0.727114L46.9099 0.64808L43.8291 0.642811L44.2499 0.669155C43.5266 0.67179 41.1517 0.674424 39.7922 0.621735L39.8409 0.579583C36.0126 0.405708 32.8484 0.553239 28.3629 0.521625L28.954 0.439957C27.4275 0.337212 28.5333 0.57168 26.7113 0.511087L26.6209 0.40044C25.0144 0.526894 24.5485 0.350385 23.4428 0.284523L23.9574 0.432053L21.8781 0.381998C19.5866 0.310868 20.4733 0.187047 20.8106 0.115917L19.2494 0.213392L18.9468 0.0843031C17.8029 0.218661 17.8063 0.0500549 15.807 0.108013C15.654 0.0500549 16.1582 0.0263447 15.4802 0L12.1804 0.144896L14.1693 0.0869375L13.9259 0.268716C11.8535 0.387267 11.1233 0.221296 9.64206 0.258178L10.6609 0.213392C8.24774 0.234468 8.11908 0.155434 6.75953 0.10011C7.18026 0.139627 7.827 0.194951 6.84993 0.210758C6.75953 0.210758 6.68651 0.210758 6.6274 0.208123C6.5961 0.208123 6.56828 0.205489 6.54394 0.205489C6.50222 0.202854 6.46745 0.202854 6.43268 0.20022C6.29359 0.192316 6.21014 0.184413 6.13017 0.171241C5.96674 0.150165 5.80679 0.12382 5.19482 0.108013C5.10789 0.155434 4.5898 0.189682 3.85961 0.210758C3.12593 0.226564 2.17668 0.231833 1.13006 0.216027C1.12311 0.408343 1.09877 0.603294 1.064 0.792976C1.0188 0.769265 0.973594 0.735017 0.945777 0.661252C0.970117 0.79561 1.00141 0.900989 1.0188 1.02481C1.03618 1.14863 1.03271 1.28826 0.99098 1.50165C0.869281 1.3989 0.751059 1.28826 0.629359 1.17234C0.740627 1.49374 0.851895 1.79934 0.963163 2.0865C0.956209 2.12338 0.949255 2.16027 0.945777 2.19715C0.9423 2.22349 0.938823 2.24984 0.935346 2.27618C0.931869 2.32097 0.931869 2.36839 0.935346 2.41317C0.9423 2.50538 0.956209 2.59495 0.96664 2.67399C0.987503 2.83206 0.99098 2.9427 0.865804 2.91899L0.796261 2.72931L0.66413 5.2505L0.372052 5.28211C0.768444 5.53502 0.194719 6.65467 0.698902 6.57564C0.417255 7.04984 0.858849 8.45402 0.299033 8.16686C0.226013 9.82394 0.754536 10.7249 0.445072 12.735C-0.0486797 13.449 0.0730196 15.4169 0 16.7104C0.0452026 17.3822 0.083451 17.9908 0.125176 18.573C0.135608 18.7179 0.146039 18.8628 0.156471 19.0051C0.163425 19.2527 0.173856 19.4977 0.18081 19.7427C0.194719 20.2538 0.212104 20.7623 0.226013 21.276C1.42214 21.2813 2.6287 21.2839 3.85613 21.2892C4.46115 21.2918 5.07312 21.2944 5.69205 21.2971C5.84504 21.2971 6.00151 21.2971 6.15451 21.2997C6.24144 21.2997 6.33184 21.2997 6.42225 21.2997C6.5961 21.2997 6.76996 21.2997 6.94729 21.2997C8.35205 21.2997 9.84026 21.3023 11.4676 21.3023C15.6366 21.5948 21.8781 21.3208 26.367 21.5052L27.5979 21.4182C30.5813 21.6053 35.1398 21.4578 39.3263 21.6527C40.352 21.6185 40.891 21.6106 41.1309 21.6106C40.9396 21.6027 40.651 21.5816 40.5641 21.5184C41.7602 21.5737 44.1803 21.5421 44.0065 21.6685L43.704 21.6791C43.5266 21.8029 47.3341 21.6553 48.6658 21.7792L47.9356 21.6369L50.1992 21.6817L49.5907 21.7028C59.4345 21.5025 63.8747 21.9741 73.1204 21.7923C71.893 21.9267 74.9424 21.7344 75.0606 21.8951C77.3868 22.1216 79.3792 21.8951 81.2916 21.8582C81.2916 21.8503 81.316 21.8424 81.4238 21.8292L84.7618 21.8819C82.7625 22.0663 87.1715 21.737 85.3355 21.8924C94.0423 22.1322 105.409 22.09 115.489 22.2586L115.048 22.2007C117.603 22.2349 120.785 22.2033 122.725 22.3061C124.665 22.4088 126.971 22.2165 127.725 22.2139C129.853 22.1454 131.783 22.3429 130.872 22.3245C133.146 22.3219 135.288 22.1585 138.442 22.2692C139.516 22.451 147.051 22.1849 147.145 22.3798L147.18 22.364C151.217 22.5405 155.034 22.3456 159.384 22.5142C159.384 22.5142 159.301 22.5274 159.155 22.5405L168.022 22.04L165.511 21.3656L157.844 20.7623L137.037 20.6701L120.437 20.2986L80.026 19.9667L77.1365 20.0852C69.2017 19.7506 59.0137 19.9429 50.46 19.6769L50.2792 19.8007C47.8696 19.7849 48.033 19.7085 47.4384 19.6795C39.9939 19.6136 32.4729 19.5636 25.0144 19.5135C21.2835 19.4872 17.5699 19.4608 13.8876 19.4345C11.0746 19.4108 8.28598 19.3897 5.53558 19.3686C5.54253 19.0103 5.55297 18.6547 5.55992 18.3017C5.58078 17.6299 5.60164 16.966 5.62251 16.3047C5.67466 14.9849 5.74421 13.694 5.83461 12.4294C6.07106 11.7076 5.97717 9.50253 6.22405 8.93612C6.03976 7.71373 5.95631 6.45709 5.93545 5.19781C5.92502 4.56817 5.92502 3.94117 5.93545 3.3168C5.9424 3.00593 5.94936 2.69506 5.95631 2.3842L5.95979 2.27882L5.96327 2.26038L5.96674 2.22349C5.97022 2.19978 5.9737 2.17344 5.97717 2.14973L6.01542 2.17344L5.98065 2.08387L6.24839 2.07333C6.28316 2.08387 6.30055 2.09967 6.29707 2.10758C6.34227 2.0944 6.41181 2.08387 6.49527 2.0786C6.48831 2.0786 6.53351 2.0786 6.56133 2.0786H6.65521C6.7178 2.0786 6.78039 2.0786 6.84298 2.0786C6.96815 2.0786 7.09681 2.0786 7.22546 2.0786C7.48277 2.0786 7.74703 2.08123 8.01477 2.08123C9.08572 2.0865 10.2332 2.10231 11.405 2.12602C13.7485 2.16817 16.1895 2.2314 18.3244 2.27618L18.0741 2.28672C42.9877 2.55807 66.1244 2.5528 90.8294 2.97432C102.314 3.29309 115.684 3.14292 128.862 3.44589C131.286 3.59078 157.955 3.75939 160.313 3.72514Z" fill="#FFCF00"/>
<path d="M165.574 14.2822V14.2419C165.431 14.2419 165.483 14.3009 165.574 14.2822Z" fill="#FFCF00"/>
<path d="M144.509 1.95025C144.568 1.95025 144.627 1.95291 144.682 1.95291L144.029 1.87036L144.509 1.95025Z" fill="#FFCF00"/>
<path d="M169.715 6.94946C169.77 6.35942 169.736 6.33308 169.676 6.41473C169.666 6.6281 169.673 6.81512 169.715 6.94946Z" fill="#FFCF00"/>
<path d="M165.761 19.1052C165.744 19.4161 165.831 19.2975 165.928 19.1158C165.917 18.7997 165.91 18.5784 165.91 18.5784C165.876 18.7549 165.799 18.9261 165.761 19.1052Z" fill="#FFCF00"/>
<path d="M167.719 17.8592L167.833 17.9566C167.809 17.7749 167.764 17.7828 167.719 17.8592Z" fill="#FFCF00"/>
</svg>
