<svg width="203" height="49" viewBox="0 0 203 49" fill="none" xmlns="http://www.w3.org/2000/svg">
<path d="M3.89289 2.25593L3.49512 44.1135L200.625 47.6741L201.023 5.81652L3.89289 2.25593Z" fill="#009167"/>
<path d="M49.1104 46.9507C49.3304 46.9664 49.4384 46.9507 49.1104 46.9507V46.9507Z" fill="#009167"/>
<path d="M66.3921 0.961737C66.4585 0.961737 66.4917 0.961737 66.5582 0.961737C66.6786 0.910218 66.7907 0.864424 66.9028 0.830078L66.3921 0.961737Z" fill="#009167"/>
<path d="M93.7178 1.80313C93.78 1.80885 93.8257 1.81458 93.8838 1.8203C93.8713 1.78595 93.9045 1.75161 93.7178 1.80313Z" fill="#009167"/>
<path d="M1.09595 0.875732C1.08748 1.1505 1.10442 1.31078 1.12982 1.43671C1.11289 1.27071 1.10019 1.09898 1.09595 0.875732Z" fill="#009167"/>
<path d="M99.1937 47.5632C99.1937 47.5632 99.1231 47.5632 99.0732 47.5632C99.1687 47.5747 99.2684 47.5861 99.3681 47.6033L99.1937 47.5632Z" fill="#009167"/>
<path d="M98.641 47.649C98.039 47.5975 98.8071 47.5746 99.0728 47.5689C98.4085 47.483 97.74 47.4658 97.0674 47.4887C97.0715 47.5689 98.3462 47.5803 98.641 47.649Z" fill="#009167"/>
<path d="M190.041 48.9714L189.767 49.0001C189.879 48.9943 189.962 48.9829 190.041 48.9714Z" fill="#009167"/>
<path d="M7.5248 4.57935C7.51209 4.58492 7.4909 4.59048 7.48242 4.59605C7.51209 4.60162 7.52057 4.59049 7.5248 4.57935Z" fill="#009167"/>
<path d="M175.7 48.6279L175.542 48.7596C175.683 48.7081 175.712 48.668 175.7 48.6279Z" fill="#009167"/>
<path d="M66.9033 0.835698L67.1025 0.78418C67.0319 0.795628 66.9697 0.812801 66.9033 0.835698Z" fill="#009167"/>
<path d="M118.966 2.34692C118.974 2.38699 119.032 2.42134 119.099 2.44996C119.132 2.44996 119.153 2.44996 119.169 2.44996L118.966 2.34692Z" fill="#009167"/>
<path d="M200.512 36.4294C200.537 36.4237 200.562 36.4065 200.591 36.3836L200.454 36.0344C200.462 36.2176 200.483 36.3435 200.512 36.4294Z" fill="#009167"/>
<path d="M153.594 3.55479C153.623 3.53761 153.706 3.52616 153.714 3.50899C153.125 3.45175 151.559 3.4174 149.562 3.38306L149.438 3.54334L153.594 3.55479Z" fill="#009167"/>
<path d="M191.432 8.09416L187.745 7.69346C190.44 7.70491 192.811 7.73925 194.978 7.78505C195.522 7.7965 196.049 7.80794 196.568 7.81939C196.697 7.82512 196.826 7.82512 196.955 7.83084L197.125 7.83657H197.166C197.22 7.83657 197.27 7.84229 197.324 7.84229C197.523 7.85374 197.714 7.86519 197.901 7.87091C197.889 8.02547 197.876 8.18002 197.864 8.33458L197.86 8.39182L197.856 8.62652C197.851 8.81542 197.851 9.00432 197.847 9.19895C197.843 9.58248 197.839 9.96601 197.839 10.3553C197.831 11.9123 197.86 13.5551 197.947 15.4327L197.843 15.0492C197.719 16.0452 198.815 16.6291 197.366 27.6598H197.316C197.32 28.0433 197.42 28.0433 197.283 28.8047L197.602 26.8985C197.714 28.0433 197.939 29.0508 197.959 30.5735C197.901 30.894 197.802 31.0085 197.723 31.0372L197.768 34.7808L197.44 35.92C197.602 37.0648 198.275 36.5554 197.872 39.6121C198.345 38.4673 198.138 41.1348 198.375 40.7627C198.316 40.9173 198.225 41.2665 198.146 41.547C198.184 43.3673 198.279 46.7961 198.512 47.6491C198.512 47.6491 199.558 40.5452 200.073 38.6447C199.923 41.2035 200.123 39.3202 200.285 38.8165L200.172 38.6447C200.301 37.1106 200.592 37.1164 200.683 36.3493C200.658 36.3493 200.629 36.3722 200.6 36.3951L200.637 36.4924C200.583 36.5611 200.55 36.521 200.521 36.4409C200.459 36.4581 200.409 36.3894 200.43 35.9715L200.459 36.0516C200.422 35.4105 200.48 34.3057 200.505 33.8249L200.75 33.8192C200.293 32.6743 201.534 26.1887 201.563 24.6603C201.887 23.1319 201.518 21.22 201.692 19.3081C201.8 16.257 202.066 17.7854 202.29 16.257C202.46 14.3451 201.999 16.6405 201.991 15.8735L202.352 13.5838C202.369 14.9175 202.523 14.1963 202.622 13.9558C202.651 12.9655 202.788 11.689 202.855 10.5842C202.888 10.0347 202.905 9.51951 202.884 9.11308C202.871 8.90701 202.851 8.72956 202.817 8.58073C202.801 8.51776 202.78 8.409 202.759 8.32886C202.738 8.24872 202.709 8.18002 202.68 8.12851C202.805 6.34825 202.917 5.3007 203 4.55082C201.858 4.47068 201.24 4.41343 199.844 4.37909C200.264 4.41916 200.887 4.45923 201.389 4.49358C201.891 4.53365 202.273 4.56799 202.236 4.60234C201.7 4.55654 201.347 4.53365 201.148 4.52792C200.949 4.5222 200.903 4.52792 200.953 4.54509C201.057 4.57944 201.543 4.64241 201.987 4.6653C201.065 4.68248 199.554 4.63668 197.669 4.55654C197.552 4.55082 197.432 4.54509 197.312 4.53937C197.254 4.53937 197.195 4.53365 197.137 4.53365L197.013 4.52792C196.847 4.51647 196.672 4.51075 196.502 4.4993C196.157 4.4764 195.8 4.45923 195.443 4.43633C194.725 4.39054 193.986 4.34474 193.263 4.30467C190.373 4.12722 187.72 3.98411 187.467 4.16157V4.09287C186.902 4.35047 187.803 4.63096 186.113 4.75117L184.992 4.60806L183.298 4.69393C182.165 4.58516 182.721 4.5222 182.725 4.48785C179.968 4.56227 176.119 4.34474 172.781 4.24743L176.31 5.04883C173.495 4.82558 168.413 4.39054 167.848 4.61951L166.158 4.33902C160.512 3.76086 162.214 4.47068 159.959 4.2875L157.124 3.96694L159.947 4.02418C157.124 3.83528 155.994 3.72652 153.748 3.509L153.723 3.51472C153.877 3.52617 153.976 3.54334 153.997 3.56051H153.603C153.258 3.68645 151.784 3.75514 149.795 3.70935C146.972 3.61776 144.759 3.77804 140.249 3.41168L139.12 3.66928L135.732 3.43458L135.736 3.21706C139.054 3.29147 145.298 3.32009 149.563 3.38306L149.637 3.28575C147.109 3.23995 144.231 3.28575 142.558 3.23423C141.744 3.17699 139.66 2.90794 141.175 2.78773L139.61 2.97664C131.169 2.8507 131.115 2.85643 122.308 2.45L123.072 2.57593C121.324 2.61028 119.58 2.6389 119.099 2.45572C113.809 2.32407 108.332 2.08365 104.898 1.74591L104.143 1.99206C103.026 1.95771 101.357 1.53411 100.809 1.88902L98.4212 1.95771C96.8932 1.91192 95.959 2.04358 94.2193 1.8604C94.2151 1.8604 94.211 1.8604 94.211 1.8604C94.103 1.84895 93.9909 1.8375 93.883 1.82605C93.883 1.83178 93.8913 1.84322 93.9037 1.84895C90.4492 1.6715 93.937 2.08365 89.98 1.8604C88.7136 1.65432 88.5724 2.16379 86.6459 2.0722L84.7152 1.66577C81.2233 1.391 80.6212 1.75164 75.5598 1.66005C73.1308 1.48259 71.9599 1.14486 73.5709 0.892991C71.3537 1.19065 72.562 1.09907 69.6223 1.20783C69.1697 1.059 69.4853 1.0361 70.133 0.921612C67.5255 0.709813 68.522 1.01893 66.5581 0.973131C65.9851 1.225 65.3207 1.63715 64.6813 1.63715L65.4411 1.73446C63.3568 1.8375 61.0814 1.8604 58.6649 1.68867L58.7563 1.55701L56.1778 1.57991L56.0159 1.40818L52.3371 1.39673L52.8395 1.45397C51.9759 1.4597 49.14 1.46542 47.5166 1.35093L47.5747 1.25935C43.0032 0.881542 39.2248 1.2021 33.8686 1.13341L34.5745 0.955958C32.7517 0.73271 34.0721 1.24217 31.8964 1.11051L31.7884 0.870094C29.8702 1.14486 29.3138 0.761332 27.9934 0.618224L28.6079 0.938785L26.125 0.830023C23.3887 0.675467 24.4475 0.406425 24.8503 0.251869L22.986 0.463668L22.6248 0.183178C21.2587 0.475117 21.2629 0.108762 18.8754 0.234696C18.6927 0.108762 19.2948 0.057243 18.4851 0L14.5448 0.314836L16.9198 0.188902L16.6291 0.583879C14.1545 0.841472 13.2825 0.480841 11.5138 0.560981L12.7303 0.463668C9.84876 0.509463 9.69514 0.337734 8.07167 0.217523C8.57407 0.303388 9.34636 0.423598 8.17962 0.457944C8.07167 0.457944 7.98448 0.457944 7.91389 0.45222C7.87652 0.45222 7.8433 0.446495 7.81424 0.446495C7.76441 0.440771 7.72289 0.440771 7.68137 0.435047C7.51529 0.417874 7.41564 0.400701 7.32014 0.372079C7.12499 0.326285 6.934 0.269042 6.20323 0.234696C6.09942 0.337734 5.48076 0.41215 4.60882 0.457944C3.73273 0.49229 2.59921 0.503738 1.34943 0.469393C1.34113 0.887266 1.31206 1.31086 1.27054 1.72301C1.21656 1.6715 1.16259 1.59708 1.12937 1.4368C1.15843 1.72874 1.1958 1.95771 1.21656 2.22675C1.23732 2.49579 1.23317 2.79918 1.18335 3.26285C1.03802 3.0396 0.896852 2.79918 0.751529 2.54731C0.884396 3.24568 1.01726 3.9097 1.15013 4.53365C1.14183 4.61379 1.13352 4.69393 1.12937 4.77407C1.12522 4.83131 1.12107 4.88855 1.11691 4.9458C1.11276 5.04311 1.11276 5.14614 1.11691 5.24346C1.12522 5.44381 1.14183 5.63843 1.15428 5.81016C1.17919 6.15362 1.18335 6.39404 1.03387 6.34252L0.950829 5.93037L0.79305 11.4085L0.444274 11.4772C0.917613 12.0268 0.232517 14.4596 0.834571 14.2879C0.498251 15.3182 1.02557 18.3693 0.35708 17.7453C0.269886 21.3459 0.901004 23.3036 0.531468 27.6713C-0.0581293 29.2225 0.087194 33.4986 0 36.3092C0.0539772 37.7689 0.0996502 39.0912 0.149475 40.3563C0.161932 40.6711 0.174388 40.986 0.186844 41.2951C0.195148 41.8332 0.207605 42.3655 0.215909 42.8979C0.232517 44.0084 0.253278 45.1132 0.269886 46.2294C1.69821 46.2409 3.13898 46.2466 4.60467 46.2581C5.32714 46.2638 6.0579 46.2695 6.79698 46.2752C6.97967 46.2752 7.16651 46.2752 7.34921 46.281C7.45301 46.281 7.56096 46.281 7.66892 46.281C7.87652 46.281 8.08413 46.281 8.29588 46.281C9.97333 46.281 11.7504 46.2867 13.6936 46.2867C18.672 46.9221 26.125 46.3268 31.4853 46.7275L32.9552 46.5386C36.5177 46.945 41.9611 46.6244 46.9602 47.048C48.185 46.9736 48.8286 46.9564 49.1151 46.9564C48.8867 46.9393 48.5421 46.8935 48.4383 46.7561C49.8666 46.8763 52.7565 46.8076 52.5489 47.0824L52.1877 47.1053C51.9759 47.3743 56.5224 47.0537 58.1127 47.3228L57.2408 47.0137L59.9438 47.111L59.2172 47.1568C70.9717 46.7217 76.2739 47.7464 87.3144 47.3514C85.8487 47.6433 89.4901 47.2255 89.6312 47.5747C92.409 48.0669 94.7881 47.5747 97.0718 47.4945C97.0718 47.4773 97.1009 47.4602 97.2296 47.4315L101.216 47.546C98.8281 47.9467 104.093 47.2312 101.901 47.5689C112.298 48.0898 125.871 47.9983 137.908 48.3646L137.38 48.2387C140.432 48.3131 144.231 48.2444 146.548 48.4676C148.865 48.6909 151.618 48.273 152.519 48.2673C155.06 48.1185 157.364 48.5478 156.276 48.5077C158.992 48.502 161.55 48.1471 165.316 48.3875C166.599 48.7825 175.596 48.2043 175.708 48.6279L175.75 48.5936C180.57 48.9771 185.129 48.5535 190.324 48.9199C190.324 48.9199 190.224 48.9485 190.05 48.9771L200.637 47.8895L197.64 46.4241L188.484 45.1132L163.638 44.9129L143.816 44.1057L95.5604 43.3845L92.11 43.6421C82.635 42.9151 70.4693 43.3329 60.2552 42.7548L60.0393 43.0238C57.1619 42.9895 57.357 42.8235 56.647 42.7605C47.7574 42.6174 38.7764 42.5087 29.8702 42.3999C25.415 42.3426 20.9805 42.2854 16.5835 42.2282C13.2244 42.1766 9.89444 42.1308 6.61013 42.085C6.61844 41.3065 6.63089 40.5338 6.6392 39.7667C6.66411 38.307 6.68902 36.8645 6.71393 35.4277C6.77622 32.5598 6.85926 29.7549 6.96721 27.0072C7.24956 25.4388 7.13745 20.6475 7.43225 19.4168C7.21219 16.7607 7.11254 14.0303 7.08762 11.294C7.07517 9.92593 7.07517 8.56355 7.08762 7.20689C7.09593 6.53143 7.10423 5.85596 7.11253 5.18049L7.11669 4.95152L7.12084 4.91145L7.12499 4.83131C7.12914 4.77979 7.1333 4.72255 7.13745 4.67103L7.18312 4.72255L7.1416 4.52792L7.46131 4.50502C7.50283 4.52792 7.52359 4.56227 7.51944 4.57944C7.57342 4.55082 7.65646 4.52792 7.75611 4.51647C7.74781 4.51647 7.80178 4.51647 7.835 4.51647H7.94711C8.02184 4.51647 8.09658 4.51647 8.17132 4.51647C8.3208 4.51647 8.47442 4.51647 8.62805 4.51647C8.93531 4.51647 9.25086 4.5222 9.57057 4.5222C10.8494 4.53365 12.2196 4.56799 13.6189 4.61951C16.4174 4.7111 19.3321 4.84848 21.8815 4.9458L21.5826 4.96869C51.3323 5.5583 78.9604 5.54685 108.461 6.46273C122.175 7.15537 138.14 6.82909 153.877 7.48738C156.771 7.80222 188.617 8.16858 191.432 8.09416Z" fill="#009167"/>
<path d="M197.714 31.0314V30.9456C197.544 30.9456 197.607 31.0715 197.714 31.0314Z" fill="#009167"/>
<path d="M172.56 4.23594C172.631 4.23594 172.701 4.24166 172.768 4.24166L171.987 4.06421L172.56 4.23594Z" fill="#009167"/>
<path d="M202.659 15.1006C202.726 13.8184 202.685 13.7612 202.614 13.9386C202.601 14.4023 202.609 14.8087 202.659 15.1006Z" fill="#009167"/>
<path d="M197.939 41.5125C197.918 42.188 198.022 41.9304 198.138 41.5354C198.125 40.8485 198.117 40.3677 198.117 40.3677C198.076 40.7512 197.984 41.1233 197.939 41.5125Z" fill="#009167"/>
<path d="M200.275 38.8051L200.412 39.0169C200.383 38.6219 200.329 38.6391 200.275 38.8051Z" fill="#009167"/>
<path d="M32.6217 20.156C31.7161 20.156 30.8884 19.9502 30.1387 19.5385C29.3934 19.1225 28.8062 18.5548 28.3772 17.8355C27.9526 17.1162 27.7402 16.321 27.7402 15.45C27.7402 14.579 27.9526 13.7838 28.3772 13.0645C28.8062 12.3452 29.3934 11.7797 30.1387 11.368C30.8884 10.952 31.7161 10.744 32.6217 10.744C33.7961 10.744 34.8361 11.095 35.7417 11.797L34.8122 13.1685C34.4482 12.9085 34.0929 12.7092 33.7462 12.5705C33.4039 12.4275 33.0291 12.356 32.6217 12.356C31.7724 12.356 31.0574 12.6528 30.4767 13.2465C29.8961 13.8402 29.6057 14.5747 29.6057 15.45C29.6057 16.3253 29.8961 17.0598 30.4767 17.6535C31.0574 18.2472 31.7724 18.544 32.6217 18.544C33.0291 18.544 33.4277 18.4638 33.8177 18.3035C34.2077 18.1432 34.5609 17.9308 34.8772 17.6665L35.8522 19.025C34.9422 19.779 33.8654 20.156 32.6217 20.156ZM37.5199 19.1355C36.8049 18.4552 36.4474 17.621 36.4474 16.633C36.4474 15.645 36.8049 14.8108 37.5199 14.1305C38.2349 13.4502 39.1232 13.11 40.1849 13.11C40.8869 13.11 41.5239 13.266 42.0959 13.578C42.6679 13.89 43.1142 14.3147 43.4349 14.852C43.7599 15.3893 43.9224 15.983 43.9224 16.633C43.9224 17.283 43.7599 17.8767 43.4349 18.414C43.1142 18.9513 42.6679 19.376 42.0959 19.688C41.5239 20 40.8869 20.156 40.1849 20.156C39.1232 20.156 38.2349 19.8158 37.5199 19.1355ZM38.2414 16.633C38.2414 17.1833 38.4277 17.6448 38.8004 18.0175C39.1731 18.3902 39.6346 18.5765 40.1849 18.5765C40.7352 18.5765 41.1967 18.3902 41.5694 18.0175C41.9464 17.6448 42.1349 17.1833 42.1349 16.633C42.1349 16.087 41.9464 15.6277 41.5694 15.255C41.1967 14.878 40.7352 14.6895 40.1849 14.6895C39.6346 14.6895 39.1731 14.878 38.8004 15.255C38.4277 15.6277 38.2414 16.087 38.2414 16.633ZM45.2048 13.266H46.9923V14.007C47.209 13.7383 47.4755 13.5238 47.7918 13.3635C48.1082 13.2032 48.4462 13.123 48.8058 13.123C49.2782 13.123 49.7028 13.2248 50.0798 13.4285C50.4612 13.6322 50.7667 13.916 50.9963 14.28C51.239 13.929 51.5597 13.6473 51.9583 13.435C52.357 13.2183 52.7773 13.11 53.2193 13.11C53.995 13.11 54.6255 13.3657 55.1108 13.877C55.6005 14.384 55.8453 15.0362 55.8453 15.8335V20H54.0578V16.0155C54.0578 15.6385 53.9452 15.3243 53.7198 15.073C53.4988 14.8173 53.2042 14.6895 52.8358 14.6895C52.5628 14.6895 52.3007 14.7805 52.0493 14.9625C51.798 15.1402 51.5835 15.372 51.4058 15.658C51.4145 15.8487 51.4188 15.996 51.4188 16.1V20H49.6313V16.0155C49.6313 15.6298 49.5187 15.3135 49.2933 15.0665C49.068 14.8152 48.7733 14.6895 48.4093 14.6895C48.1363 14.6895 47.8742 14.7783 47.6228 14.956C47.3758 15.1337 47.1657 15.3612 46.9923 15.6385V20H45.2048V13.266ZM57.4756 20V13.266H59.2631V20H57.4756ZM57.6186 12.2065C57.4149 12.0072 57.3131 11.7623 57.3131 11.472C57.3131 11.1817 57.4149 10.9368 57.6186 10.7375C57.8223 10.5382 58.0736 10.4385 58.3726 10.4385C58.6716 10.4385 58.9229 10.5382 59.1266 10.7375C59.3303 10.9368 59.4321 11.1817 59.4321 11.472C59.4321 11.7623 59.3303 12.0072 59.1266 12.2065C58.9229 12.4058 58.6716 12.5055 58.3726 12.5055C58.0736 12.5055 57.8223 12.4058 57.6186 12.2065ZM62.4009 17.166C62.4789 17.634 62.6956 18.0132 63.0509 18.3035C63.4106 18.5895 63.8439 18.7325 64.3509 18.7325C65.0572 18.7325 65.6942 18.453 66.2619 17.894L67.3344 18.934C66.5847 19.7487 65.5924 20.156 64.3574 20.156C63.8114 20.156 63.3022 20.065 62.8299 19.883C62.3576 19.701 61.9589 19.4518 61.6339 19.1355C61.3089 18.8192 61.0532 18.4465 60.8669 18.0175C60.6849 17.5842 60.5939 17.1227 60.5939 16.633C60.5939 16.1477 60.6871 15.6883 60.8734 15.255C61.0597 14.8217 61.3132 14.449 61.6339 14.137C61.9589 13.8207 62.3489 13.5715 62.8039 13.3895C63.2589 13.2032 63.7421 13.11 64.2534 13.11C64.9251 13.11 65.5317 13.2638 66.0734 13.5715C66.6151 13.8748 67.0354 14.2865 67.3344 14.8065C67.6334 15.3222 67.7829 15.892 67.7829 16.516C67.7829 16.7413 67.7569 16.958 67.7049 17.166H62.4009ZM64.2404 14.5335C63.8201 14.5335 63.4452 14.657 63.1159 14.904C62.7909 15.151 62.5677 15.4803 62.4464 15.892H65.9434C65.8437 15.4847 65.6422 15.1575 65.3389 14.9105C65.0356 14.6592 64.6694 14.5335 64.2404 14.5335ZM70.8595 15.619V20H69.072V13.266H70.8595V14.007C71.0892 13.734 71.3709 13.5173 71.7045 13.357C72.0425 13.1923 72.3914 13.11 72.751 13.11C73.544 13.11 74.1897 13.3635 74.688 13.8705C75.1907 14.3775 75.442 15.0383 75.442 15.853V20H73.6545V16.0285C73.6545 15.6472 73.531 15.3287 73.284 15.073C73.0414 14.8173 72.7185 14.6895 72.3155 14.6895C72.0425 14.6895 71.7717 14.7805 71.503 14.9625C71.2344 15.1445 71.0199 15.3633 70.8595 15.619ZM76.7522 20V18.5505L79.9502 14.813H76.9212V13.266H82.1212V14.7155L78.9232 18.453H82.2512V20H76.7522ZM86.9544 18.5765C87.3401 18.5765 87.6889 18.479 88.0009 18.284C88.3173 18.089 88.5534 17.829 88.7094 17.504V15.762C88.5534 15.437 88.3173 15.177 88.0009 14.982C87.6889 14.787 87.3401 14.6895 86.9544 14.6895C86.4041 14.6895 85.9426 14.8758 85.5699 15.2485C85.1973 15.6212 85.0109 16.0827 85.0109 16.633C85.0109 17.1833 85.1973 17.6448 85.5699 18.0175C85.9426 18.3902 86.4041 18.5765 86.9544 18.5765ZM86.5774 13.11C87.4311 13.11 88.1418 13.3873 88.7094 13.942V13.266H90.4774V20H88.7094V19.324C88.1418 19.8787 87.4311 20.156 86.5774 20.156C85.9448 20.156 85.3706 19.9978 84.8549 19.6815C84.3393 19.3608 83.9363 18.9318 83.6459 18.3945C83.3599 17.8572 83.2169 17.27 83.2169 16.633C83.2169 15.996 83.3599 15.4088 83.6459 14.8715C83.9363 14.3342 84.3393 13.9073 84.8549 13.591C85.3706 13.2703 85.9448 13.11 86.5774 13.11ZM98.3747 14.8195V17.6665C98.3747 17.9915 98.4527 18.2298 98.6087 18.3815C98.7691 18.5288 99.0334 18.6025 99.4017 18.6025C99.6314 18.6025 99.8437 18.5917 100.039 18.57V20.065C99.7571 20.1257 99.4472 20.156 99.1092 20.156C97.4279 20.156 96.5872 19.363 96.5872 17.777V14.8195H95.5407V13.266H96.5872V11.472L98.3747 11.316V13.266H99.9607V14.8195H98.3747ZM105.694 17.647V13.266H107.482V20H105.694V19.259C105.465 19.532 105.181 19.7508 104.843 19.9155C104.509 20.0758 104.163 20.156 103.803 20.156C103.01 20.156 102.362 19.9025 101.859 19.3955C101.361 18.8885 101.112 18.2277 101.112 17.413V13.266H102.899V17.2375C102.899 17.6188 103.021 17.9373 103.263 18.193C103.51 18.4487 103.835 18.5765 104.238 18.5765C104.511 18.5765 104.782 18.4855 105.051 18.3035C105.32 18.1215 105.534 17.9027 105.694 17.647ZM116.66 18.5765C117.211 18.5765 117.672 18.3902 118.045 18.0175C118.418 17.6448 118.604 17.1833 118.604 16.633C118.604 16.0827 118.418 15.6212 118.045 15.2485C117.672 14.8758 117.211 14.6895 116.66 14.6895C116.275 14.6895 115.924 14.787 115.607 14.982C115.295 15.177 115.061 15.437 114.905 15.762V17.504C115.061 17.829 115.295 18.089 115.607 18.284C115.924 18.479 116.275 18.5765 116.66 18.5765ZM117.037 13.11C117.67 13.11 118.244 13.2703 118.76 13.591C119.276 13.9073 119.676 14.3342 119.962 14.8715C120.253 15.4088 120.398 15.996 120.398 16.633C120.398 17.27 120.253 17.8572 119.962 18.3945C119.676 18.9318 119.276 19.3608 118.76 19.6815C118.244 19.9978 117.67 20.156 117.037 20.156C116.184 20.156 115.473 19.8787 114.905 19.324V23.016H113.137V13.266H114.905V13.942C115.473 13.3873 116.184 13.11 117.037 13.11ZM121.714 20V10.51H123.501V20H121.714ZM128.57 18.5765C128.955 18.5765 129.304 18.479 129.616 18.284C129.933 18.089 130.169 17.829 130.325 17.504V15.762C130.169 15.437 129.933 15.177 129.616 14.982C129.304 14.787 128.955 14.6895 128.57 14.6895C128.019 14.6895 127.558 14.8758 127.185 15.2485C126.813 15.6212 126.626 16.0827 126.626 16.633C126.626 17.1833 126.813 17.6448 127.185 18.0175C127.558 18.3902 128.019 18.5765 128.57 18.5765ZM128.193 13.11C129.046 13.11 129.757 13.3873 130.325 13.942V13.266H132.093V20H130.325V19.324C129.757 19.8787 129.046 20.156 128.193 20.156C127.56 20.156 126.986 19.9978 126.47 19.6815C125.955 19.3608 125.552 18.9318 125.261 18.3945C124.975 17.8572 124.832 17.27 124.832 16.633C124.832 15.996 124.975 15.4088 125.261 14.8715C125.552 14.3342 125.955 13.9073 126.47 13.591C126.986 13.2703 127.56 13.11 128.193 13.11ZM135.606 15.619V20H133.818V13.266H135.606V14.007C135.835 13.734 136.117 13.5173 136.451 13.357C136.789 13.1923 137.137 13.11 137.497 13.11C138.29 13.11 138.936 13.3635 139.434 13.8705C139.937 14.3775 140.188 15.0383 140.188 15.853V20H138.401V16.0285C138.401 15.6472 138.277 15.3287 138.03 15.073C137.787 14.8173 137.465 14.6895 137.062 14.6895C136.789 14.6895 136.518 14.7805 136.249 14.9625C135.98 15.1445 135.766 15.3633 135.606 15.619ZM151.044 17.283H149.822L147.586 13.6885V20H145.844V10.9H147.729L150.433 15.268L153.137 10.9H155.022V20H153.28V13.6885L151.044 17.283ZM156.918 20V13.266H158.705V20H156.918ZM157.061 12.2065C156.857 12.0072 156.755 11.7623 156.755 11.472C156.755 11.1817 156.857 10.9368 157.061 10.7375C157.265 10.5382 157.516 10.4385 157.815 10.4385C158.114 10.4385 158.365 10.5382 158.569 10.7375C158.773 10.9368 158.874 11.1817 158.874 11.472C158.874 11.7623 158.773 12.0072 158.569 12.2065C158.365 12.4058 158.114 12.5055 157.815 12.5055C157.516 12.5055 157.265 12.4058 157.061 12.2065ZM160.017 19.038L160.914 17.9265C161.13 18.1735 161.386 18.3685 161.681 18.5115C161.98 18.6545 162.294 18.726 162.623 18.726C162.931 18.726 163.171 18.6653 163.345 18.544C163.522 18.4227 163.611 18.2602 163.611 18.0565C163.611 17.8485 163.525 17.6817 163.351 17.556C163.178 17.426 162.879 17.3177 162.454 17.231C160.994 16.932 160.264 16.2127 160.264 15.073C160.264 14.501 160.487 14.0308 160.933 13.6625C161.384 13.2942 161.971 13.11 162.695 13.11C163.145 13.11 163.579 13.1945 163.995 13.3635C164.411 13.5282 164.775 13.7492 165.087 14.0265L164.229 15.1445C163.739 14.7415 163.28 14.54 162.851 14.54C162.604 14.54 162.402 14.592 162.246 14.696C162.09 14.7957 162.012 14.93 162.012 15.099C162.012 15.489 162.37 15.7577 163.085 15.905C163.86 16.061 164.432 16.3188 164.801 16.6785C165.173 17.0382 165.36 17.504 165.36 18.076C165.36 18.6827 165.124 19.181 164.651 19.571C164.179 19.961 163.548 20.156 162.76 20.156C162.201 20.156 161.681 20.0585 161.2 19.8635C160.719 19.6642 160.324 19.389 160.017 19.038ZM168.758 14.8195V17.6665C168.758 17.9915 168.836 18.2298 168.992 18.3815C169.152 18.5288 169.416 18.6025 169.785 18.6025C170.014 18.6025 170.227 18.5917 170.422 18.57V20.065C170.14 20.1257 169.83 20.156 169.492 20.156C167.811 20.156 166.97 19.363 166.97 17.777V14.8195H165.924V13.266H166.97V11.472L168.758 11.316V13.266H170.344V14.8195H168.758ZM65.217 33.283H63.995L61.759 29.6885V36H60.017V26.9H61.902L64.606 31.268L67.31 26.9H69.195V36H67.453V29.6885L65.217 33.283ZM72.4238 33.166C72.5018 33.634 72.7185 34.0132 73.0738 34.3035C73.4335 34.5895 73.8668 34.7325 74.3738 34.7325C75.0802 34.7325 75.7172 34.453 76.2848 33.894L77.3573 34.934C76.6077 35.7487 75.6153 36.156 74.3803 36.156C73.8343 36.156 73.3252 36.065 72.8528 35.883C72.3805 35.701 71.9818 35.4518 71.6568 35.1355C71.3318 34.8192 71.0762 34.4465 70.8898 34.0175C70.7078 33.5842 70.6168 33.1227 70.6168 32.633C70.6168 32.1477 70.71 31.6883 70.8963 31.255C71.0827 30.8217 71.3362 30.449 71.6568 30.137C71.9818 29.8207 72.3718 29.5715 72.8268 29.3895C73.2818 29.2032 73.765 29.11 74.2763 29.11C74.948 29.11 75.5547 29.2638 76.0963 29.5715C76.638 29.8748 77.0583 30.2865 77.3573 30.8065C77.6563 31.3222 77.8058 31.892 77.8058 32.516C77.8058 32.7413 77.7798 32.958 77.7278 33.166H72.4238ZM74.2633 30.5335C73.843 30.5335 73.4682 30.657 73.1388 30.904C72.8138 31.151 72.5907 31.4803 72.4693 31.892H75.9663C75.8667 31.4847 75.6652 31.1575 75.3618 30.9105C75.0585 30.6592 74.6923 30.5335 74.2633 30.5335ZM82.3905 34.5765C82.7761 34.5765 83.125 34.479 83.437 34.284C83.7533 34.089 83.9895 33.829 84.1455 33.504V31.762C83.9895 31.437 83.7533 31.177 83.437 30.982C83.125 30.787 82.7761 30.6895 82.3905 30.6895C81.8401 30.6895 81.3786 30.8758 81.006 31.2485C80.6333 31.6212 80.447 32.0827 80.447 32.633C80.447 33.1833 80.6333 33.6448 81.006 34.0175C81.3786 34.3902 81.8401 34.5765 82.3905 34.5765ZM82.0135 29.11C82.8671 29.11 83.5778 29.3873 84.1455 29.942V29.266H85.9135V36H84.1455V35.324C83.5778 35.8787 82.8671 36.156 82.0135 36.156C81.3808 36.156 80.8066 35.9978 80.291 35.6815C79.7753 35.3608 79.3723 34.9318 79.082 34.3945C78.796 33.8572 78.653 33.27 78.653 32.633C78.653 31.996 78.796 31.4088 79.082 30.8715C79.3723 30.3342 79.7753 29.9073 80.291 29.591C80.8066 29.2703 81.3808 29.11 82.0135 29.11ZM87.6714 36V26.51H89.4589V36H87.6714ZM90.7702 35.038L91.6672 33.9265C91.8839 34.1735 92.1395 34.3685 92.4342 34.5115C92.7332 34.6545 93.0474 34.726 93.3767 34.726C93.6844 34.726 93.9249 34.6653 94.0982 34.544C94.2759 34.4227 94.3647 34.2602 94.3647 34.0565C94.3647 33.8485 94.278 33.6817 94.1047 33.556C93.9314 33.426 93.6324 33.3177 93.2077 33.231C91.7474 32.932 91.0172 32.2127 91.0172 31.073C91.0172 30.501 91.2404 30.0308 91.6867 29.6625C92.1374 29.2942 92.7245 29.11 93.4482 29.11C93.8989 29.11 94.3322 29.1945 94.7482 29.3635C95.1642 29.5282 95.5282 29.7492 95.8402 30.0265L94.9822 31.1445C94.4925 30.7415 94.0332 30.54 93.6042 30.54C93.3572 30.54 93.1557 30.592 92.9997 30.696C92.8437 30.7957 92.7657 30.93 92.7657 31.099C92.7657 31.489 93.1232 31.7577 93.8382 31.905C94.6139 32.061 95.1859 32.3188 95.5542 32.6785C95.9269 33.0382 96.1132 33.504 96.1132 34.076C96.1132 34.6827 95.877 35.181 95.4047 35.571C94.9324 35.961 94.3019 36.156 93.5132 36.156C92.9542 36.156 92.4342 36.0585 91.9532 35.8635C91.4722 35.6642 91.0779 35.389 90.7702 35.038ZM104.607 34.5765C104.993 34.5765 105.342 34.479 105.654 34.284C105.97 34.089 106.206 33.829 106.362 33.504V31.762C106.206 31.437 105.97 31.177 105.654 30.982C105.342 30.787 104.993 30.6895 104.607 30.6895C104.057 30.6895 103.595 30.8758 103.223 31.2485C102.85 31.6212 102.664 32.0827 102.664 32.633C102.664 33.1833 102.85 33.6448 103.223 34.0175C103.595 34.3902 104.057 34.5765 104.607 34.5765ZM104.23 29.11C105.084 29.11 105.795 29.3873 106.362 29.942V29.266H108.13V36H106.362V35.324C105.795 35.8787 105.084 36.156 104.23 36.156C103.598 36.156 103.023 35.9978 102.508 35.6815C101.992 35.3608 101.589 34.9318 101.299 34.3945C101.013 33.8572 100.87 33.27 100.87 32.633C100.87 31.996 101.013 31.4088 101.299 30.8715C101.589 30.3342 101.992 29.9073 102.508 29.591C103.023 29.2703 103.598 29.11 104.23 29.11ZM111.643 31.619V36H109.856V26.51H111.643V30.007C111.873 29.734 112.155 29.5173 112.488 29.357C112.826 29.1923 113.175 29.11 113.535 29.11C114.328 29.11 114.973 29.3635 115.472 29.8705C115.974 30.3775 116.226 31.0383 116.226 31.853V36H114.438V32.0285C114.438 31.6472 114.315 31.3287 114.068 31.073C113.825 30.8173 113.502 30.6895 113.099 30.6895C112.826 30.6895 112.555 30.7805 112.287 30.9625C112.018 31.1445 111.804 31.3633 111.643 31.619ZM118.459 35.1355C117.744 34.4552 117.386 33.621 117.386 32.633C117.386 31.645 117.744 30.8108 118.459 30.1305C119.174 29.4502 120.062 29.11 121.124 29.11C121.826 29.11 122.463 29.266 123.035 29.578C123.607 29.89 124.053 30.3147 124.374 30.852C124.699 31.3893 124.861 31.983 124.861 32.633C124.861 33.283 124.699 33.8767 124.374 34.414C124.053 34.9513 123.607 35.376 123.035 35.688C122.463 36 121.826 36.156 121.124 36.156C120.062 36.156 119.174 35.8158 118.459 35.1355ZM119.18 32.633C119.18 33.1833 119.367 33.6448 119.739 34.0175C120.112 34.3902 120.574 34.5765 121.124 34.5765C121.674 34.5765 122.136 34.3902 122.508 34.0175C122.885 33.6448 123.074 33.1833 123.074 32.633C123.074 32.087 122.885 31.6277 122.508 31.255C122.136 30.878 121.674 30.6895 121.124 30.6895C120.574 30.6895 120.112 30.878 119.739 31.255C119.367 31.6277 119.18 32.087 119.18 32.633ZM129.504 30.6895C129.184 30.6895 128.887 30.787 128.614 30.982C128.341 31.177 128.113 31.4435 127.931 31.7815V36H126.144V29.266H127.931V30.0915C128.421 29.4372 129.021 29.11 129.732 29.11C129.961 29.11 130.165 29.1577 130.343 29.253L130.219 30.8195C129.968 30.7328 129.73 30.6895 129.504 30.6895ZM134.594 34.5765C134.979 34.5765 135.328 34.479 135.64 34.284C135.956 34.089 136.193 33.829 136.349 33.504V31.762C136.193 31.437 135.956 31.177 135.64 30.982C135.328 30.787 134.979 30.6895 134.594 30.6895C134.043 30.6895 133.582 30.8758 133.209 31.2485C132.836 31.6212 132.65 32.0827 132.65 32.633C132.65 33.1833 132.836 33.6448 133.209 34.0175C133.582 34.3902 134.043 34.5765 134.594 34.5765ZM134.217 29.11C135.07 29.11 135.781 29.3873 136.349 29.942V29.266H138.117V36H136.349V35.324C135.781 35.8787 135.07 36.156 134.217 36.156C133.584 36.156 133.01 35.9978 132.494 35.6815C131.978 35.3608 131.575 34.9318 131.285 34.3945C130.999 33.8572 130.856 33.27 130.856 32.633C130.856 31.996 130.999 31.4088 131.285 30.8715C131.575 30.3342 131.978 29.9073 132.494 29.591C133.01 29.2703 133.584 29.11 134.217 29.11Z" fill="#F9F2E1"/>
</svg>
