<svg width="203" height="49" viewBox="0 0 203 49" fill="none" xmlns="http://www.w3.org/2000/svg">
<path d="M3.89313 2.25593L3.49536 44.1135L200.625 47.6741L201.023 5.81652L3.89313 2.25593Z" fill="#FF810C"/>
<path d="M49.1106 46.9507C49.3307 46.9664 49.4386 46.9507 49.1106 46.9507V46.9507Z" fill="#FF810C"/>
<path d="M66.3921 0.961737C66.4585 0.961737 66.4917 0.961737 66.5582 0.961737C66.6786 0.910218 66.7907 0.864424 66.9028 0.830078L66.3921 0.961737Z" fill="#FF810C"/>
<path d="M93.7175 1.80313C93.7798 1.80885 93.8254 1.81458 93.8835 1.8203C93.8711 1.78595 93.9043 1.75161 93.7175 1.80313Z" fill="#FF810C"/>
<path d="M1.09607 0.875732C1.08761 1.1505 1.10454 1.31078 1.12995 1.43671C1.11301 1.27071 1.10031 1.09898 1.09607 0.875732Z" fill="#FF810C"/>
<path d="M99.1934 47.5632C99.1934 47.5632 99.1228 47.5632 99.073 47.5632C99.1685 47.5747 99.2682 47.5861 99.3678 47.6033L99.1934 47.5632Z" fill="#FF810C"/>
<path d="M98.641 47.649C98.039 47.5975 98.8071 47.5746 99.0728 47.5689C98.4085 47.483 97.74 47.4658 97.0674 47.4887C97.0715 47.5689 98.3462 47.5803 98.641 47.649Z" fill="#FF810C"/>
<path d="M190.041 48.9714L189.767 49.0001C189.879 48.9943 189.962 48.9829 190.041 48.9714Z" fill="#FF810C"/>
<path d="M7.52505 4.57935C7.51233 4.58492 7.49114 4.59048 7.48267 4.59605C7.51233 4.60162 7.52081 4.59049 7.52505 4.57935Z" fill="#FF810C"/>
<path d="M175.7 48.6279L175.542 48.7596C175.683 48.7081 175.712 48.668 175.7 48.6279Z" fill="#FF810C"/>
<path d="M66.9033 0.835698L67.1025 0.78418C67.0319 0.795628 66.9697 0.812801 66.9033 0.835698Z" fill="#FF810C"/>
<path d="M118.966 2.34692C118.974 2.38699 119.032 2.42134 119.098 2.44996C119.132 2.44996 119.152 2.44996 119.169 2.44996L118.966 2.34692Z" fill="#FF810C"/>
<path d="M200.512 36.4294C200.537 36.4237 200.562 36.4065 200.591 36.3836L200.454 36.0344C200.463 36.2176 200.483 36.3435 200.512 36.4294Z" fill="#FF810C"/>
<path d="M153.594 3.55479C153.623 3.53761 153.706 3.52616 153.714 3.50899C153.125 3.45175 151.559 3.4174 149.562 3.38306L149.438 3.54334L153.594 3.55479Z" fill="#FF810C"/>
<path d="M191.432 8.09416L187.745 7.69346C190.44 7.70491 192.811 7.73925 194.978 7.78505C195.522 7.7965 196.049 7.80794 196.568 7.81939C196.697 7.82512 196.826 7.82512 196.955 7.83084L197.125 7.83657H197.166C197.22 7.83657 197.27 7.84229 197.324 7.84229C197.523 7.85374 197.714 7.86519 197.901 7.87091C197.889 8.02547 197.876 8.18002 197.864 8.33458L197.86 8.39182L197.856 8.62652C197.851 8.81542 197.851 9.00432 197.847 9.19895C197.843 9.58248 197.839 9.96601 197.839 10.3553C197.831 11.9123 197.86 13.5551 197.947 15.4327L197.843 15.0492C197.719 16.0452 198.815 16.6291 197.366 27.6598H197.316C197.32 28.0433 197.42 28.0433 197.283 28.8047L197.602 26.8985C197.714 28.0433 197.939 29.0508 197.959 30.5735C197.901 30.894 197.802 31.0085 197.723 31.0372L197.768 34.7808L197.44 35.92C197.602 37.0648 198.275 36.5554 197.872 39.6121C198.345 38.4673 198.138 41.1348 198.375 40.7627C198.316 40.9173 198.225 41.2665 198.146 41.547C198.184 43.3673 198.279 46.7961 198.512 47.6491C198.512 47.6491 199.558 40.5452 200.073 38.6447C199.923 41.2035 200.123 39.3202 200.285 38.8165L200.172 38.6447C200.301 37.1106 200.592 37.1164 200.683 36.3493C200.658 36.3493 200.629 36.3722 200.6 36.3951L200.637 36.4924C200.583 36.5611 200.55 36.521 200.521 36.4409C200.459 36.4581 200.409 36.3894 200.43 35.9715L200.459 36.0516C200.422 35.4105 200.48 34.3057 200.505 33.8249L200.75 33.8192C200.293 32.6743 201.534 26.1887 201.563 24.6603C201.887 23.1319 201.518 21.22 201.692 19.3081C201.8 16.257 202.066 17.7854 202.29 16.257C202.46 14.3451 201.999 16.6405 201.991 15.8735L202.352 13.5838C202.369 14.9175 202.523 14.1963 202.622 13.9558C202.651 12.9655 202.788 11.689 202.855 10.5842C202.888 10.0347 202.905 9.51951 202.884 9.11308C202.871 8.90701 202.851 8.72956 202.817 8.58073C202.801 8.51776 202.78 8.409 202.759 8.32886C202.738 8.24872 202.709 8.18002 202.68 8.12851C202.805 6.34825 202.917 5.3007 203 4.55082C201.858 4.47068 201.24 4.41343 199.844 4.37909C200.264 4.41916 200.887 4.45923 201.389 4.49358C201.891 4.53365 202.273 4.56799 202.236 4.60234C201.7 4.55654 201.347 4.53365 201.148 4.52792C200.949 4.5222 200.903 4.52792 200.953 4.54509C201.057 4.57944 201.543 4.64241 201.987 4.6653C201.065 4.68248 199.554 4.63668 197.669 4.55654C197.552 4.55082 197.432 4.54509 197.312 4.53937C197.254 4.53937 197.195 4.53365 197.137 4.53365L197.013 4.52792C196.847 4.51647 196.672 4.51075 196.502 4.4993C196.157 4.4764 195.8 4.45923 195.443 4.43633C194.725 4.39054 193.986 4.34474 193.263 4.30467C190.373 4.12722 187.72 3.98411 187.467 4.16157V4.09287C186.902 4.35047 187.803 4.63096 186.113 4.75117L184.992 4.60806L183.298 4.69393C182.165 4.58516 182.721 4.5222 182.725 4.48785C179.968 4.56227 176.119 4.34474 172.781 4.24743L176.31 5.04883C173.495 4.82558 168.413 4.39054 167.848 4.61951L166.158 4.33902C160.512 3.76086 162.214 4.47068 159.959 4.2875L157.124 3.96694L159.947 4.02418C157.124 3.83528 155.994 3.72652 153.748 3.509L153.723 3.51472C153.877 3.52617 153.976 3.54334 153.997 3.56051H153.603C153.258 3.68645 151.784 3.75514 149.795 3.70935C146.972 3.61776 144.759 3.77804 140.249 3.41168L139.12 3.66928L135.732 3.43458L135.736 3.21706C139.054 3.29147 145.298 3.32009 149.563 3.38306L149.637 3.28575C147.109 3.23995 144.231 3.28575 142.558 3.23423C141.744 3.17699 139.66 2.90794 141.175 2.78773L139.61 2.97664C131.169 2.8507 131.115 2.85643 122.308 2.45L123.072 2.57593C121.324 2.61028 119.58 2.6389 119.099 2.45572C113.809 2.32407 108.332 2.08365 104.898 1.74591L104.143 1.99206C103.026 1.95771 101.357 1.53411 100.809 1.88902L98.4212 1.95771C96.8932 1.91192 95.959 2.04358 94.2193 1.8604C94.2151 1.8604 94.211 1.8604 94.211 1.8604C94.103 1.84895 93.9909 1.8375 93.883 1.82605C93.883 1.83178 93.8913 1.84322 93.9037 1.84895C90.4492 1.6715 93.937 2.08365 89.98 1.8604C88.7136 1.65432 88.5724 2.16379 86.6459 2.0722L84.7152 1.66577C81.2233 1.391 80.6212 1.75164 75.5598 1.66005C73.1308 1.48259 71.9599 1.14486 73.5709 0.892991C71.3537 1.19065 72.562 1.09907 69.6223 1.20783C69.1697 1.059 69.4853 1.0361 70.133 0.921612C67.5255 0.709813 68.522 1.01893 66.5581 0.973131C65.9851 1.225 65.3207 1.63715 64.6813 1.63715L65.4411 1.73446C63.3568 1.8375 61.0814 1.8604 58.6649 1.68867L58.7563 1.55701L56.1778 1.57991L56.0159 1.40818L52.3371 1.39673L52.8395 1.45397C51.9759 1.4597 49.14 1.46542 47.5166 1.35093L47.5747 1.25935C43.0032 0.881542 39.2248 1.2021 33.8686 1.13341L34.5745 0.955958C32.7517 0.73271 34.0721 1.24217 31.8964 1.11051L31.7884 0.870094C29.8702 1.14486 29.3138 0.761332 27.9934 0.618224L28.6079 0.938785L26.125 0.830023C23.3887 0.675467 24.4475 0.406425 24.8503 0.251869L22.986 0.463668L22.6248 0.183178C21.2587 0.475117 21.2629 0.108762 18.8754 0.234696C18.6927 0.108762 19.2948 0.057243 18.4851 0L14.5448 0.314836L16.9198 0.188902L16.6291 0.583879C14.1545 0.841472 13.2825 0.480841 11.5138 0.560981L12.7303 0.463668C9.84876 0.509463 9.69514 0.337734 8.07167 0.217523C8.57407 0.303388 9.34636 0.423598 8.17962 0.457944C8.07167 0.457944 7.98448 0.457944 7.91389 0.45222C7.87652 0.45222 7.8433 0.446495 7.81424 0.446495C7.76441 0.440771 7.72289 0.440771 7.68137 0.435047C7.51529 0.417874 7.41564 0.400701 7.32014 0.372079C7.12499 0.326285 6.934 0.269042 6.20323 0.234696C6.09942 0.337734 5.48076 0.41215 4.60882 0.457944C3.73273 0.49229 2.59921 0.503738 1.34943 0.469393C1.34113 0.887266 1.31206 1.31086 1.27054 1.72301C1.21656 1.6715 1.16259 1.59708 1.12937 1.4368C1.15843 1.72874 1.1958 1.95771 1.21656 2.22675C1.23732 2.49579 1.23317 2.79918 1.18335 3.26285C1.03802 3.0396 0.896852 2.79918 0.751529 2.54731C0.884396 3.24568 1.01726 3.9097 1.15013 4.53365C1.14183 4.61379 1.13352 4.69393 1.12937 4.77407C1.12522 4.83131 1.12107 4.88855 1.11691 4.9458C1.11276 5.04311 1.11276 5.14614 1.11691 5.24346C1.12522 5.44381 1.14183 5.63843 1.15428 5.81016C1.17919 6.15362 1.18335 6.39404 1.03387 6.34252L0.950829 5.93037L0.79305 11.4085L0.444274 11.4772C0.917613 12.0268 0.232517 14.4596 0.834571 14.2879C0.498251 15.3182 1.02557 18.3693 0.35708 17.7453C0.269886 21.3459 0.901004 23.3036 0.531468 27.6713C-0.0581293 29.2225 0.087194 33.4986 0 36.3092C0.0539772 37.7689 0.0996502 39.0912 0.149475 40.3563C0.161932 40.6711 0.174388 40.986 0.186844 41.2951C0.195148 41.8332 0.207605 42.3655 0.215909 42.8979C0.232517 44.0084 0.253278 45.1132 0.269886 46.2294C1.69821 46.2409 3.13898 46.2466 4.60467 46.2581C5.32714 46.2638 6.0579 46.2695 6.79698 46.2752C6.97967 46.2752 7.16651 46.2752 7.34921 46.281C7.45301 46.281 7.56096 46.281 7.66892 46.281C7.87652 46.281 8.08413 46.281 8.29588 46.281C9.97333 46.281 11.7504 46.2867 13.6936 46.2867C18.672 46.9221 26.125 46.3268 31.4853 46.7275L32.9552 46.5386C36.5177 46.945 41.9611 46.6244 46.9602 47.048C48.185 46.9736 48.8286 46.9564 49.1151 46.9564C48.8867 46.9393 48.5421 46.8935 48.4383 46.7561C49.8666 46.8763 52.7565 46.8076 52.5489 47.0824L52.1877 47.1053C51.9759 47.3743 56.5224 47.0537 58.1127 47.3228L57.2408 47.0137L59.9438 47.111L59.2172 47.1568C70.9717 46.7217 76.2739 47.7464 87.3144 47.3514C85.8487 47.6433 89.4901 47.2255 89.6312 47.5747C92.409 48.0669 94.7881 47.5747 97.0718 47.4945C97.0718 47.4773 97.1009 47.4602 97.2296 47.4315L101.216 47.546C98.8281 47.9467 104.093 47.2312 101.901 47.5689C112.298 48.0898 125.871 47.9983 137.908 48.3646L137.38 48.2387C140.432 48.3131 144.231 48.2444 146.548 48.4676C148.865 48.6909 151.618 48.273 152.519 48.2673C155.06 48.1185 157.364 48.5478 156.276 48.5077C158.992 48.502 161.55 48.1471 165.316 48.3875C166.599 48.7825 175.596 48.2043 175.708 48.6279L175.75 48.5936C180.57 48.9771 185.129 48.5535 190.324 48.9199C190.324 48.9199 190.224 48.9485 190.05 48.9771L200.637 47.8895L197.64 46.4241L188.484 45.1132L163.638 44.9129L143.816 44.1057L95.5604 43.3845L92.11 43.6421C82.635 42.9151 70.4693 43.3329 60.2552 42.7548L60.0393 43.0238C57.1619 42.9895 57.357 42.8235 56.647 42.7605C47.7574 42.6174 38.7764 42.5087 29.8702 42.3999C25.415 42.3426 20.9805 42.2854 16.5835 42.2282C13.2244 42.1766 9.89444 42.1308 6.61013 42.085C6.61844 41.3065 6.63089 40.5338 6.6392 39.7667C6.66411 38.307 6.68902 36.8645 6.71393 35.4277C6.77622 32.5598 6.85926 29.7549 6.96721 27.0072C7.24956 25.4388 7.13745 20.6475 7.43225 19.4168C7.21219 16.7607 7.11254 14.0303 7.08762 11.294C7.07517 9.92593 7.07517 8.56355 7.08762 7.20689C7.09593 6.53143 7.10423 5.85596 7.11253 5.18049L7.11669 4.95152L7.12084 4.91145L7.12499 4.83131C7.12914 4.77979 7.1333 4.72255 7.13745 4.67103L7.18312 4.72255L7.1416 4.52792L7.46131 4.50502C7.50283 4.52792 7.52359 4.56227 7.51944 4.57944C7.57342 4.55082 7.65646 4.52792 7.75611 4.51647C7.74781 4.51647 7.80178 4.51647 7.835 4.51647H7.94711C8.02184 4.51647 8.09658 4.51647 8.17132 4.51647C8.3208 4.51647 8.47442 4.51647 8.62805 4.51647C8.93531 4.51647 9.25086 4.5222 9.57057 4.5222C10.8494 4.53365 12.2196 4.56799 13.6189 4.61951C16.4174 4.7111 19.3321 4.84848 21.8815 4.9458L21.5826 4.96869C51.3323 5.5583 78.9604 5.54685 108.461 6.46273C122.175 7.15537 138.14 6.82909 153.877 7.48738C156.771 7.80222 188.617 8.16858 191.432 8.09416Z" fill="#FF810C"/>
<path d="M197.714 31.0314V30.9456C197.544 30.9456 197.607 31.0715 197.714 31.0314Z" fill="#FF810C"/>
<path d="M172.561 4.23594C172.631 4.23594 172.702 4.24166 172.768 4.24166L171.988 4.06421L172.561 4.23594Z" fill="#FF810C"/>
<path d="M202.659 15.1006C202.726 13.8184 202.685 13.7612 202.614 13.9386C202.601 14.4023 202.609 14.8087 202.659 15.1006Z" fill="#FF810C"/>
<path d="M197.939 41.5125C197.918 42.188 198.022 41.9304 198.138 41.5354C198.125 40.8485 198.117 40.3677 198.117 40.3677C198.076 40.7512 197.984 41.1233 197.939 41.5125Z" fill="#FF810C"/>
<path d="M200.276 38.8051L200.413 39.0169C200.384 38.6219 200.33 38.6391 200.276 38.8051Z" fill="#FF810C"/>
<path d="M33.6364 23.366V16.9895H35.4824V23.366H33.6364ZM33.7599 15.9625C33.5432 15.7545 33.4349 15.4967 33.4349 15.189C33.4349 14.8813 33.5432 14.6257 33.7599 14.422C33.9766 14.214 34.2431 14.11 34.5594 14.11C34.8757 14.11 35.1422 14.214 35.3589 14.422C35.5756 14.6257 35.6839 14.8813 35.6839 15.189C35.6839 15.4967 35.5756 15.7545 35.3589 15.9625C35.1422 16.1662 34.8757 16.268 34.5594 16.268C34.2431 16.268 33.9766 16.1662 33.7599 15.9625ZM41.9821 21.156C41.0764 21.156 40.2488 20.9502 39.4991 20.5385C38.7538 20.1225 38.1666 19.5548 37.7376 18.8355C37.3129 18.1162 37.1006 17.321 37.1006 16.45C37.1006 15.579 37.3129 14.7838 37.7376 14.0645C38.1666 13.3452 38.7538 12.7797 39.4991 12.368C40.2488 11.952 41.0764 11.744 41.9821 11.744C43.1564 11.744 44.1964 12.095 45.1021 12.797L44.1726 14.1685C43.8086 13.9085 43.4533 13.7092 43.1066 13.5705C42.7643 13.4275 42.3894 13.356 41.9821 13.356C41.1328 13.356 40.4178 13.6528 39.8371 14.2465C39.2564 14.8402 38.9661 15.5747 38.9661 16.45C38.9661 17.3253 39.2564 18.0598 39.8371 18.6535C40.4178 19.2472 41.1328 19.544 41.9821 19.544C42.3894 19.544 42.7881 19.4638 43.1781 19.3035C43.5681 19.1432 43.9213 18.9308 44.2376 18.6665L45.2126 20.025C44.3026 20.779 43.2258 21.156 41.9821 21.156ZM46.8803 20.1355C46.1653 19.4552 45.8078 18.621 45.8078 17.633C45.8078 16.645 46.1653 15.8108 46.8803 15.1305C47.5953 14.4502 48.4836 14.11 49.5453 14.11C50.2473 14.11 50.8843 14.266 51.4563 14.578C52.0283 14.89 52.4746 15.3147 52.7953 15.852C53.1203 16.3893 53.2828 16.983 53.2828 17.633C53.2828 18.283 53.1203 18.8767 52.7953 19.414C52.4746 19.9513 52.0283 20.376 51.4563 20.688C50.8843 21 50.2473 21.156 49.5453 21.156C48.4836 21.156 47.5953 20.8158 46.8803 20.1355ZM47.6018 17.633C47.6018 18.1833 47.7881 18.6448 48.1608 19.0175C48.5334 19.3902 48.9949 19.5765 49.5453 19.5765C50.0956 19.5765 50.5571 19.3902 50.9298 19.0175C51.3068 18.6448 51.4953 18.1833 51.4953 17.633C51.4953 17.087 51.3068 16.6277 50.9298 16.255C50.5571 15.878 50.0956 15.6895 49.5453 15.6895C48.9949 15.6895 48.5334 15.878 48.1608 16.255C47.7881 16.6277 47.6018 17.087 47.6018 17.633ZM54.5652 14.266H56.3527V15.007C56.5694 14.7383 56.8359 14.5238 57.1522 14.3635C57.4685 14.2032 57.8065 14.123 58.1662 14.123C58.6385 14.123 59.0632 14.2248 59.4402 14.4285C59.8215 14.6322 60.127 14.916 60.3567 15.28C60.5994 14.929 60.92 14.6473 61.3187 14.435C61.7174 14.2183 62.1377 14.11 62.5797 14.11C63.3554 14.11 63.9859 14.3657 64.4712 14.877C64.9609 15.384 65.2057 16.0362 65.2057 16.8335V21H63.4182V17.0155C63.4182 16.6385 63.3055 16.3243 63.0802 16.073C62.8592 15.8173 62.5645 15.6895 62.1962 15.6895C61.9232 15.6895 61.661 15.7805 61.4097 15.9625C61.1584 16.1402 60.9439 16.372 60.7662 16.658C60.7749 16.8487 60.7792 16.996 60.7792 17.1V21H58.9917V17.0155C58.9917 16.6298 58.879 16.3135 58.6537 16.0665C58.4284 15.8152 58.1337 15.6895 57.7697 15.6895C57.4967 15.6895 57.2345 15.7783 56.9832 15.956C56.7362 16.1337 56.526 16.3612 56.3527 16.6385V21H54.5652V14.266ZM66.836 21V14.266H68.6235V21H66.836ZM66.979 13.2065C66.7753 13.0072 66.6735 12.7623 66.6735 12.472C66.6735 12.1817 66.7753 11.9368 66.979 11.7375C67.1826 11.5382 67.434 11.4385 67.733 11.4385C68.032 11.4385 68.2833 11.5382 68.487 11.7375C68.6906 11.9368 68.7925 12.1817 68.7925 12.472C68.7925 12.7623 68.6906 13.0072 68.487 13.2065C68.2833 13.4058 68.032 13.5055 67.733 13.5055C67.434 13.5055 67.1826 13.4058 66.979 13.2065ZM71.7612 18.166C71.8392 18.634 72.0559 19.0132 72.4112 19.3035C72.7709 19.5895 73.2042 19.7325 73.7112 19.7325C74.4176 19.7325 75.0546 19.453 75.6222 18.894L76.6947 19.934C75.9451 20.7487 74.9527 21.156 73.7177 21.156C73.1717 21.156 72.6626 21.065 72.1902 20.883C71.7179 20.701 71.3192 20.4518 70.9942 20.1355C70.6692 19.8192 70.4136 19.4465 70.2272 19.0175C70.0452 18.5842 69.9542 18.1227 69.9542 17.633C69.9542 17.1477 70.0474 16.6883 70.2337 16.255C70.4201 15.8217 70.6736 15.449 70.9942 15.137C71.3192 14.8207 71.7092 14.5715 72.1642 14.3895C72.6192 14.2032 73.1024 14.11 73.6137 14.11C74.2854 14.11 74.8921 14.2638 75.4337 14.5715C75.9754 14.8748 76.3957 15.2865 76.6947 15.8065C76.9937 16.3222 77.1432 16.892 77.1432 17.516C77.1432 17.7413 77.1172 17.958 77.0652 18.166H71.7612ZM73.6007 15.5335C73.1804 15.5335 72.8056 15.657 72.4762 15.904C72.1512 16.151 71.9281 16.4803 71.8067 16.892H75.3037C75.2041 16.4847 75.0026 16.1575 74.6992 15.9105C74.3959 15.6592 74.0297 15.5335 73.6007 15.5335ZM80.2199 16.619V21H78.4324V14.266H80.2199V15.007C80.4495 14.734 80.7312 14.5173 81.0649 14.357C81.4029 14.1923 81.7517 14.11 82.1114 14.11C82.9044 14.11 83.55 14.3635 84.0484 14.8705C84.551 15.3775 84.8024 16.0383 84.8024 16.853V21H83.0149V17.0285C83.0149 16.6472 82.8914 16.3287 82.6444 16.073C82.4017 15.8173 82.0789 15.6895 81.6759 15.6895C81.4029 15.6895 81.132 15.7805 80.8634 15.9625C80.5947 16.1445 80.3802 16.3633 80.2199 16.619ZM86.1125 21V19.5505L89.3105 15.813H86.2815V14.266H91.4815V15.7155L88.2835 19.453H91.6115V21H86.1125ZM96.3148 19.5765C96.7005 19.5765 97.0493 19.479 97.3613 19.284C97.6776 19.089 97.9138 18.829 98.0698 18.504V16.762C97.9138 16.437 97.6776 16.177 97.3613 15.982C97.0493 15.787 96.7005 15.6895 96.3148 15.6895C95.7645 15.6895 95.303 15.8758 94.9303 16.2485C94.5576 16.6212 94.3713 17.0827 94.3713 17.633C94.3713 18.1833 94.5576 18.6448 94.9303 19.0175C95.303 19.3902 95.7645 19.5765 96.3148 19.5765ZM95.9378 14.11C96.7915 14.11 97.5021 14.3873 98.0698 14.942V14.266H99.8378V21H98.0698V20.324C97.5021 20.8787 96.7915 21.156 95.9378 21.156C95.3051 21.156 94.731 20.9978 94.2153 20.6815C93.6996 20.3608 93.2966 19.9318 93.0063 19.3945C92.7203 18.8572 92.5773 18.27 92.5773 17.633C92.5773 16.996 92.7203 16.4088 93.0063 15.8715C93.2966 15.3342 93.6996 14.9073 94.2153 14.591C94.731 14.2703 95.3051 14.11 95.9378 14.11ZM108.782 19.5765C109.167 19.5765 109.516 19.479 109.828 19.284C110.144 19.089 110.381 18.829 110.537 18.504V16.762C110.381 16.437 110.144 16.177 109.828 15.982C109.516 15.787 109.167 15.6895 108.782 15.6895C108.231 15.6895 107.77 15.8758 107.397 16.2485C107.024 16.6212 106.838 17.0827 106.838 17.633C106.838 18.1833 107.024 18.6448 107.397 19.0175C107.77 19.3902 108.231 19.5765 108.782 19.5765ZM108.405 14.11C109.258 14.11 109.969 14.3873 110.537 14.942V14.266H112.305V21H110.537V20.324C109.969 20.8787 109.258 21.156 108.405 21.156C107.772 21.156 107.198 20.9978 106.682 20.6815C106.166 20.3608 105.763 19.9318 105.473 19.3945C105.187 18.8572 105.044 18.27 105.044 17.633C105.044 16.996 105.187 16.4088 105.473 15.8715C105.763 15.3342 106.166 14.9073 106.682 14.591C107.198 14.2703 107.772 14.11 108.405 14.11ZM121.248 21.156C120.187 21.156 119.298 20.8158 118.583 20.1355C117.868 19.4552 117.511 18.621 117.511 17.633C117.511 16.645 117.868 15.8108 118.583 15.1305C119.298 14.4502 120.187 14.11 121.248 14.11C122.228 14.11 123.075 14.4112 123.79 15.0135L122.906 16.346C122.369 15.9083 121.82 15.6895 121.261 15.6895C120.711 15.6895 120.25 15.878 119.877 16.255C119.504 16.6277 119.318 17.087 119.318 17.633C119.318 18.1833 119.504 18.6448 119.877 19.0175C120.25 19.3902 120.711 19.5765 121.261 19.5765C121.851 19.5765 122.412 19.3403 122.945 18.868L123.939 20.116C123.224 20.8093 122.327 21.156 121.248 21.156ZM129.629 18.647V14.266H131.417V21H129.629V20.259C129.399 20.532 129.116 20.7508 128.778 20.9155C128.444 21.0758 128.097 21.156 127.738 21.156C126.945 21.156 126.297 20.9025 125.794 20.3955C125.296 19.8885 125.047 19.2277 125.047 18.413V14.266H126.834V18.2375C126.834 18.6188 126.955 18.9373 127.198 19.193C127.445 19.4487 127.77 19.5765 128.173 19.5765C128.446 19.5765 128.717 19.4855 128.986 19.3035C129.254 19.1215 129.469 18.9027 129.629 18.647ZM133.182 21V14.266H134.969V21H133.182ZM133.325 13.2065C133.121 13.0072 133.019 12.7623 133.019 12.472C133.019 12.1817 133.121 11.9368 133.325 11.7375C133.528 11.5382 133.78 11.4385 134.079 11.4385C134.378 11.4385 134.629 11.5382 134.833 11.7375C135.036 11.9368 135.138 12.1817 135.138 12.472C135.138 12.7623 135.036 13.0072 134.833 13.2065C134.629 13.4058 134.378 13.5055 134.079 13.5055C133.78 13.5055 133.528 13.4058 133.325 13.2065ZM140.037 19.5765C140.423 19.5765 140.772 19.479 141.084 19.284C141.4 19.089 141.636 18.829 141.792 18.504V16.762C141.636 16.437 141.4 16.177 141.084 15.982C140.772 15.787 140.423 15.6895 140.037 15.6895C139.487 15.6895 139.026 15.8758 138.653 16.2485C138.28 16.6212 138.094 17.0827 138.094 17.633C138.094 18.1833 138.28 18.6448 138.653 19.0175C139.026 19.3902 139.487 19.5765 140.037 19.5765ZM139.66 14.11C140.514 14.11 141.225 14.3873 141.792 14.942V11.51H143.56V21H141.792V20.324C141.225 20.8787 140.514 21.156 139.66 21.156C139.028 21.156 138.454 20.9978 137.938 20.6815C137.422 20.3608 137.019 19.9318 136.729 19.3945C136.443 18.8572 136.3 18.27 136.3 17.633C136.3 16.996 136.443 16.4088 136.729 15.8715C137.019 15.3342 137.422 14.9073 137.938 14.591C138.454 14.2703 139.028 14.11 139.66 14.11ZM148.581 19.5765C148.967 19.5765 149.316 19.479 149.628 19.284C149.944 19.089 150.18 18.829 150.336 18.504V16.762C150.18 16.437 149.944 16.177 149.628 15.982C149.316 15.787 148.967 15.6895 148.581 15.6895C148.031 15.6895 147.57 15.8758 147.197 16.2485C146.824 16.6212 146.638 17.0827 146.638 17.633C146.638 18.1833 146.824 18.6448 147.197 19.0175C147.57 19.3902 148.031 19.5765 148.581 19.5765ZM148.204 14.11C149.058 14.11 149.769 14.3873 150.336 14.942V14.266H152.104V21H150.336V20.324C149.769 20.8787 149.058 21.156 148.204 21.156C147.572 21.156 146.998 20.9978 146.482 20.6815C145.966 20.3608 145.563 19.9318 145.273 19.3945C144.987 18.8572 144.844 18.27 144.844 17.633C144.844 16.996 144.987 16.4088 145.273 15.8715C145.563 15.3342 145.966 14.9073 146.482 14.591C146.998 14.2703 147.572 14.11 148.204 14.11ZM157.19 15.6895C156.87 15.6895 156.573 15.787 156.3 15.982C156.027 16.177 155.799 16.4435 155.617 16.7815V21H153.83V14.266H155.617V15.0915C156.107 14.4372 156.707 14.11 157.418 14.11C157.647 14.11 157.851 14.1577 158.029 14.253L157.905 15.8195C157.654 15.7328 157.416 15.6895 157.19 15.6895ZM161.436 15.8195V18.6665C161.436 18.9915 161.514 19.2298 161.67 19.3815C161.831 19.5288 162.095 19.6025 162.463 19.6025C162.693 19.6025 162.905 19.5917 163.1 19.57V21.065C162.819 21.1257 162.509 21.156 162.171 21.156C160.489 21.156 159.649 20.363 159.649 18.777V15.8195H158.602V14.266H159.649V12.472L161.436 12.316V14.266H163.022V15.8195H161.436ZM165.668 18.166C165.746 18.634 165.963 19.0132 166.318 19.3035C166.678 19.5895 167.111 19.7325 167.618 19.7325C168.325 19.7325 168.962 19.453 169.529 18.894L170.602 19.934C169.852 20.7487 168.86 21.156 167.625 21.156C167.079 21.156 166.57 21.065 166.097 20.883C165.625 20.701 165.226 20.4518 164.901 20.1355C164.576 19.8192 164.321 19.4465 164.134 19.0175C163.952 18.5842 163.861 18.1227 163.861 17.633C163.861 17.1477 163.955 16.6883 164.141 16.255C164.327 15.8217 164.581 15.449 164.901 15.137C165.226 14.8207 165.616 14.5715 166.071 14.3895C166.526 14.2032 167.01 14.11 167.521 14.11C168.193 14.11 168.799 14.2638 169.341 14.5715C169.883 14.8748 170.303 15.2865 170.602 15.8065C170.901 16.3222 171.05 16.892 171.05 17.516C171.05 17.7413 171.024 17.958 170.972 18.166H165.668ZM167.508 15.5335C167.088 15.5335 166.713 15.657 166.383 15.904C166.058 16.151 165.835 16.4803 165.714 16.892H169.211C169.111 16.4847 168.91 16.1575 168.606 15.9105C168.303 15.6592 167.937 15.5335 167.508 15.5335ZM84.8573 35.5765C85.2429 35.5765 85.5918 35.479 85.9038 35.284C86.2201 35.089 86.4563 34.829 86.6123 34.504V32.762C86.4563 32.437 86.2201 32.177 85.9038 31.982C85.5918 31.787 85.2429 31.6895 84.8573 31.6895C84.3069 31.6895 83.8454 31.8758 83.4728 32.2485C83.1001 32.6212 82.9138 33.0827 82.9138 33.633C82.9138 34.1833 83.1001 34.6448 83.4728 35.0175C83.8454 35.3902 84.3069 35.5765 84.8573 35.5765ZM84.4803 30.11C85.3339 30.11 86.0446 30.3873 86.6123 30.942V30.266H88.3803V37H86.6123V36.324C86.0446 36.8787 85.3339 37.156 84.4803 37.156C83.8476 37.156 83.2734 36.9978 82.7578 36.6815C82.2421 36.3608 81.8391 35.9318 81.5488 35.3945C81.2628 34.8572 81.1198 34.27 81.1198 33.633C81.1198 32.996 81.2628 32.4088 81.5488 31.8715C81.8391 31.3342 82.2421 30.9073 82.7578 30.591C83.2734 30.2703 83.8476 30.11 84.4803 30.11ZM91.8932 32.619V37H90.1057V27.51H91.8932V31.007C92.1229 30.734 92.4045 30.5173 92.7382 30.357C93.0762 30.1923 93.425 30.11 93.7847 30.11C94.5777 30.11 95.2234 30.3635 95.7217 30.8705C96.2244 31.3775 96.4757 32.0383 96.4757 32.853V37H94.6882V33.0285C94.6882 32.6472 94.5647 32.3287 94.3177 32.073C94.075 31.8173 93.7522 31.6895 93.3492 31.6895C93.0762 31.6895 92.8054 31.7805 92.5367 31.9625C92.268 32.1445 92.0535 32.3633 91.8932 32.619ZM98.7089 36.1355C97.9939 35.4552 97.6364 34.621 97.6364 33.633C97.6364 32.645 97.9939 31.8108 98.7089 31.1305C99.4239 30.4502 100.312 30.11 101.374 30.11C102.076 30.11 102.713 30.266 103.285 30.578C103.857 30.89 104.303 31.3147 104.624 31.852C104.949 32.3893 105.111 32.983 105.111 33.633C105.111 34.283 104.949 34.8767 104.624 35.414C104.303 35.9513 103.857 36.376 103.285 36.688C102.713 37 102.076 37.156 101.374 37.156C100.312 37.156 99.4239 36.8158 98.7089 36.1355ZM99.4304 33.633C99.4304 34.1833 99.6167 34.6448 99.9894 35.0175C100.362 35.3902 100.824 35.5765 101.374 35.5765C101.924 35.5765 102.386 35.3902 102.758 35.0175C103.135 34.6448 103.324 34.1833 103.324 33.633C103.324 33.087 103.135 32.6277 102.758 32.255C102.386 31.878 101.924 31.6895 101.374 31.6895C100.824 31.6895 100.362 31.878 99.9894 32.255C99.6167 32.6277 99.4304 33.087 99.4304 33.633ZM109.754 31.6895C109.434 31.6895 109.137 31.787 108.864 31.982C108.591 32.177 108.363 32.4435 108.181 32.7815V37H106.394V30.266H108.181V31.0915C108.671 30.4372 109.271 30.11 109.982 30.11C110.211 30.11 110.415 30.1577 110.593 30.253L110.469 31.8195C110.218 31.7328 109.98 31.6895 109.754 31.6895ZM114.844 35.5765C115.229 35.5765 115.578 35.479 115.89 35.284C116.206 35.089 116.443 34.829 116.599 34.504V32.762C116.443 32.437 116.206 32.177 115.89 31.982C115.578 31.787 115.229 31.6895 114.844 31.6895C114.293 31.6895 113.832 31.8758 113.459 32.2485C113.086 32.6212 112.9 33.0827 112.9 33.633C112.9 34.1833 113.086 34.6448 113.459 35.0175C113.832 35.3902 114.293 35.5765 114.844 35.5765ZM114.467 30.11C115.32 30.11 116.031 30.3873 116.599 30.942V30.266H118.367V37H116.599V36.324C116.031 36.8787 115.32 37.156 114.467 37.156C113.834 37.156 113.26 36.9978 112.744 36.6815C112.228 36.3608 111.825 35.9318 111.535 35.3945C111.249 34.8572 111.106 34.27 111.106 33.633C111.106 32.996 111.249 32.4088 111.535 31.8715C111.825 31.3342 112.228 30.9073 112.744 30.591C113.26 30.2703 113.834 30.11 114.467 30.11ZM120.339 34.2765V27.9H122.185V34.2765H120.339ZM120.463 36.8505C120.246 36.6425 120.138 36.3847 120.138 36.077C120.138 35.7693 120.246 35.5137 120.463 35.31C120.679 35.102 120.946 34.998 121.262 34.998C121.578 34.998 121.845 35.102 122.062 35.31C122.278 35.5137 122.387 35.7693 122.387 36.077C122.387 36.3847 122.278 36.6425 122.062 36.8505C121.845 37.0542 121.578 37.156 121.262 37.156C120.946 37.156 120.679 37.0542 120.463 36.8505Z" fill="#F9F2E1"/>
</svg>
