<svg width="203" height="49" viewBox="0 0 203 49" fill="none" xmlns="http://www.w3.org/2000/svg">
<path d="M3.89313 2.25593L3.49536 44.1135L200.625 47.6741L201.023 5.81652L3.89313 2.25593Z" fill="#009167"/>
<path d="M49.1106 46.9507C49.3307 46.9664 49.4386 46.9507 49.1106 46.9507V46.9507Z" fill="#009167"/>
<path d="M66.3921 0.961737C66.4585 0.961737 66.4917 0.961737 66.5582 0.961737C66.6786 0.910218 66.7907 0.864424 66.9028 0.830078L66.3921 0.961737Z" fill="#009167"/>
<path d="M93.7175 1.80313C93.7798 1.80885 93.8254 1.81458 93.8835 1.8203C93.8711 1.78595 93.9043 1.75161 93.7175 1.80313Z" fill="#009167"/>
<path d="M1.09607 0.875732C1.08761 1.1505 1.10454 1.31078 1.12995 1.43671C1.11301 1.27071 1.10031 1.09898 1.09607 0.875732Z" fill="#009167"/>
<path d="M99.1934 47.5632C99.1934 47.5632 99.1228 47.5632 99.073 47.5632C99.1685 47.5747 99.2682 47.5861 99.3678 47.6033L99.1934 47.5632Z" fill="#009167"/>
<path d="M98.641 47.649C98.039 47.5975 98.8071 47.5746 99.0728 47.5689C98.4085 47.483 97.74 47.4658 97.0674 47.4887C97.0715 47.5689 98.3462 47.5803 98.641 47.649Z" fill="#009167"/>
<path d="M190.041 48.9714L189.767 49.0001C189.879 48.9943 189.962 48.9829 190.041 48.9714Z" fill="#009167"/>
<path d="M7.52505 4.57935C7.51233 4.58492 7.49114 4.59048 7.48267 4.59605C7.51233 4.60162 7.52081 4.59049 7.52505 4.57935Z" fill="#009167"/>
<path d="M175.7 48.6279L175.542 48.7596C175.683 48.7081 175.712 48.668 175.7 48.6279Z" fill="#009167"/>
<path d="M66.9032 0.835698L67.1024 0.78418C67.0318 0.795628 66.9696 0.812801 66.9032 0.835698Z" fill="#009167"/>
<path d="M118.966 2.34692C118.974 2.38699 119.032 2.42134 119.098 2.44996C119.132 2.44996 119.152 2.44996 119.169 2.44996L118.966 2.34692Z" fill="#009167"/>
<path d="M200.512 36.4294C200.537 36.4237 200.562 36.4065 200.591 36.3836L200.454 36.0344C200.463 36.2176 200.483 36.3435 200.512 36.4294Z" fill="#009167"/>
<path d="M153.594 3.55479C153.623 3.53761 153.706 3.52616 153.714 3.50899C153.125 3.45175 151.559 3.4174 149.562 3.38306L149.438 3.54334L153.594 3.55479Z" fill="#009167"/>
<path d="M191.432 8.09416L187.745 7.69346C190.44 7.70491 192.811 7.73925 194.978 7.78505C195.522 7.7965 196.049 7.80794 196.568 7.81939C196.697 7.82512 196.826 7.82512 196.955 7.83084L197.125 7.83657H197.166C197.22 7.83657 197.27 7.84229 197.324 7.84229C197.523 7.85374 197.714 7.86519 197.901 7.87091C197.889 8.02547 197.876 8.18002 197.864 8.33458L197.86 8.39182L197.856 8.62652C197.851 8.81542 197.851 9.00432 197.847 9.19895C197.843 9.58248 197.839 9.96601 197.839 10.3553C197.831 11.9123 197.86 13.5551 197.947 15.4327L197.843 15.0492C197.719 16.0452 198.815 16.6291 197.366 27.6598H197.316C197.32 28.0433 197.42 28.0433 197.283 28.8047L197.602 26.8985C197.714 28.0433 197.939 29.0508 197.959 30.5735C197.901 30.894 197.802 31.0085 197.723 31.0372L197.768 34.7808L197.44 35.92C197.602 37.0648 198.275 36.5554 197.872 39.6121C198.345 38.4673 198.138 41.1348 198.375 40.7627C198.316 40.9173 198.225 41.2665 198.146 41.547C198.184 43.3673 198.279 46.7961 198.512 47.6491C198.512 47.6491 199.558 40.5452 200.073 38.6447C199.923 41.2035 200.123 39.3202 200.285 38.8165L200.172 38.6447C200.301 37.1106 200.592 37.1164 200.683 36.3493C200.658 36.3493 200.629 36.3722 200.6 36.3951L200.637 36.4924C200.583 36.5611 200.55 36.521 200.521 36.4409C200.459 36.4581 200.409 36.3894 200.43 35.9715L200.459 36.0516C200.422 35.4105 200.48 34.3057 200.505 33.8249L200.75 33.8192C200.293 32.6743 201.534 26.1887 201.563 24.6603C201.887 23.1319 201.518 21.22 201.692 19.3081C201.8 16.257 202.066 17.7854 202.29 16.257C202.46 14.3451 201.999 16.6405 201.991 15.8735L202.352 13.5838C202.369 14.9175 202.523 14.1963 202.622 13.9558C202.651 12.9655 202.788 11.689 202.855 10.5842C202.888 10.0347 202.905 9.51951 202.884 9.11308C202.871 8.90701 202.851 8.72956 202.817 8.58073C202.801 8.51776 202.78 8.409 202.759 8.32886C202.738 8.24872 202.709 8.18002 202.68 8.12851C202.805 6.34825 202.917 5.3007 203 4.55082C201.858 4.47068 201.24 4.41343 199.844 4.37909C200.264 4.41916 200.887 4.45923 201.389 4.49358C201.891 4.53365 202.273 4.56799 202.236 4.60234C201.7 4.55654 201.347 4.53365 201.148 4.52792C200.949 4.5222 200.903 4.52792 200.953 4.54509C201.057 4.57944 201.543 4.64241 201.987 4.6653C201.065 4.68248 199.554 4.63668 197.669 4.55654C197.552 4.55082 197.432 4.54509 197.312 4.53937C197.254 4.53937 197.195 4.53365 197.137 4.53365L197.013 4.52792C196.847 4.51647 196.672 4.51075 196.502 4.4993C196.157 4.4764 195.8 4.45923 195.443 4.43633C194.725 4.39054 193.986 4.34474 193.263 4.30467C190.373 4.12722 187.72 3.98411 187.467 4.16157V4.09287C186.902 4.35047 187.803 4.63096 186.113 4.75117L184.992 4.60806L183.298 4.69393C182.165 4.58516 182.721 4.5222 182.725 4.48785C179.968 4.56227 176.119 4.34474 172.781 4.24743L176.31 5.04883C173.495 4.82558 168.413 4.39054 167.848 4.61951L166.158 4.33902C160.512 3.76086 162.214 4.47068 159.959 4.2875L157.124 3.96694L159.947 4.02418C157.124 3.83528 155.994 3.72652 153.748 3.509L153.723 3.51472C153.877 3.52617 153.976 3.54334 153.997 3.56051H153.603C153.258 3.68645 151.784 3.75514 149.795 3.70935C146.972 3.61776 144.759 3.77804 140.249 3.41168L139.12 3.66928L135.732 3.43458L135.736 3.21706C139.054 3.29147 145.298 3.32009 149.563 3.38306L149.637 3.28575C147.109 3.23995 144.231 3.28575 142.558 3.23423C141.744 3.17699 139.66 2.90794 141.175 2.78773L139.61 2.97664C131.169 2.8507 131.115 2.85643 122.308 2.45L123.072 2.57593C121.324 2.61028 119.58 2.6389 119.099 2.45572C113.809 2.32407 108.332 2.08365 104.898 1.74591L104.143 1.99206C103.026 1.95771 101.357 1.53411 100.809 1.88902L98.4212 1.95771C96.8932 1.91192 95.959 2.04358 94.2193 1.8604C94.2151 1.8604 94.211 1.8604 94.211 1.8604C94.103 1.84895 93.9909 1.8375 93.883 1.82605C93.883 1.83178 93.8913 1.84322 93.9037 1.84895C90.4492 1.6715 93.937 2.08365 89.98 1.8604C88.7136 1.65432 88.5724 2.16379 86.6459 2.0722L84.7152 1.66577C81.2233 1.391 80.6212 1.75164 75.5598 1.66005C73.1308 1.48259 71.9599 1.14486 73.5709 0.892991C71.3537 1.19065 72.562 1.09907 69.6223 1.20783C69.1697 1.059 69.4853 1.0361 70.133 0.921612C67.5255 0.709813 68.522 1.01893 66.5581 0.973131C65.9851 1.225 65.3207 1.63715 64.6813 1.63715L65.4411 1.73446C63.3568 1.8375 61.0814 1.8604 58.6649 1.68867L58.7563 1.55701L56.1778 1.57991L56.0159 1.40818L52.3371 1.39673L52.8395 1.45397C51.9759 1.4597 49.14 1.46542 47.5166 1.35093L47.5747 1.25935C43.0032 0.881542 39.2248 1.2021 33.8686 1.13341L34.5745 0.955958C32.7517 0.73271 34.0721 1.24217 31.8964 1.11051L31.7884 0.870094C29.8702 1.14486 29.3138 0.761332 27.9934 0.618224L28.6079 0.938785L26.125 0.830023C23.3887 0.675467 24.4475 0.406425 24.8503 0.251869L22.986 0.463668L22.6248 0.183178C21.2587 0.475117 21.2629 0.108762 18.8754 0.234696C18.6927 0.108762 19.2948 0.057243 18.4851 0L14.5448 0.314836L16.9198 0.188902L16.6291 0.583879C14.1545 0.841472 13.2825 0.480841 11.5138 0.560981L12.7303 0.463668C9.84876 0.509463 9.69514 0.337734 8.07167 0.217523C8.57407 0.303388 9.34636 0.423598 8.17962 0.457944C8.07167 0.457944 7.98448 0.457944 7.91389 0.45222C7.87652 0.45222 7.8433 0.446495 7.81424 0.446495C7.76441 0.440771 7.72289 0.440771 7.68137 0.435047C7.51529 0.417874 7.41564 0.400701 7.32014 0.372079C7.12499 0.326285 6.934 0.269042 6.20323 0.234696C6.09942 0.337734 5.48076 0.41215 4.60882 0.457944C3.73273 0.49229 2.59921 0.503738 1.34943 0.469393C1.34113 0.887266 1.31206 1.31086 1.27054 1.72301C1.21656 1.6715 1.16259 1.59708 1.12937 1.4368C1.15843 1.72874 1.1958 1.95771 1.21656 2.22675C1.23732 2.49579 1.23317 2.79918 1.18335 3.26285C1.03802 3.0396 0.896852 2.79918 0.751529 2.54731C0.884396 3.24568 1.01726 3.9097 1.15013 4.53365C1.14183 4.61379 1.13352 4.69393 1.12937 4.77407C1.12522 4.83131 1.12107 4.88855 1.11691 4.9458C1.11276 5.04311 1.11276 5.14614 1.11691 5.24346C1.12522 5.44381 1.14183 5.63843 1.15428 5.81016C1.17919 6.15362 1.18335 6.39404 1.03387 6.34252L0.950829 5.93037L0.79305 11.4085L0.444274 11.4772C0.917613 12.0268 0.232517 14.4596 0.834571 14.2879C0.498251 15.3182 1.02557 18.3693 0.35708 17.7453C0.269886 21.3459 0.901004 23.3036 0.531468 27.6713C-0.0581293 29.2225 0.087194 33.4986 0 36.3092C0.0539772 37.7689 0.0996502 39.0912 0.149475 40.3563C0.161932 40.6711 0.174388 40.986 0.186844 41.2951C0.195148 41.8332 0.207605 42.3655 0.215909 42.8979C0.232517 44.0084 0.253278 45.1132 0.269886 46.2294C1.69821 46.2409 3.13898 46.2466 4.60467 46.2581C5.32714 46.2638 6.0579 46.2695 6.79698 46.2752C6.97967 46.2752 7.16651 46.2752 7.34921 46.281C7.45301 46.281 7.56096 46.281 7.66892 46.281C7.87652 46.281 8.08413 46.281 8.29588 46.281C9.97333 46.281 11.7504 46.2867 13.6936 46.2867C18.672 46.9221 26.125 46.3268 31.4853 46.7275L32.9552 46.5386C36.5177 46.945 41.9611 46.6244 46.9602 47.048C48.185 46.9736 48.8286 46.9564 49.1151 46.9564C48.8867 46.9393 48.5421 46.8935 48.4383 46.7561C49.8666 46.8763 52.7565 46.8076 52.5489 47.0824L52.1877 47.1053C51.9759 47.3743 56.5224 47.0537 58.1127 47.3228L57.2408 47.0137L59.9438 47.111L59.2172 47.1568C70.9717 46.7217 76.2739 47.7464 87.3144 47.3514C85.8487 47.6433 89.4901 47.2255 89.6312 47.5747C92.409 48.0669 94.7881 47.5747 97.0718 47.4945C97.0718 47.4773 97.1009 47.4602 97.2296 47.4315L101.216 47.546C98.8281 47.9467 104.093 47.2312 101.901 47.5689C112.298 48.0898 125.871 47.9983 137.908 48.3646L137.38 48.2387C140.432 48.3131 144.231 48.2444 146.548 48.4676C148.865 48.6909 151.618 48.273 152.519 48.2673C155.06 48.1185 157.364 48.5478 156.276 48.5077C158.992 48.502 161.55 48.1471 165.316 48.3875C166.599 48.7825 175.596 48.2043 175.708 48.6279L175.75 48.5936C180.57 48.9771 185.129 48.5535 190.324 48.9199C190.324 48.9199 190.224 48.9485 190.05 48.9771L200.637 47.8895L197.64 46.4241L188.484 45.1132L163.638 44.9129L143.816 44.1057L95.5604 43.3845L92.11 43.6421C82.635 42.9151 70.4693 43.3329 60.2552 42.7548L60.0393 43.0238C57.1619 42.9895 57.357 42.8235 56.647 42.7605C47.7574 42.6174 38.7764 42.5087 29.8702 42.3999C25.415 42.3426 20.9805 42.2854 16.5835 42.2282C13.2244 42.1766 9.89444 42.1308 6.61013 42.085C6.61844 41.3065 6.63089 40.5338 6.6392 39.7667C6.66411 38.307 6.68902 36.8645 6.71393 35.4277C6.77622 32.5598 6.85926 29.7549 6.96721 27.0072C7.24956 25.4388 7.13745 20.6475 7.43225 19.4168C7.21219 16.7607 7.11254 14.0303 7.08762 11.294C7.07517 9.92593 7.07517 8.56355 7.08762 7.20689C7.09593 6.53143 7.10423 5.85596 7.11253 5.18049L7.11669 4.95152L7.12084 4.91145L7.12499 4.83131C7.12914 4.77979 7.1333 4.72255 7.13745 4.67103L7.18312 4.72255L7.1416 4.52792L7.46131 4.50502C7.50283 4.52792 7.52359 4.56227 7.51944 4.57944C7.57342 4.55082 7.65646 4.52792 7.75611 4.51647C7.74781 4.51647 7.80178 4.51647 7.835 4.51647H7.94711C8.02184 4.51647 8.09658 4.51647 8.17132 4.51647C8.3208 4.51647 8.47442 4.51647 8.62805 4.51647C8.93531 4.51647 9.25086 4.5222 9.57057 4.5222C10.8494 4.53365 12.2196 4.56799 13.6189 4.61951C16.4174 4.7111 19.3321 4.84848 21.8815 4.9458L21.5826 4.96869C51.3323 5.5583 78.9604 5.54685 108.461 6.46273C122.175 7.15537 138.14 6.82909 153.877 7.48738C156.771 7.80222 188.617 8.16858 191.432 8.09416Z" fill="#009167"/>
<path d="M197.714 31.0314V30.9456C197.544 30.9456 197.607 31.0715 197.714 31.0314Z" fill="#009167"/>
<path d="M172.561 4.23594C172.631 4.23594 172.702 4.24166 172.768 4.24166L171.988 4.06421L172.561 4.23594Z" fill="#009167"/>
<path d="M202.659 15.1006C202.726 13.8184 202.685 13.7612 202.614 13.9386C202.601 14.4023 202.609 14.8087 202.659 15.1006Z" fill="#009167"/>
<path d="M197.939 41.5125C197.918 42.188 198.022 41.9304 198.138 41.5354C198.125 40.8485 198.117 40.3677 198.117 40.3677C198.076 40.7512 197.984 41.1233 197.939 41.5125Z" fill="#009167"/>
<path d="M200.276 38.8051L200.413 39.0169C200.384 38.6219 200.33 38.6391 200.276 38.8051Z" fill="#009167"/>
<path d="M33.0751 21V11.9H38.7431V13.473H34.9211V15.644H38.4311V17.204H34.9211V19.427H38.8601V21H33.0751ZM39.8722 20.038L40.7692 18.9265C40.9859 19.1735 41.2416 19.3685 41.5362 19.5115C41.8352 19.6545 42.1494 19.726 42.4787 19.726C42.7864 19.726 43.0269 19.6653 43.2002 19.544C43.3779 19.4227 43.4667 19.2602 43.4667 19.0565C43.4667 18.8485 43.3801 18.6817 43.2067 18.556C43.0334 18.426 42.7344 18.3177 42.3097 18.231C40.8494 17.932 40.1192 17.2127 40.1192 16.073C40.1192 15.501 40.3424 15.0308 40.7887 14.6625C41.2394 14.2942 41.8266 14.11 42.5502 14.11C43.0009 14.11 43.4342 14.1945 43.8502 14.3635C44.2662 14.5282 44.6302 14.7492 44.9422 15.0265L44.0842 16.1445C43.5946 15.7415 43.1352 15.54 42.7062 15.54C42.4592 15.54 42.2577 15.592 42.1017 15.696C41.9457 15.7957 41.8677 15.93 41.8677 16.099C41.8677 16.489 42.2252 16.7577 42.9402 16.905C43.7159 17.061 44.2879 17.3188 44.6562 17.6785C45.0289 18.0382 45.2152 18.504 45.2152 19.076C45.2152 19.6827 44.9791 20.181 44.5067 20.571C44.0344 20.961 43.4039 21.156 42.6152 21.156C42.0562 21.156 41.5362 21.0585 41.0552 20.8635C40.5742 20.6642 40.1799 20.389 39.8722 20.038ZM49.7865 21.156C48.7248 21.156 47.8365 20.8158 47.1215 20.1355C46.4065 19.4552 46.049 18.621 46.049 17.633C46.049 16.645 46.4065 15.8108 47.1215 15.1305C47.8365 14.4502 48.7248 14.11 49.7865 14.11C50.7658 14.11 51.613 14.4112 52.328 15.0135L51.444 16.346C50.9066 15.9083 50.3585 15.6895 49.7995 15.6895C49.2491 15.6895 48.7876 15.878 48.415 16.255C48.0423 16.6277 47.856 17.087 47.856 17.633C47.856 18.1833 48.0423 18.6448 48.415 19.0175C48.7876 19.3902 49.2491 19.5765 49.7995 19.5765C50.3888 19.5765 50.95 19.3403 51.483 18.868L52.4775 20.116C51.7625 20.8093 50.8655 21.156 49.7865 21.156ZM54.2181 20.1355C53.5031 19.4552 53.1456 18.621 53.1456 17.633C53.1456 16.645 53.5031 15.8108 54.2181 15.1305C54.9331 14.4502 55.8215 14.11 56.8831 14.11C57.5851 14.11 58.2221 14.266 58.7941 14.578C59.3661 14.89 59.8125 15.3147 60.1331 15.852C60.4581 16.3893 60.6206 16.983 60.6206 17.633C60.6206 18.283 60.4581 18.8767 60.1331 19.414C59.8125 19.9513 59.3661 20.376 58.7941 20.688C58.2221 21 57.5851 21.156 56.8831 21.156C55.8215 21.156 54.9331 20.8158 54.2181 20.1355ZM54.9396 17.633C54.9396 18.1833 55.126 18.6448 55.4986 19.0175C55.8713 19.3902 56.3328 19.5765 56.8831 19.5765C57.4335 19.5765 57.895 19.3902 58.2676 19.0175C58.6446 18.6448 58.8331 18.1833 58.8331 17.633C58.8331 17.087 58.6446 16.6277 58.2676 16.255C57.895 15.878 57.4335 15.6895 56.8831 15.6895C56.3328 15.6895 55.8713 15.878 55.4986 16.255C55.126 16.6277 54.9396 17.087 54.9396 17.633ZM66.9536 18.504V16.762C66.7976 16.437 66.5614 16.177 66.2451 15.982C65.9331 15.787 65.5842 15.6895 65.1986 15.6895C64.6482 15.6895 64.1867 15.8758 63.8141 16.2485C63.4414 16.6212 63.2551 17.0827 63.2551 17.633C63.2551 18.1833 63.4414 18.6448 63.8141 19.0175C64.1867 19.3902 64.6482 19.5765 65.1986 19.5765C65.5842 19.5765 65.9331 19.479 66.2451 19.284C66.5614 19.089 66.7976 18.829 66.9536 18.504ZM66.9536 14.942V14.266H68.7216V20.6035C68.7216 21.6348 68.4074 22.4603 67.7791 23.08C67.1507 23.704 66.2711 24.016 65.1401 24.016C64.5031 24.016 63.9051 23.9012 63.3461 23.6715C62.7914 23.4462 62.3212 23.1298 61.9356 22.7225L62.9626 21.546C63.5909 22.1743 64.2907 22.4885 65.0621 22.4885C65.6384 22.4885 66.0977 22.3303 66.4401 22.014C66.7824 21.702 66.9536 21.2708 66.9536 20.7205V20.2785C66.3902 20.8332 65.6796 21.1105 64.8216 21.1105C64.1889 21.1105 63.6147 20.9545 63.0991 20.6425C62.5834 20.3305 62.1804 19.9102 61.8901 19.3815C61.6041 18.8485 61.4611 18.2657 61.4611 17.633C61.4611 16.996 61.6041 16.4088 61.8901 15.8715C62.1804 15.3342 62.5834 14.9073 63.0991 14.591C63.6147 14.2703 64.1889 14.11 64.8216 14.11C65.6752 14.11 66.3859 14.3873 66.9536 14.942ZM71.812 18.166C71.89 18.634 72.1067 19.0132 72.462 19.3035C72.8217 19.5895 73.255 19.7325 73.762 19.7325C74.4684 19.7325 75.1054 19.453 75.673 18.894L76.7455 19.934C75.9959 20.7487 75.0035 21.156 73.7685 21.156C73.2225 21.156 72.7134 21.065 72.241 20.883C71.7687 20.701 71.37 20.4518 71.045 20.1355C70.72 19.8192 70.4644 19.4465 70.278 19.0175C70.096 18.5842 70.005 18.1227 70.005 17.633C70.005 17.1477 70.0982 16.6883 70.2845 16.255C70.4709 15.8217 70.7244 15.449 71.045 15.137C71.37 14.8207 71.76 14.5715 72.215 14.3895C72.67 14.2032 73.1532 14.11 73.6645 14.11C74.3362 14.11 74.9429 14.2638 75.4845 14.5715C76.0262 14.8748 76.4465 15.2865 76.7455 15.8065C77.0445 16.3222 77.194 16.892 77.194 17.516C77.194 17.7413 77.168 17.958 77.116 18.166H71.812ZM73.6515 15.5335C73.2312 15.5335 72.8564 15.657 72.527 15.904C72.202 16.151 71.9789 16.4803 71.8575 16.892H75.3545C75.2549 16.4847 75.0534 16.1575 74.75 15.9105C74.4467 15.6592 74.0805 15.5335 73.6515 15.5335ZM84.655 15.8195V18.6665C84.655 18.9915 84.733 19.2298 84.889 19.3815C85.0493 19.5288 85.3137 19.6025 85.682 19.6025C85.9117 19.6025 86.124 19.5917 86.319 19.57V21.065C86.0373 21.1257 85.7275 21.156 85.3895 21.156C83.7082 21.156 82.8675 20.363 82.8675 18.777V15.8195H81.821V14.266H82.8675V12.472L84.655 12.316V14.266H86.241V15.8195H84.655ZM91.9747 18.647V14.266H93.7622V21H91.9747V20.259C91.745 20.532 91.4612 20.7508 91.1232 20.9155C90.7895 21.0758 90.4429 21.156 90.0832 21.156C89.2902 21.156 88.6424 20.9025 88.1397 20.3955C87.6414 19.8885 87.3922 19.2277 87.3922 18.413V14.266H89.1797V18.2375C89.1797 18.6188 89.301 18.9373 89.5437 19.193C89.7907 19.4487 90.1157 19.5765 90.5187 19.5765C90.7917 19.5765 91.0625 19.4855 91.3312 19.3035C91.5999 19.1215 91.8144 18.9027 91.9747 18.647ZM95.0334 20.038L95.9304 18.9265C96.147 19.1735 96.4027 19.3685 96.6974 19.5115C96.9964 19.6545 97.3105 19.726 97.6399 19.726C97.9475 19.726 98.188 19.6653 98.3614 19.544C98.539 19.4227 98.6279 19.2602 98.6279 19.0565C98.6279 18.8485 98.5412 18.6817 98.3679 18.556C98.1945 18.426 97.8955 18.3177 97.4709 18.231C96.0105 17.932 95.2804 17.2127 95.2804 16.073C95.2804 15.501 95.5035 15.0308 95.9499 14.6625C96.4005 14.2942 96.9877 14.11 97.7114 14.11C98.162 14.11 98.5954 14.1945 99.0114 14.3635C99.4274 14.5282 99.7914 14.7492 100.103 15.0265L99.2454 16.1445C98.7557 15.7415 98.2964 15.54 97.8674 15.54C97.6204 15.54 97.4189 15.592 97.2629 15.696C97.1069 15.7957 97.0289 15.93 97.0289 16.099C97.0289 16.489 97.3864 16.7577 98.1014 16.905C98.877 17.061 99.449 17.3188 99.8174 17.6785C100.19 18.0382 100.376 18.504 100.376 19.076C100.376 19.6827 100.14 20.181 99.6679 20.571C99.1955 20.961 98.565 21.156 97.7764 21.156C97.2174 21.156 96.6974 21.0585 96.2164 20.8635C95.7354 20.6642 95.341 20.389 95.0334 20.038ZM109.098 19.5765C109.648 19.5765 110.11 19.3902 110.482 19.0175C110.855 18.6448 111.041 18.1833 111.041 17.633C111.041 17.0827 110.855 16.6212 110.482 16.2485C110.11 15.8758 109.648 15.6895 109.098 15.6895C108.712 15.6895 108.361 15.787 108.045 15.982C107.733 16.177 107.499 16.437 107.343 16.762V18.504C107.499 18.829 107.733 19.089 108.045 19.284C108.361 19.479 108.712 19.5765 109.098 19.5765ZM109.475 14.11C110.108 14.11 110.682 14.2703 111.197 14.591C111.713 14.9073 112.114 15.3342 112.4 15.8715C112.69 16.4088 112.835 16.996 112.835 17.633C112.835 18.27 112.69 18.8572 112.4 19.3945C112.114 19.9318 111.713 20.3608 111.197 20.6815C110.682 20.9978 110.108 21.156 109.475 21.156C108.621 21.156 107.911 20.8787 107.343 20.324V24.016H105.575V14.266H107.343V14.942C107.911 14.3873 108.621 14.11 109.475 14.11ZM114.151 21V11.51H115.939V21H114.151ZM121.007 19.5765C121.393 19.5765 121.742 19.479 122.054 19.284C122.37 19.089 122.606 18.829 122.762 18.504V16.762C122.606 16.437 122.37 16.177 122.054 15.982C121.742 15.787 121.393 15.6895 121.007 15.6895C120.457 15.6895 119.995 15.8758 119.623 16.2485C119.25 16.6212 119.064 17.0827 119.064 17.633C119.064 18.1833 119.25 18.6448 119.623 19.0175C119.995 19.3902 120.457 19.5765 121.007 19.5765ZM120.63 14.11C121.484 14.11 122.195 14.3873 122.762 14.942V14.266H124.53V21H122.762V20.324C122.195 20.8787 121.484 21.156 120.63 21.156C119.998 21.156 119.423 20.9978 118.908 20.6815C118.392 20.3608 117.989 19.9318 117.699 19.3945C117.413 18.8572 117.27 18.27 117.27 17.633C117.27 16.996 117.413 16.4088 117.699 15.8715C117.989 15.3342 118.392 14.9073 118.908 14.591C119.423 14.2703 119.998 14.11 120.63 14.11ZM128.441 15.8195V18.6665C128.441 18.9915 128.519 19.2298 128.675 19.3815C128.835 19.5288 129.1 19.6025 129.468 19.6025C129.698 19.6025 129.91 19.5917 130.105 19.57V21.065C129.823 21.1257 129.514 21.156 129.176 21.156C127.494 21.156 126.654 20.363 126.654 18.777V15.8195H125.607V14.266H126.654V12.472L128.441 12.316V14.266H130.027V15.8195H128.441ZM131.939 20.1355C131.224 19.4552 130.866 18.621 130.866 17.633C130.866 16.645 131.224 15.8108 131.939 15.1305C132.654 14.4502 133.542 14.11 134.604 14.11C135.306 14.11 135.943 14.266 136.515 14.578C137.087 14.89 137.533 15.3147 137.854 15.852C138.179 16.3893 138.341 16.983 138.341 17.633C138.341 18.283 138.179 18.8767 137.854 19.414C137.533 19.9513 137.087 20.376 136.515 20.688C135.943 21 135.306 21.156 134.604 21.156C133.542 21.156 132.654 20.8158 131.939 20.1355ZM132.66 17.633C132.66 18.1833 132.847 18.6448 133.219 19.0175C133.592 19.3902 134.054 19.5765 134.604 19.5765C135.154 19.5765 135.616 19.3902 135.988 19.0175C136.365 18.6448 136.554 18.1833 136.554 17.633C136.554 17.087 136.365 16.6277 135.988 16.255C135.616 15.878 135.154 15.6895 134.604 15.6895C134.054 15.6895 133.592 15.878 133.219 16.255C132.847 16.6277 132.66 17.087 132.66 17.633ZM139.162 20.038L140.059 18.9265C140.276 19.1735 140.532 19.3685 140.826 19.5115C141.125 19.6545 141.439 19.726 141.769 19.726C142.076 19.726 142.317 19.6653 142.49 19.544C142.668 19.4227 142.757 19.2602 142.757 19.0565C142.757 18.8485 142.67 18.6817 142.497 18.556C142.323 18.426 142.024 18.3177 141.6 18.231C140.139 17.932 139.409 17.2127 139.409 16.073C139.409 15.501 139.632 15.0308 140.079 14.6625C140.529 14.2942 141.117 14.11 141.84 14.11C142.291 14.11 142.724 14.1945 143.14 14.3635C143.556 14.5282 143.92 14.7492 144.232 15.0265L143.374 16.1445C142.885 15.7415 142.425 15.54 141.996 15.54C141.749 15.54 141.548 15.592 141.392 15.696C141.236 15.7957 141.158 15.93 141.158 16.099C141.158 16.489 141.515 16.7577 142.23 16.905C143.006 17.061 143.578 17.3188 143.946 17.6785C144.319 18.0382 144.505 18.504 144.505 19.076C144.505 19.6827 144.269 20.181 143.797 20.571C143.324 20.961 142.694 21.156 141.905 21.156C141.346 21.156 140.826 21.0585 140.345 20.8635C139.864 20.6642 139.47 20.389 139.162 20.038ZM151.491 16.619V21H149.704V11.51H151.491V15.007C151.721 14.734 152.003 14.5173 152.336 14.357C152.674 14.1923 153.023 14.11 153.383 14.11C154.176 14.11 154.822 14.3635 155.32 14.8705C155.823 15.3775 156.074 16.0383 156.074 16.853V21H154.286V17.0285C154.286 16.6472 154.163 16.3287 153.916 16.073C153.673 15.8173 153.35 15.6895 152.947 15.6895C152.674 15.6895 152.404 15.7805 152.135 15.9625C151.866 16.1445 151.652 16.3633 151.491 16.619ZM158.307 20.1355C157.592 19.4552 157.235 18.621 157.235 17.633C157.235 16.645 157.592 15.8108 158.307 15.1305C159.022 14.4502 159.91 14.11 160.972 14.11C161.674 14.11 162.311 14.266 162.883 14.578C163.455 14.89 163.901 15.3147 164.222 15.852C164.547 16.3893 164.71 16.983 164.71 17.633C164.71 18.283 164.547 18.8767 164.222 19.414C163.901 19.9513 163.455 20.376 162.883 20.688C162.311 21 161.674 21.156 160.972 21.156C159.91 21.156 159.022 20.8158 158.307 20.1355ZM159.029 17.633C159.029 18.1833 159.215 18.6448 159.588 19.0175C159.96 19.3902 160.422 19.5765 160.972 19.5765C161.522 19.5765 161.984 19.3902 162.357 19.0175C162.734 18.6448 162.922 18.1833 162.922 17.633C162.922 17.087 162.734 16.6277 162.357 16.255C161.984 15.878 161.522 15.6895 160.972 15.6895C160.422 15.6895 159.96 15.878 159.588 16.255C159.215 16.6277 159.029 17.087 159.029 17.633ZM168.213 24.016H166.348L167.531 21L165.061 14.266H166.92L168.415 18.738L169.936 14.266H171.795L168.213 24.016ZM81.5935 30.266H83.381V31.007C83.5977 30.7383 83.8642 30.5238 84.1805 30.3635C84.4968 30.2032 84.8348 30.123 85.1945 30.123C85.6668 30.123 86.0915 30.2248 86.4685 30.4285C86.8498 30.6322 87.1553 30.916 87.385 31.28C87.6277 30.929 87.9483 30.6473 88.347 30.435C88.7457 30.2183 89.166 30.11 89.608 30.11C90.3837 30.11 91.0142 30.3657 91.4995 30.877C91.9892 31.384 92.234 32.0362 92.234 32.8335V37H90.4465V33.0155C90.4465 32.6385 90.3338 32.3243 90.1085 32.073C89.8875 31.8173 89.5928 31.6895 89.2245 31.6895C88.9515 31.6895 88.6893 31.7805 88.438 31.9625C88.1867 32.1402 87.9722 32.372 87.7945 32.658C87.8032 32.8487 87.8075 32.996 87.8075 33.1V37H86.02V33.0155C86.02 32.6298 85.9073 32.3135 85.682 32.0665C85.4567 31.8152 85.162 31.6895 84.798 31.6895C84.525 31.6895 84.2628 31.7783 84.0115 31.956C83.7645 32.1337 83.5543 32.3612 83.381 32.6385V37H81.5935V30.266ZM93.8643 37V30.266H95.6518V37H93.8643ZM94.0073 29.2065C93.8036 29.0072 93.7018 28.7623 93.7018 28.472C93.7018 28.1817 93.8036 27.9368 94.0073 27.7375C94.211 27.5382 94.4623 27.4385 94.7613 27.4385C95.0603 27.4385 95.3116 27.5382 95.5153 27.7375C95.719 27.9368 95.8208 28.1817 95.8208 28.472C95.8208 28.7623 95.719 29.0072 95.5153 29.2065C95.3116 29.4058 95.0603 29.5055 94.7613 29.5055C94.4623 29.5055 94.211 29.4058 94.0073 29.2065ZM96.9631 36.038L97.8601 34.9265C98.0767 35.1735 98.3324 35.3685 98.6271 35.5115C98.9261 35.6545 99.2402 35.726 99.5696 35.726C99.8772 35.726 100.118 35.6653 100.291 35.544C100.469 35.4227 100.558 35.2602 100.558 35.0565C100.558 34.8485 100.471 34.6817 100.298 34.556C100.124 34.426 99.8252 34.3177 99.4006 34.231C97.9402 33.932 97.2101 33.2127 97.2101 32.073C97.2101 31.501 97.4332 31.0308 97.8796 30.6625C98.3302 30.2942 98.9174 30.11 99.6411 30.11C100.092 30.11 100.525 30.1945 100.941 30.3635C101.357 30.5282 101.721 30.7492 102.033 31.0265L101.175 32.1445C100.685 31.7415 100.226 31.54 99.7971 31.54C99.5501 31.54 99.3486 31.592 99.1926 31.696C99.0366 31.7957 98.9586 31.93 98.9586 32.099C98.9586 32.489 99.3161 32.7577 100.031 32.905C100.807 33.061 101.379 33.3188 101.747 33.6785C102.12 34.0382 102.306 34.504 102.306 35.076C102.306 35.6827 102.07 36.181 101.598 36.571C101.125 36.961 100.495 37.156 99.7061 37.156C99.1471 37.156 98.6271 37.0585 98.1461 36.8635C97.6651 36.6642 97.2707 36.389 96.9631 36.038ZM103.582 30.266H105.369V31.007C105.586 30.7383 105.852 30.5238 106.169 30.3635C106.485 30.2032 106.823 30.123 107.183 30.123C107.655 30.123 108.08 30.2248 108.457 30.4285C108.838 30.6322 109.144 30.916 109.373 31.28C109.616 30.929 109.937 30.6473 110.335 30.435C110.734 30.2183 111.154 30.11 111.596 30.11C112.372 30.11 113.002 30.3657 113.488 30.877C113.977 31.384 114.222 32.0362 114.222 32.8335V37H112.435V33.0155C112.435 32.6385 112.322 32.3243 112.097 32.073C111.876 31.8173 111.581 31.6895 111.213 31.6895C110.94 31.6895 110.678 31.7805 110.426 31.9625C110.175 32.1402 109.96 32.372 109.783 32.658C109.791 32.8487 109.796 32.996 109.796 33.1V37H108.008V33.0155C108.008 32.6298 107.896 32.3135 107.67 32.0665C107.445 31.8152 107.15 31.6895 106.786 31.6895C106.513 31.6895 106.251 31.7783 106 31.956C105.753 32.1337 105.543 32.3612 105.369 32.6385V37H103.582V30.266ZM116.451 36.1355C115.736 35.4552 115.378 34.621 115.378 33.633C115.378 32.645 115.736 31.8108 116.451 31.1305C117.166 30.4502 118.054 30.11 119.116 30.11C119.818 30.11 120.455 30.266 121.027 30.578C121.599 30.89 122.045 31.3147 122.366 31.852C122.691 32.3893 122.853 32.983 122.853 33.633C122.853 34.283 122.691 34.8767 122.366 35.414C122.045 35.9513 121.599 36.376 121.027 36.688C120.455 37 119.818 37.156 119.116 37.156C118.054 37.156 117.166 36.8158 116.451 36.1355ZM117.172 33.633C117.172 34.1833 117.358 34.6448 117.731 35.0175C118.104 35.3902 118.565 35.5765 119.116 35.5765C119.666 35.5765 120.127 35.3902 120.5 35.0175C120.877 34.6448 121.066 34.1833 121.066 33.633C121.066 33.087 120.877 32.6277 120.5 32.255C120.127 31.878 119.666 31.6895 119.116 31.6895C118.565 31.6895 118.104 31.878 117.731 32.255C117.358 32.6277 117.172 33.087 117.172 33.633Z" fill="#F9F2E1"/>
</svg>
