<svg width="129" height="21" viewBox="0 0 129 21" fill="none" xmlns="http://www.w3.org/2000/svg">
<path d="M31.2083 20.1208C31.3481 20.1297 31.4167 20.1208 31.2083 20.1208V20.1208Z" fill="#FFCF00"/>
<path d="M42.1899 0.412197C42.2322 0.412197 42.2533 0.412197 42.2955 0.412197C42.372 0.390094 42.4432 0.370448 42.5145 0.355713L42.1899 0.412197Z" fill="#FFCF00"/>
<path d="M59.5544 0.77286C59.594 0.775341 59.623 0.777822 59.6599 0.780303C59.652 0.765418 59.6731 0.750533 59.5544 0.77286Z" fill="#FFCF00"/>
<path d="M0.69646 0.375244C0.691109 0.493001 0.701811 0.561692 0.717864 0.615664C0.707162 0.544519 0.699136 0.470921 0.69646 0.375244Z" fill="#FFCF00"/>
<path d="M63.034 20.3835C63.034 20.3835 62.9892 20.3835 62.9575 20.3835C63.0182 20.3885 63.0815 20.3935 63.1449 20.4009L63.034 20.3835Z" fill="#FFCF00"/>
<path d="M62.6833 20.4203C62.3008 20.3982 62.7889 20.3884 62.9577 20.386C62.5356 20.3492 62.1108 20.3418 61.6833 20.3516C61.686 20.386 62.496 20.3909 62.6833 20.4203Z" fill="#FFCF00"/>
<path d="M120.765 20.9871L120.591 21C120.662 20.9974 120.715 20.9922 120.765 20.9871Z" fill="#FFCF00"/>
<path d="M4.78165 1.96265C4.77369 1.96517 4.76043 1.96769 4.75513 1.97022C4.77369 1.97274 4.779 1.96769 4.78165 1.96265Z" fill="#FFCF00"/>
<path d="M111.652 20.8398L111.552 20.8963C111.641 20.8742 111.66 20.857 111.652 20.8398Z" fill="#FFCF00"/>
<path d="M42.5149 0.358456L42.6415 0.335938C42.5966 0.340942 42.5571 0.348448 42.5149 0.358456Z" fill="#FFCF00"/>
<path d="M75.5989 1.00586C75.6042 1.02303 75.6411 1.03775 75.6833 1.05001C75.7044 1.05001 75.7176 1.05001 75.7282 1.05001L75.5989 1.00586Z" fill="#FFCF00"/>
<path d="M127.419 15.6119C127.435 15.6095 127.451 15.6021 127.469 15.5923L127.382 15.4426C127.388 15.5211 127.401 15.5751 127.419 15.6119Z" fill="#FFCF00"/>
<path d="M97.604 1.52329C97.6225 1.51593 97.6753 1.51103 97.6805 1.50367C97.3059 1.47914 96.3112 1.46442 95.042 1.44971L94.9629 1.51838L97.604 1.52329Z" fill="#FFCF00"/>
<path d="M121.649 3.4688L119.306 3.29708C121.018 3.30198 122.525 3.3167 123.902 3.33633C124.248 3.34123 124.583 3.34614 124.913 3.35105C124.995 3.3535 125.077 3.3535 125.158 3.35595L125.266 3.3584H125.293C125.327 3.3584 125.359 3.36086 125.393 3.36086C125.52 3.36576 125.641 3.37067 125.76 3.37312C125.752 3.43936 125.744 3.5056 125.736 3.57183L125.734 3.59636L125.731 3.69694C125.728 3.7779 125.728 3.85885 125.726 3.94226C125.723 4.10663 125.72 4.27099 125.72 4.4378C125.715 5.10507 125.734 5.80913 125.789 6.61378L125.723 6.44941C125.644 6.87627 126.34 7.12649 125.42 11.8538H125.388C125.39 12.0181 125.454 12.0181 125.367 12.3444L125.57 11.5275C125.641 12.0181 125.784 12.4499 125.797 13.1024C125.76 13.2398 125.697 13.2889 125.646 13.3011L125.675 14.9055L125.467 15.3937C125.57 15.8843 125.997 15.666 125.741 16.976C126.042 16.4854 125.91 17.6286 126.061 17.4691C126.024 17.5353 125.966 17.685 125.916 17.8052C125.939 18.5853 126 20.0548 126.148 20.4203C126.148 20.4203 126.813 17.3759 127.14 16.5614C127.045 17.658 127.172 16.8509 127.274 16.635L127.203 16.5614C127.285 15.904 127.47 15.9064 127.528 15.5777C127.512 15.5777 127.493 15.5875 127.475 15.5973L127.499 15.639C127.464 15.6685 127.443 15.6513 127.425 15.617C127.385 15.6243 127.354 15.5949 127.367 15.4158L127.385 15.4501C127.361 15.1754 127.398 14.7019 127.414 14.4958L127.57 14.4934C127.28 14.0028 128.069 11.2233 128.087 10.5683C128.293 9.91331 128.058 9.09394 128.169 8.27458C128.237 6.96703 128.406 7.62203 128.549 6.96703C128.657 6.14767 128.364 7.1314 128.359 6.80267L128.588 5.8214C128.599 6.39299 128.697 6.08389 128.76 5.98086C128.778 5.55646 128.865 5.0094 128.908 4.53593C128.929 4.30043 128.939 4.07964 128.926 3.90546C128.918 3.81715 128.905 3.7411 128.884 3.67732C128.873 3.65033 128.86 3.60372 128.847 3.56938C128.834 3.53503 128.815 3.5056 128.797 3.48352C128.876 2.72058 128.947 2.27165 129 1.95028C128.274 1.91593 127.881 1.8914 126.995 1.87668C127.261 1.89386 127.657 1.91103 127.976 1.92575C128.296 1.94292 128.538 1.95764 128.515 1.97236C128.174 1.95273 127.95 1.94292 127.823 1.94047C127.697 1.93801 127.668 1.94047 127.699 1.94783C127.765 1.96255 128.074 1.98953 128.356 1.99934C127.77 2.0067 126.81 1.98708 125.612 1.95273C125.538 1.95028 125.462 1.94783 125.385 1.94537C125.348 1.94537 125.311 1.94292 125.274 1.94292L125.195 1.94047C125.09 1.93556 124.979 1.93311 124.871 1.9282C124.652 1.91839 124.425 1.91103 124.198 1.90122C123.741 1.88159 123.272 1.86196 122.813 1.84479C120.976 1.76874 119.29 1.70741 119.129 1.78346V1.75402C118.77 1.86442 119.343 1.98462 118.269 2.03614L117.557 1.97481L116.48 2.01161C115.76 1.965 116.113 1.93801 116.116 1.92329C114.364 1.95519 111.918 1.86196 109.797 1.82026L112.04 2.16371C110.251 2.06803 107.021 1.88159 106.662 1.97972L105.588 1.85951C102 1.61174 103.082 1.91593 101.649 1.83743L99.847 1.70005L101.641 1.72459C99.847 1.64363 99.1293 1.59702 97.7019 1.5038L97.686 1.50625C97.7836 1.51116 97.847 1.51852 97.8602 1.52588H97.6095C97.3905 1.57985 96.4538 1.60929 95.19 1.58966C93.3958 1.55041 91.9894 1.6191 89.124 1.4621L88.4063 1.57249L86.2533 1.47191L86.2559 1.37869C88.3641 1.41058 92.3325 1.42285 95.0422 1.44983L95.0897 1.40813C93.4829 1.3885 91.6544 1.40813 90.591 1.38605C90.0739 1.36152 88.7493 1.24622 89.7124 1.1947L88.7177 1.27565C83.3536 1.22168 83.3193 1.22414 77.723 1.04996L78.2084 1.10393C77.0976 1.11865 75.9894 1.13092 75.6834 1.05241C72.3219 0.995992 68.8417 0.892958 66.6596 0.74822L66.1794 0.853707C65.4697 0.838988 64.409 0.657453 64.0607 0.80955L62.5435 0.838988C61.5726 0.819363 60.9789 0.875786 59.8734 0.797284C59.8707 0.797284 59.8681 0.797284 59.8681 0.797284C59.7995 0.792378 59.7282 0.787471 59.6596 0.782565C59.6596 0.785018 59.6649 0.789924 59.6728 0.792378C57.4776 0.716329 59.6939 0.892958 57.1794 0.797284C56.3747 0.708969 56.285 0.927302 55.0607 0.888052L53.8338 0.713876C51.6148 0.596123 51.2322 0.750673 48.0158 0.711423C46.4723 0.635374 45.7282 0.490636 46.752 0.382696C45.343 0.510262 46.1108 0.471011 44.2427 0.517621C43.9551 0.453838 44.1557 0.444026 44.5673 0.394962C42.9103 0.304194 43.5435 0.436666 42.2955 0.417041C41.9314 0.524981 41.5092 0.70161 41.1029 0.70161L41.5858 0.743314C40.2612 0.787471 38.8153 0.797284 37.2797 0.723688L37.3377 0.667265L35.6992 0.677078L35.5963 0.603483L33.2586 0.598576L33.5778 0.623108C33.029 0.625561 31.2269 0.628014 30.1953 0.578951L30.2322 0.5397C27.3272 0.37779 24.9261 0.515168 21.5224 0.48573L21.971 0.409681C20.8127 0.314007 21.6517 0.53234 20.2691 0.475917L20.2005 0.372884C18.9815 0.490636 18.628 0.326273 17.7889 0.264944L18.1794 0.402322L16.6016 0.355711C14.8628 0.289475 15.5356 0.174176 15.7916 0.10794L14.6069 0.198708L14.3773 0.0785018C13.5092 0.203614 13.5119 0.0466104 11.9947 0.10058C11.8786 0.0466104 12.2612 0.0245318 11.7467 0L9.24274 0.134925L10.752 0.080955L10.5673 0.250224C8.99472 0.360618 8.44063 0.206067 7.31662 0.240412L8.08971 0.198708C6.25857 0.218333 6.16095 0.144738 5.12929 0.0932209C5.44855 0.130019 5.93931 0.181535 5.19789 0.196254C5.12929 0.196254 5.07388 0.196255 5.02902 0.193801C5.00528 0.193801 4.98417 0.191348 4.9657 0.191348C4.93404 0.188895 4.90765 0.188895 4.88127 0.186442C4.77573 0.179082 4.7124 0.171723 4.65171 0.159457C4.5277 0.139831 4.40633 0.1153 3.94195 0.10058C3.87599 0.144738 3.48285 0.176629 2.92876 0.196254C2.37203 0.210974 1.65172 0.21588 0.85752 0.201161C0.852243 0.380243 0.833773 0.561778 0.807388 0.738407C0.773087 0.716329 0.738786 0.684438 0.717678 0.615748C0.736148 0.740861 0.759894 0.838988 0.773087 0.954287C0.78628 1.06959 0.783641 1.19961 0.751979 1.39831C0.659631 1.30264 0.569921 1.19961 0.477573 1.09167C0.562005 1.39095 0.646438 1.67552 0.730871 1.94292C0.725594 1.97726 0.720317 2.01161 0.717678 2.04595C0.71504 2.07048 0.712401 2.09502 0.709763 2.11955C0.707124 2.16125 0.707124 2.20541 0.709763 2.24711C0.71504 2.33298 0.725594 2.41638 0.733509 2.48998C0.74934 2.63717 0.751979 2.7402 0.656992 2.71812L0.604222 2.5415L0.503958 4.88919L0.282322 4.91863C0.583113 5.15413 0.147757 6.19674 0.530343 6.12314C0.316623 6.56471 0.651715 7.87226 0.226913 7.60486C0.171504 9.14791 0.572559 9.9869 0.337731 11.8587C-0.0369393 12.5235 0.055409 14.356 0 15.5605C0.0343008 16.1861 0.0633245 16.7528 0.0949868 17.2949C0.102902 17.4299 0.110818 17.5648 0.118734 17.6972C0.124011 17.9278 0.131926 18.156 0.137203 18.3841C0.147757 18.8601 0.16095 19.3335 0.171504 19.8119C1.07916 19.8168 1.99472 19.8193 2.92612 19.8242C3.38522 19.8266 3.8496 19.8291 4.31926 19.8315C4.43536 19.8315 4.55409 19.8315 4.67019 19.834C4.73615 19.834 4.80475 19.834 4.87335 19.834C5.00528 19.834 5.1372 19.834 5.27177 19.834C6.33773 19.834 7.46702 19.8364 8.70185 19.8364C11.8654 20.1087 16.6016 19.8536 20.0079 20.0253L20.942 19.9444C23.2058 20.1185 26.6649 19.9812 29.8417 20.1627C30.6201 20.1308 31.029 20.1234 31.2111 20.1234C31.066 20.1161 30.847 20.0965 30.781 20.0376C31.6887 20.0891 33.5251 20.0597 33.3931 20.1774L33.1636 20.1872C33.029 20.3025 35.9182 20.1651 36.9288 20.2804L36.3747 20.148L38.0923 20.1897L37.6306 20.2093C45.1003 20.0229 48.4697 20.462 55.4855 20.2927C54.5541 20.4178 56.8681 20.2387 56.9578 20.3884C58.723 20.5994 60.2348 20.3884 61.686 20.354C61.686 20.3467 61.7045 20.3393 61.7863 20.3271L64.3193 20.3761C62.8021 20.5478 66.1478 20.2412 64.7546 20.3859C71.3615 20.6092 79.9868 20.5699 87.6359 20.7269L87.3008 20.673C89.2401 20.7048 91.6544 20.6754 93.1267 20.7711C94.599 20.8668 96.3483 20.6877 96.9208 20.6852C98.5356 20.6214 100 20.8054 99.3087 20.7883C101.034 20.7858 102.66 20.6337 105.053 20.7367C105.868 20.906 111.586 20.6582 111.657 20.8398L111.683 20.8251C114.747 20.9894 117.644 20.8079 120.945 20.9649C120.945 20.9649 120.881 20.9771 120.77 20.9894L127.499 20.5233L125.594 19.8953L119.776 19.3335L103.987 19.2477L91.3905 18.9018L60.7256 18.5927L58.533 18.7031C52.5119 18.3915 44.781 18.5706 38.2902 18.3228L38.153 18.4381C36.3245 18.4234 36.4485 18.3522 35.9974 18.3253C30.3483 18.2639 24.6412 18.2173 18.9815 18.1707C16.1504 18.1462 13.3325 18.1216 10.5383 18.0971C8.40369 18.075 6.2876 18.0554 4.20053 18.0358C4.2058 17.7022 4.21372 17.371 4.219 17.0422C4.23483 16.4167 4.25066 15.7985 4.26649 15.1827C4.30607 13.9537 4.35884 12.7516 4.42744 11.5741C4.60686 10.9019 4.53562 8.84862 4.72296 8.32119C4.58311 7.18291 4.51979 6.01275 4.50396 4.84013C4.49604 4.25382 4.49604 3.66996 4.50396 3.08856C4.50923 2.79908 4.51451 2.5096 4.51979 2.22013L4.52243 2.122L4.52507 2.10483L4.5277 2.07048C4.53034 2.04841 4.53298 2.02387 4.53562 2.0018L4.56464 2.02387L4.53826 1.94047L4.74142 1.93065C4.76781 1.94047 4.781 1.95519 4.77836 1.96254C4.81266 1.95028 4.86544 1.94047 4.92876 1.93556C4.92348 1.93556 4.95778 1.93556 4.97889 1.93556H5.05013C5.09763 1.93556 5.14512 1.93556 5.19261 1.93556C5.2876 1.93556 5.38522 1.93556 5.48285 1.93556C5.6781 1.93556 5.87863 1.93801 6.08179 1.93801C6.89446 1.94292 7.76517 1.95764 8.65435 1.97972C10.4327 2.01897 12.285 2.07784 13.905 2.11955L13.715 2.12936C32.6201 2.38204 50.1768 2.37713 68.9235 2.76964C77.6385 3.06648 87.7836 2.92665 97.7836 3.20876C99.6227 3.34369 119.86 3.50069 121.649 3.4688Z" fill="#FFCF00"/>
<path d="M125.641 13.2994V13.262C125.533 13.262 125.573 13.3169 125.641 13.2994Z" fill="#FFCF00"/>
<path d="M109.657 1.81526C109.701 1.81526 109.746 1.81771 109.789 1.81771L109.292 1.7417L109.657 1.81526Z" fill="#FFCF00"/>
<path d="M128.783 6.47137C128.826 5.92193 128.799 5.8974 128.754 5.97344C128.746 6.17212 128.752 6.34627 128.783 6.47137Z" fill="#FFCF00"/>
<path d="M125.784 17.7904C125.77 18.0799 125.836 17.9695 125.91 17.8003C125.902 17.5059 125.897 17.2998 125.897 17.2998C125.871 17.4642 125.813 17.6236 125.784 17.7904Z" fill="#FFCF00"/>
<path d="M127.269 16.6303L127.356 16.7211C127.337 16.5518 127.303 16.5592 127.269 16.6303Z" fill="#FFCF00"/>
</svg>
