<svg width="203" height="49" viewBox="0 0 203 49" fill="none" xmlns="http://www.w3.org/2000/svg">
<path d="M3.89313 2.25593L3.49536 44.1135L200.625 47.6741L201.023 5.81652L3.89313 2.25593Z" fill="#009167"/>
<path d="M49.1106 46.9507C49.3307 46.9664 49.4386 46.9507 49.1106 46.9507V46.9507Z" fill="#009167"/>
<path d="M66.3921 0.961737C66.4585 0.961737 66.4917 0.961737 66.5582 0.961737C66.6786 0.910218 66.7907 0.864424 66.9028 0.830078L66.3921 0.961737Z" fill="#009167"/>
<path d="M93.7175 1.80313C93.7798 1.80885 93.8254 1.81458 93.8835 1.8203C93.8711 1.78595 93.9043 1.75161 93.7175 1.80313Z" fill="#009167"/>
<path d="M1.09595 0.875732C1.08748 1.1505 1.10442 1.31078 1.12982 1.43671C1.11289 1.27071 1.10019 1.09898 1.09595 0.875732Z" fill="#009167"/>
<path d="M99.1934 47.5632C99.1934 47.5632 99.1228 47.5632 99.073 47.5632C99.1685 47.5747 99.2682 47.5861 99.3678 47.6033L99.1934 47.5632Z" fill="#009167"/>
<path d="M98.641 47.649C98.039 47.5975 98.8071 47.5746 99.0728 47.5689C98.4085 47.483 97.74 47.4658 97.0674 47.4887C97.0715 47.5689 98.3462 47.5803 98.641 47.649Z" fill="#009167"/>
<path d="M190.041 48.9714L189.767 49.0001C189.879 48.9943 189.962 48.9829 190.041 48.9714Z" fill="#009167"/>
<path d="M7.52505 4.57935C7.51233 4.58492 7.49114 4.59048 7.48267 4.59605C7.51233 4.60162 7.52081 4.59049 7.52505 4.57935Z" fill="#009167"/>
<path d="M175.7 48.6279L175.542 48.7596C175.683 48.7081 175.712 48.668 175.7 48.6279Z" fill="#009167"/>
<path d="M66.9033 0.835698L67.1025 0.78418C67.0319 0.795628 66.9697 0.812801 66.9033 0.835698Z" fill="#009167"/>
<path d="M118.966 2.34692C118.974 2.38699 119.032 2.42134 119.098 2.44996C119.132 2.44996 119.152 2.44996 119.169 2.44996L118.966 2.34692Z" fill="#009167"/>
<path d="M200.512 36.4294C200.537 36.4237 200.562 36.4065 200.591 36.3836L200.454 36.0344C200.463 36.2176 200.483 36.3435 200.512 36.4294Z" fill="#009167"/>
<path d="M153.594 3.55479C153.623 3.53761 153.706 3.52616 153.714 3.50899C153.125 3.45175 151.559 3.4174 149.562 3.38306L149.438 3.54334L153.594 3.55479Z" fill="#009167"/>
<path d="M191.432 8.09416L187.745 7.69346C190.44 7.70491 192.811 7.73925 194.978 7.78505C195.522 7.7965 196.049 7.80794 196.568 7.81939C196.697 7.82512 196.826 7.82512 196.955 7.83084L197.125 7.83657H197.166C197.22 7.83657 197.27 7.84229 197.324 7.84229C197.523 7.85374 197.714 7.86519 197.901 7.87091C197.889 8.02547 197.876 8.18002 197.864 8.33458L197.86 8.39182L197.856 8.62652C197.851 8.81542 197.851 9.00432 197.847 9.19895C197.843 9.58248 197.839 9.96601 197.839 10.3553C197.831 11.9123 197.86 13.5551 197.947 15.4327L197.843 15.0492C197.719 16.0452 198.815 16.6291 197.366 27.6598H197.316C197.32 28.0433 197.42 28.0433 197.283 28.8047L197.602 26.8985C197.714 28.0433 197.939 29.0508 197.959 30.5735C197.901 30.894 197.802 31.0085 197.723 31.0372L197.768 34.7808L197.44 35.92C197.602 37.0648 198.275 36.5554 197.872 39.6121C198.345 38.4673 198.138 41.1348 198.375 40.7627C198.316 40.9173 198.225 41.2665 198.146 41.547C198.184 43.3673 198.279 46.7961 198.512 47.6491C198.512 47.6491 199.558 40.5452 200.073 38.6447C199.923 41.2035 200.123 39.3202 200.285 38.8165L200.172 38.6447C200.301 37.1106 200.592 37.1164 200.683 36.3493C200.658 36.3493 200.629 36.3722 200.6 36.3951L200.637 36.4924C200.583 36.5611 200.55 36.521 200.521 36.4409C200.459 36.4581 200.409 36.3894 200.43 35.9715L200.459 36.0516C200.422 35.4105 200.48 34.3057 200.505 33.8249L200.75 33.8192C200.293 32.6743 201.534 26.1887 201.563 24.6603C201.887 23.1319 201.518 21.22 201.692 19.3081C201.8 16.257 202.066 17.7854 202.29 16.257C202.46 14.3451 201.999 16.6405 201.991 15.8735L202.352 13.5838C202.369 14.9175 202.523 14.1963 202.622 13.9558C202.651 12.9655 202.788 11.689 202.855 10.5842C202.888 10.0347 202.905 9.51951 202.884 9.11308C202.871 8.90701 202.851 8.72956 202.817 8.58073C202.801 8.51776 202.78 8.409 202.759 8.32886C202.738 8.24872 202.709 8.18002 202.68 8.12851C202.805 6.34825 202.917 5.3007 203 4.55082C201.858 4.47068 201.24 4.41343 199.844 4.37909C200.264 4.41916 200.887 4.45923 201.389 4.49358C201.891 4.53365 202.273 4.56799 202.236 4.60234C201.7 4.55654 201.347 4.53365 201.148 4.52792C200.949 4.5222 200.903 4.52792 200.953 4.54509C201.057 4.57944 201.543 4.64241 201.987 4.6653C201.065 4.68248 199.554 4.63668 197.669 4.55654C197.552 4.55082 197.432 4.54509 197.312 4.53937C197.254 4.53937 197.195 4.53365 197.137 4.53365L197.013 4.52792C196.847 4.51647 196.672 4.51075 196.502 4.4993C196.157 4.4764 195.8 4.45923 195.443 4.43633C194.725 4.39054 193.986 4.34474 193.263 4.30467C190.373 4.12722 187.72 3.98411 187.467 4.16157V4.09287C186.902 4.35047 187.803 4.63096 186.113 4.75117L184.992 4.60806L183.298 4.69393C182.165 4.58516 182.721 4.5222 182.725 4.48785C179.968 4.56227 176.119 4.34474 172.781 4.24743L176.31 5.04883C173.495 4.82558 168.413 4.39054 167.848 4.61951L166.158 4.33902C160.512 3.76086 162.214 4.47068 159.959 4.2875L157.124 3.96694L159.947 4.02418C157.124 3.83528 155.994 3.72652 153.748 3.509L153.723 3.51472C153.877 3.52617 153.976 3.54334 153.997 3.56051H153.603C153.258 3.68645 151.784 3.75514 149.795 3.70935C146.972 3.61776 144.759 3.77804 140.249 3.41168L139.12 3.66928L135.732 3.43458L135.736 3.21706C139.054 3.29147 145.298 3.32009 149.563 3.38306L149.637 3.28575C147.109 3.23995 144.231 3.28575 142.558 3.23423C141.744 3.17699 139.66 2.90794 141.175 2.78773L139.61 2.97664C131.169 2.8507 131.115 2.85643 122.308 2.45L123.072 2.57593C121.324 2.61028 119.58 2.6389 119.099 2.45572C113.809 2.32407 108.332 2.08365 104.898 1.74591L104.143 1.99206C103.026 1.95771 101.357 1.53411 100.809 1.88902L98.4212 1.95771C96.8932 1.91192 95.959 2.04358 94.2193 1.8604C94.2151 1.8604 94.211 1.8604 94.211 1.8604C94.103 1.84895 93.9909 1.8375 93.883 1.82605C93.883 1.83178 93.8913 1.84322 93.9037 1.84895C90.4492 1.6715 93.937 2.08365 89.98 1.8604C88.7136 1.65432 88.5724 2.16379 86.6459 2.0722L84.7152 1.66577C81.2233 1.391 80.6212 1.75164 75.5598 1.66005C73.1308 1.48259 71.9599 1.14486 73.5709 0.892991C71.3537 1.19065 72.562 1.09907 69.6223 1.20783C69.1697 1.059 69.4853 1.0361 70.133 0.921612C67.5255 0.709813 68.522 1.01893 66.5581 0.973131C65.9851 1.225 65.3207 1.63715 64.6813 1.63715L65.4411 1.73446C63.3568 1.8375 61.0814 1.8604 58.6649 1.68867L58.7563 1.55701L56.1778 1.57991L56.0159 1.40818L52.3371 1.39673L52.8395 1.45397C51.9759 1.4597 49.14 1.46542 47.5166 1.35093L47.5747 1.25935C43.0032 0.881542 39.2248 1.2021 33.8686 1.13341L34.5745 0.955958C32.7517 0.73271 34.0721 1.24217 31.8964 1.11051L31.7884 0.870094C29.8702 1.14486 29.3138 0.761332 27.9934 0.618224L28.6079 0.938785L26.125 0.830023C23.3887 0.675467 24.4475 0.406425 24.8503 0.251869L22.986 0.463668L22.6248 0.183178C21.2587 0.475117 21.2629 0.108762 18.8754 0.234696C18.6927 0.108762 19.2948 0.057243 18.4851 0L14.5448 0.314836L16.9198 0.188902L16.6291 0.583879C14.1545 0.841472 13.2825 0.480841 11.5138 0.560981L12.7303 0.463668C9.84876 0.509463 9.69514 0.337734 8.07167 0.217523C8.57407 0.303388 9.34636 0.423598 8.17962 0.457944C8.07167 0.457944 7.98448 0.457944 7.91389 0.45222C7.87652 0.45222 7.8433 0.446495 7.81424 0.446495C7.76441 0.440771 7.72289 0.440771 7.68137 0.435047C7.51529 0.417874 7.41564 0.400701 7.32014 0.372079C7.12499 0.326285 6.934 0.269042 6.20323 0.234696C6.09942 0.337734 5.48076 0.41215 4.60882 0.457944C3.73273 0.49229 2.59921 0.503738 1.34943 0.469393C1.34113 0.887266 1.31206 1.31086 1.27054 1.72301C1.21656 1.6715 1.16259 1.59708 1.12937 1.4368C1.15843 1.72874 1.1958 1.95771 1.21656 2.22675C1.23732 2.49579 1.23317 2.79918 1.18335 3.26285C1.03802 3.0396 0.896852 2.79918 0.751529 2.54731C0.884396 3.24568 1.01726 3.9097 1.15013 4.53365C1.14183 4.61379 1.13352 4.69393 1.12937 4.77407C1.12522 4.83131 1.12107 4.88855 1.11691 4.9458C1.11276 5.04311 1.11276 5.14614 1.11691 5.24346C1.12522 5.44381 1.14183 5.63843 1.15428 5.81016C1.17919 6.15362 1.18335 6.39404 1.03387 6.34252L0.950829 5.93037L0.79305 11.4085L0.444274 11.4772C0.917613 12.0268 0.232517 14.4596 0.834571 14.2879C0.498251 15.3182 1.02557 18.3693 0.35708 17.7453C0.269886 21.3459 0.901004 23.3036 0.531468 27.6713C-0.0581293 29.2225 0.087194 33.4986 0 36.3092C0.0539772 37.7689 0.0996502 39.0912 0.149475 40.3563C0.161932 40.6711 0.174388 40.986 0.186844 41.2951C0.195148 41.8332 0.207605 42.3655 0.215909 42.8979C0.232517 44.0084 0.253278 45.1132 0.269886 46.2294C1.69821 46.2409 3.13898 46.2466 4.60467 46.2581C5.32714 46.2638 6.0579 46.2695 6.79698 46.2752C6.97967 46.2752 7.16651 46.2752 7.34921 46.281C7.45301 46.281 7.56096 46.281 7.66892 46.281C7.87652 46.281 8.08413 46.281 8.29588 46.281C9.97333 46.281 11.7504 46.2867 13.6936 46.2867C18.672 46.9221 26.125 46.3268 31.4853 46.7275L32.9552 46.5386C36.5177 46.945 41.9611 46.6244 46.9602 47.048C48.185 46.9736 48.8286 46.9564 49.1151 46.9564C48.8867 46.9393 48.5421 46.8935 48.4383 46.7561C49.8666 46.8763 52.7565 46.8076 52.5489 47.0824L52.1877 47.1053C51.9759 47.3743 56.5224 47.0537 58.1127 47.3228L57.2408 47.0137L59.9438 47.111L59.2172 47.1568C70.9717 46.7217 76.2739 47.7464 87.3144 47.3514C85.8487 47.6433 89.4901 47.2255 89.6312 47.5747C92.409 48.0669 94.7881 47.5747 97.0718 47.4945C97.0718 47.4773 97.1009 47.4602 97.2296 47.4315L101.216 47.546C98.8281 47.9467 104.093 47.2312 101.901 47.5689C112.298 48.0898 125.871 47.9983 137.908 48.3646L137.38 48.2387C140.432 48.3131 144.231 48.2444 146.548 48.4676C148.865 48.6909 151.618 48.273 152.519 48.2673C155.06 48.1185 157.364 48.5478 156.276 48.5077C158.992 48.502 161.55 48.1471 165.316 48.3875C166.599 48.7825 175.596 48.2043 175.708 48.6279L175.75 48.5936C180.57 48.9771 185.129 48.5535 190.324 48.9199C190.324 48.9199 190.224 48.9485 190.05 48.9771L200.637 47.8895L197.64 46.4241L188.484 45.1132L163.638 44.9129L143.816 44.1057L95.5604 43.3845L92.11 43.6421C82.635 42.9151 70.4693 43.3329 60.2552 42.7548L60.0393 43.0238C57.1619 42.9895 57.357 42.8235 56.647 42.7605C47.7574 42.6174 38.7764 42.5087 29.8702 42.3999C25.415 42.3426 20.9805 42.2854 16.5835 42.2282C13.2244 42.1766 9.89444 42.1308 6.61013 42.085C6.61844 41.3065 6.63089 40.5338 6.6392 39.7667C6.66411 38.307 6.68902 36.8645 6.71393 35.4277C6.77622 32.5598 6.85926 29.7549 6.96721 27.0072C7.24956 25.4388 7.13745 20.6475 7.43225 19.4168C7.21219 16.7607 7.11254 14.0303 7.08762 11.294C7.07517 9.92593 7.07517 8.56355 7.08762 7.20689C7.09593 6.53143 7.10423 5.85596 7.11253 5.18049L7.11669 4.95152L7.12084 4.91145L7.12499 4.83131C7.12914 4.77979 7.1333 4.72255 7.13745 4.67103L7.18312 4.72255L7.1416 4.52792L7.46131 4.50502C7.50283 4.52792 7.52359 4.56227 7.51944 4.57944C7.57342 4.55082 7.65646 4.52792 7.75611 4.51647C7.74781 4.51647 7.80178 4.51647 7.835 4.51647H7.94711C8.02184 4.51647 8.09658 4.51647 8.17132 4.51647C8.3208 4.51647 8.47442 4.51647 8.62805 4.51647C8.93531 4.51647 9.25086 4.5222 9.57057 4.5222C10.8494 4.53365 12.2196 4.56799 13.6189 4.61951C16.4174 4.7111 19.3321 4.84848 21.8815 4.9458L21.5826 4.96869C51.3323 5.5583 78.9604 5.54685 108.461 6.46273C122.175 7.15537 138.14 6.82909 153.877 7.48738C156.771 7.80222 188.617 8.16858 191.432 8.09416Z" fill="#009167"/>
<path d="M197.714 31.0314V30.9456C197.544 30.9456 197.607 31.0715 197.714 31.0314Z" fill="#009167"/>
<path d="M172.561 4.23594C172.631 4.23594 172.702 4.24166 172.768 4.24166L171.988 4.06421L172.561 4.23594Z" fill="#009167"/>
<path d="M202.659 15.1006C202.726 13.8184 202.685 13.7612 202.614 13.9386C202.601 14.4023 202.609 14.8087 202.659 15.1006Z" fill="#009167"/>
<path d="M197.939 41.5125C197.918 42.188 198.022 41.9304 198.138 41.5354C198.125 40.8485 198.117 40.3677 198.117 40.3677C198.076 40.7512 197.984 41.1233 197.939 41.5125Z" fill="#009167"/>
<path d="M200.276 38.8051L200.413 39.0169C200.384 38.6219 200.33 38.6391 200.276 38.8051Z" fill="#009167"/>
<path d="M21.8343 11.9H23.8753L27.1318 21H25.1753L24.4993 18.9525H21.2103L20.5343 21H18.5778L21.8343 11.9ZM24.0248 17.4445L22.8548 13.8695L21.6848 17.4445H24.0248ZM31.3211 19.5765C31.7068 19.5765 32.0556 19.479 32.3676 19.284C32.684 19.089 32.9201 18.829 33.0761 18.504V16.762C32.9201 16.437 32.684 16.177 32.3676 15.982C32.0556 15.787 31.7068 15.6895 31.3211 15.6895C30.7708 15.6895 30.3093 15.8758 29.9366 16.2485C29.564 16.6212 29.3776 17.0827 29.3776 17.633C29.3776 18.1833 29.564 18.6448 29.9366 19.0175C30.3093 19.3902 30.7708 19.5765 31.3211 19.5765ZM30.9441 14.11C31.7978 14.11 32.5085 14.3873 33.0761 14.942V11.51H34.8441V21H33.0761V20.324C32.5085 20.8787 31.7978 21.156 30.9441 21.156C30.3115 21.156 29.7373 20.9978 29.2216 20.6815C28.706 20.3608 28.303 19.9318 28.0126 19.3945C27.7266 18.8572 27.5836 18.27 27.5836 17.633C27.5836 16.996 27.7266 16.4088 28.0126 15.8715C28.303 15.3342 28.706 14.9073 29.2216 14.591C29.7373 14.2703 30.3115 14.11 30.9441 14.11ZM39.8651 19.5765C40.2507 19.5765 40.5996 19.479 40.9116 19.284C41.2279 19.089 41.4641 18.829 41.6201 18.504V16.762C41.4641 16.437 41.2279 16.177 40.9116 15.982C40.5996 15.787 40.2507 15.6895 39.8651 15.6895C39.3147 15.6895 38.8532 15.8758 38.4806 16.2485C38.1079 16.6212 37.9216 17.0827 37.9216 17.633C37.9216 18.1833 38.1079 18.6448 38.4806 19.0175C38.8532 19.3902 39.3147 19.5765 39.8651 19.5765ZM39.4881 14.11C40.3417 14.11 41.0524 14.3873 41.6201 14.942V14.266H43.3881V24.016H41.6201V20.324C41.0524 20.8787 40.3417 21.156 39.4881 21.156C38.8554 21.156 38.2812 20.9978 37.7656 20.6815C37.2499 20.3608 36.8469 19.9318 36.5566 19.3945C36.2706 18.8572 36.1276 18.27 36.1276 17.633C36.1276 16.996 36.2706 16.4088 36.5566 15.8715C36.8469 15.3342 37.2499 14.9073 37.7656 14.591C38.2812 14.2703 38.8554 14.11 39.4881 14.11ZM49.566 18.647V14.266H51.3535V21H49.566V20.259C49.3364 20.532 49.0525 20.7508 48.7145 20.9155C48.3809 21.0758 48.0342 21.156 47.6745 21.156C46.8815 21.156 46.2337 20.9025 45.731 20.3955C45.2327 19.8885 44.9835 19.2277 44.9835 18.413V14.266H46.771V18.2375C46.771 18.6188 46.8924 18.9373 47.135 19.193C47.382 19.4487 47.707 19.5765 48.11 19.5765C48.383 19.5765 48.6539 19.4855 48.9225 19.3035C49.1912 19.1215 49.4057 18.9027 49.566 18.647ZM53.1187 21V14.266H54.9062V21H53.1187ZM53.2617 13.2065C53.058 13.0072 52.9562 12.7623 52.9562 12.472C52.9562 12.1817 53.058 11.9368 53.2617 11.7375C53.4653 11.5382 53.7167 11.4385 54.0157 11.4385C54.3147 11.4385 54.566 11.5382 54.7697 11.7375C54.9733 11.9368 55.0752 12.1817 55.0752 12.472C55.0752 12.7623 54.9733 13.0072 54.7697 13.2065C54.566 13.4058 54.3147 13.5055 54.0157 13.5055C53.7167 13.5055 53.4653 13.4058 53.2617 13.2065ZM58.044 18.166C58.122 18.634 58.3386 19.0132 58.694 19.3035C59.0536 19.5895 59.487 19.7325 59.994 19.7325C60.7003 19.7325 61.3373 19.453 61.905 18.894L62.9775 19.934C62.2278 20.7487 61.2355 21.156 60.0005 21.156C59.4545 21.156 58.9453 21.065 58.473 20.883C58.0006 20.701 57.602 20.4518 57.277 20.1355C56.952 19.8192 56.6963 19.4465 56.51 19.0175C56.328 18.5842 56.237 18.1227 56.237 17.633C56.237 17.1477 56.3301 16.6883 56.5165 16.255C56.7028 15.8217 56.9563 15.449 57.277 15.137C57.602 14.8207 57.992 14.5715 58.447 14.3895C58.902 14.2032 59.3851 14.11 59.8965 14.11C60.5681 14.11 61.1748 14.2638 61.7165 14.5715C62.2581 14.8748 62.6785 15.2865 62.9775 15.8065C63.2765 16.3222 63.426 16.892 63.426 17.516C63.426 17.7413 63.4 17.958 63.348 18.166H58.044ZM59.8835 15.5335C59.4631 15.5335 59.0883 15.657 58.759 15.904C58.434 16.151 58.2108 16.4803 58.0895 16.892H61.5865C61.4868 16.4847 61.2853 16.1575 60.982 15.9105C60.6786 15.6592 60.3125 15.5335 59.8835 15.5335ZM68.0756 15.6895C67.7549 15.6895 67.4581 15.787 67.1851 15.982C66.9121 16.177 66.6846 16.4435 66.5026 16.7815V21H64.7151V14.266H66.5026V15.0915C66.9923 14.4372 67.5924 14.11 68.3031 14.11C68.5328 14.11 68.7364 14.1577 68.9141 14.253L68.7906 15.8195C68.5393 15.7328 68.3009 15.6895 68.0756 15.6895ZM71.2344 18.166C71.3124 18.634 71.529 19.0132 71.8844 19.3035C72.244 19.5895 72.6774 19.7325 73.1844 19.7325C73.8907 19.7325 74.5277 19.453 75.0954 18.894L76.1679 19.934C75.4182 20.7487 74.4259 21.156 73.1909 21.156C72.6449 21.156 72.1357 21.065 71.6634 20.883C71.191 20.701 70.7924 20.4518 70.4674 20.1355C70.1424 19.8192 69.8867 19.4465 69.7004 19.0175C69.5184 18.5842 69.4274 18.1227 69.4274 17.633C69.4274 17.1477 69.5205 16.6883 69.7069 16.255C69.8932 15.8217 70.1467 15.449 70.4674 15.137C70.7924 14.8207 71.1824 14.5715 71.6374 14.3895C72.0924 14.2032 72.5755 14.11 73.0869 14.11C73.7585 14.11 74.3652 14.2638 74.9069 14.5715C75.4485 14.8748 75.8689 15.2865 76.1679 15.8065C76.4669 16.3222 76.6164 16.892 76.6164 17.516C76.6164 17.7413 76.5904 17.958 76.5384 18.166H71.2344ZM73.0739 15.5335C72.6535 15.5335 72.2787 15.657 71.9494 15.904C71.6244 16.151 71.4012 16.4803 71.2799 16.892H74.7769C74.6772 16.4847 74.4757 16.1575 74.1724 15.9105C73.869 15.6592 73.5029 15.5335 73.0739 15.5335ZM84.0774 15.8195V18.6665C84.0774 18.9915 84.1554 19.2298 84.3114 19.3815C84.4717 19.5288 84.736 19.6025 85.1044 19.6025C85.334 19.6025 85.5464 19.5917 85.7414 19.57V21.065C85.4597 21.1257 85.1499 21.156 84.8119 21.156C83.1305 21.156 82.2899 20.363 82.2899 18.777V15.8195H81.2434V14.266H82.2899V12.472L84.0774 12.316V14.266H85.6634V15.8195H84.0774ZM91.3971 18.647V14.266H93.1846V21H91.3971V20.259C91.1674 20.532 90.8836 20.7508 90.5456 20.9155C90.2119 21.0758 89.8652 21.156 89.5056 21.156C88.7126 21.156 88.0647 20.9025 87.5621 20.3955C87.0637 19.8885 86.8146 19.2277 86.8146 18.413V14.266H88.6021V18.2375C88.6021 18.6188 88.7234 18.9373 88.9661 19.193C89.2131 19.4487 89.5381 19.5765 89.9411 19.5765C90.2141 19.5765 90.4849 19.4855 90.7536 19.3035C91.0222 19.1215 91.2367 18.9027 91.3971 18.647ZM102.363 19.5765C102.913 19.5765 103.375 19.3902 103.748 19.0175C104.12 18.6448 104.307 18.1833 104.307 17.633C104.307 17.0827 104.12 16.6212 103.748 16.2485C103.375 15.8758 102.913 15.6895 102.363 15.6895C101.977 15.6895 101.626 15.787 101.31 15.982C100.998 16.177 100.764 16.437 100.608 16.762V18.504C100.764 18.829 100.998 19.089 101.31 19.284C101.626 19.479 101.977 19.5765 102.363 19.5765ZM102.74 14.11C103.373 14.11 103.947 14.2703 104.463 14.591C104.978 14.9073 105.379 15.3342 105.665 15.8715C105.955 16.4088 106.101 16.996 106.101 17.633C106.101 18.27 105.955 18.8572 105.665 19.3945C105.379 19.9318 104.978 20.3608 104.463 20.6815C103.947 20.9978 103.373 21.156 102.74 21.156C101.886 21.156 101.176 20.8787 100.608 20.324V24.016H98.8401V14.266H100.608V14.942C101.176 14.3873 101.886 14.11 102.74 14.11ZM107.417 21V11.51H109.204V21H107.417ZM114.272 19.5765C114.658 19.5765 115.007 19.479 115.319 19.284C115.635 19.089 115.871 18.829 116.027 18.504V16.762C115.871 16.437 115.635 16.177 115.319 15.982C115.007 15.787 114.658 15.6895 114.272 15.6895C113.722 15.6895 113.26 15.8758 112.888 16.2485C112.515 16.6212 112.329 17.0827 112.329 17.633C112.329 18.1833 112.515 18.6448 112.888 19.0175C113.26 19.3902 113.722 19.5765 114.272 19.5765ZM113.895 14.11C114.749 14.11 115.46 14.3873 116.027 14.942V14.266H117.795V21H116.027V20.324C115.46 20.8787 114.749 21.156 113.895 21.156C113.263 21.156 112.688 20.9978 112.173 20.6815C111.657 20.3608 111.254 19.9318 110.964 19.3945C110.678 18.8572 110.535 18.27 110.535 17.633C110.535 16.996 110.678 16.4088 110.964 15.8715C111.254 15.3342 111.657 14.9073 112.173 14.591C112.688 14.2703 113.263 14.11 113.895 14.11ZM121.308 16.619V21H119.521V14.266H121.308V15.007C121.538 14.734 121.82 14.5173 122.153 14.357C122.491 14.1923 122.84 14.11 123.2 14.11C123.993 14.11 124.638 14.3635 125.137 14.8705C125.639 15.3775 125.891 16.0383 125.891 16.853V21H124.103V17.0285C124.103 16.6472 123.98 16.3287 123.733 16.073C123.49 15.8173 123.167 15.6895 122.764 15.6895C122.491 15.6895 122.22 15.7805 121.952 15.9625C121.683 16.1445 121.469 16.3633 121.308 16.619ZM130.955 20.038L131.852 18.9265C132.068 19.1735 132.324 19.3685 132.619 19.5115C132.918 19.6545 133.232 19.726 133.561 19.726C133.869 19.726 134.109 19.6653 134.283 19.544C134.46 19.4227 134.549 19.2602 134.549 19.0565C134.549 18.8485 134.463 18.6817 134.289 18.556C134.116 18.426 133.817 18.3177 133.392 18.231C131.932 17.932 131.202 17.2127 131.202 16.073C131.202 15.501 131.425 15.0308 131.871 14.6625C132.322 14.2942 132.909 14.11 133.633 14.11C134.083 14.11 134.517 14.1945 134.933 14.3635C135.349 14.5282 135.713 14.7492 136.025 15.0265L135.167 16.1445C134.677 15.7415 134.218 15.54 133.789 15.54C133.542 15.54 133.34 15.592 133.184 15.696C133.028 15.7957 132.95 15.93 132.95 16.099C132.95 16.489 133.308 16.7577 134.023 16.905C134.798 17.061 135.37 17.3188 135.739 17.6785C136.111 18.0382 136.298 18.504 136.298 19.076C136.298 19.6827 136.062 20.181 135.589 20.571C135.117 20.961 134.486 21.156 133.698 21.156C133.139 21.156 132.619 21.0585 132.138 20.8635C131.657 20.6642 131.262 20.389 130.955 20.038ZM138.938 18.166C139.016 18.634 139.233 19.0132 139.588 19.3035C139.948 19.5895 140.381 19.7325 140.888 19.7325C141.595 19.7325 142.232 19.453 142.799 18.894L143.872 19.934C143.122 20.7487 142.13 21.156 140.895 21.156C140.349 21.156 139.84 21.065 139.367 20.883C138.895 20.701 138.496 20.4518 138.171 20.1355C137.846 19.8192 137.591 19.4465 137.404 19.0175C137.222 18.5842 137.131 18.1227 137.131 17.633C137.131 17.1477 137.225 16.6883 137.411 16.255C137.597 15.8217 137.851 15.449 138.171 15.137C138.496 14.8207 138.886 14.5715 139.341 14.3895C139.796 14.2032 140.28 14.11 140.791 14.11C141.463 14.11 142.069 14.2638 142.611 14.5715C143.153 14.8748 143.573 15.2865 143.872 15.8065C144.171 16.3222 144.32 16.892 144.32 17.516C144.32 17.7413 144.294 17.958 144.242 18.166H138.938ZM140.778 15.5335C140.358 15.5335 139.983 15.657 139.653 15.904C139.328 16.151 139.105 16.4803 138.984 16.892H142.481C142.381 16.4847 142.18 16.1575 141.876 15.9105C141.573 15.6592 141.207 15.5335 140.778 15.5335ZM145.61 14.266H147.397V15.007C147.614 14.7383 147.88 14.5238 148.197 14.3635C148.513 14.2032 148.851 14.123 149.211 14.123C149.683 14.123 150.108 14.2248 150.485 14.4285C150.866 14.6322 151.171 14.916 151.401 15.28C151.644 14.929 151.964 14.6473 152.363 14.435C152.762 14.2183 153.182 14.11 153.624 14.11C154.4 14.11 155.03 14.3657 155.516 14.877C156.005 15.384 156.25 16.0362 156.25 16.8335V21H154.463V17.0155C154.463 16.6385 154.35 16.3243 154.125 16.073C153.904 15.8173 153.609 15.6895 153.241 15.6895C152.968 15.6895 152.705 15.7805 152.454 15.9625C152.203 16.1402 151.988 16.372 151.811 16.658C151.819 16.8487 151.824 16.996 151.824 17.1V21H150.036V17.0155C150.036 16.6298 149.923 16.3135 149.698 16.0665C149.473 15.8152 149.178 15.6895 148.814 15.6895C148.541 15.6895 148.279 15.7783 148.028 15.956C147.781 16.1337 147.57 16.3612 147.397 16.6385V21H145.61V14.266ZM161.143 19.5765C161.529 19.5765 161.878 19.479 162.19 19.284C162.506 19.089 162.742 18.829 162.898 18.504V16.762C162.742 16.437 162.506 16.177 162.19 15.982C161.878 15.787 161.529 15.6895 161.143 15.6895C160.593 15.6895 160.132 15.8758 159.759 16.2485C159.386 16.6212 159.2 17.0827 159.2 17.633C159.2 18.1833 159.386 18.6448 159.759 19.0175C160.132 19.3902 160.593 19.5765 161.143 19.5765ZM160.766 14.11C161.62 14.11 162.331 14.3873 162.898 14.942V14.266H164.666V21H162.898V20.324C162.331 20.8787 161.62 21.156 160.766 21.156C160.134 21.156 159.56 20.9978 159.044 20.6815C158.528 20.3608 158.125 19.9318 157.835 19.3945C157.549 18.8572 157.406 18.27 157.406 17.633C157.406 16.996 157.549 16.4088 157.835 15.8715C158.125 15.3342 158.528 14.9073 159.044 14.591C159.56 14.2703 160.134 14.11 160.766 14.11ZM168.179 16.619V21H166.392V14.266H168.179V15.007C168.409 14.734 168.691 14.5173 169.024 14.357C169.362 14.1923 169.711 14.11 170.071 14.11C170.864 14.11 171.51 14.3635 172.008 14.8705C172.511 15.3775 172.762 16.0383 172.762 16.853V21H170.974V17.0285C170.974 16.6472 170.851 16.3287 170.604 16.073C170.361 15.8173 170.038 15.6895 169.635 15.6895C169.362 15.6895 169.092 15.7805 168.823 15.9625C168.554 16.1445 168.34 16.3633 168.179 16.619ZM177.66 19.5765C178.046 19.5765 178.395 19.479 178.707 19.284C179.023 19.089 179.259 18.829 179.415 18.504V16.762C179.259 16.437 179.023 16.177 178.707 15.982C178.395 15.787 178.046 15.6895 177.66 15.6895C177.11 15.6895 176.648 15.8758 176.276 16.2485C175.903 16.6212 175.717 17.0827 175.717 17.633C175.717 18.1833 175.903 18.6448 176.276 19.0175C176.648 19.3902 177.11 19.5765 177.66 19.5765ZM177.283 14.11C178.137 14.11 178.847 14.3873 179.415 14.942V14.266H181.183V21H179.415V20.324C178.847 20.8787 178.137 21.156 177.283 21.156C176.65 21.156 176.076 20.9978 175.561 20.6815C175.045 20.3608 174.642 19.9318 174.352 19.3945C174.066 18.8572 173.923 18.27 173.923 17.633C173.923 16.996 174.066 16.4088 174.352 15.8715C174.642 15.3342 175.045 14.9073 175.561 14.591C176.076 14.2703 176.65 14.11 177.283 14.11ZM182.941 21V11.51H184.728V21H182.941ZM42.9627 35.5765C43.3484 35.5765 43.6972 35.479 44.0092 35.284C44.3256 35.089 44.5617 34.829 44.7177 34.504V32.762C44.5617 32.437 44.3256 32.177 44.0092 31.982C43.6972 31.787 43.3484 31.6895 42.9627 31.6895C42.4124 31.6895 41.9509 31.8758 41.5782 32.2485C41.2056 32.6212 41.0192 33.0827 41.0192 33.633C41.0192 34.1833 41.2056 34.6448 41.5782 35.0175C41.9509 35.3902 42.4124 35.5765 42.9627 35.5765ZM42.5857 30.11C43.4394 30.11 44.1501 30.3873 44.7177 30.942V27.51H46.4857V37H44.7177V36.324C44.1501 36.8787 43.4394 37.156 42.5857 37.156C41.9531 37.156 41.3789 36.9978 40.8632 36.6815C40.3476 36.3608 39.9446 35.9318 39.6542 35.3945C39.3682 34.8572 39.2252 34.27 39.2252 33.633C39.2252 32.996 39.3682 32.4088 39.6542 31.8715C39.9446 31.3342 40.3476 30.9073 40.8632 30.591C41.3789 30.2703 41.9531 30.11 42.5857 30.11ZM49.5762 34.166C49.6542 34.634 49.8708 35.0132 50.2262 35.3035C50.5858 35.5895 51.0192 35.7325 51.5262 35.7325C52.2325 35.7325 52.8695 35.453 53.4372 34.894L54.5097 35.934C53.76 36.7487 52.7677 37.156 51.5327 37.156C50.9867 37.156 50.4775 37.065 50.0052 36.883C49.5328 36.701 49.1342 36.4518 48.8092 36.1355C48.4842 35.8192 48.2285 35.4465 48.0422 35.0175C47.8602 34.5842 47.7692 34.1227 47.7692 33.633C47.7692 33.1477 47.8623 32.6883 48.0487 32.255C48.235 31.8217 48.4885 31.449 48.8092 31.137C49.1342 30.8207 49.5242 30.5715 49.9792 30.3895C50.4342 30.2032 50.9173 30.11 51.4287 30.11C52.1003 30.11 52.707 30.2638 53.2487 30.5715C53.7903 30.8748 54.2107 31.2865 54.5097 31.8065C54.8087 32.3222 54.9582 32.892 54.9582 33.516C54.9582 33.7413 54.9322 33.958 54.8802 34.166H49.5762ZM51.4157 31.5335C50.9953 31.5335 50.6205 31.657 50.2912 31.904C49.9662 32.151 49.743 32.4803 49.6217 32.892H53.1187C53.019 32.4847 52.8175 32.1575 52.5142 31.9105C52.2108 31.6592 51.8447 31.5335 51.4157 31.5335ZM63.4657 35.5765C63.8513 35.5765 64.2002 35.479 64.5122 35.284C64.8285 35.089 65.0647 34.829 65.2207 34.504V32.762C65.0647 32.437 64.8285 32.177 64.5122 31.982C64.2002 31.787 63.8513 31.6895 63.4657 31.6895C62.9153 31.6895 62.4538 31.8758 62.0812 32.2485C61.7085 32.6212 61.5222 33.0827 61.5222 33.633C61.5222 34.1833 61.7085 34.6448 62.0812 35.0175C62.4538 35.3902 62.9153 35.5765 63.4657 35.5765ZM63.0887 30.11C63.9423 30.11 64.653 30.3873 65.2207 30.942V30.266H66.9887V37H65.2207V36.324C64.653 36.8787 63.9423 37.156 63.0887 37.156C62.456 37.156 61.8818 36.9978 61.3662 36.6815C60.8505 36.3608 60.4475 35.9318 60.1572 35.3945C59.8712 34.8572 59.7282 34.27 59.7282 33.633C59.7282 32.996 59.8712 32.4088 60.1572 31.8715C60.4475 31.3342 60.8505 30.9073 61.3662 30.591C61.8818 30.2703 62.456 30.11 63.0887 30.11ZM68.7466 37V27.51H70.5341V37H68.7466ZM72.3394 37V30.266H74.1269V37H72.3394ZM72.4824 29.2065C72.2787 29.0072 72.1769 28.7623 72.1769 28.472C72.1769 28.1817 72.2787 27.9368 72.4824 27.7375C72.686 27.5382 72.9374 27.4385 73.2364 27.4385C73.5354 27.4385 73.7867 27.5382 73.9904 27.7375C74.194 27.9368 74.2959 28.1817 74.2959 28.472C74.2959 28.7623 74.194 29.0072 73.9904 29.2065C73.7867 29.4058 73.5354 29.5055 73.2364 29.5055C72.9374 29.5055 72.686 29.4058 72.4824 29.2065ZM75.8997 30.266H77.6872V31.007C77.9038 30.7383 78.1703 30.5238 78.4867 30.3635C78.803 30.2032 79.141 30.123 79.5007 30.123C79.973 30.123 80.3977 30.2248 80.7747 30.4285C81.156 30.6322 81.4615 30.916 81.6912 31.28C81.9338 30.929 82.2545 30.6473 82.6532 30.435C83.0518 30.2183 83.4722 30.11 83.9142 30.11C84.6898 30.11 85.3203 30.3657 85.8057 30.877C86.2953 31.384 86.5402 32.0362 86.5402 32.8335V37H84.7527V33.0155C84.7527 32.6385 84.64 32.3243 84.4147 32.073C84.1937 31.8173 83.899 31.6895 83.5307 31.6895C83.2577 31.6895 82.9955 31.7805 82.7442 31.9625C82.4928 32.1402 82.2783 32.372 82.1007 32.658C82.1093 32.8487 82.1137 32.996 82.1137 33.1V37H80.3262V33.0155C80.3262 32.6298 80.2135 32.3135 79.9882 32.0665C79.7628 31.8152 79.4682 31.6895 79.1042 31.6895C78.8312 31.6895 78.569 31.7783 78.3177 31.956C78.0707 32.1337 77.8605 32.3612 77.6872 32.6385V37H75.8997V30.266ZM89.5029 34.166C89.5809 34.634 89.7976 35.0132 90.1529 35.3035C90.5126 35.5895 90.9459 35.7325 91.4529 35.7325C92.1593 35.7325 92.7963 35.453 93.3639 34.894L94.4364 35.934C93.6868 36.7487 92.6944 37.156 91.4594 37.156C90.9134 37.156 90.4043 37.065 89.9319 36.883C89.4596 36.701 89.0609 36.4518 88.7359 36.1355C88.4109 35.8192 88.1553 35.4465 87.9689 35.0175C87.7869 34.5842 87.6959 34.1227 87.6959 33.633C87.6959 33.1477 87.7891 32.6883 87.9754 32.255C88.1618 31.8217 88.4153 31.449 88.7359 31.137C89.0609 30.8207 89.4509 30.5715 89.9059 30.3895C90.3609 30.2032 90.8441 30.11 91.3554 30.11C92.0271 30.11 92.6338 30.2638 93.1754 30.5715C93.7171 30.8748 94.1374 31.2865 94.4364 31.8065C94.7354 32.3222 94.8849 32.892 94.8849 33.516C94.8849 33.7413 94.8589 33.958 94.8069 34.166H89.5029ZM91.3424 31.5335C90.9221 31.5335 90.5473 31.657 90.2179 31.904C89.8929 32.151 89.6698 32.4803 89.5484 32.892H93.0454C92.9458 32.4847 92.7443 32.1575 92.4409 31.9105C92.1376 31.6592 91.7714 31.5335 91.3424 31.5335ZM97.9616 32.619V37H96.1741V30.266H97.9616V31.007C98.1912 30.734 98.4729 30.5173 98.8066 30.357C99.1446 30.1923 99.4934 30.11 99.8531 30.11C100.646 30.11 101.292 30.3635 101.79 30.8705C102.293 31.3775 102.544 32.0383 102.544 32.853V37H100.757V33.0285C100.757 32.6472 100.633 32.3287 100.386 32.073C100.143 31.8173 99.8206 31.6895 99.4176 31.6895C99.1446 31.6895 98.8737 31.7805 98.6051 31.9625C98.3364 32.1445 98.1219 32.3633 97.9616 32.619ZM106.269 31.8195V34.6665C106.269 34.9915 106.347 35.2298 106.503 35.3815C106.663 35.5288 106.927 35.6025 107.296 35.6025C107.525 35.6025 107.738 35.5917 107.933 35.57V37.065C107.651 37.1257 107.341 37.156 107.003 37.156C105.322 37.156 104.481 36.363 104.481 34.777V31.8195H103.435V30.266H104.481V28.472L106.269 28.316V30.266H107.855V31.8195H106.269ZM109.766 36.1355C109.051 35.4552 108.694 34.621 108.694 33.633C108.694 32.645 109.051 31.8108 109.766 31.1305C110.481 30.4502 111.37 30.11 112.431 30.11C113.133 30.11 113.77 30.266 114.342 30.578C114.914 30.89 115.361 31.3147 115.681 31.852C116.006 32.3893 116.169 32.983 116.169 33.633C116.169 34.283 116.006 34.8767 115.681 35.414C115.361 35.9513 114.914 36.376 114.342 36.688C113.77 37 113.133 37.156 112.431 37.156C111.37 37.156 110.481 36.8158 109.766 36.1355ZM110.488 33.633C110.488 34.1833 110.674 34.6448 111.047 35.0175C111.42 35.3902 111.881 35.5765 112.431 35.5765C112.982 35.5765 113.443 35.3902 113.816 35.0175C114.193 34.6448 114.381 34.1833 114.381 33.633C114.381 33.087 114.193 32.6277 113.816 32.255C113.443 31.878 112.982 31.6895 112.431 31.6895C111.881 31.6895 111.42 31.878 111.047 32.255C110.674 32.6277 110.488 33.087 110.488 33.633ZM116.99 36.038L117.887 34.9265C118.104 35.1735 118.359 35.3685 118.654 35.5115C118.953 35.6545 119.267 35.726 119.596 35.726C119.904 35.726 120.145 35.6653 120.318 35.544C120.496 35.4227 120.584 35.2602 120.584 35.0565C120.584 34.8485 120.498 34.6817 120.324 34.556C120.151 34.426 119.852 34.3177 119.427 34.231C117.967 33.932 117.237 33.2127 117.237 32.073C117.237 31.501 117.46 31.0308 117.906 30.6625C118.357 30.2942 118.944 30.11 119.668 30.11C120.119 30.11 120.552 30.1945 120.968 30.3635C121.384 30.5282 121.748 30.7492 122.06 31.0265L121.202 32.1445C120.712 31.7415 120.253 31.54 119.824 31.54C119.577 31.54 119.375 31.592 119.219 31.696C119.063 31.7957 118.985 31.93 118.985 32.099C118.985 32.489 119.343 32.7577 120.058 32.905C120.834 33.061 121.406 33.3188 121.774 33.6785C122.147 34.0382 122.333 34.504 122.333 35.076C122.333 35.6827 122.097 36.181 121.624 36.571C121.152 36.961 120.522 37.156 119.733 37.156C119.174 37.156 118.654 37.0585 118.173 36.8635C117.692 36.6642 117.298 36.389 116.99 36.038ZM130.827 35.5765C131.213 35.5765 131.561 35.479 131.873 35.284C132.19 35.089 132.426 34.829 132.582 34.504V32.762C132.426 32.437 132.19 32.177 131.873 31.982C131.561 31.787 131.213 31.6895 130.827 31.6895C130.277 31.6895 129.815 31.8758 129.442 32.2485C129.07 32.6212 128.883 33.0827 128.883 33.633C128.883 34.1833 129.07 34.6448 129.442 35.0175C129.815 35.3902 130.277 35.5765 130.827 35.5765ZM130.45 30.11C131.304 30.11 132.014 30.3873 132.582 30.942V30.266H134.35V37H132.582V36.324C132.014 36.8787 131.304 37.156 130.45 37.156C129.817 37.156 129.243 36.9978 128.727 36.6815C128.212 36.3608 127.809 35.9318 127.518 35.3945C127.232 34.8572 127.089 34.27 127.089 33.633C127.089 32.996 127.232 32.4088 127.518 31.8715C127.809 31.3342 128.212 30.9073 128.727 30.591C129.243 30.2703 129.817 30.11 130.45 30.11ZM137.863 32.619V37H136.075V27.51H137.863V31.007C138.093 30.734 138.374 30.5173 138.708 30.357C139.046 30.1923 139.395 30.11 139.754 30.11C140.547 30.11 141.193 30.3635 141.691 30.8705C142.194 31.3775 142.445 32.0383 142.445 32.853V37H140.658V33.0285C140.658 32.6472 140.534 32.3287 140.287 32.073C140.045 31.8173 139.722 31.6895 139.319 31.6895C139.046 31.6895 138.775 31.7805 138.506 31.9625C138.238 32.1445 138.023 32.3633 137.863 32.619ZM144.679 36.1355C143.964 35.4552 143.606 34.621 143.606 33.633C143.606 32.645 143.964 31.8108 144.679 31.1305C145.394 30.4502 146.282 30.11 147.344 30.11C148.046 30.11 148.683 30.266 149.255 30.578C149.827 30.89 150.273 31.3147 150.594 31.852C150.919 32.3893 151.081 32.983 151.081 33.633C151.081 34.283 150.919 34.8767 150.594 35.414C150.273 35.9513 149.827 36.376 149.255 36.688C148.683 37 148.046 37.156 147.344 37.156C146.282 37.156 145.394 36.8158 144.679 36.1355ZM145.4 33.633C145.4 34.1833 145.586 34.6448 145.959 35.0175C146.332 35.3902 146.793 35.5765 147.344 35.5765C147.894 35.5765 148.355 35.3902 148.728 35.0175C149.105 34.6448 149.294 34.1833 149.294 33.633C149.294 33.087 149.105 32.6277 148.728 32.255C148.355 31.878 147.894 31.6895 147.344 31.6895C146.793 31.6895 146.332 31.878 145.959 32.255C145.586 32.6277 145.4 33.087 145.4 33.633ZM155.724 31.6895C155.403 31.6895 155.107 31.787 154.834 31.982C154.561 32.177 154.333 32.4435 154.151 32.7815V37H152.364V30.266H154.151V31.0915C154.641 30.4372 155.241 30.11 155.952 30.11C156.181 30.11 156.385 30.1577 156.563 30.253L156.439 31.8195C156.188 31.7328 155.949 31.6895 155.724 31.6895ZM160.813 35.5765C161.199 35.5765 161.548 35.479 161.86 35.284C162.176 35.089 162.412 34.829 162.568 34.504V32.762C162.412 32.437 162.176 32.177 161.86 31.982C161.548 31.787 161.199 31.6895 160.813 31.6895C160.263 31.6895 159.801 31.8758 159.429 32.2485C159.056 32.6212 158.87 33.0827 158.87 33.633C158.87 34.1833 159.056 34.6448 159.429 35.0175C159.801 35.3902 160.263 35.5765 160.813 35.5765ZM160.436 30.11C161.29 30.11 162.001 30.3873 162.568 30.942V30.266H164.336V37H162.568V36.324C162.001 36.8787 161.29 37.156 160.436 37.156C159.804 37.156 159.229 36.9978 158.714 36.6815C158.198 36.3608 157.795 35.9318 157.505 35.3945C157.219 34.8572 157.076 34.27 157.076 33.633C157.076 32.996 157.219 32.4088 157.505 31.8715C157.795 31.3342 158.198 30.9073 158.714 30.591C159.229 30.2703 159.804 30.11 160.436 30.11Z" fill="#F9F2E1"/>
</svg>
