<svg width="59" height="58" viewBox="0 0 59 58" fill="none" xmlns="http://www.w3.org/2000/svg">
<path d="M25.43 19.4397H25.5544C25.5931 19.4397 25.6724 19.4483 25.7926 19.4633H25.9299C26.5885 19.4633 27.1807 19.7699 27.7085 20.3831C28.2341 20.9962 28.498 21.7016 28.498 22.5013C28.498 23.301 28.2105 24.0021 27.6334 24.6089C27.0584 25.2156 26.3483 25.5179 25.5094 25.5179C24.6684 25.5179 23.9647 25.2285 23.4026 24.6496C22.8383 24.0707 22.5186 23.3803 22.4414 22.5764C22.5165 22.3791 22.6109 22.0446 22.7246 21.5708C22.8383 21.097 23.0421 20.6982 23.3382 20.3723H23.3275C23.8724 19.7506 24.574 19.4397 25.43 19.4397Z" fill="#533FB8"/>
<path d="M5.23058 9.75295C5.15978 11.7211 5.08683 13.655 5.12331 15.7454C5.14476 16.9975 5.15763 17.5228 5.17909 18.7641C4.87873 18.6548 4.72855 18.599 4.42389 18.4876C4.31877 18.4447 4.26728 18.4232 4.16215 18.3825C2.67965 17.8529 1.91159 17.5807 0.386179 17.0361C0.141599 16.9482 0.0128726 16.9032 0 16.9053C0 16.8989 0.0150181 16.8453 0.0429088 16.7531C0.0429088 16.7295 0.0429088 16.7188 0.0429088 16.6952C0.0471996 16.6823 0.0493451 16.6759 0.053636 16.6609C0.0171635 16.2021 0 15.7647 0 15.2008C0.0150181 11.7554 0.0300361 8.31005 0.0407633 4.86466C0.0364725 4.42514 0.034327 4.1743 0.0300361 3.6726C0.0300361 3.19021 0.0300361 2.93722 0.0300361 2.45482C0.0214544 1.55006 0.0171635 1.09124 0.00858175 0.484493C0.00858175 0.377294 0.0471996 0.272238 0.12229 0.177903C0.692977 0.177903 0.97832 0.177903 1.54901 0.177903C1.88155 0.173615 2.04889 0.169327 2.38358 0.165039C4.34237 0.165039 5.74548 0.197199 6.58864 0.272238C7.4318 0.347278 8.05183 0.390158 8.42943 0.390158C8.72121 2.98224 8.94862 5.56789 9.37557 8.14282C9.6416 9.8237 9.78535 10.602 10.0535 12.4094C10.1994 12.4329 10.2724 12.4458 10.4204 12.4694C10.9632 9.63074 11.2893 6.77281 11.6819 3.91273C11.7098 3.67475 11.7806 2.90934 11.8986 1.80733C12.0166 0.70318 12.1003 0.345134 12.1475 0.270094C12.1646 0.270094 12.1732 0.270094 12.1882 0.270094C14.4216 0.242223 16.655 0.227215 18.8884 0.195055C19.0515 0.199343 19.133 0.203631 19.2939 0.207919C19.7616 0.207919 19.9933 0.207919 20.461 0.205775C20.5233 0.242223 20.5576 0.392302 20.5662 0.797515C20.5941 3.15805 20.6155 5.52072 20.6713 7.88125C20.7357 11.5775 20.8408 15.2887 20.8708 18.9678C20.888 21.0711 20.8644 23.1229 20.8279 24.5207C20.8086 24.6086 20.6713 24.6065 20.4138 24.5207C20.2272 24.4564 20.1328 24.4243 19.9419 24.3578C19.5621 24.2249 19.2789 24.1198 19.0923 24.0469C18.8713 23.959 18.7597 23.9161 18.5366 23.8282C17.8436 23.5645 16.3204 23.2708 15.5158 22.6983C15.2905 22.5375 15.164 20.9767 15.1682 19.045C15.1811 17.512 15.1833 16.4701 15.194 14.9178C15.194 14.5169 15.194 14.3925 15.194 13.9916C15.194 13.1104 15.1918 12.2357 15.1854 11.7383C15.0267 11.6761 14.9494 11.6461 14.7907 11.5861C14.3809 13.8437 13.9196 16.0927 13.4948 18.3482C13.4583 18.5197 13.439 18.6119 13.4026 18.8006C13.3554 19.045 13.2738 19.5102 13.1601 20.1813C13.0464 20.8524 12.952 21.3133 12.8834 21.5921C12.7997 21.6649 12.4264 21.5813 11.7549 21.3326C11.6991 21.3112 11.6712 21.3026 11.6154 21.2812C11.1348 21.0904 10.8945 20.9939 10.4161 20.8009C10.1544 20.7066 10.0256 20.6594 9.76604 20.5672C9.56651 20.4922 9.46782 20.4536 9.27044 20.3807C8.94004 20.2585 8.77484 20.1985 8.45088 20.0805C8.33717 20.0377 8.27925 20.0162 8.16554 19.9733C7.85445 19.8554 7.68925 19.7204 7.65707 19.5596C7.66136 19.566 7.66351 19.5681 7.6678 19.5746C7.31595 17.765 7.12715 16.8646 6.75384 15.0507C6.72595 14.935 6.66588 14.682 6.56933 14.2982C6.47279 13.9144 6.41701 13.6036 6.40413 13.3613C6.09305 11.9312 5.93214 11.1701 5.61032 9.76796C5.46229 9.76582 5.38505 9.76153 5.23058 9.75295Z" fill="#F9F2E1"/>
<path d="M22.3444 2.91587C22.3144 1.73239 22.3015 1.08491 22.2715 0.358096C22.2715 0.238033 22.8314 0.171569 23.9492 0.137265C24.1831 0.137265 24.2989 0.137265 24.5328 0.137265C24.7988 0.111537 24.934 0.100817 25.2 0.0772335C25.6248 0.0386418 26.4808 0.00648195 27.7531 4.9983e-05C28.2444 -0.002094 28.4997 0.0643696 28.5147 0.270192C28.4568 1.32932 28.4267 2.66288 28.3688 4.37807C28.1414 8.59744 28.0384 12.849 27.648 17.0576C27.6329 17.2291 27.3047 17.272 26.6568 17.1455C26.4036 17.0962 26.277 17.0726 26.0217 17.0233C25.938 17.0019 25.8951 16.989 25.8115 16.9676C25.6377 16.9397 25.5519 16.9268 25.3781 16.899C25.2086 16.8668 25.1249 16.8497 24.9554 16.8175C24.6014 16.7553 24.4255 16.7253 24.0737 16.6653C23.9449 16.6417 23.8806 16.6288 23.7518 16.6052C23.6896 16.5988 23.6574 16.5967 23.5952 16.5902C23.4343 16.5602 23.3528 16.5452 23.1919 16.5152C22.9602 16.3265 22.8357 15.9835 22.8336 14.9051C22.8314 14.3776 22.8336 13.9831 22.8272 13.8395C22.7885 12.909 22.7692 12.3773 22.7306 11.6226C22.7242 11.5068 22.7092 11.2474 22.6813 10.8937C22.6534 10.5399 22.6362 10.1604 22.6276 9.90313C22.5504 7.57047 22.4217 5.24424 22.3444 2.91587Z" fill="#F9F2E1"/>
<path d="M30.1409 20.235C32.1855 20.6317 33.2882 20.8439 35.3607 21.2534C35.4916 21.2834 35.601 21.5729 35.689 22.0896C35.777 22.6084 35.8649 22.9922 35.9486 23.2645C36.1503 23.9163 36.4764 24.1907 36.9291 24.315C37.3817 24.4394 37.755 24.4137 38.0425 24.0942C38.33 23.7769 38.4781 23.2023 38.4823 22.3747C38.4866 21.5493 38.3987 20.9576 38.2228 20.6317C38.0468 20.3058 37.8537 19.997 37.6456 19.7162C37.4375 19.4332 37.1264 19.2059 36.7274 19.0151C36.3283 18.8243 36.1031 18.7214 36.0644 18.6935C36.073 18.6956 36.0752 18.6956 36.0838 18.6978C35.8628 18.5649 35.7491 18.5005 35.5259 18.3805C35.1655 18.2261 34.8609 18.0846 34.6163 17.9603C33.0351 17.2485 31.8894 16.065 31.1986 14.6564C30.5078 13.2478 30.1688 12.3366 30.1731 10.3834C30.1752 8.96623 30.3211 7.31322 30.6129 6.49422C30.9025 5.67521 31.278 4.85835 31.7414 3.96645C32.7605 1.68525 34.8179 0.336684 37.2895 0.381708C39.1303 0.416012 40.6385 0.825513 41.7112 2.39062C41.7069 2.39062 41.7048 2.39062 41.7005 2.39062C42.387 3.53551 42.8569 4.76402 43.1122 5.55944C43.3675 6.35486 43.5306 6.9466 43.5971 8.74326C43.4962 8.99839 43.4447 9.12918 43.3439 9.3886C41.6361 9.48079 40.1043 9.48722 38.772 9.42505C38.3708 9.40575 38.1326 9.10988 38.0533 8.56102C38.0211 8.33376 37.9846 8.10864 37.946 7.89638C37.8537 7.38397 37.5598 7.17172 37.0621 7.16743C37.0471 7.16743 37.0385 7.16743 37.0235 7.16743C36.6373 7.16314 36.309 7.31965 36.0344 7.68413C35.7598 8.04861 35.6203 8.43024 35.6182 8.81401C35.6139 9.19778 35.6504 9.51938 35.7255 9.77023C35.8006 10.0232 35.8821 10.2205 35.9658 10.3663C36.0516 10.512 36.1824 10.6621 36.3584 10.8143C36.5343 10.9666 36.6673 11.0673 36.7553 11.1188C36.8432 11.1703 36.9827 11.2539 37.1715 11.3654C37.3088 11.4425 37.3774 11.479 37.5148 11.554C37.6521 11.6355 38.0533 11.8478 38.7226 12.1308C39.3899 12.4138 39.9498 12.5917 40.3982 12.8211C40.3982 12.8168 40.3982 12.8125 40.3982 12.8083C41.8013 13.5436 42.7475 15.1581 43.2474 17.0362C43.7473 18.9143 44.0305 19.6218 43.9918 21.888C43.9425 24.7117 43.4641 30.5605 39.3942 30.8585C38.4974 30.9378 37.6199 30.8713 36.7639 30.5819C35.6783 30.2131 34.4082 29.5035 33.196 28.4615C31.9838 27.4195 31.1964 25.848 30.8081 24.27C30.5442 23.4853 30.3726 23.0222 30.2803 22.617C30.1881 22.2118 30.1109 21.4056 30.0508 20.1964C30.0744 20.2136 30.1023 20.2265 30.1409 20.235Z" fill="#F9F2E1"/>
<path d="M58.9246 7.82985C58.9246 8.45375 58.901 8.83323 58.8517 8.83109C57.3477 8.75176 56.5947 8.71317 55.0843 8.63813C55.0714 11.1423 55.0757 13.6529 55.0607 16.1507C55.0457 18.5048 55.0392 20.8739 55.0392 23.2344C55.0371 27.8804 55.0843 32.52 55.1701 37.1639C55.1379 37.2968 55.0693 37.3247 54.9641 37.2925C54.0673 36.9473 53.6104 36.7715 52.7157 36.4264C52.7114 36.4306 52.7093 36.4306 52.705 36.4349C52.4239 36.3277 52.2845 36.2741 52.0077 36.1669C51.2375 35.8861 50.9028 35.7639 50.1605 35.4894C49.6606 35.305 49.2787 35.1657 49.0256 35.0778C48.9548 34.9792 48.9183 34.9234 48.8453 34.8034C48.8389 34.7905 48.7424 34.6661 48.7059 34.4796C48.2296 32.0526 48.6522 28.4293 48.7016 25.4063C48.7252 21.2962 48.7509 17.1862 48.8174 13.0762C48.8089 12.9175 48.8046 12.8253 48.796 12.6195C48.7466 11.2688 48.6994 9.8452 48.6544 9.48072C48.6093 9.11839 48.5214 8.92543 48.3884 8.89327C48.2553 8.86111 48.1588 8.84396 48.0966 8.84181C47.9292 8.85896 47.8456 8.86754 47.6804 8.88469C46.6463 8.80536 46.1271 8.76892 45.0951 8.69173C45.005 8.2222 44.9599 6.94867 44.9599 6.2433C44.9685 5.8338 44.9728 5.57009 44.9814 4.81969C44.9814 4.58814 44.9814 4.46593 44.9814 4.21723C44.975 1.74092 44.9642 0.533859 44.9492 0.418083C44.9642 0.418083 44.99 0.428803 45.0329 0.450243C49.4546 0.392356 53.8764 0.336612 58.3003 0.285156C58.5706 0.285156 58.7422 0.310884 58.8109 0.366628C58.8796 0.422371 58.916 0.527427 58.916 0.705378C58.916 2.58994 58.916 5.07268 58.916 6.1897C58.9182 6.52845 58.9203 6.9208 58.9246 7.82985Z" fill="#F9F2E1"/>
<path d="M3.88714 37.3205C3.83565 42.5883 3.80132 47.8561 3.78416 53.126C3.77772 54.1165 3.78416 56.595 3.78416 57.7377C3.56532 57.7377 3.45805 57.7377 3.23921 57.7377C3.16412 57.7334 3.12765 57.7313 3.05256 57.727C1.99272 57.7377 1.46279 57.7442 0.402945 57.7549C0.233456 57.7549 0.143347 57.757 0.134766 57.7635C0.134766 57.757 0.145493 57.7099 0.164802 57.5876C0.164802 57.5598 0.164802 57.5469 0.164802 57.5169C0.166947 57.4976 0.169093 57.4869 0.171238 57.4676C0.145493 56.8651 0.134766 55.613 0.134766 54.4167C0.160511 44.8459 0.151929 35.273 0.164802 25.7023C0.162656 25.0398 0.160511 24.6496 0.15622 23.8756C0.15622 23.1316 0.15622 22.7393 0.15622 22.0167C0.149784 20.6596 0.147638 19.9864 0.141202 19.3453C0.141202 19.2317 0.166947 19.1438 0.220583 19.0945C0.611053 19.2531 0.812724 19.3325 1.21821 19.4911C1.45636 19.579 1.57435 19.624 1.81679 19.7141C3.23278 20.2587 4.2819 20.6617 4.89764 20.9512C5.51338 21.2406 5.94461 21.4421 6.20636 21.5386C6.46381 25.6015 6.63973 29.6836 6.81566 33.7486C6.96584 36.9175 7.19326 40.0756 7.33271 43.2465C7.43569 43.2572 7.48718 43.2615 7.59231 43.2722C7.84762 37.8072 8.22307 32.3465 8.55132 26.8836C8.56634 26.562 8.60496 25.4814 8.66288 24.0878C8.72296 22.6942 8.76801 22.4498 8.79805 22.3984C8.81092 22.4027 8.81736 22.4048 8.82808 22.4091C10.8105 23.1145 11.8338 23.4639 13.7197 24.1329C13.8334 24.1779 13.8892 24.2015 14.0007 24.2465C14.3226 24.3644 14.4813 24.4244 14.7967 24.5402C14.8396 24.5809 14.8632 24.6881 14.8675 25.1062C14.8889 28.0456 14.9211 30.985 14.9426 33.9244C14.9791 39.7947 15.0456 45.6735 15.0692 51.533C15.0777 53.5805 15.0606 55.6366 15.0263 57.6863C15.0112 57.7677 14.9125 57.8063 14.728 57.8171C14.5929 57.8235 14.5264 57.8278 14.3912 57.8342C14.123 57.8449 13.9235 57.8492 13.7948 57.8492C13.6403 57.8492 13.5609 57.8492 13.4064 57.8492C12.9237 57.8535 11.8295 58.0722 11.2717 57.8578C11.1323 57.8042 11.01 55.6066 11.01 53.5741C11.0143 51.0742 11.0121 48.5765 11.01 46.0766C11.0078 45.4763 11.01 45.6092 11.0186 44.9917C11.0357 43.6346 11.0465 41.4541 11.0508 40.4293C10.9392 40.3264 10.8813 40.2749 10.7697 40.1742C10.4457 44.5479 10.2527 48.971 9.78495 53.3275C9.75706 53.4926 9.74418 53.5998 9.71844 53.8357C9.68411 54.1401 9.62618 54.8026 9.54251 55.806C9.46099 56.8094 9.39448 57.4204 9.34513 57.697C9.28506 57.7913 9.02117 57.8256 8.55346 57.8256C8.51485 57.8256 8.49554 57.8256 8.45692 57.8256C8.12223 57.8149 7.95489 57.8106 7.6202 57.7999C7.43784 57.8042 7.34773 57.8042 7.16537 57.8085C7.02591 57.8085 6.95511 57.8085 6.81352 57.8085C6.57752 57.8128 6.45952 57.8128 6.22352 57.8171C6.13985 57.8171 6.09908 57.8171 6.01541 57.8171C5.78585 57.8171 5.65927 57.7677 5.63567 57.6112C5.63782 57.6155 5.63996 57.6177 5.64211 57.6219C5.40396 55.2764 5.16153 52.9395 4.96844 50.5897C4.94913 50.2574 4.90408 49.4812 4.83757 48.3042C4.76891 47.1293 4.73029 46.2738 4.72171 45.77C4.34412 42.9828 4.33553 40.1377 4.1639 37.3312C4.05448 37.3291 3.9987 37.3248 3.88714 37.3205Z" fill="#F9F2E1"/>
<path d="M16.1312 31.6241C16.1076 29.4565 16.099 27.2911 16.0732 25.1235C16.0775 25.1257 16.0947 25.1428 16.1247 25.1814C18.9846 26.1526 22.649 26.8859 24.6722 28.1959C24.6915 28.2087 24.7086 28.2409 24.7194 28.2731C24.7558 29.463 24.7751 32.9877 24.8116 34.2462C24.8202 34.5506 24.8245 34.765 24.7966 35.0566C24.7816 35.2324 24.6228 35.3161 24.3503 35.2389C24.3289 35.2324 24.3182 35.2303 24.2967 35.2239C23.0738 34.8808 21.7973 34.5013 20.4971 34.0404C20.4971 34.1647 20.4886 34.392 20.4757 34.7758C20.4628 35.1595 20.4521 35.4683 20.4478 35.6527C20.4306 36.075 20.4242 36.298 20.407 36.7332C20.3791 37.4579 20.3598 39.008 20.3448 39.7498C21.2716 39.8999 21.7093 39.9492 22.6662 40.0714C23.0781 40.1229 23.372 40.1658 23.5544 40.2001C23.6037 40.2086 23.6273 40.2129 23.6767 40.2215C23.9856 40.2772 24.1873 40.333 24.2817 40.3801C24.3761 40.4273 24.4233 40.5281 24.4233 40.616C24.419 40.6396 24.419 40.6524 24.4147 40.6803C24.4147 40.7682 24.4126 40.824 24.4126 40.9612C24.4168 42.4191 24.419 45.3027 24.4254 46.6149C24.4233 46.6192 24.4211 46.6213 24.4168 46.6277C24.4168 46.6234 24.4168 46.6213 24.4168 46.6149C22.8979 46.5827 21.6793 46.4884 20.7653 46.4026C20.6237 46.3897 20.5529 46.3833 20.4113 46.3705C20.407 47.2859 20.4135 49.6379 20.4156 51.8891C22.0418 51.754 22.8528 51.694 24.4748 51.5696C24.6979 51.5739 24.8395 51.6833 24.8996 51.8762C24.8931 52.2578 24.8888 52.7917 24.8867 53.0833C24.9017 54.0781 24.9167 55.9305 24.9382 57.3798C24.9382 57.6007 24.8824 57.6907 24.773 57.7186C23.7818 57.7057 23.2862 57.7014 22.295 57.6886C21.808 57.6886 20.8361 57.7143 19.3837 57.7572C18.8945 57.7722 18.6499 57.7786 18.1586 57.7936C17.2919 57.8279 16.6504 57.8429 16.232 57.8429C16.2234 57.8365 16.2191 57.8344 16.2106 57.8258C16.2127 57.8258 16.2148 57.8258 16.217 57.8258C16.1676 57.77 16.1204 57.71 16.0754 57.6457C16.0754 57.4956 16.0754 57.4034 16.0754 57.1976C16.0926 49.565 16.099 41.9324 16.114 34.2998C16.129 32.6232 16.1333 32.5117 16.1312 31.6241Z" fill="#F9F2E1"/>
<path d="M38.686 57.6456C38.6817 57.7378 38.5444 57.7742 38.2762 57.7742C38.0016 57.7742 37.8643 57.7742 37.5897 57.7742C37.4052 57.7785 37.3129 57.7807 37.1263 57.7828C36.9439 57.7828 36.8538 57.7828 36.6714 57.7828C36.3818 57.7871 36.2381 57.7871 35.9484 57.7914C35.2275 57.7914 34.6268 57.7721 34.1505 57.7271C34.1355 57.7206 34.1184 57.6842 34.0991 57.6006C34.084 57.5062 34.0776 57.4526 34.0626 57.339C34.0175 56.4042 33.9017 54.822 33.7107 53.8658C32.432 53.8893 31.7949 53.9022 30.5162 53.9258C30.4969 54.0995 30.4325 54.6762 30.3231 55.7396C30.2137 56.803 30.1321 57.4484 30.0764 57.7271C30.027 57.7914 29.791 57.8171 29.3662 57.8171C29.2911 57.8128 29.2547 57.8128 29.1796 57.8085C29.0058 57.8085 28.92 57.8085 28.7462 57.8085C27.9695 57.8278 27.5812 57.8386 26.8046 57.8557C26.7145 57.8557 26.6694 57.8557 26.5814 57.8557C26.4978 57.8579 26.457 57.86 26.3733 57.8622C26.1652 57.8622 26.0601 57.8622 25.8498 57.8622C25.8155 57.8278 25.7769 57.7785 25.7383 57.7056C26.5471 52.5 27.2058 47.2516 27.785 42.0138C27.8537 41.5228 27.888 41.4714 27.9588 41.1841C27.9567 41.1841 27.9545 41.1841 27.9524 41.1819C28.0339 40.8453 28.0747 40.5044 28.1562 39.7669C28.2206 39.1751 28.4115 36.493 28.7119 35.4468C29.0101 34.4005 29.1989 31.4268 29.274 30.7879C29.3491 30.149 29.392 30.031 29.407 30.0225C29.8811 30.1811 30.1193 30.2583 30.6106 30.4298C31.6618 30.7771 32.2154 30.9722 33.3031 31.3646C33.597 31.4932 33.7451 31.5576 34.0368 31.6883C34.2771 31.7591 34.3973 31.7955 34.6376 31.8706C34.9401 31.9864 35.0881 32.0978 35.0881 32.2994C35.8175 37.0676 36.2981 42.1146 37.034 46.6662C37.506 49.5842 38.1175 52.886 38.4371 55.9669C38.4779 56.3421 38.4993 56.5286 38.5422 56.8566C38.5723 57.1503 38.6216 57.4291 38.686 57.6456ZM31.2971 48.1585C31.4194 48.1756 31.4816 48.1842 31.6061 48.1992C32.3248 48.2506 32.6852 48.2742 33.4039 48.3235C33.3331 47.065 33.2773 46.5119 33.2387 45.6886C33.1272 44.1792 33.0714 43.0901 32.9598 42.3504C32.668 40.438 32.4964 37.3077 32.4857 37.2477C32.475 37.1877 32.4664 37.1341 32.4599 37.0848C32.4514 37.0354 32.4449 37.0054 32.4406 36.9883C32.4363 36.9711 32.4299 36.9433 32.4213 36.9047C32.4127 36.8661 32.4063 36.8382 32.3977 36.8232C32.3891 36.8082 32.3806 36.7867 32.372 36.7589C32.3355 36.6495 32.2626 36.5595 32.151 36.478C31.1705 39.8141 31.2606 43.9155 30.9367 47.3695C30.9023 47.6396 30.8873 47.6911 30.853 48.122C31.0311 48.1349 31.119 48.1434 31.2971 48.1585Z" fill="#F9F2E1"/>
<path d="M48.1544 51.8483C48.1179 52.1292 48.0986 52.4165 48.0965 52.6716C48.0965 52.781 48.0943 52.8324 48.0943 52.9246C48.0922 53.2784 48.1287 53.4992 48.1437 53.6964C48.2488 54.9678 48.2638 57.4613 48.1372 57.6157C47.5666 58.3039 43.1856 57.8579 40.7698 57.8601C40.5467 57.8601 39.8601 57.9737 39.6585 57.8451C39.5855 57.8 39.5383 57.3133 39.5383 56.5008C39.5448 56.0398 39.5469 55.7804 39.5533 55.2873C39.5533 53.5635 39.5533 53.6278 39.5512 52.0863C39.5533 50.7978 39.5533 49.6572 39.5555 48.7009C39.5533 47.7554 39.5598 47.4639 39.5641 45.9759C39.5748 43.5768 39.5769 43.6454 39.5791 41.227C39.5791 40.1078 39.5726 39.0358 39.5619 38.5878C39.5619 38.547 39.5619 38.532 39.5619 38.4977C39.5448 38.056 39.534 37.4107 39.5169 36.2744C39.504 34.6085 39.5469 33.8538 39.652 33.6995C39.755 33.7423 39.8945 33.7959 40.0747 33.8624C40.2227 33.916 40.2957 33.9439 40.4437 33.9975C40.9607 34.1819 41.2225 34.2741 41.7352 34.4563C43.1984 34.9923 43.9429 35.3332 44.0802 35.6612C44.0545 37.2778 44.0416 38.4913 44.018 40.6074C44.0073 42.3848 44.0008 43.2724 43.9923 44.8611C43.9901 44.9254 43.988 44.9597 43.9837 45.0283C43.9729 47.1015 43.9579 49.1748 43.9515 51.248C44.0716 51.4131 44.1296 51.4967 44.2497 51.6532C45.1486 51.5503 46.0347 51.5203 46.8779 51.5482C47.721 51.5717 48.1437 51.6768 48.1544 51.8483Z" fill="#F9F2E1"/>
<path d="M48.9862 51.3423C50.4838 51.3531 51.2282 51.3552 52.7386 51.3723C52.833 51.3766 52.9124 51.5331 52.9767 51.8247C53.0411 52.1163 53.1033 52.3307 53.1634 52.4808C53.3093 52.8388 53.5517 52.961 53.8907 52.961C54.2297 52.961 54.5043 52.8731 54.7146 52.6502C54.9248 52.425 55.0321 52.1013 55.0364 51.6725C55.0407 51.2437 54.9784 50.9436 54.8497 50.7828C54.7231 50.6198 54.5815 50.4654 54.4314 50.3196C54.279 50.1739 54.0538 50.0581 53.7555 49.9659C53.4573 49.8737 53.2921 49.8222 53.2642 49.8072C53.2707 49.8072 53.2728 49.8072 53.2793 49.8094C53.1162 49.7386 53.0347 49.7065 52.8716 49.64C52.6077 49.5607 52.3889 49.4878 52.213 49.4127C51.0716 48.9968 50.2714 48.24 49.7715 47.2323C49.2694 46.2246 49.0141 45.5793 49.0184 44.0656C49.0206 42.9658 49.13 41.7609 49.3424 41.2956C49.5548 40.8325 49.8273 40.2429 50.1641 39.782C51.136 38.4527 52.4168 38.4484 54.1374 39.0959C55.5062 39.6104 56.5875 40.2815 57.3663 41.3128C57.3642 41.3128 57.362 41.3106 57.3599 41.3106C57.8576 42.0396 58.1966 42.7214 58.3811 43.2359C58.5635 43.7505 58.6772 44.175 58.7222 44.9382C58.6493 45.0283 58.6128 45.0733 58.5377 45.1676C57.2998 44.9318 56.1734 44.7045 55.2016 44.473C54.9098 44.4044 54.7339 44.2071 54.6759 43.8984C54.6523 43.7698 54.6244 43.6433 54.5966 43.5189C54.53 43.2231 54.3134 43.0472 53.9508 42.9486C53.9401 42.9465 53.9336 42.9443 53.9229 42.94C53.6418 42.8629 53.4037 42.8886 53.2063 43.0515C53.0089 43.2145 52.9102 43.4203 52.9081 43.6497C52.906 43.8791 52.9317 44.0806 52.9875 44.2436C53.0411 44.4065 53.099 44.5373 53.1613 44.6381C53.2235 44.7367 53.3179 44.8439 53.4445 44.9575C53.5732 45.0712 53.6676 45.1441 53.7319 45.1848C53.7963 45.2255 53.8971 45.2899 54.0345 45.3778C54.1353 45.4378 54.1846 45.4678 54.2833 45.5257C54.3842 45.5879 54.6759 45.7551 55.1587 45.9952C55.6435 46.2332 56.0469 46.4176 56.3751 46.5891C56.3751 46.587 56.3751 46.5848 56.3751 46.5805C57.4006 47.1294 58.0936 47.912 58.4583 48.7267C58.8231 49.5414 58.9861 50.1095 58.999 51.0679C59.029 53.2569 57.7375 56.3271 55.768 57.3884C55.1436 57.665 54.4442 57.8279 53.7641 57.8601C52.9338 57.8986 52.0306 57.7743 51.1789 57.2962C50.3271 56.8181 49.7565 55.6453 49.4668 54.3225C49.2716 53.6836 49.1407 53.3169 49.0763 53.0447C49.012 52.7724 48.9605 52.2021 48.9219 51.3252C48.9369 51.3359 48.9583 51.3423 48.9862 51.3423Z" fill="#F9F2E1"/>
</svg>
