<svg width="203" height="49" viewBox="0 0 203 49" fill="none" xmlns="http://www.w3.org/2000/svg">
<path d="M3.89289 2.25593L3.49512 44.1135L200.625 47.6741L201.023 5.81652L3.89289 2.25593Z" fill="#FF810C"/>
<path d="M49.1104 46.9507C49.3304 46.9664 49.4384 46.9507 49.1104 46.9507V46.9507Z" fill="#FF810C"/>
<path d="M66.3921 0.961737C66.4585 0.961737 66.4917 0.961737 66.5582 0.961737C66.6786 0.910218 66.7907 0.864424 66.9028 0.830078L66.3921 0.961737Z" fill="#FF810C"/>
<path d="M93.7178 1.80313C93.78 1.80885 93.8257 1.81458 93.8838 1.8203C93.8713 1.78595 93.9045 1.75161 93.7178 1.80313Z" fill="#FF810C"/>
<path d="M1.09595 0.875732C1.08748 1.1505 1.10442 1.31078 1.12982 1.43671C1.11289 1.27071 1.10019 1.09898 1.09595 0.875732Z" fill="#FF810C"/>
<path d="M99.1937 47.5632C99.1937 47.5632 99.1231 47.5632 99.0732 47.5632C99.1687 47.5747 99.2684 47.5861 99.3681 47.6033L99.1937 47.5632Z" fill="#FF810C"/>
<path d="M98.641 47.649C98.039 47.5975 98.8071 47.5746 99.0728 47.5689C98.4085 47.483 97.74 47.4658 97.0674 47.4887C97.0715 47.5689 98.3462 47.5803 98.641 47.649Z" fill="#FF810C"/>
<path d="M190.041 48.9714L189.767 49.0001C189.879 48.9943 189.962 48.9829 190.041 48.9714Z" fill="#FF810C"/>
<path d="M7.5248 4.57935C7.51209 4.58492 7.4909 4.59048 7.48242 4.59605C7.51209 4.60162 7.52057 4.59049 7.5248 4.57935Z" fill="#FF810C"/>
<path d="M175.7 48.6279L175.542 48.7596C175.683 48.7081 175.712 48.668 175.7 48.6279Z" fill="#FF810C"/>
<path d="M66.9033 0.835698L67.1025 0.78418C67.0319 0.795628 66.9697 0.812801 66.9033 0.835698Z" fill="#FF810C"/>
<path d="M118.966 2.34692C118.974 2.38699 119.032 2.42134 119.099 2.44996C119.132 2.44996 119.153 2.44996 119.169 2.44996L118.966 2.34692Z" fill="#FF810C"/>
<path d="M200.512 36.4294C200.537 36.4237 200.562 36.4065 200.591 36.3836L200.454 36.0344C200.462 36.2176 200.483 36.3435 200.512 36.4294Z" fill="#FF810C"/>
<path d="M153.594 3.55479C153.623 3.53761 153.706 3.52616 153.714 3.50899C153.125 3.45175 151.559 3.4174 149.562 3.38306L149.438 3.54334L153.594 3.55479Z" fill="#FF810C"/>
<path d="M191.432 8.09416L187.745 7.69346C190.44 7.70491 192.811 7.73925 194.978 7.78505C195.522 7.7965 196.049 7.80794 196.568 7.81939C196.697 7.82512 196.826 7.82512 196.955 7.83084L197.125 7.83657H197.166C197.22 7.83657 197.27 7.84229 197.324 7.84229C197.523 7.85374 197.714 7.86519 197.901 7.87091C197.889 8.02547 197.876 8.18002 197.864 8.33458L197.86 8.39182L197.856 8.62652C197.851 8.81542 197.851 9.00432 197.847 9.19895C197.843 9.58248 197.839 9.96601 197.839 10.3553C197.831 11.9123 197.86 13.5551 197.947 15.4327L197.843 15.0492C197.719 16.0452 198.815 16.6291 197.366 27.6598H197.316C197.32 28.0433 197.42 28.0433 197.283 28.8047L197.602 26.8985C197.714 28.0433 197.939 29.0508 197.959 30.5735C197.901 30.894 197.802 31.0085 197.723 31.0372L197.768 34.7808L197.44 35.92C197.602 37.0648 198.275 36.5554 197.872 39.6121C198.345 38.4673 198.138 41.1348 198.375 40.7627C198.316 40.9173 198.225 41.2665 198.146 41.547C198.184 43.3673 198.279 46.7961 198.512 47.6491C198.512 47.6491 199.558 40.5452 200.073 38.6447C199.923 41.2035 200.123 39.3202 200.285 38.8165L200.172 38.6447C200.301 37.1106 200.592 37.1164 200.683 36.3493C200.658 36.3493 200.629 36.3722 200.6 36.3951L200.637 36.4924C200.583 36.5611 200.55 36.521 200.521 36.4409C200.459 36.4581 200.409 36.3894 200.43 35.9715L200.459 36.0516C200.422 35.4105 200.48 34.3057 200.505 33.8249L200.75 33.8192C200.293 32.6743 201.534 26.1887 201.563 24.6603C201.887 23.1319 201.518 21.22 201.692 19.3081C201.8 16.257 202.066 17.7854 202.29 16.257C202.46 14.3451 201.999 16.6405 201.991 15.8735L202.352 13.5838C202.369 14.9175 202.523 14.1963 202.622 13.9558C202.651 12.9655 202.788 11.689 202.855 10.5842C202.888 10.0347 202.905 9.51951 202.884 9.11308C202.871 8.90701 202.851 8.72956 202.817 8.58073C202.801 8.51776 202.78 8.409 202.759 8.32886C202.738 8.24872 202.709 8.18002 202.68 8.12851C202.805 6.34825 202.917 5.3007 203 4.55082C201.858 4.47068 201.24 4.41343 199.844 4.37909C200.264 4.41916 200.887 4.45923 201.389 4.49358C201.891 4.53365 202.273 4.56799 202.236 4.60234C201.7 4.55654 201.347 4.53365 201.148 4.52792C200.949 4.5222 200.903 4.52792 200.953 4.54509C201.057 4.57944 201.543 4.64241 201.987 4.6653C201.065 4.68248 199.554 4.63668 197.669 4.55654C197.552 4.55082 197.432 4.54509 197.312 4.53937C197.254 4.53937 197.195 4.53365 197.137 4.53365L197.013 4.52792C196.847 4.51647 196.672 4.51075 196.502 4.4993C196.157 4.4764 195.8 4.45923 195.443 4.43633C194.725 4.39054 193.986 4.34474 193.263 4.30467C190.373 4.12722 187.72 3.98411 187.467 4.16157V4.09287C186.902 4.35047 187.803 4.63096 186.113 4.75117L184.992 4.60806L183.298 4.69393C182.165 4.58516 182.721 4.5222 182.725 4.48785C179.968 4.56227 176.119 4.34474 172.781 4.24743L176.31 5.04883C173.495 4.82558 168.413 4.39054 167.848 4.61951L166.158 4.33902C160.512 3.76086 162.214 4.47068 159.959 4.2875L157.124 3.96694L159.947 4.02418C157.124 3.83528 155.994 3.72652 153.748 3.509L153.723 3.51472C153.877 3.52617 153.976 3.54334 153.997 3.56051H153.603C153.258 3.68645 151.784 3.75514 149.795 3.70935C146.972 3.61776 144.759 3.77804 140.249 3.41168L139.12 3.66928L135.732 3.43458L135.736 3.21706C139.054 3.29147 145.298 3.32009 149.563 3.38306L149.637 3.28575C147.109 3.23995 144.231 3.28575 142.558 3.23423C141.744 3.17699 139.66 2.90794 141.175 2.78773L139.61 2.97664C131.169 2.8507 131.115 2.85643 122.308 2.45L123.072 2.57593C121.324 2.61028 119.58 2.6389 119.099 2.45572C113.809 2.32407 108.332 2.08365 104.898 1.74591L104.143 1.99206C103.026 1.95771 101.357 1.53411 100.809 1.88902L98.4212 1.95771C96.8932 1.91192 95.959 2.04358 94.2193 1.8604C94.2151 1.8604 94.211 1.8604 94.211 1.8604C94.103 1.84895 93.9909 1.8375 93.883 1.82605C93.883 1.83178 93.8913 1.84322 93.9037 1.84895C90.4492 1.6715 93.937 2.08365 89.98 1.8604C88.7136 1.65432 88.5724 2.16379 86.6459 2.0722L84.7152 1.66577C81.2233 1.391 80.6212 1.75164 75.5598 1.66005C73.1308 1.48259 71.9599 1.14486 73.5709 0.892991C71.3537 1.19065 72.562 1.09907 69.6223 1.20783C69.1697 1.059 69.4853 1.0361 70.133 0.921612C67.5255 0.709813 68.522 1.01893 66.5581 0.973131C65.9851 1.225 65.3207 1.63715 64.6813 1.63715L65.4411 1.73446C63.3568 1.8375 61.0814 1.8604 58.6649 1.68867L58.7563 1.55701L56.1778 1.57991L56.0159 1.40818L52.3371 1.39673L52.8395 1.45397C51.9759 1.4597 49.14 1.46542 47.5166 1.35093L47.5747 1.25935C43.0032 0.881542 39.2248 1.2021 33.8686 1.13341L34.5745 0.955958C32.7517 0.73271 34.0721 1.24217 31.8964 1.11051L31.7884 0.870094C29.8702 1.14486 29.3138 0.761332 27.9934 0.618224L28.6079 0.938785L26.125 0.830023C23.3887 0.675467 24.4475 0.406425 24.8503 0.251869L22.986 0.463668L22.6248 0.183178C21.2587 0.475117 21.2629 0.108762 18.8754 0.234696C18.6927 0.108762 19.2948 0.057243 18.4851 0L14.5448 0.314836L16.9198 0.188902L16.6291 0.583879C14.1545 0.841472 13.2825 0.480841 11.5138 0.560981L12.7303 0.463668C9.84876 0.509463 9.69514 0.337734 8.07167 0.217523C8.57407 0.303388 9.34636 0.423598 8.17962 0.457944C8.07167 0.457944 7.98448 0.457944 7.91389 0.45222C7.87652 0.45222 7.8433 0.446495 7.81424 0.446495C7.76441 0.440771 7.72289 0.440771 7.68137 0.435047C7.51529 0.417874 7.41564 0.400701 7.32014 0.372079C7.12499 0.326285 6.934 0.269042 6.20323 0.234696C6.09942 0.337734 5.48076 0.41215 4.60882 0.457944C3.73273 0.49229 2.59921 0.503738 1.34943 0.469393C1.34113 0.887266 1.31206 1.31086 1.27054 1.72301C1.21656 1.6715 1.16259 1.59708 1.12937 1.4368C1.15843 1.72874 1.1958 1.95771 1.21656 2.22675C1.23732 2.49579 1.23317 2.79918 1.18335 3.26285C1.03802 3.0396 0.896852 2.79918 0.751529 2.54731C0.884396 3.24568 1.01726 3.9097 1.15013 4.53365C1.14183 4.61379 1.13352 4.69393 1.12937 4.77407C1.12522 4.83131 1.12107 4.88855 1.11691 4.9458C1.11276 5.04311 1.11276 5.14614 1.11691 5.24346C1.12522 5.44381 1.14183 5.63843 1.15428 5.81016C1.17919 6.15362 1.18335 6.39404 1.03387 6.34252L0.950829 5.93037L0.79305 11.4085L0.444274 11.4772C0.917613 12.0268 0.232517 14.4596 0.834571 14.2879C0.498251 15.3182 1.02557 18.3693 0.35708 17.7453C0.269886 21.3459 0.901004 23.3036 0.531468 27.6713C-0.0581293 29.2225 0.087194 33.4986 0 36.3092C0.0539772 37.7689 0.0996502 39.0912 0.149475 40.3563C0.161932 40.6711 0.174388 40.986 0.186844 41.2951C0.195148 41.8332 0.207605 42.3655 0.215909 42.8979C0.232517 44.0084 0.253278 45.1132 0.269886 46.2294C1.69821 46.2409 3.13898 46.2466 4.60467 46.2581C5.32714 46.2638 6.0579 46.2695 6.79698 46.2752C6.97967 46.2752 7.16651 46.2752 7.34921 46.281C7.45301 46.281 7.56096 46.281 7.66892 46.281C7.87652 46.281 8.08413 46.281 8.29588 46.281C9.97333 46.281 11.7504 46.2867 13.6936 46.2867C18.672 46.9221 26.125 46.3268 31.4853 46.7275L32.9552 46.5386C36.5177 46.945 41.9611 46.6244 46.9602 47.048C48.185 46.9736 48.8286 46.9564 49.1151 46.9564C48.8867 46.9393 48.5421 46.8935 48.4383 46.7561C49.8666 46.8763 52.7565 46.8076 52.5489 47.0824L52.1877 47.1053C51.9759 47.3743 56.5224 47.0537 58.1127 47.3228L57.2408 47.0137L59.9438 47.111L59.2172 47.1568C70.9717 46.7217 76.2739 47.7464 87.3144 47.3514C85.8487 47.6433 89.4901 47.2255 89.6312 47.5747C92.409 48.0669 94.7881 47.5747 97.0718 47.4945C97.0718 47.4773 97.1009 47.4602 97.2296 47.4315L101.216 47.546C98.8281 47.9467 104.093 47.2312 101.901 47.5689C112.298 48.0898 125.871 47.9983 137.908 48.3646L137.38 48.2387C140.432 48.3131 144.231 48.2444 146.548 48.4676C148.865 48.6909 151.618 48.273 152.519 48.2673C155.06 48.1185 157.364 48.5478 156.276 48.5077C158.992 48.502 161.55 48.1471 165.316 48.3875C166.599 48.7825 175.596 48.2043 175.708 48.6279L175.75 48.5936C180.57 48.9771 185.129 48.5535 190.324 48.9199C190.324 48.9199 190.224 48.9485 190.05 48.9771L200.637 47.8895L197.64 46.4241L188.484 45.1132L163.638 44.9129L143.816 44.1057L95.5604 43.3845L92.11 43.6421C82.635 42.9151 70.4693 43.3329 60.2552 42.7548L60.0393 43.0238C57.1619 42.9895 57.357 42.8235 56.647 42.7605C47.7574 42.6174 38.7764 42.5087 29.8702 42.3999C25.415 42.3426 20.9805 42.2854 16.5835 42.2282C13.2244 42.1766 9.89444 42.1308 6.61013 42.085C6.61844 41.3065 6.63089 40.5338 6.6392 39.7667C6.66411 38.307 6.68902 36.8645 6.71393 35.4277C6.77622 32.5598 6.85926 29.7549 6.96721 27.0072C7.24956 25.4388 7.13745 20.6475 7.43225 19.4168C7.21219 16.7607 7.11254 14.0303 7.08762 11.294C7.07517 9.92593 7.07517 8.56355 7.08762 7.20689C7.09593 6.53143 7.10423 5.85596 7.11253 5.18049L7.11669 4.95152L7.12084 4.91145L7.12499 4.83131C7.12914 4.77979 7.1333 4.72255 7.13745 4.67103L7.18312 4.72255L7.1416 4.52792L7.46131 4.50502C7.50283 4.52792 7.52359 4.56227 7.51944 4.57944C7.57342 4.55082 7.65646 4.52792 7.75611 4.51647C7.74781 4.51647 7.80178 4.51647 7.835 4.51647H7.94711C8.02184 4.51647 8.09658 4.51647 8.17132 4.51647C8.3208 4.51647 8.47442 4.51647 8.62805 4.51647C8.93531 4.51647 9.25086 4.5222 9.57057 4.5222C10.8494 4.53365 12.2196 4.56799 13.6189 4.61951C16.4174 4.7111 19.3321 4.84848 21.8815 4.9458L21.5826 4.96869C51.3323 5.5583 78.9604 5.54685 108.461 6.46273C122.175 7.15537 138.14 6.82909 153.877 7.48738C156.771 7.80222 188.617 8.16858 191.432 8.09416Z" fill="#FF810C"/>
<path d="M197.714 31.0314V30.9456C197.544 30.9456 197.607 31.0715 197.714 31.0314Z" fill="#FF810C"/>
<path d="M172.56 4.23594C172.631 4.23594 172.701 4.24166 172.768 4.24166L171.987 4.06421L172.56 4.23594Z" fill="#FF810C"/>
<path d="M202.659 15.1006C202.726 13.8184 202.685 13.7612 202.614 13.9386C202.601 14.4023 202.609 14.8087 202.659 15.1006Z" fill="#FF810C"/>
<path d="M197.939 41.5125C197.918 42.188 198.022 41.9304 198.138 41.5354C198.125 40.8485 198.117 40.3677 198.117 40.3677C198.076 40.7512 197.984 41.1233 197.939 41.5125Z" fill="#FF810C"/>
<path d="M200.275 38.8051L200.412 39.0169C200.383 38.6219 200.329 38.6391 200.275 38.8051Z" fill="#FF810C"/>
<path d="M32.8249 20.156C31.9192 20.156 31.0915 19.9502 30.3419 19.5385C29.5965 19.1225 29.0094 18.5548 28.5804 17.8355C28.1557 17.1162 27.9434 16.321 27.9434 15.45C27.9434 14.579 28.1557 13.7838 28.5804 13.0645C29.0094 12.3452 29.5965 11.7797 30.3419 11.368C31.0915 10.952 31.9192 10.744 32.8249 10.744C33.9992 10.744 35.0392 11.095 35.9449 11.797L35.0154 13.1685C34.6514 12.9085 34.296 12.7092 33.9494 12.5705C33.607 12.4275 33.2322 12.356 32.8249 12.356C31.9755 12.356 31.2605 12.6528 30.6799 13.2465C30.0992 13.8402 29.8089 14.5747 29.8089 15.45C29.8089 16.3253 30.0992 17.0598 30.6799 17.6535C31.2605 18.2472 31.9755 18.544 32.8249 18.544C33.2322 18.544 33.6309 18.4638 34.0209 18.3035C34.4109 18.1432 34.764 17.9308 35.0804 17.6665L36.0554 19.025C35.1454 19.779 34.0685 20.156 32.8249 20.156ZM37.723 19.1355C37.008 18.4552 36.6505 17.621 36.6505 16.633C36.6505 15.645 37.008 14.8108 37.723 14.1305C38.438 13.4502 39.3264 13.11 40.388 13.11C41.09 13.11 41.727 13.266 42.299 13.578C42.871 13.89 43.3174 14.3147 43.638 14.852C43.963 15.3893 44.1255 15.983 44.1255 16.633C44.1255 17.283 43.963 17.8767 43.638 18.414C43.3174 18.9513 42.871 19.376 42.299 19.688C41.727 20 41.09 20.156 40.388 20.156C39.3264 20.156 38.438 19.8158 37.723 19.1355ZM38.4445 16.633C38.4445 17.1833 38.6309 17.6448 39.0035 18.0175C39.3762 18.3902 39.8377 18.5765 40.388 18.5765C40.9384 18.5765 41.3999 18.3902 41.7725 18.0175C42.1495 17.6448 42.338 17.1833 42.338 16.633C42.338 16.087 42.1495 15.6277 41.7725 15.255C41.3999 14.878 40.9384 14.6895 40.388 14.6895C39.8377 14.6895 39.3762 14.878 39.0035 15.255C38.6309 15.6277 38.4445 16.087 38.4445 16.633ZM47.1955 15.619V20H45.408V13.266H47.1955V14.007C47.4251 13.734 47.7068 13.5173 48.0405 13.357C48.3785 13.1923 48.7273 13.11 49.087 13.11C49.88 13.11 50.5256 13.3635 51.024 13.8705C51.5266 14.3775 51.778 15.0383 51.778 15.853V20H49.9905V16.0285C49.9905 15.6472 49.867 15.3287 49.62 15.073C49.3773 14.8173 49.0545 14.6895 48.6515 14.6895C48.3785 14.6895 48.1076 14.7805 47.839 14.9625C47.5703 15.1445 47.3558 15.3633 47.1955 15.619ZM54.0111 19.1355C53.2961 18.4552 52.9386 17.621 52.9386 16.633C52.9386 15.645 53.2961 14.8108 54.0111 14.1305C54.7261 13.4502 55.6144 13.11 56.6761 13.11C57.3781 13.11 58.0151 13.266 58.5871 13.578C59.1591 13.89 59.6054 14.3147 59.9261 14.852C60.2511 15.3893 60.4136 15.983 60.4136 16.633C60.4136 17.283 60.2511 17.8767 59.9261 18.414C59.6054 18.9513 59.1591 19.376 58.5871 19.688C58.0151 20 57.3781 20.156 56.6761 20.156C55.6144 20.156 54.7261 19.8158 54.0111 19.1355ZM54.7326 16.633C54.7326 17.1833 54.9189 17.6448 55.2916 18.0175C55.6643 18.3902 56.1258 18.5765 56.6761 18.5765C57.2264 18.5765 57.6879 18.3902 58.0606 18.0175C58.4376 17.6448 58.6261 17.1833 58.6261 16.633C58.6261 16.087 58.4376 15.6277 58.0606 15.255C57.6879 14.878 57.2264 14.6895 56.6761 14.6895C56.1258 14.6895 55.6643 14.878 55.2916 15.255C54.9189 15.6277 54.7326 16.087 54.7326 16.633ZM64.9915 20.156C63.9299 20.156 63.0415 19.8158 62.3265 19.1355C61.6115 18.4552 61.254 17.621 61.254 16.633C61.254 15.645 61.6115 14.8108 62.3265 14.1305C63.0415 13.4502 63.9299 13.11 64.9915 13.11C65.9709 13.11 66.818 13.4112 67.533 14.0135L66.649 15.346C66.1117 14.9083 65.5635 14.6895 65.0045 14.6895C64.4542 14.6895 63.9927 14.878 63.62 15.255C63.2474 15.6277 63.061 16.087 63.061 16.633C63.061 17.1833 63.2474 17.6448 63.62 18.0175C63.9927 18.3902 64.4542 18.5765 65.0045 18.5765C65.5939 18.5765 66.155 18.3403 66.688 17.868L67.6825 19.116C66.9675 19.8093 66.0705 20.156 64.9915 20.156ZM70.1577 17.166C70.2357 17.634 70.4524 18.0132 70.8077 18.3035C71.1674 18.5895 71.6007 18.7325 72.1077 18.7325C72.8141 18.7325 73.4511 18.453 74.0187 17.894L75.0912 18.934C74.3416 19.7487 73.3492 20.156 72.1142 20.156C71.5682 20.156 71.0591 20.065 70.5867 19.883C70.1144 19.701 69.7157 19.4518 69.3907 19.1355C69.0657 18.8192 68.8101 18.4465 68.6237 18.0175C68.4417 17.5842 68.3507 17.1227 68.3507 16.633C68.3507 16.1477 68.4439 15.6883 68.6302 15.255C68.8166 14.8217 69.0701 14.449 69.3907 14.137C69.7157 13.8207 70.1057 13.5715 70.5607 13.3895C71.0157 13.2032 71.4989 13.11 72.0102 13.11C72.6819 13.11 73.2886 13.2638 73.8302 13.5715C74.3719 13.8748 74.7922 14.2865 75.0912 14.8065C75.3902 15.3222 75.5397 15.892 75.5397 16.516C75.5397 16.7413 75.5137 16.958 75.4617 17.166H70.1577ZM71.9972 14.5335C71.5769 14.5335 71.2021 14.657 70.8727 14.904C70.5477 15.151 70.3246 15.4803 70.2032 15.892H73.7002C73.6006 15.4847 73.3991 15.1575 73.0957 14.9105C72.7924 14.6592 72.4262 14.5335 71.9972 14.5335ZM80.7842 20V10.51H82.5717V20H80.7842ZM84.975 19.1355C84.26 18.4552 83.9025 17.621 83.9025 16.633C83.9025 15.645 84.26 14.8108 84.975 14.1305C85.69 13.4502 86.5783 13.11 87.64 13.11C88.342 13.11 88.979 13.266 89.551 13.578C90.123 13.89 90.5693 14.3147 90.89 14.852C91.215 15.3893 91.3775 15.983 91.3775 16.633C91.3775 17.283 91.215 17.8767 90.89 18.414C90.5693 18.9513 90.123 19.376 89.551 19.688C88.979 20 88.342 20.156 87.64 20.156C86.5783 20.156 85.69 19.8158 84.975 19.1355ZM85.6965 16.633C85.6965 17.1833 85.8828 17.6448 86.2555 18.0175C86.6281 18.3902 87.0896 18.5765 87.64 18.5765C88.1903 18.5765 88.6518 18.3902 89.0245 18.0175C89.4015 17.6448 89.59 17.1833 89.59 16.633C89.59 16.087 89.4015 15.6277 89.0245 15.255C88.6518 14.878 88.1903 14.6895 87.64 14.6895C87.0896 14.6895 86.6281 14.878 86.2555 15.255C85.8828 15.6277 85.6965 16.087 85.6965 16.633ZM92.1984 19.038L93.0954 17.9265C93.3121 18.1735 93.5677 18.3685 93.8624 18.5115C94.1614 18.6545 94.4756 18.726 94.8049 18.726C95.1126 18.726 95.3531 18.6653 95.5264 18.544C95.7041 18.4227 95.7929 18.2602 95.7929 18.0565C95.7929 17.8485 95.7062 17.6817 95.5329 17.556C95.3596 17.426 95.0606 17.3177 94.6359 17.231C93.1756 16.932 92.4454 16.2127 92.4454 15.073C92.4454 14.501 92.6686 14.0308 93.1149 13.6625C93.5656 13.2942 94.1527 13.11 94.8764 13.11C95.3271 13.11 95.7604 13.1945 96.1764 13.3635C96.5924 13.5282 96.9564 13.7492 97.2684 14.0265L96.4104 15.1445C95.9207 14.7415 95.4614 14.54 95.0324 14.54C94.7854 14.54 94.5839 14.592 94.4279 14.696C94.2719 14.7957 94.1939 14.93 94.1939 15.099C94.1939 15.489 94.5514 15.7577 95.2664 15.905C96.0421 16.061 96.6141 16.3188 96.9824 16.6785C97.3551 17.0382 97.5414 17.504 97.5414 18.076C97.5414 18.6827 97.3052 19.181 96.8329 19.571C96.3606 19.961 95.7301 20.156 94.9414 20.156C94.3824 20.156 93.8624 20.0585 93.3814 19.8635C92.9004 19.6642 92.5061 19.389 92.1984 19.038ZM106.263 18.5765C106.813 18.5765 107.275 18.3902 107.647 18.0175C108.02 17.6448 108.206 17.1833 108.206 16.633C108.206 16.0827 108.02 15.6212 107.647 15.2485C107.275 14.8758 106.813 14.6895 106.263 14.6895C105.877 14.6895 105.526 14.787 105.21 14.982C104.898 15.177 104.664 15.437 104.508 15.762V17.504C104.664 17.829 104.898 18.089 105.21 18.284C105.526 18.479 105.877 18.5765 106.263 18.5765ZM106.64 13.11C107.273 13.11 107.847 13.2703 108.362 13.591C108.878 13.9073 109.279 14.3342 109.565 14.8715C109.855 15.4088 110 15.996 110 16.633C110 17.27 109.855 17.8572 109.565 18.3945C109.279 18.9318 108.878 19.3608 108.362 19.6815C107.847 19.9978 107.273 20.156 106.64 20.156C105.786 20.156 105.076 19.8787 104.508 19.324V23.016H102.74V13.266H104.508V13.942C105.076 13.3873 105.786 13.11 106.64 13.11ZM111.316 20V10.51H113.104V20H111.316ZM118.172 18.5765C118.558 18.5765 118.907 18.479 119.219 18.284C119.535 18.089 119.771 17.829 119.927 17.504V15.762C119.771 15.437 119.535 15.177 119.219 14.982C118.907 14.787 118.558 14.6895 118.172 14.6895C117.622 14.6895 117.16 14.8758 116.788 15.2485C116.415 15.6212 116.229 16.0827 116.229 16.633C116.229 17.1833 116.415 17.6448 116.788 18.0175C117.16 18.3902 117.622 18.5765 118.172 18.5765ZM117.795 13.11C118.649 13.11 119.36 13.3873 119.927 13.942V13.266H121.695V20H119.927V19.324C119.36 19.8787 118.649 20.156 117.795 20.156C117.163 20.156 116.588 19.9978 116.073 19.6815C115.557 19.3608 115.154 18.9318 114.864 18.3945C114.578 17.8572 114.435 17.27 114.435 16.633C114.435 15.996 114.578 15.4088 114.864 14.8715C115.154 14.3342 115.557 13.9073 116.073 13.591C116.588 13.2703 117.163 13.11 117.795 13.11ZM125.606 14.8195V17.6665C125.606 17.9915 125.684 18.2298 125.84 18.3815C126.001 18.5288 126.265 18.6025 126.633 18.6025C126.863 18.6025 127.075 18.5917 127.27 18.57V20.065C126.989 20.1257 126.679 20.156 126.341 20.156C124.659 20.156 123.819 19.363 123.819 17.777V14.8195H122.772V13.266H123.819V11.472L125.606 11.316V13.266H127.192V14.8195H125.606ZM129.104 19.1355C128.389 18.4552 128.031 17.621 128.031 16.633C128.031 15.645 128.389 14.8108 129.104 14.1305C129.819 13.4502 130.707 13.11 131.769 13.11C132.471 13.11 133.108 13.266 133.68 13.578C134.252 13.89 134.698 14.3147 135.019 14.852C135.344 15.3893 135.506 15.983 135.506 16.633C135.506 17.283 135.344 17.8767 135.019 18.414C134.698 18.9513 134.252 19.376 133.68 19.688C133.108 20 132.471 20.156 131.769 20.156C130.707 20.156 129.819 19.8158 129.104 19.1355ZM129.825 16.633C129.825 17.1833 130.012 17.6448 130.384 18.0175C130.757 18.3902 131.219 18.5765 131.769 18.5765C132.319 18.5765 132.781 18.3902 133.153 18.0175C133.53 17.6448 133.719 17.1833 133.719 16.633C133.719 16.087 133.53 15.6277 133.153 15.255C132.781 14.878 132.319 14.6895 131.769 14.6895C131.219 14.6895 130.757 14.878 130.384 15.255C130.012 15.6277 129.825 16.087 129.825 16.633ZM136.327 19.038L137.224 17.9265C137.441 18.1735 137.697 18.3685 137.991 18.5115C138.29 18.6545 138.604 18.726 138.934 18.726C139.241 18.726 139.482 18.6653 139.655 18.544C139.833 18.4227 139.922 18.2602 139.922 18.0565C139.922 17.8485 139.835 17.6817 139.662 17.556C139.488 17.426 139.189 17.3177 138.765 17.231C137.304 16.932 136.574 16.2127 136.574 15.073C136.574 14.501 136.797 14.0308 137.244 13.6625C137.694 13.2942 138.282 13.11 139.005 13.11C139.456 13.11 139.889 13.1945 140.305 13.3635C140.721 13.5282 141.085 13.7492 141.397 14.0265L140.539 15.1445C140.05 14.7415 139.59 14.54 139.161 14.54C138.914 14.54 138.713 14.592 138.557 14.696C138.401 14.7957 138.323 14.93 138.323 15.099C138.323 15.489 138.68 15.7577 139.395 15.905C140.171 16.061 140.743 16.3188 141.111 16.6785C141.484 17.0382 141.67 17.504 141.67 18.076C141.67 18.6827 141.434 19.181 140.962 19.571C140.489 19.961 139.859 20.156 139.07 20.156C138.511 20.156 137.991 20.0585 137.51 19.8635C137.029 19.6642 136.635 19.389 136.327 19.038ZM150.164 18.5765C150.55 18.5765 150.899 18.479 151.211 18.284C151.527 18.089 151.763 17.829 151.919 17.504V15.762C151.763 15.437 151.527 15.177 151.211 14.982C150.899 14.787 150.55 14.6895 150.164 14.6895C149.614 14.6895 149.153 14.8758 148.78 15.2485C148.407 15.6212 148.221 16.0827 148.221 16.633C148.221 17.1833 148.407 17.6448 148.78 18.0175C149.153 18.3902 149.614 18.5765 150.164 18.5765ZM149.787 13.11C150.641 13.11 151.352 13.3873 151.919 13.942V13.266H153.687V23.016H151.919V19.324C151.352 19.8787 150.641 20.156 149.787 20.156C149.155 20.156 148.581 19.9978 148.065 19.6815C147.549 19.3608 147.146 18.9318 146.856 18.3945C146.57 17.8572 146.427 17.27 146.427 16.633C146.427 15.996 146.57 15.4088 146.856 14.8715C147.146 14.3342 147.549 13.9073 148.065 13.591C148.581 13.2703 149.155 13.11 149.787 13.11ZM159.865 17.647V13.266H161.653V20H159.865V19.259C159.636 19.532 159.352 19.7508 159.014 19.9155C158.68 20.0758 158.334 20.156 157.974 20.156C157.181 20.156 156.533 19.9025 156.03 19.3955C155.532 18.8885 155.283 18.2277 155.283 17.413V13.266H157.07V17.2375C157.07 17.6188 157.192 17.9373 157.434 18.193C157.681 18.4487 158.006 18.5765 158.409 18.5765C158.682 18.5765 158.953 18.4855 159.222 18.3035C159.491 18.1215 159.705 17.9027 159.865 17.647ZM164.75 17.166C164.828 17.634 165.045 18.0132 165.4 18.3035C165.76 18.5895 166.193 18.7325 166.7 18.7325C167.407 18.7325 168.044 18.453 168.611 17.894L169.684 18.934C168.934 19.7487 167.942 20.156 166.707 20.156C166.161 20.156 165.652 20.065 165.179 19.883C164.707 19.701 164.308 19.4518 163.983 19.1355C163.658 18.8192 163.403 18.4465 163.216 18.0175C163.034 17.5842 162.943 17.1227 162.943 16.633C162.943 16.1477 163.037 15.6883 163.223 15.255C163.409 14.8217 163.663 14.449 163.983 14.137C164.308 13.8207 164.698 13.5715 165.153 13.3895C165.608 13.2032 166.092 13.11 166.603 13.11C167.275 13.11 167.881 13.2638 168.423 13.5715C168.965 13.8748 169.385 14.2865 169.684 14.8065C169.983 15.3222 170.132 15.892 170.132 16.516C170.132 16.7413 170.106 16.958 170.054 17.166H164.75ZM166.59 14.5335C166.17 14.5335 165.795 14.657 165.465 14.904C165.14 15.151 164.917 15.4803 164.796 15.892H168.293C168.193 15.4847 167.992 15.1575 167.688 14.9105C167.385 14.6592 167.019 14.5335 166.59 14.5335ZM50.5071 30.8195V33.6665C50.5071 33.9915 50.5851 34.2298 50.7411 34.3815C50.9014 34.5288 51.1657 34.6025 51.5341 34.6025C51.7637 34.6025 51.9761 34.5917 52.1711 34.57V36.065C51.8894 36.1257 51.5796 36.156 51.2416 36.156C49.5602 36.156 48.7196 35.363 48.7196 33.777V30.8195H47.6731V29.266H48.7196V27.472L50.5071 27.316V29.266H52.0931V30.8195H50.5071ZM54.7393 33.166C54.8173 33.634 55.0339 34.0132 55.3893 34.3035C55.7489 34.5895 56.1823 34.7325 56.6893 34.7325C57.3956 34.7325 58.0326 34.453 58.6003 33.894L59.6728 34.934C58.9231 35.7487 57.9308 36.156 56.6958 36.156C56.1498 36.156 55.6406 36.065 55.1683 35.883C54.6959 35.701 54.2973 35.4518 53.9723 35.1355C53.6473 34.8192 53.3916 34.4465 53.2053 34.0175C53.0233 33.5842 52.9323 33.1227 52.9323 32.633C52.9323 32.1477 53.0254 31.6883 53.2118 31.255C53.3981 30.8217 53.6516 30.449 53.9723 30.137C54.2973 29.8207 54.6873 29.5715 55.1423 29.3895C55.5973 29.2032 56.0804 29.11 56.5918 29.11C57.2634 29.11 57.8701 29.2638 58.4118 29.5715C58.9534 29.8748 59.3738 30.2865 59.6728 30.8065C59.9718 31.3222 60.1213 31.892 60.1213 32.516C60.1213 32.7413 60.0953 32.958 60.0433 33.166H54.7393ZM56.5788 30.5335C56.1584 30.5335 55.7836 30.657 55.4543 30.904C55.1293 31.151 54.9061 31.4803 54.7848 31.892H58.2818C58.1821 31.4847 57.9806 31.1575 57.6773 30.9105C57.3739 30.6592 57.0078 30.5335 56.5788 30.5335ZM63.1979 31.619V36H61.4104V29.266H63.1979V30.007C63.4276 29.734 63.7092 29.5173 64.0429 29.357C64.3809 29.1923 64.7297 29.11 65.0894 29.11C65.8824 29.11 66.5281 29.3635 67.0264 29.8705C67.5291 30.3775 67.7804 31.0383 67.7804 31.853V36H65.9929V32.0285C65.9929 31.6472 65.8694 31.3287 65.6224 31.073C65.3797 30.8173 65.0569 30.6895 64.6539 30.6895C64.3809 30.6895 64.1101 30.7805 63.8414 30.9625C63.5727 31.1445 63.3582 31.3633 63.1979 31.619ZM70.7481 33.166C70.8261 33.634 71.0427 34.0132 71.3981 34.3035C71.7577 34.5895 72.1911 34.7325 72.6981 34.7325C73.4044 34.7325 74.0414 34.453 74.6091 33.894L75.6816 34.934C74.9319 35.7487 73.9396 36.156 72.7046 36.156C72.1586 36.156 71.6494 36.065 71.1771 35.883C70.7047 35.701 70.3061 35.4518 69.9811 35.1355C69.6561 34.8192 69.4004 34.4465 69.2141 34.0175C69.0321 33.5842 68.9411 33.1227 68.9411 32.633C68.9411 32.1477 69.0342 31.6883 69.2206 31.255C69.4069 30.8217 69.6604 30.449 69.9811 30.137C70.3061 29.8207 70.6961 29.5715 71.1511 29.3895C71.6061 29.2032 72.0892 29.11 72.6006 29.11C73.2722 29.11 73.8789 29.2638 74.4206 29.5715C74.9622 29.8748 75.3826 30.2865 75.6816 30.8065C75.9806 31.3222 76.1301 31.892 76.1301 32.516C76.1301 32.7413 76.1041 32.958 76.0521 33.166H70.7481ZM72.5876 30.5335C72.1672 30.5335 71.7924 30.657 71.4631 30.904C71.1381 31.151 70.9149 31.4803 70.7936 31.892H74.2906C74.1909 31.4847 73.9894 31.1575 73.6861 30.9105C73.3827 30.6592 73.0166 30.5335 72.5876 30.5335ZM77.4192 29.266H79.2067V30.007C79.4234 29.7383 79.6899 29.5238 80.0062 29.3635C80.3225 29.2032 80.6605 29.123 81.0202 29.123C81.4925 29.123 81.9172 29.2248 82.2942 29.4285C82.6755 29.6322 82.981 29.916 83.2107 30.28C83.4534 29.929 83.774 29.6473 84.1727 29.435C84.5714 29.2183 84.9917 29.11 85.4337 29.11C86.2094 29.11 86.8399 29.3657 87.3252 29.877C87.8149 30.384 88.0597 31.0362 88.0597 31.8335V36H86.2722V32.0155C86.2722 31.6385 86.1595 31.3243 85.9342 31.073C85.7132 30.8173 85.4185 30.6895 85.0502 30.6895C84.7772 30.6895 84.515 30.7805 84.2637 30.9625C84.0124 31.1402 83.7979 31.372 83.6202 31.658C83.6289 31.8487 83.6332 31.996 83.6332 32.1V36H81.8457V32.0155C81.8457 31.6298 81.733 31.3135 81.5077 31.0665C81.2824 30.8152 80.9877 30.6895 80.6237 30.6895C80.3507 30.6895 80.0885 30.7783 79.8372 30.956C79.5902 31.1337 79.38 31.3612 79.2067 31.6385V36H77.4192V29.266ZM90.288 35.1355C89.573 34.4552 89.2155 33.621 89.2155 32.633C89.2155 31.645 89.573 30.8108 90.288 30.1305C91.003 29.4502 91.8913 29.11 92.953 29.11C93.655 29.11 94.292 29.266 94.864 29.578C95.436 29.89 95.8823 30.3147 96.203 30.852C96.528 31.3893 96.6905 31.983 96.6905 32.633C96.6905 33.283 96.528 33.8767 96.203 34.414C95.8823 34.9513 95.436 35.376 94.864 35.688C94.292 36 93.655 36.156 92.953 36.156C91.8913 36.156 91.003 35.8158 90.288 35.1355ZM91.0095 32.633C91.0095 33.1833 91.1958 33.6448 91.5685 34.0175C91.9411 34.3902 92.4026 34.5765 92.953 34.5765C93.5033 34.5765 93.9648 34.3902 94.3375 34.0175C94.7145 33.6448 94.903 33.1833 94.903 32.633C94.903 32.087 94.7145 31.6277 94.3375 31.255C93.9648 30.878 93.5033 30.6895 92.953 30.6895C92.4026 30.6895 91.9411 30.878 91.5685 31.255C91.1958 31.6277 91.0095 32.087 91.0095 32.633ZM97.5114 35.038L98.4084 33.9265C98.6251 34.1735 98.8807 34.3685 99.1754 34.5115C99.4744 34.6545 99.7886 34.726 100.118 34.726C100.426 34.726 100.666 34.6653 100.839 34.544C101.017 34.4227 101.106 34.2602 101.106 34.0565C101.106 33.8485 101.019 33.6817 100.846 33.556C100.673 33.426 100.374 33.3177 99.9489 33.231C98.4886 32.932 97.7584 32.2127 97.7584 31.073C97.7584 30.501 97.9816 30.0308 98.4279 29.6625C98.8786 29.2942 99.4657 29.11 100.189 29.11C100.64 29.11 101.073 29.1945 101.489 29.3635C101.905 29.5282 102.269 29.7492 102.581 30.0265L101.723 31.1445C101.234 30.7415 100.774 30.54 100.345 30.54C100.098 30.54 99.8969 30.592 99.7409 30.696C99.5849 30.7957 99.5069 30.93 99.5069 31.099C99.5069 31.489 99.8644 31.7577 100.579 31.905C101.355 32.061 101.927 32.3188 102.295 32.6785C102.668 33.0382 102.854 33.504 102.854 34.076C102.854 34.6827 102.618 35.181 102.146 35.571C101.674 35.961 101.043 36.156 100.254 36.156C99.6954 36.156 99.1754 36.0585 98.6944 35.8635C98.2134 35.6642 97.8191 35.389 97.5114 35.038ZM111.576 34.5765C112.126 34.5765 112.588 34.3902 112.96 34.0175C113.333 33.6448 113.519 33.1833 113.519 32.633C113.519 32.0827 113.333 31.6212 112.96 31.2485C112.588 30.8758 112.126 30.6895 111.576 30.6895C111.19 30.6895 110.839 30.787 110.523 30.982C110.211 31.177 109.977 31.437 109.821 31.762V33.504C109.977 33.829 110.211 34.089 110.523 34.284C110.839 34.479 111.19 34.5765 111.576 34.5765ZM111.953 29.11C112.586 29.11 113.16 29.2703 113.675 29.591C114.191 29.9073 114.592 30.3342 114.878 30.8715C115.168 31.4088 115.313 31.996 115.313 32.633C115.313 33.27 115.168 33.8572 114.878 34.3945C114.592 34.9318 114.191 35.3608 113.675 35.6815C113.16 35.9978 112.586 36.156 111.953 36.156C111.099 36.156 110.389 35.8787 109.821 35.324V39.016H108.053V29.266H109.821V29.942C110.389 29.3873 111.099 29.11 111.953 29.11ZM119.892 34.5765C120.278 34.5765 120.627 34.479 120.939 34.284C121.255 34.089 121.491 33.829 121.647 33.504V31.762C121.491 31.437 121.255 31.177 120.939 30.982C120.627 30.787 120.278 30.6895 119.892 30.6895C119.342 30.6895 118.881 30.8758 118.508 31.2485C118.135 31.6212 117.949 32.0827 117.949 32.633C117.949 33.1833 118.135 33.6448 118.508 34.0175C118.881 34.3902 119.342 34.5765 119.892 34.5765ZM119.515 29.11C120.369 29.11 121.08 29.3873 121.647 29.942V29.266H123.415V36H121.647V35.324C121.08 35.8787 120.369 36.156 119.515 36.156C118.883 36.156 118.309 35.9978 117.793 35.6815C117.277 35.3608 116.874 34.9318 116.584 34.3945C116.298 33.8572 116.155 33.27 116.155 32.633C116.155 31.996 116.298 31.4088 116.584 30.8715C116.874 30.3342 117.277 29.9073 117.793 29.591C118.309 29.2703 118.883 29.11 119.515 29.11ZM128.501 30.6895C128.181 30.6895 127.884 30.787 127.611 30.982C127.338 31.177 127.11 31.4435 126.928 31.7815V36H125.141V29.266H126.928V30.0915C127.418 29.4372 128.018 29.11 128.729 29.11C128.959 29.11 129.162 29.1577 129.34 29.253L129.216 30.8195C128.965 30.7328 128.727 30.6895 128.501 30.6895ZM133.591 34.5765C133.976 34.5765 134.325 34.479 134.637 34.284C134.953 34.089 135.19 33.829 135.346 33.504V31.762C135.19 31.437 134.953 31.177 134.637 30.982C134.325 30.787 133.976 30.6895 133.591 30.6895C133.04 30.6895 132.579 30.8758 132.206 31.2485C131.833 31.6212 131.647 32.0827 131.647 32.633C131.647 33.1833 131.833 33.6448 132.206 34.0175C132.579 34.3902 133.04 34.5765 133.591 34.5765ZM133.214 29.11C134.067 29.11 134.778 29.3873 135.346 29.942V29.266H137.114V36H135.346V35.324C134.778 35.8787 134.067 36.156 133.214 36.156C132.581 36.156 132.007 35.9978 131.491 35.6815C130.975 35.3608 130.572 34.9318 130.282 34.3945C129.996 33.8572 129.853 33.27 129.853 32.633C129.853 31.996 129.996 31.4088 130.282 30.8715C130.572 30.3342 130.975 29.9073 131.491 29.591C132.007 29.2703 132.581 29.11 133.214 29.11ZM145.011 30.8195V33.6665C145.011 33.9915 145.089 34.2298 145.245 34.3815C145.405 34.5288 145.67 34.6025 146.038 34.6025C146.268 34.6025 146.48 34.5917 146.675 34.57V36.065C146.393 36.1257 146.083 36.156 145.745 36.156C144.064 36.156 143.223 35.363 143.223 33.777V30.8195H142.177V29.266H143.223V27.472L145.011 27.316V29.266H146.597V30.8195H145.011ZM147.911 36V29.266H149.698V36H147.911ZM148.054 28.2065C147.85 28.0072 147.748 27.7623 147.748 27.472C147.748 27.1817 147.85 26.9368 148.054 26.7375C148.257 26.5382 148.509 26.4385 148.808 26.4385C149.107 26.4385 149.358 26.5382 149.562 26.7375C149.765 26.9368 149.867 27.1817 149.867 27.472C149.867 27.7623 149.765 28.0072 149.562 28.2065C149.358 28.4058 149.107 28.5055 148.808 28.5055C148.509 28.5055 148.257 28.4058 148.054 28.2065Z" fill="#F9F2E1"/>
</svg>
