<svg width="203" height="49" viewBox="0 0 203 49" fill="none" xmlns="http://www.w3.org/2000/svg">
<path d="M3.89289 2.25593L3.49512 44.1135L200.625 47.6741L201.023 5.81652L3.89289 2.25593Z" fill="#009167"/>
<path d="M49.1104 46.9507C49.3304 46.9664 49.4384 46.9507 49.1104 46.9507V46.9507Z" fill="#009167"/>
<path d="M66.3926 0.961737C66.459 0.961737 66.4922 0.961737 66.5587 0.961737C66.6791 0.910218 66.7912 0.864424 66.9033 0.830078L66.3926 0.961737Z" fill="#009167"/>
<path d="M93.7178 1.80313C93.78 1.80885 93.8257 1.81458 93.8838 1.8203C93.8713 1.78595 93.9045 1.75161 93.7178 1.80313Z" fill="#009167"/>
<path d="M1.09595 0.875732C1.08748 1.1505 1.10442 1.31078 1.12982 1.43671C1.11289 1.27071 1.10019 1.09898 1.09595 0.875732Z" fill="#009167"/>
<path d="M99.1937 47.5632C99.1937 47.5632 99.1231 47.5632 99.0732 47.5632C99.1687 47.5747 99.2684 47.5861 99.3681 47.6033L99.1937 47.5632Z" fill="#009167"/>
<path d="M98.641 47.649C98.039 47.5975 98.8071 47.5746 99.0728 47.5689C98.4085 47.483 97.74 47.4658 97.0674 47.4887C97.0715 47.5689 98.3462 47.5803 98.641 47.649Z" fill="#009167"/>
<path d="M190.042 48.9714L189.768 49.0001C189.88 48.9943 189.963 48.9829 190.042 48.9714Z" fill="#009167"/>
<path d="M7.5248 4.57935C7.51209 4.58492 7.4909 4.59048 7.48242 4.59605C7.51209 4.60162 7.52057 4.59049 7.5248 4.57935Z" fill="#009167"/>
<path d="M175.7 48.6279L175.542 48.7596C175.683 48.7081 175.712 48.668 175.7 48.6279Z" fill="#009167"/>
<path d="M66.9033 0.835698L67.1025 0.78418C67.0319 0.795628 66.9697 0.812801 66.9033 0.835698Z" fill="#009167"/>
<path d="M118.966 2.34692C118.974 2.38699 119.032 2.42134 119.099 2.44996C119.132 2.44996 119.153 2.44996 119.169 2.44996L118.966 2.34692Z" fill="#009167"/>
<path d="M200.512 36.4294C200.537 36.4237 200.562 36.4065 200.591 36.3836L200.454 36.0344C200.462 36.2176 200.483 36.3435 200.512 36.4294Z" fill="#009167"/>
<path d="M153.594 3.55479C153.623 3.53761 153.706 3.52616 153.714 3.50899C153.125 3.45175 151.559 3.4174 149.562 3.38306L149.438 3.54334L153.594 3.55479Z" fill="#009167"/>
<path d="M191.432 8.09416L187.745 7.69346C190.44 7.70491 192.811 7.73925 194.978 7.78505C195.522 7.7965 196.049 7.80794 196.568 7.81939C196.697 7.82512 196.826 7.82512 196.955 7.83084L197.125 7.83657H197.166C197.22 7.83657 197.27 7.84229 197.324 7.84229C197.523 7.85374 197.714 7.86519 197.901 7.87091C197.889 8.02547 197.876 8.18002 197.864 8.33458L197.86 8.39182L197.856 8.62652C197.851 8.81542 197.851 9.00432 197.847 9.19895C197.843 9.58248 197.839 9.96601 197.839 10.3553C197.831 11.9123 197.86 13.5551 197.947 15.4327L197.843 15.0492C197.719 16.0452 198.815 16.6291 197.366 27.6598H197.316C197.32 28.0433 197.42 28.0433 197.283 28.8047L197.602 26.8985C197.714 28.0433 197.939 29.0508 197.959 30.5735C197.901 30.894 197.802 31.0085 197.723 31.0372L197.768 34.7808L197.44 35.92C197.602 37.0648 198.275 36.5554 197.872 39.6121C198.345 38.4673 198.138 41.1348 198.375 40.7627C198.316 40.9173 198.225 41.2665 198.146 41.547C198.184 43.3673 198.279 46.7961 198.512 47.6491C198.512 47.6491 199.558 40.5452 200.073 38.6447C199.923 41.2035 200.123 39.3202 200.285 38.8165L200.172 38.6447C200.301 37.1106 200.592 37.1164 200.683 36.3493C200.658 36.3493 200.629 36.3722 200.6 36.3951L200.637 36.4924C200.583 36.5611 200.55 36.521 200.521 36.4409C200.459 36.4581 200.409 36.3894 200.43 35.9715L200.459 36.0516C200.422 35.4105 200.48 34.3057 200.505 33.8249L200.75 33.8192C200.293 32.6743 201.534 26.1887 201.563 24.6603C201.887 23.1319 201.518 21.22 201.692 19.3081C201.8 16.257 202.066 17.7854 202.29 16.257C202.46 14.3451 201.999 16.6405 201.991 15.8735L202.352 13.5838C202.369 14.9175 202.523 14.1963 202.622 13.9558C202.651 12.9655 202.788 11.689 202.855 10.5842C202.888 10.0347 202.905 9.51951 202.884 9.11308C202.871 8.90701 202.851 8.72956 202.817 8.58073C202.801 8.51776 202.78 8.409 202.759 8.32886C202.738 8.24872 202.709 8.18002 202.68 8.12851C202.805 6.34825 202.917 5.3007 203 4.55082C201.858 4.47068 201.24 4.41343 199.844 4.37909C200.264 4.41916 200.887 4.45923 201.389 4.49358C201.891 4.53365 202.273 4.56799 202.236 4.60234C201.7 4.55654 201.347 4.53365 201.148 4.52792C200.949 4.5222 200.903 4.52792 200.953 4.54509C201.057 4.57944 201.543 4.64241 201.987 4.6653C201.065 4.68248 199.554 4.63668 197.669 4.55654C197.552 4.55082 197.432 4.54509 197.312 4.53937C197.254 4.53937 197.195 4.53365 197.137 4.53365L197.013 4.52792C196.847 4.51647 196.672 4.51075 196.502 4.4993C196.157 4.4764 195.8 4.45923 195.443 4.43633C194.725 4.39054 193.986 4.34474 193.263 4.30467C190.373 4.12722 187.72 3.98411 187.467 4.16157V4.09287C186.902 4.35047 187.803 4.63096 186.113 4.75117L184.992 4.60806L183.298 4.69393C182.165 4.58516 182.721 4.5222 182.725 4.48785C179.968 4.56227 176.119 4.34474 172.781 4.24743L176.31 5.04883C173.495 4.82558 168.413 4.39054 167.848 4.61951L166.158 4.33902C160.512 3.76086 162.214 4.47068 159.959 4.2875L157.124 3.96694L159.947 4.02418C157.124 3.83528 155.994 3.72652 153.748 3.509L153.723 3.51472C153.877 3.52617 153.976 3.54334 153.997 3.56051H153.603C153.258 3.68645 151.784 3.75514 149.795 3.70935C146.972 3.61776 144.759 3.77804 140.249 3.41168L139.12 3.66928L135.732 3.43458L135.736 3.21706C139.054 3.29147 145.298 3.32009 149.563 3.38306L149.637 3.28575C147.109 3.23995 144.231 3.28575 142.558 3.23423C141.744 3.17699 139.66 2.90794 141.175 2.78773L139.61 2.97664C131.169 2.8507 131.115 2.85643 122.308 2.45L123.072 2.57593C121.324 2.61028 119.58 2.6389 119.099 2.45572C113.809 2.32407 108.332 2.08365 104.898 1.74591L104.143 1.99206C103.026 1.95771 101.357 1.53411 100.809 1.88902L98.4212 1.95771C96.8932 1.91192 95.959 2.04358 94.2193 1.8604C94.2151 1.8604 94.211 1.8604 94.211 1.8604C94.103 1.84895 93.9909 1.8375 93.883 1.82605C93.883 1.83178 93.8913 1.84322 93.9037 1.84895C90.4492 1.6715 93.937 2.08365 89.98 1.8604C88.7136 1.65432 88.5724 2.16379 86.6459 2.0722L84.7152 1.66577C81.2233 1.391 80.6212 1.75164 75.5598 1.66005C73.1308 1.48259 71.9599 1.14486 73.5709 0.892991C71.3537 1.19065 72.562 1.09907 69.6223 1.20783C69.1697 1.059 69.4853 1.0361 70.133 0.921612C67.5255 0.709813 68.522 1.01893 66.5581 0.973131C65.9851 1.225 65.3207 1.63715 64.6813 1.63715L65.4411 1.73446C63.3568 1.8375 61.0814 1.8604 58.6649 1.68867L58.7563 1.55701L56.1778 1.57991L56.0159 1.40818L52.3371 1.39673L52.8395 1.45397C51.9759 1.4597 49.14 1.46542 47.5166 1.35093L47.5747 1.25935C43.0032 0.881542 39.2248 1.2021 33.8686 1.13341L34.5745 0.955958C32.7517 0.73271 34.0721 1.24217 31.8964 1.11051L31.7884 0.870094C29.8702 1.14486 29.3138 0.761332 27.9934 0.618224L28.6079 0.938785L26.125 0.830023C23.3887 0.675467 24.4475 0.406425 24.8503 0.251869L22.986 0.463668L22.6248 0.183178C21.2587 0.475117 21.2629 0.108762 18.8754 0.234696C18.6927 0.108762 19.2948 0.057243 18.4851 0L14.5448 0.314836L16.9198 0.188902L16.6291 0.583879C14.1545 0.841472 13.2825 0.480841 11.5138 0.560981L12.7303 0.463668C9.84876 0.509463 9.69514 0.337734 8.07167 0.217523C8.57407 0.303388 9.34636 0.423598 8.17962 0.457944C8.07167 0.457944 7.98448 0.457944 7.91389 0.45222C7.87652 0.45222 7.8433 0.446495 7.81424 0.446495C7.76441 0.440771 7.72289 0.440771 7.68137 0.435047C7.51529 0.417874 7.41564 0.400701 7.32014 0.372079C7.12499 0.326285 6.934 0.269042 6.20323 0.234696C6.09942 0.337734 5.48076 0.41215 4.60882 0.457944C3.73273 0.49229 2.59921 0.503738 1.34943 0.469393C1.34113 0.887266 1.31206 1.31086 1.27054 1.72301C1.21656 1.6715 1.16259 1.59708 1.12937 1.4368C1.15843 1.72874 1.1958 1.95771 1.21656 2.22675C1.23732 2.49579 1.23317 2.79918 1.18335 3.26285C1.03802 3.0396 0.896852 2.79918 0.751529 2.54731C0.884396 3.24568 1.01726 3.9097 1.15013 4.53365C1.14183 4.61379 1.13352 4.69393 1.12937 4.77407C1.12522 4.83131 1.12107 4.88855 1.11691 4.9458C1.11276 5.04311 1.11276 5.14614 1.11691 5.24346C1.12522 5.44381 1.14183 5.63843 1.15428 5.81016C1.17919 6.15362 1.18335 6.39404 1.03387 6.34252L0.950829 5.93037L0.79305 11.4085L0.444274 11.4772C0.917613 12.0268 0.232517 14.4596 0.834571 14.2879C0.498251 15.3182 1.02557 18.3693 0.35708 17.7453C0.269886 21.3459 0.901004 23.3036 0.531468 27.6713C-0.0581293 29.2225 0.087194 33.4986 0 36.3092C0.0539772 37.7689 0.0996502 39.0912 0.149475 40.3563C0.161932 40.6711 0.174388 40.986 0.186844 41.2951C0.195148 41.8332 0.207605 42.3655 0.215909 42.8979C0.232517 44.0084 0.253278 45.1132 0.269886 46.2294C1.69821 46.2409 3.13898 46.2466 4.60467 46.2581C5.32714 46.2638 6.0579 46.2695 6.79698 46.2752C6.97967 46.2752 7.16651 46.2752 7.34921 46.281C7.45301 46.281 7.56096 46.281 7.66892 46.281C7.87652 46.281 8.08413 46.281 8.29588 46.281C9.97333 46.281 11.7504 46.2867 13.6936 46.2867C18.672 46.9221 26.125 46.3268 31.4853 46.7275L32.9552 46.5386C36.5177 46.945 41.9611 46.6244 46.9602 47.048C48.185 46.9736 48.8286 46.9564 49.1151 46.9564C48.8867 46.9393 48.5421 46.8935 48.4383 46.7561C49.8666 46.8763 52.7565 46.8076 52.5489 47.0824L52.1877 47.1053C51.9759 47.3743 56.5224 47.0537 58.1127 47.3228L57.2408 47.0137L59.9438 47.111L59.2172 47.1568C70.9717 46.7217 76.2739 47.7464 87.3144 47.3514C85.8487 47.6433 89.4901 47.2255 89.6312 47.5747C92.409 48.0669 94.7881 47.5747 97.0718 47.4945C97.0718 47.4773 97.1009 47.4602 97.2296 47.4315L101.216 47.546C98.8281 47.9467 104.093 47.2312 101.901 47.5689C112.298 48.0898 125.871 47.9983 137.908 48.3646L137.38 48.2387C140.432 48.3131 144.231 48.2444 146.548 48.4676C148.865 48.6909 151.618 48.273 152.519 48.2673C155.06 48.1185 157.364 48.5478 156.276 48.5077C158.992 48.502 161.55 48.1471 165.316 48.3875C166.599 48.7825 175.596 48.2043 175.708 48.6279L175.75 48.5936C180.57 48.9771 185.129 48.5535 190.324 48.9199C190.324 48.9199 190.224 48.9485 190.05 48.9771L200.637 47.8895L197.64 46.4241L188.484 45.1132L163.638 44.9129L143.816 44.1057L95.5604 43.3845L92.11 43.6421C82.635 42.9151 70.4693 43.3329 60.2552 42.7548L60.0393 43.0238C57.1619 42.9895 57.357 42.8235 56.647 42.7605C47.7574 42.6174 38.7764 42.5087 29.8702 42.3999C25.415 42.3426 20.9805 42.2854 16.5835 42.2282C13.2244 42.1766 9.89444 42.1308 6.61013 42.085C6.61844 41.3065 6.63089 40.5338 6.6392 39.7667C6.66411 38.307 6.68902 36.8645 6.71393 35.4277C6.77622 32.5598 6.85926 29.7549 6.96721 27.0072C7.24956 25.4388 7.13745 20.6475 7.43225 19.4168C7.21219 16.7607 7.11254 14.0303 7.08762 11.294C7.07517 9.92593 7.07517 8.56355 7.08762 7.20689C7.09593 6.53143 7.10423 5.85596 7.11253 5.18049L7.11669 4.95152L7.12084 4.91145L7.12499 4.83131C7.12914 4.77979 7.1333 4.72255 7.13745 4.67103L7.18312 4.72255L7.1416 4.52792L7.46131 4.50502C7.50283 4.52792 7.52359 4.56227 7.51944 4.57944C7.57342 4.55082 7.65646 4.52792 7.75611 4.51647C7.74781 4.51647 7.80178 4.51647 7.835 4.51647H7.94711C8.02184 4.51647 8.09658 4.51647 8.17132 4.51647C8.3208 4.51647 8.47442 4.51647 8.62805 4.51647C8.93531 4.51647 9.25086 4.5222 9.57057 4.5222C10.8494 4.53365 12.2196 4.56799 13.6189 4.61951C16.4174 4.7111 19.3321 4.84848 21.8815 4.9458L21.5826 4.96869C51.3323 5.5583 78.9604 5.54685 108.461 6.46273C122.175 7.15537 138.14 6.82909 153.877 7.48738C156.771 7.80222 188.617 8.16858 191.432 8.09416Z" fill="#009167"/>
<path d="M197.715 31.0314V30.9456C197.545 30.9456 197.607 31.0715 197.715 31.0314Z" fill="#009167"/>
<path d="M172.56 4.23594C172.631 4.23594 172.701 4.24166 172.768 4.24166L171.987 4.06421L172.56 4.23594Z" fill="#009167"/>
<path d="M202.659 15.1006C202.726 13.8184 202.685 13.7612 202.614 13.9386C202.601 14.4023 202.609 14.8087 202.659 15.1006Z" fill="#009167"/>
<path d="M197.938 41.5125C197.917 42.188 198.021 41.9304 198.137 41.5354C198.125 40.8485 198.117 40.3677 198.117 40.3677C198.075 40.7512 197.984 41.1233 197.938 41.5125Z" fill="#009167"/>
<path d="M200.275 38.8051L200.412 39.0169C200.383 38.6219 200.329 38.6391 200.275 38.8051Z" fill="#009167"/>
<path d="M32.5311 18.9H35.7486C36.715 18.9 37.4863 19.1687 38.0626 19.706C38.639 20.239 38.9271 20.9475 38.9271 21.8315C38.9271 22.5118 38.7516 23.0925 38.4006 23.5735C38.0496 24.0502 37.5621 24.3817 36.9381 24.568L39.1416 28H37.1266L35.0856 24.763H34.3641V28H32.5311V18.9ZM35.6056 20.421H34.3641V23.2875H35.6056C36.0736 23.2875 36.4355 23.1575 36.6911 22.8975C36.9511 22.6375 37.0811 22.2908 37.0811 21.8575C37.0811 21.4155 36.9511 21.0667 36.6911 20.811C36.4355 20.551 36.0736 20.421 35.6056 20.421ZM41.6118 25.166C41.6898 25.634 41.9065 26.0132 42.2618 26.3035C42.6215 26.5895 43.0548 26.7325 43.5618 26.7325C44.2682 26.7325 44.9052 26.453 45.4728 25.894L46.5453 26.934C45.7957 27.7487 44.8033 28.156 43.5683 28.156C43.0223 28.156 42.5132 28.065 42.0408 27.883C41.5685 27.701 41.1698 27.4518 40.8448 27.1355C40.5198 26.8192 40.2642 26.4465 40.0778 26.0175C39.8958 25.5842 39.8048 25.1227 39.8048 24.633C39.8048 24.1477 39.898 23.6883 40.0843 23.255C40.2707 22.8217 40.5242 22.449 40.8448 22.137C41.1698 21.8207 41.5598 21.5715 42.0148 21.3895C42.4698 21.2032 42.953 21.11 43.4643 21.11C44.136 21.11 44.7427 21.2638 45.2843 21.5715C45.826 21.8748 46.2463 22.2865 46.5453 22.8065C46.8443 23.3222 46.9938 23.892 46.9938 24.516C46.9938 24.7413 46.9678 24.958 46.9158 25.166H41.6118ZM43.4513 22.5335C43.031 22.5335 42.6562 22.657 42.3268 22.904C42.0018 23.151 41.7787 23.4803 41.6573 23.892H45.1543C45.0547 23.4847 44.8532 23.1575 44.5498 22.9105C44.2465 22.6592 43.8803 22.5335 43.4513 22.5335ZM53.3335 25.504V23.762C53.1775 23.437 52.9413 23.177 52.625 22.982C52.313 22.787 51.9641 22.6895 51.5785 22.6895C51.0281 22.6895 50.5666 22.8758 50.194 23.2485C49.8213 23.6212 49.635 24.0827 49.635 24.633C49.635 25.1833 49.8213 25.6448 50.194 26.0175C50.5666 26.3902 51.0281 26.5765 51.5785 26.5765C51.9641 26.5765 52.313 26.479 52.625 26.284C52.9413 26.089 53.1775 25.829 53.3335 25.504ZM53.3335 21.942V21.266H55.1015V27.6035C55.1015 28.6348 54.7873 29.4603 54.159 30.08C53.5306 30.704 52.651 31.016 51.52 31.016C50.883 31.016 50.285 30.9012 49.726 30.6715C49.1713 30.4462 48.7011 30.1298 48.3155 29.7225L49.3425 28.546C49.9708 29.1743 50.6706 29.4885 51.442 29.4885C52.0183 29.4885 52.4776 29.3303 52.82 29.014C53.1623 28.702 53.3335 28.2708 53.3335 27.7205V27.2785C52.7701 27.8332 52.0595 28.1105 51.2015 28.1105C50.5688 28.1105 49.9946 27.9545 49.479 27.6425C48.9633 27.3305 48.5603 26.9102 48.27 26.3815C47.984 25.8485 47.841 25.2657 47.841 24.633C47.841 23.996 47.984 23.4088 48.27 22.8715C48.5603 22.3342 48.9633 21.9073 49.479 21.591C49.9946 21.2703 50.5688 21.11 51.2015 21.11C52.0551 21.11 52.7658 21.3873 53.3335 21.942ZM56.8594 28V21.266H58.6469V28H56.8594ZM56.5799 20.304L58.2764 18.081H60.0704L58.2829 20.304H56.5799ZM59.9582 27.038L60.8552 25.9265C61.0718 26.1735 61.3275 26.3685 61.6222 26.5115C61.9212 26.6545 62.2353 26.726 62.5647 26.726C62.8723 26.726 63.1128 26.6653 63.2862 26.544C63.4638 26.4227 63.5527 26.2602 63.5527 26.0565C63.5527 25.8485 63.466 25.6817 63.2927 25.556C63.1193 25.426 62.8203 25.3177 62.3957 25.231C60.9353 24.932 60.2052 24.2127 60.2052 23.073C60.2052 22.501 60.4283 22.0308 60.8747 21.6625C61.3253 21.2942 61.9125 21.11 62.6362 21.11C63.0868 21.11 63.5202 21.1945 63.9362 21.3635C64.3522 21.5282 64.7162 21.7492 65.0282 22.0265L64.1702 23.1445C63.6805 22.7415 63.2212 22.54 62.7922 22.54C62.5452 22.54 62.3437 22.592 62.1877 22.696C62.0317 22.7957 61.9537 22.93 61.9537 23.099C61.9537 23.489 62.3112 23.7577 63.0262 23.905C63.8018 24.061 64.3738 24.3188 64.7422 24.6785C65.1148 25.0382 65.3012 25.504 65.3012 26.076C65.3012 26.6827 65.065 27.181 64.5927 27.571C64.1203 27.961 63.4898 28.156 62.7012 28.156C62.1422 28.156 61.6222 28.0585 61.1412 27.8635C60.6602 27.6642 60.2658 27.389 59.9582 27.038ZM68.6989 22.8195V25.6665C68.6989 25.9915 68.7769 26.2298 68.9329 26.3815C69.0933 26.5288 69.3576 26.6025 69.7259 26.6025C69.9556 26.6025 70.1679 26.5917 70.3629 26.57V28.065C70.0813 28.1257 69.7714 28.156 69.4334 28.156C67.7521 28.156 66.9114 27.363 66.9114 25.777V22.8195H65.8649V21.266H66.9114V19.472L68.6989 19.316V21.266H70.2849V22.8195H68.6989ZM74.9267 22.6895C74.606 22.6895 74.3092 22.787 74.0362 22.982C73.7632 23.177 73.5357 23.4435 73.3537 23.7815V28H71.5662V21.266H73.3537V22.0915C73.8433 21.4372 74.4435 21.11 75.1542 21.11C75.3838 21.11 75.5875 21.1577 75.7652 21.253L75.6417 22.8195C75.3903 22.7328 75.152 22.6895 74.9267 22.6895ZM80.016 26.5765C80.4016 26.5765 80.7505 26.479 81.0625 26.284C81.3788 26.089 81.615 25.829 81.771 25.504V23.762C81.615 23.437 81.3788 23.177 81.0625 22.982C80.7505 22.787 80.4016 22.6895 80.016 22.6895C79.4656 22.6895 79.0041 22.8758 78.6315 23.2485C78.2588 23.6212 78.0725 24.0827 78.0725 24.633C78.0725 25.1833 78.2588 25.6448 78.6315 26.0175C79.0041 26.3902 79.4656 26.5765 80.016 26.5765ZM79.639 21.11C80.4926 21.11 81.2033 21.3873 81.771 21.942V21.266H83.539V28H81.771V27.324C81.2033 27.8787 80.4926 28.156 79.639 28.156C79.0063 28.156 78.4321 27.9978 77.9165 27.6815C77.4008 27.3608 76.9978 26.9318 76.7075 26.3945C76.4215 25.8572 76.2785 25.27 76.2785 24.633C76.2785 23.996 76.4215 23.4088 76.7075 22.8715C76.9978 22.3342 77.4008 21.9073 77.9165 21.591C78.4321 21.2703 79.0063 21.11 79.639 21.11ZM87.4499 22.8195V25.6665C87.4499 25.9915 87.5279 26.2298 87.6839 26.3815C87.8443 26.5288 88.1086 26.6025 88.4769 26.6025C88.7066 26.6025 88.9189 26.5917 89.1139 26.57V28.065C88.8323 28.1257 88.5224 28.156 88.1844 28.156C86.5031 28.156 85.6624 27.363 85.6624 25.777V22.8195H84.6159V21.266H85.6624V19.472L87.4499 19.316V21.266H89.0359V22.8195H87.4499ZM91.6821 25.166C91.7601 25.634 91.9768 26.0132 92.3321 26.3035C92.6918 26.5895 93.1251 26.7325 93.6321 26.7325C94.3385 26.7325 94.9755 26.453 95.5431 25.894L96.6156 26.934C95.866 27.7487 94.8736 28.156 93.6386 28.156C93.0926 28.156 92.5835 28.065 92.1111 27.883C91.6388 27.701 91.2401 27.4518 90.9151 27.1355C90.5901 26.8192 90.3345 26.4465 90.1481 26.0175C89.9661 25.5842 89.8751 25.1227 89.8751 24.633C89.8751 24.1477 89.9683 23.6883 90.1546 23.255C90.341 22.8217 90.5945 22.449 90.9151 22.137C91.2401 21.8207 91.6301 21.5715 92.0851 21.3895C92.5401 21.2032 93.0233 21.11 93.5346 21.11C94.2063 21.11 94.813 21.2638 95.3546 21.5715C95.8963 21.8748 96.3166 22.2865 96.6156 22.8065C96.9146 23.3222 97.0641 23.892 97.0641 24.516C97.0641 24.7413 97.0381 24.958 96.9861 25.166H91.6821ZM93.5216 22.5335C93.1013 22.5335 92.7265 22.657 92.3971 22.904C92.0721 23.151 91.849 23.4803 91.7276 23.892H95.2246C95.125 23.4847 94.9235 23.1575 94.6201 22.9105C94.3168 22.6592 93.9506 22.5335 93.5216 22.5335ZM104.688 31.016H102.822L104.005 28L101.535 21.266H103.394L104.889 25.738L106.41 21.266H108.269L104.688 31.016ZM116.477 26.5765C116.863 26.5765 117.211 26.479 117.523 26.284C117.84 26.089 118.076 25.829 118.232 25.504V23.762C118.076 23.437 117.84 23.177 117.523 22.982C117.211 22.787 116.863 22.6895 116.477 22.6895C115.927 22.6895 115.465 22.8758 115.092 23.2485C114.72 23.6212 114.533 24.0827 114.533 24.633C114.533 25.1833 114.72 25.6448 115.092 26.0175C115.465 26.3902 115.927 26.5765 116.477 26.5765ZM116.1 21.11C116.954 21.11 117.664 21.3873 118.232 21.942V18.51H120V28H118.232V27.324C117.664 27.8787 116.954 28.156 116.1 28.156C115.467 28.156 114.893 27.9978 114.377 27.6815C113.862 27.3608 113.459 26.9318 113.168 26.3945C112.882 25.8572 112.739 25.27 112.739 24.633C112.739 23.996 112.882 23.4088 113.168 22.8715C113.459 22.3342 113.862 21.9073 114.377 21.591C114.893 21.2703 115.467 21.11 116.1 21.11ZM121.758 28V21.266H123.545V28H121.758ZM121.901 20.2065C121.697 20.0072 121.595 19.7623 121.595 19.472C121.595 19.1817 121.697 18.9368 121.901 18.7375C122.105 18.5382 122.356 18.4385 122.655 18.4385C122.954 18.4385 123.205 18.5382 123.409 18.7375C123.613 18.9368 123.714 19.1817 123.714 19.472C123.714 19.7623 123.613 20.0072 123.409 20.2065C123.205 20.4058 122.954 20.5055 122.655 20.5055C122.356 20.5055 122.105 20.4058 121.901 20.2065ZM124.857 27.038L125.754 25.9265C125.97 26.1735 126.226 26.3685 126.521 26.5115C126.82 26.6545 127.134 26.726 127.463 26.726C127.771 26.726 128.011 26.6653 128.185 26.544C128.362 26.4227 128.451 26.2602 128.451 26.0565C128.451 25.8485 128.364 25.6817 128.191 25.556C128.018 25.426 127.719 25.3177 127.294 25.231C125.834 24.932 125.104 24.2127 125.104 23.073C125.104 22.501 125.327 22.0308 125.773 21.6625C126.224 21.2942 126.811 21.11 127.535 21.11C127.985 21.11 128.419 21.1945 128.835 21.3635C129.251 21.5282 129.615 21.7492 129.927 22.0265L129.069 23.1445C128.579 22.7415 128.12 22.54 127.691 22.54C127.444 22.54 127.242 22.592 127.086 22.696C126.93 22.7957 126.852 22.93 126.852 23.099C126.852 23.489 127.21 23.7577 127.925 23.905C128.7 24.061 129.272 24.3188 129.641 24.6785C130.013 25.0382 130.2 25.504 130.2 26.076C130.2 26.6827 129.963 27.181 129.491 27.571C129.019 27.961 128.388 28.156 127.6 28.156C127.041 28.156 126.521 28.0585 126.04 27.8635C125.559 27.6642 125.164 27.389 124.857 27.038ZM135.19 18.575V19.9985C134.995 19.9768 134.793 19.966 134.585 19.966C134.221 19.966 133.959 20.0418 133.799 20.1935C133.639 20.3452 133.558 20.5813 133.558 20.902V21.266H135.19V22.8195H133.558V28H131.771V22.8195H130.763V21.266H131.771V20.8825C131.771 19.3008 132.653 18.51 134.416 18.51C134.655 18.51 134.913 18.5317 135.19 18.575ZM139.698 22.6895C139.377 22.6895 139.081 22.787 138.808 22.982C138.535 23.177 138.307 23.4435 138.125 23.7815V28H136.338V21.266H138.125V22.0915C138.615 21.4372 139.215 21.11 139.926 21.11C140.155 21.11 140.359 21.1577 140.537 21.253L140.413 22.8195C140.162 22.7328 139.923 22.6895 139.698 22.6895ZM146.148 25.647V21.266H147.935V28H146.148V27.259C145.918 27.532 145.634 27.7508 145.296 27.9155C144.962 28.0758 144.616 28.156 144.256 28.156C143.463 28.156 142.815 27.9025 142.313 27.3955C141.814 26.8885 141.565 26.2277 141.565 25.413V21.266H143.353V25.2375C143.353 25.6188 143.474 25.9373 143.717 26.193C143.964 26.4487 144.289 26.5765 144.692 26.5765C144.965 26.5765 145.235 26.4855 145.504 26.3035C145.773 26.1215 145.987 25.9027 146.148 25.647ZM151.917 22.8195V25.6665C151.917 25.9915 151.995 26.2298 152.151 26.3815C152.311 26.5288 152.575 26.6025 152.944 26.6025C153.173 26.6025 153.386 26.5917 153.581 26.57V28.065C153.299 28.1257 152.989 28.156 152.651 28.156C150.97 28.156 150.129 27.363 150.129 25.777V22.8195H149.083V21.266H150.129V19.472L151.917 19.316V21.266H153.503V22.8195H151.917ZM158.079 26.5765C158.465 26.5765 158.814 26.479 159.126 26.284C159.442 26.089 159.678 25.829 159.834 25.504V23.762C159.678 23.437 159.442 23.177 159.126 22.982C158.814 22.787 158.465 22.6895 158.079 22.6895C157.529 22.6895 157.068 22.8758 156.695 23.2485C156.322 23.6212 156.136 24.0827 156.136 24.633C156.136 25.1833 156.322 25.6448 156.695 26.0175C157.068 26.3902 157.529 26.5765 158.079 26.5765ZM157.702 21.11C158.556 21.11 159.267 21.3873 159.834 21.942V21.266H161.602V28H159.834V27.324C159.267 27.8787 158.556 28.156 157.702 28.156C157.07 28.156 156.496 27.9978 155.98 27.6815C155.464 27.3608 155.061 26.9318 154.771 26.3945C154.485 25.8572 154.342 25.27 154.342 24.633C154.342 23.996 154.485 23.4088 154.771 22.8715C155.061 22.3342 155.464 21.9073 155.98 21.591C156.496 21.2703 157.07 21.11 157.702 21.11Z" fill="#F9F2E1"/>
</svg>
